%TF.GenerationSoftware,KiCad,Pcbnew,10.0.3*%
%TF.CreationDate,2026-06-14T16:41:43-04:00*%
%TF.ProjectId,ArdNanoESP32_DevBoard,4172644e-616e-46f4-9553-5033325f4465,rev?*%
%TF.SameCoordinates,Original*%
%TF.FileFunction,Copper,L2,Bot*%
%TF.FilePolarity,Positive*%
%FSLAX46Y46*%
G04 Gerber Fmt 4.6, Leading zero omitted, Abs format (unit mm)*
G04 Created by KiCad (PCBNEW 10.0.3) date 2026-06-14 16:41:43*
%MOMM*%
%LPD*%
G01*
G04 APERTURE LIST*
G04 Aperture macros list*
%AMRoundRect*
0 Rectangle with rounded corners*
0 $1 Rounding radius*
0 $2 $3 $4 $5 $6 $7 $8 $9 X,Y pos of 4 corners*
0 Add a 4 corners polygon primitive as box body*
4,1,4,$2,$3,$4,$5,$6,$7,$8,$9,$2,$3,0*
0 Add four circle primitives for the rounded corners*
1,1,$1+$1,$2,$3*
1,1,$1+$1,$4,$5*
1,1,$1+$1,$6,$7*
1,1,$1+$1,$8,$9*
0 Add four rect primitives between the rounded corners*
20,1,$1+$1,$2,$3,$4,$5,0*
20,1,$1+$1,$4,$5,$6,$7,0*
20,1,$1+$1,$6,$7,$8,$9,0*
20,1,$1+$1,$8,$9,$2,$3,0*%
G04 Aperture macros list end*
%TA.AperFunction,ComponentPad*%
%ADD10C,1.700000*%
%TD*%
%TA.AperFunction,ComponentPad*%
%ADD11R,1.700000X1.700000*%
%TD*%
%TA.AperFunction,ComponentPad*%
%ADD12RoundRect,0.750000X1.250000X0.750000X-1.250000X0.750000X-1.250000X-0.750000X1.250000X-0.750000X0*%
%TD*%
%TA.AperFunction,ComponentPad*%
%ADD13C,1.800000*%
%TD*%
%TA.AperFunction,ComponentPad*%
%ADD14R,1.800000X1.800000*%
%TD*%
%TA.AperFunction,ComponentPad*%
%ADD15C,2.000000*%
%TD*%
%TA.AperFunction,ComponentPad*%
%ADD16R,2.000000X2.000000*%
%TD*%
%TA.AperFunction,ComponentPad*%
%ADD17C,6.400000*%
%TD*%
%TA.AperFunction,ViaPad*%
%ADD18C,0.800000*%
%TD*%
%TA.AperFunction,ViaPad*%
%ADD19C,0.600000*%
%TD*%
%TA.AperFunction,Conductor*%
%ADD20C,0.500000*%
%TD*%
%TA.AperFunction,Conductor*%
%ADD21C,0.250000*%
%TD*%
G04 APERTURE END LIST*
D10*
%TO.P,+5V,4,Pin_4_4*%
%TO.N,VUSB*%
X108340000Y-30060000D03*
%TO.P,+5V,3,Pin_3_3*%
X110880000Y-30060000D03*
%TO.P,+5V,2,Pin_2_2*%
X113420000Y-30060000D03*
D11*
%TO.P,+5V,1,Pin_1_1*%
X115960000Y-30060000D03*
%TD*%
D10*
%TO.P,+3V3,4,Pin_4_4*%
%TO.N,3V3*%
X143380000Y-97540000D03*
%TO.P,+3V3,3,Pin_3_3*%
X145920000Y-97540000D03*
%TO.P,+3V3,2,Pin_2_2*%
X148460000Y-97540000D03*
D11*
%TO.P,+3V3,1,Pin_1_1*%
X151000000Y-97540000D03*
%TD*%
D10*
%TO.P,GND,4,Pin_4_4*%
%TO.N,GND*%
X94160000Y-30060000D03*
%TO.P,GND,3,Pin_3_3*%
X96700000Y-30060000D03*
%TO.P,GND,2,Pin_2_2*%
X99240000Y-30060000D03*
D11*
%TO.P,GND,1,Pin_1_1*%
X101780000Y-30060000D03*
%TD*%
D12*
%TO.P,RV1,MP*%
%TO.N,N/C*%
X127240000Y-90600000D03*
X127240000Y-99400000D03*
D13*
%TO.P,RV1,3,3_3*%
%TO.N,GND*%
X134240000Y-92500000D03*
%TO.P,RV1,2,2_2*%
%TO.N,/Peripherals/POT*%
X134240000Y-95000000D03*
D14*
%TO.P,RV1,1,1_1*%
%TO.N,3V3*%
X134240000Y-97500000D03*
%TD*%
D11*
%TO.P,J1,1,Pin_1_1*%
%TO.N,/MCU_Pins_Sockets/D13*%
X134240000Y-46020000D03*
D10*
%TO.P,J1,2,Pin_2_2*%
%TO.N,3V3*%
X134240000Y-48560000D03*
%TO.P,J1,3,Pin_3_3*%
%TO.N,/MCU_Pins_Sockets/B0*%
X134240000Y-51100000D03*
%TO.P,J1,4,Pin_4_4*%
%TO.N,/MCU_Pins_Sockets/A0*%
X134240000Y-53640000D03*
%TO.P,J1,5,Pin_5_5*%
%TO.N,/MCU_Pins_Sockets/A1*%
X134240000Y-56180000D03*
%TO.P,J1,6,Pin_6_6*%
%TO.N,/MCU_Pins_Sockets/A2*%
X134240000Y-58720000D03*
%TO.P,J1,7,Pin_7_7*%
%TO.N,/MCU_Pins_Sockets/A3*%
X134240000Y-61260000D03*
%TO.P,J1,8,Pin_8_8*%
%TO.N,A4*%
X134240000Y-63800000D03*
%TO.P,J1,9,Pin_9_9*%
%TO.N,A5*%
X134240000Y-66340000D03*
%TO.P,J1,10,Pin_10_10*%
%TO.N,/MCU_Pins_Sockets/A6*%
X134240000Y-68880000D03*
%TO.P,J1,11,Pin_11_11*%
%TO.N,/MCU_Pins_Sockets/A7*%
X134240000Y-71420000D03*
%TO.P,J1,12,Pin_12_12*%
%TO.N,VUSB*%
X134240000Y-73960000D03*
%TO.P,J1,13,Pin_13_13*%
%TO.N,/MCU_Pins_Sockets/B1*%
X134240000Y-76500000D03*
%TO.P,J1,14,Pin_14_14*%
%TO.N,GND*%
X134240000Y-79040000D03*
%TO.P,J1,15,Pin_15_15*%
%TO.N,/MCU_Pins_Sockets/VIN*%
X134240000Y-81580000D03*
%TD*%
D15*
%TO.P,K2,1,1_1*%
%TO.N,3V3*%
X54000000Y-97540000D03*
%TO.P,K2,2,2_2*%
%TO.N,/Peripherals/K2*%
X48000000Y-97540000D03*
%TD*%
D11*
%TO.P,J8,1,Pin_1_1*%
%TO.N,/Peripherals/K1*%
X87600000Y-97540000D03*
D10*
%TO.P,J8,2,Pin_2_2*%
%TO.N,/Peripherals/K2*%
X85060000Y-97540000D03*
%TO.P,J8,3,Pin_3_3*%
%TO.N,/Peripherals/K3*%
X82520000Y-97540000D03*
%TO.P,J8,4,Pin_4_4*%
%TO.N,/Peripherals/K4*%
X79980000Y-97540000D03*
%TO.P,J8,5,Pin_5_5*%
%TO.N,/Peripherals/BUZZ*%
X77440000Y-97540000D03*
%TD*%
D11*
%TO.P,SW9,1,A_1*%
%TO.N,/Peripherals/BUZZ_ANODE*%
X160740000Y-95000000D03*
D10*
%TO.P,SW9,2,B_2*%
%TO.N,/Peripherals/SW9_COM*%
X160740000Y-97540000D03*
%TO.P,SW9,3,C_3*%
%TO.N,unconnected-(SW9-C-Pad3)*%
X160740000Y-100080000D03*
%TD*%
D16*
%TO.P,BZ1,1,+_1*%
%TO.N,/Peripherals/BUZZ_ANODE*%
X166240000Y-95000000D03*
D15*
%TO.P,BZ1,2,-_2*%
%TO.N,GND*%
X173840000Y-95000000D03*
%TD*%
D11*
%TO.P,SW3,1,A_1*%
%TO.N,3V3*%
X114500000Y-100080000D03*
D10*
%TO.P,SW3,2,B_2*%
%TO.N,/Peripherals/SW3_COM*%
X114500000Y-97540000D03*
%TO.P,SW3,3,C_3*%
%TO.N,GND*%
X114500000Y-95000000D03*
%TD*%
D11*
%TO.P,SW1,1,A_1*%
%TO.N,3V3*%
X106500000Y-100080000D03*
D10*
%TO.P,SW1,2,B_2*%
%TO.N,/Peripherals/SW1_COM*%
X106500000Y-97540000D03*
%TO.P,SW1,3,C_3*%
%TO.N,GND*%
X106500000Y-95000000D03*
%TD*%
D11*
%TO.P,STATEFUL1,1,Pin_1_1*%
%TO.N,/Peripherals/ST1*%
X101780000Y-97540000D03*
D10*
%TO.P,STATEFUL1,2,Pin_2_2*%
%TO.N,/Peripherals/ST2*%
X99240000Y-97540000D03*
%TO.P,STATEFUL1,3,Pin_3_3*%
%TO.N,/Peripherals/ST3*%
X96700000Y-97540000D03*
%TO.P,STATEFUL1,4,Pin_4_4*%
%TO.N,/Peripherals/ST4*%
X94160000Y-97540000D03*
%TO.P,STATEFUL1,5,Pin_5_5*%
%TO.N,/Peripherals/POT*%
X91620000Y-97540000D03*
%TD*%
D15*
%TO.P,K3,1,1_1*%
%TO.N,3V3*%
X63875000Y-97540000D03*
%TO.P,K3,2,2_2*%
%TO.N,/Peripherals/K3*%
X57875000Y-97540000D03*
%TD*%
%TO.P,K4,1,1_1*%
%TO.N,3V3*%
X73750000Y-97540000D03*
%TO.P,K4,2,2_2*%
%TO.N,/Peripherals/K4*%
X67750000Y-97540000D03*
%TD*%
D11*
%TO.P,LEDs1,1,Pin_1_1*%
%TO.N,/Peripherals/LED1*%
X87600000Y-30060000D03*
D10*
%TO.P,LEDs1,2,Pin_2_2*%
%TO.N,/Peripherals/LED2*%
X85060000Y-30060000D03*
%TO.P,LEDs1,3,Pin_3_3*%
%TO.N,/Peripherals/LED3*%
X82520000Y-30060000D03*
%TO.P,LEDs1,4,Pin_4_4*%
%TO.N,/Peripherals/LED4*%
X79980000Y-30060000D03*
%TO.P,LEDs1,5,Pin_5_5*%
%TO.N,/Peripherals/RGB*%
X77440000Y-30060000D03*
%TD*%
D17*
%TO.P,,3*%
%TO.N,GND*%
X30000000Y-97600000D03*
%TD*%
D15*
%TO.P,K1,1,1_1*%
%TO.N,3V3*%
X44125000Y-97540000D03*
%TO.P,K1,2,2_2*%
%TO.N,/Peripherals/K1*%
X38125000Y-97540000D03*
%TD*%
D11*
%TO.P,J4,1,Pin_1_1*%
%TO.N,/MCU_Pins_Sockets/D12*%
X166240000Y-46020000D03*
D10*
%TO.P,J4,2,Pin_2_2*%
%TO.N,/MCU_Pins_Sockets/D11*%
X166240000Y-48560000D03*
%TO.P,J4,3,Pin_3_3*%
%TO.N,/MCU_Pins_Sockets/D10*%
X166240000Y-51100000D03*
%TO.P,J4,4,Pin_4_4*%
%TO.N,/MCU_Pins_Sockets/D9*%
X166240000Y-53640000D03*
%TO.P,J4,5,Pin_5_5*%
%TO.N,/MCU_Pins_Sockets/D8*%
X166240000Y-56180000D03*
%TO.P,J4,6,Pin_6_6*%
%TO.N,/MCU_Pins_Sockets/D7*%
X166240000Y-58720000D03*
%TO.P,J4,7,Pin_7_7*%
%TO.N,/MCU_Pins_Sockets/D6*%
X166240000Y-61260000D03*
%TO.P,J4,8,Pin_8_8*%
%TO.N,/MCU_Pins_Sockets/D5*%
X166240000Y-63800000D03*
%TO.P,J4,9,Pin_9_9*%
%TO.N,/MCU_Pins_Sockets/D4*%
X166240000Y-66340000D03*
%TO.P,J4,10,Pin_10_10*%
%TO.N,/MCU_Pins_Sockets/D3*%
X166240000Y-68880000D03*
%TO.P,J4,11,Pin_11_11*%
%TO.N,/MCU_Pins_Sockets/D2*%
X166240000Y-71420000D03*
%TO.P,J4,12,Pin_12_12*%
%TO.N,GND*%
X166240000Y-73960000D03*
%TO.P,J4,13,Pin_13_13*%
%TO.N,/MCU_Pins_Sockets/RST*%
X166240000Y-76500000D03*
%TO.P,J4,14,Pin_14_14*%
%TO.N,/MCU_Pins_Sockets/RX0*%
X166240000Y-79040000D03*
%TO.P,J4,15,Pin_15_15*%
%TO.N,/MCU_Pins_Sockets/D1{slash}TX*%
X166240000Y-81580000D03*
%TD*%
D11*
%TO.P,SW2,1,A_1*%
%TO.N,3V3*%
X110500000Y-100080000D03*
D10*
%TO.P,SW2,2,B_2*%
%TO.N,/Peripherals/SW2_COM*%
X110500000Y-97540000D03*
%TO.P,SW2,3,C_3*%
%TO.N,GND*%
X110500000Y-95000000D03*
%TD*%
D11*
%TO.P,J3,1,Pin_1_1*%
%TO.N,/MCU_Pins_Sockets/D12*%
X183000000Y-46020000D03*
D10*
%TO.P,J3,2,Pin_2_2*%
%TO.N,/MCU_Pins_Sockets/D11*%
X183000000Y-48560000D03*
%TO.P,J3,3,Pin_3_3*%
%TO.N,/MCU_Pins_Sockets/D10*%
X183000000Y-51100000D03*
%TO.P,J3,4,Pin_4_4*%
%TO.N,/MCU_Pins_Sockets/D9*%
X183000000Y-53640000D03*
%TO.P,J3,5,Pin_5_5*%
%TO.N,/MCU_Pins_Sockets/D8*%
X183000000Y-56180000D03*
%TO.P,J3,6,Pin_6_6*%
%TO.N,/MCU_Pins_Sockets/D7*%
X183000000Y-58720000D03*
%TO.P,J3,7,Pin_7_7*%
%TO.N,/MCU_Pins_Sockets/D6*%
X183000000Y-61260000D03*
%TO.P,J3,8,Pin_8_8*%
%TO.N,/MCU_Pins_Sockets/D5*%
X183000000Y-63800000D03*
%TO.P,J3,9,Pin_9_9*%
%TO.N,/MCU_Pins_Sockets/D4*%
X183000000Y-66340000D03*
%TO.P,J3,10,Pin_10_10*%
%TO.N,/MCU_Pins_Sockets/D3*%
X183000000Y-68880000D03*
%TO.P,J3,11,Pin_11_11*%
%TO.N,/MCU_Pins_Sockets/D2*%
X183000000Y-71420000D03*
%TO.P,J3,12,Pin_12_12*%
%TO.N,GND*%
X183000000Y-73960000D03*
%TO.P,J3,13,Pin_13_13*%
%TO.N,/MCU_Pins_Sockets/RST*%
X183000000Y-76500000D03*
%TO.P,J3,14,Pin_14_14*%
%TO.N,/MCU_Pins_Sockets/RX0*%
X183000000Y-79040000D03*
%TO.P,J3,15,Pin_15_15*%
%TO.N,/MCU_Pins_Sockets/D1{slash}TX*%
X183000000Y-81580000D03*
%TD*%
D17*
%TO.P,,4*%
%TO.N,GND*%
X183000000Y-97600000D03*
%TD*%
%TO.P,REF\u002A\u002A,1*%
%TO.N,GND*%
X30000000Y-30000000D03*
%TD*%
%TO.P,,2*%
%TO.N,GND*%
X183000000Y-30000000D03*
%TD*%
D11*
%TO.P,J2,1,Pin_1_1*%
%TO.N,/MCU_Pins_Sockets/D13*%
X151000000Y-46020000D03*
D10*
%TO.P,J2,2,Pin_2_2*%
%TO.N,3V3*%
X151000000Y-48560000D03*
%TO.P,J2,3,Pin_3_3*%
%TO.N,/MCU_Pins_Sockets/B0*%
X151000000Y-51100000D03*
%TO.P,J2,4,Pin_4_4*%
%TO.N,/MCU_Pins_Sockets/A0*%
X151000000Y-53640000D03*
%TO.P,J2,5,Pin_5_5*%
%TO.N,/MCU_Pins_Sockets/A1*%
X151000000Y-56180000D03*
%TO.P,J2,6,Pin_6_6*%
%TO.N,/MCU_Pins_Sockets/A2*%
X151000000Y-58720000D03*
%TO.P,J2,7,Pin_7_7*%
%TO.N,/MCU_Pins_Sockets/A3*%
X151000000Y-61260000D03*
%TO.P,J2,8,Pin_8_8*%
%TO.N,A4*%
X151000000Y-63800000D03*
%TO.P,J2,9,Pin_9_9*%
%TO.N,A5*%
X151000000Y-66340000D03*
%TO.P,J2,10,Pin_10_10*%
%TO.N,/MCU_Pins_Sockets/A6*%
X151000000Y-68880000D03*
%TO.P,J2,11,Pin_11_11*%
%TO.N,/MCU_Pins_Sockets/A7*%
X151000000Y-71420000D03*
%TO.P,J2,12,Pin_12_12*%
%TO.N,VUSB*%
X151000000Y-73960000D03*
%TO.P,J2,13,Pin_13_13*%
%TO.N,/MCU_Pins_Sockets/B1*%
X151000000Y-76500000D03*
%TO.P,J2,14,Pin_14_14*%
%TO.N,GND*%
X151000000Y-79040000D03*
%TO.P,J2,15,Pin_15_15*%
%TO.N,/MCU_Pins_Sockets/VIN*%
X151000000Y-81580000D03*
%TD*%
D11*
%TO.P,SW4,1,A_1*%
%TO.N,3V3*%
X118500000Y-100080000D03*
D10*
%TO.P,SW4,2,B_2*%
%TO.N,/Peripherals/SW4_COM*%
X118500000Y-97540000D03*
%TO.P,SW4,3,C_3*%
%TO.N,GND*%
X118500000Y-95000000D03*
%TD*%
D18*
%TO.N,3V3*%
X137000000Y-86000000D03*
X131500000Y-84300000D03*
X139000000Y-88000000D03*
X131500000Y-59680000D03*
%TO.N,VUSB*%
X52000000Y-35300000D03*
X121200000Y-60920000D03*
X51200000Y-33500000D03*
X121200000Y-35300000D03*
D19*
%TO.N,/Peripherals/SW4_COM*%
X96930000Y-99130000D03*
X112500000Y-98800000D03*
%TD*%
%TO.N,3V3*%
D20*
X137000000Y-86000000D02*
X139000000Y-88000000D01*
X131500000Y-59680000D02*
X131500000Y-84300000D01*
%TO.N,VUSB*%
X51200000Y-34500000D02*
X52000000Y-35300000D01*
X51200000Y-33500000D02*
X51200000Y-34500000D01*
X121200000Y-35300000D02*
X121200000Y-60920000D01*
%TO.N,/Peripherals/SW4_COM*%
D21*
X96930000Y-99130000D02*
X103870000Y-99130000D01*
X104200000Y-98800000D02*
X112500000Y-98800000D01*
X103870000Y-99130000D02*
X104200000Y-98800000D01*
%TD*%
%TA.AperFunction,Conductor*%
%TO.N,GND*%
G36*
X187442539Y-25520185D02*
G01*
X187488294Y-25572989D01*
X187499500Y-25624500D01*
X187499500Y-101975500D01*
X187479815Y-102042539D01*
X187427011Y-102088294D01*
X187375500Y-102099500D01*
X25624500Y-102099500D01*
X25557461Y-102079815D01*
X25511706Y-102027011D01*
X25500500Y-101975500D01*
X25500500Y-97421902D01*
X36624500Y-97421902D01*
X36624500Y-97658097D01*
X36661446Y-97891368D01*
X36734433Y-98115996D01*
X36811529Y-98267304D01*
X36841657Y-98326433D01*
X36980483Y-98517510D01*
X37147490Y-98684517D01*
X37338567Y-98823343D01*
X37420043Y-98864857D01*
X37549003Y-98930566D01*
X37549005Y-98930566D01*
X37549008Y-98930568D01*
X37669412Y-98969689D01*
X37773631Y-99003553D01*
X38006903Y-99040500D01*
X38006908Y-99040500D01*
X38243097Y-99040500D01*
X38476368Y-99003553D01*
X38700992Y-98930568D01*
X38911433Y-98823343D01*
X39102510Y-98684517D01*
X39269517Y-98517510D01*
X39408343Y-98326433D01*
X39515568Y-98115992D01*
X39588553Y-97891368D01*
X39621051Y-97686184D01*
X39625500Y-97658097D01*
X39625500Y-97421902D01*
X42624500Y-97421902D01*
X42624500Y-97658097D01*
X42661446Y-97891368D01*
X42734433Y-98115996D01*
X42811529Y-98267304D01*
X42841657Y-98326433D01*
X42980483Y-98517510D01*
X43147490Y-98684517D01*
X43338567Y-98823343D01*
X43420043Y-98864857D01*
X43549003Y-98930566D01*
X43549005Y-98930566D01*
X43549008Y-98930568D01*
X43669412Y-98969689D01*
X43773631Y-99003553D01*
X44006903Y-99040500D01*
X44006908Y-99040500D01*
X44243097Y-99040500D01*
X44476368Y-99003553D01*
X44700992Y-98930568D01*
X44911433Y-98823343D01*
X45102510Y-98684517D01*
X45269517Y-98517510D01*
X45408343Y-98326433D01*
X45515568Y-98115992D01*
X45588553Y-97891368D01*
X45621051Y-97686184D01*
X45625500Y-97658097D01*
X45625500Y-97421902D01*
X46499500Y-97421902D01*
X46499500Y-97658097D01*
X46536446Y-97891368D01*
X46609433Y-98115996D01*
X46686529Y-98267304D01*
X46716657Y-98326433D01*
X46855483Y-98517510D01*
X47022490Y-98684517D01*
X47213567Y-98823343D01*
X47295043Y-98864857D01*
X47424003Y-98930566D01*
X47424005Y-98930566D01*
X47424008Y-98930568D01*
X47544412Y-98969689D01*
X47648631Y-99003553D01*
X47881903Y-99040500D01*
X47881908Y-99040500D01*
X48118097Y-99040500D01*
X48351368Y-99003553D01*
X48575992Y-98930568D01*
X48786433Y-98823343D01*
X48977510Y-98684517D01*
X49144517Y-98517510D01*
X49283343Y-98326433D01*
X49390568Y-98115992D01*
X49463553Y-97891368D01*
X49496051Y-97686184D01*
X49500500Y-97658097D01*
X49500500Y-97421902D01*
X52499500Y-97421902D01*
X52499500Y-97658097D01*
X52536446Y-97891368D01*
X52609433Y-98115996D01*
X52686529Y-98267304D01*
X52716657Y-98326433D01*
X52855483Y-98517510D01*
X53022490Y-98684517D01*
X53213567Y-98823343D01*
X53295043Y-98864857D01*
X53424003Y-98930566D01*
X53424005Y-98930566D01*
X53424008Y-98930568D01*
X53544412Y-98969689D01*
X53648631Y-99003553D01*
X53881903Y-99040500D01*
X53881908Y-99040500D01*
X54118097Y-99040500D01*
X54351368Y-99003553D01*
X54575992Y-98930568D01*
X54786433Y-98823343D01*
X54977510Y-98684517D01*
X55144517Y-98517510D01*
X55283343Y-98326433D01*
X55390568Y-98115992D01*
X55463553Y-97891368D01*
X55496051Y-97686184D01*
X55500500Y-97658097D01*
X55500500Y-97421902D01*
X56374500Y-97421902D01*
X56374500Y-97658097D01*
X56411446Y-97891368D01*
X56484433Y-98115996D01*
X56561529Y-98267304D01*
X56591657Y-98326433D01*
X56730483Y-98517510D01*
X56897490Y-98684517D01*
X57088567Y-98823343D01*
X57170043Y-98864857D01*
X57299003Y-98930566D01*
X57299005Y-98930566D01*
X57299008Y-98930568D01*
X57419412Y-98969689D01*
X57523631Y-99003553D01*
X57756903Y-99040500D01*
X57756908Y-99040500D01*
X57993097Y-99040500D01*
X58226368Y-99003553D01*
X58450992Y-98930568D01*
X58661433Y-98823343D01*
X58852510Y-98684517D01*
X59019517Y-98517510D01*
X59158343Y-98326433D01*
X59265568Y-98115992D01*
X59338553Y-97891368D01*
X59371051Y-97686184D01*
X59375500Y-97658097D01*
X59375500Y-97421902D01*
X62374500Y-97421902D01*
X62374500Y-97658097D01*
X62411446Y-97891368D01*
X62484433Y-98115996D01*
X62561529Y-98267304D01*
X62591657Y-98326433D01*
X62730483Y-98517510D01*
X62897490Y-98684517D01*
X63088567Y-98823343D01*
X63170043Y-98864857D01*
X63299003Y-98930566D01*
X63299005Y-98930566D01*
X63299008Y-98930568D01*
X63419412Y-98969689D01*
X63523631Y-99003553D01*
X63756903Y-99040500D01*
X63756908Y-99040500D01*
X63993097Y-99040500D01*
X64226368Y-99003553D01*
X64450992Y-98930568D01*
X64661433Y-98823343D01*
X64852510Y-98684517D01*
X65019517Y-98517510D01*
X65158343Y-98326433D01*
X65265568Y-98115992D01*
X65338553Y-97891368D01*
X65371051Y-97686184D01*
X65375500Y-97658097D01*
X65375500Y-97421902D01*
X66249500Y-97421902D01*
X66249500Y-97658097D01*
X66286446Y-97891368D01*
X66359433Y-98115996D01*
X66436529Y-98267304D01*
X66466657Y-98326433D01*
X66605483Y-98517510D01*
X66772490Y-98684517D01*
X66963567Y-98823343D01*
X67045043Y-98864857D01*
X67174003Y-98930566D01*
X67174005Y-98930566D01*
X67174008Y-98930568D01*
X67294412Y-98969689D01*
X67398631Y-99003553D01*
X67631903Y-99040500D01*
X67631908Y-99040500D01*
X67868097Y-99040500D01*
X68101368Y-99003553D01*
X68325992Y-98930568D01*
X68536433Y-98823343D01*
X68727510Y-98684517D01*
X68894517Y-98517510D01*
X69033343Y-98326433D01*
X69140568Y-98115992D01*
X69213553Y-97891368D01*
X69246051Y-97686184D01*
X69250500Y-97658097D01*
X69250500Y-97421902D01*
X72249500Y-97421902D01*
X72249500Y-97658097D01*
X72286446Y-97891368D01*
X72359433Y-98115996D01*
X72436529Y-98267304D01*
X72466657Y-98326433D01*
X72605483Y-98517510D01*
X72772490Y-98684517D01*
X72963567Y-98823343D01*
X73045043Y-98864857D01*
X73174003Y-98930566D01*
X73174005Y-98930566D01*
X73174008Y-98930568D01*
X73294412Y-98969689D01*
X73398631Y-99003553D01*
X73631903Y-99040500D01*
X73631908Y-99040500D01*
X73868097Y-99040500D01*
X74101368Y-99003553D01*
X74325992Y-98930568D01*
X74536433Y-98823343D01*
X74727510Y-98684517D01*
X74894517Y-98517510D01*
X75033343Y-98326433D01*
X75140568Y-98115992D01*
X75213553Y-97891368D01*
X75246051Y-97686184D01*
X75250500Y-97658097D01*
X75250500Y-97433713D01*
X76089500Y-97433713D01*
X76089500Y-97646286D01*
X76122753Y-97856239D01*
X76122753Y-97856241D01*
X76122754Y-97856243D01*
X76180138Y-98032853D01*
X76188444Y-98058414D01*
X76284951Y-98247820D01*
X76409890Y-98419786D01*
X76560213Y-98570109D01*
X76732179Y-98695048D01*
X76732181Y-98695049D01*
X76732184Y-98695051D01*
X76921588Y-98791557D01*
X77123757Y-98857246D01*
X77333713Y-98890500D01*
X77333714Y-98890500D01*
X77546286Y-98890500D01*
X77546287Y-98890500D01*
X77756243Y-98857246D01*
X77958412Y-98791557D01*
X78147816Y-98695051D01*
X78220374Y-98642335D01*
X78319786Y-98570109D01*
X78319788Y-98570106D01*
X78319792Y-98570104D01*
X78470104Y-98419792D01*
X78470106Y-98419788D01*
X78470109Y-98419786D01*
X78595048Y-98247820D01*
X78595047Y-98247820D01*
X78595051Y-98247816D01*
X78599514Y-98239054D01*
X78647488Y-98188259D01*
X78715308Y-98171463D01*
X78781444Y-98193999D01*
X78820486Y-98239056D01*
X78824951Y-98247820D01*
X78949890Y-98419786D01*
X79100213Y-98570109D01*
X79272179Y-98695048D01*
X79272181Y-98695049D01*
X79272184Y-98695051D01*
X79461588Y-98791557D01*
X79663757Y-98857246D01*
X79873713Y-98890500D01*
X79873714Y-98890500D01*
X80086286Y-98890500D01*
X80086287Y-98890500D01*
X80296243Y-98857246D01*
X80498412Y-98791557D01*
X80687816Y-98695051D01*
X80760374Y-98642335D01*
X80859786Y-98570109D01*
X80859788Y-98570106D01*
X80859792Y-98570104D01*
X81010104Y-98419792D01*
X81010106Y-98419788D01*
X81010109Y-98419786D01*
X81135048Y-98247820D01*
X81135047Y-98247820D01*
X81135051Y-98247816D01*
X81139514Y-98239054D01*
X81187488Y-98188259D01*
X81255308Y-98171463D01*
X81321444Y-98193999D01*
X81360486Y-98239056D01*
X81364951Y-98247820D01*
X81489890Y-98419786D01*
X81640213Y-98570109D01*
X81812179Y-98695048D01*
X81812181Y-98695049D01*
X81812184Y-98695051D01*
X82001588Y-98791557D01*
X82203757Y-98857246D01*
X82413713Y-98890500D01*
X82413714Y-98890500D01*
X82626286Y-98890500D01*
X82626287Y-98890500D01*
X82836243Y-98857246D01*
X83038412Y-98791557D01*
X83227816Y-98695051D01*
X83300374Y-98642335D01*
X83399786Y-98570109D01*
X83399788Y-98570106D01*
X83399792Y-98570104D01*
X83550104Y-98419792D01*
X83550106Y-98419788D01*
X83550109Y-98419786D01*
X83675048Y-98247820D01*
X83675047Y-98247820D01*
X83675051Y-98247816D01*
X83679514Y-98239054D01*
X83727488Y-98188259D01*
X83795308Y-98171463D01*
X83861444Y-98193999D01*
X83900486Y-98239056D01*
X83904951Y-98247820D01*
X84029890Y-98419786D01*
X84180213Y-98570109D01*
X84352179Y-98695048D01*
X84352181Y-98695049D01*
X84352184Y-98695051D01*
X84541588Y-98791557D01*
X84743757Y-98857246D01*
X84953713Y-98890500D01*
X84953714Y-98890500D01*
X85166286Y-98890500D01*
X85166287Y-98890500D01*
X85376243Y-98857246D01*
X85578412Y-98791557D01*
X85767816Y-98695051D01*
X85840379Y-98642331D01*
X85939784Y-98570110D01*
X85939784Y-98570109D01*
X85939792Y-98570104D01*
X86053329Y-98456566D01*
X86114648Y-98423084D01*
X86184340Y-98428068D01*
X86240274Y-98469939D01*
X86257189Y-98500917D01*
X86306202Y-98632328D01*
X86306206Y-98632335D01*
X86392452Y-98747544D01*
X86392455Y-98747547D01*
X86507664Y-98833793D01*
X86507671Y-98833797D01*
X86642517Y-98884091D01*
X86642516Y-98884091D01*
X86649444Y-98884835D01*
X86702127Y-98890500D01*
X88497872Y-98890499D01*
X88557483Y-98884091D01*
X88692331Y-98833796D01*
X88807546Y-98747546D01*
X88893796Y-98632331D01*
X88944091Y-98497483D01*
X88950500Y-98437873D01*
X88950499Y-97433713D01*
X90269500Y-97433713D01*
X90269500Y-97646286D01*
X90302753Y-97856239D01*
X90302753Y-97856241D01*
X90302754Y-97856243D01*
X90360138Y-98032853D01*
X90368444Y-98058414D01*
X90464951Y-98247820D01*
X90589890Y-98419786D01*
X90740213Y-98570109D01*
X90912179Y-98695048D01*
X90912181Y-98695049D01*
X90912184Y-98695051D01*
X91101588Y-98791557D01*
X91303757Y-98857246D01*
X91513713Y-98890500D01*
X91513714Y-98890500D01*
X91726286Y-98890500D01*
X91726287Y-98890500D01*
X91936243Y-98857246D01*
X92138412Y-98791557D01*
X92327816Y-98695051D01*
X92400374Y-98642335D01*
X92499786Y-98570109D01*
X92499788Y-98570106D01*
X92499792Y-98570104D01*
X92650104Y-98419792D01*
X92650106Y-98419788D01*
X92650109Y-98419786D01*
X92775048Y-98247820D01*
X92775047Y-98247820D01*
X92775051Y-98247816D01*
X92779514Y-98239054D01*
X92827488Y-98188259D01*
X92895308Y-98171463D01*
X92961444Y-98193999D01*
X93000486Y-98239056D01*
X93004951Y-98247820D01*
X93129890Y-98419786D01*
X93280213Y-98570109D01*
X93452179Y-98695048D01*
X93452181Y-98695049D01*
X93452184Y-98695051D01*
X93641588Y-98791557D01*
X93843757Y-98857246D01*
X94053713Y-98890500D01*
X94053714Y-98890500D01*
X94266286Y-98890500D01*
X94266287Y-98890500D01*
X94476243Y-98857246D01*
X94678412Y-98791557D01*
X94867816Y-98695051D01*
X94940374Y-98642335D01*
X95039786Y-98570109D01*
X95039788Y-98570106D01*
X95039792Y-98570104D01*
X95190104Y-98419792D01*
X95190106Y-98419788D01*
X95190109Y-98419786D01*
X95315048Y-98247820D01*
X95315047Y-98247820D01*
X95315051Y-98247816D01*
X95319514Y-98239054D01*
X95367488Y-98188259D01*
X95435308Y-98171463D01*
X95501444Y-98193999D01*
X95540486Y-98239056D01*
X95544951Y-98247820D01*
X95669890Y-98419786D01*
X95820213Y-98570109D01*
X95992182Y-98695050D01*
X95992184Y-98695051D01*
X96095213Y-98747547D01*
X96098187Y-98749062D01*
X96148984Y-98797036D01*
X96165779Y-98864857D01*
X96161410Y-98890519D01*
X96161451Y-98890528D01*
X96161157Y-98892002D01*
X96160557Y-98895531D01*
X96160262Y-98896500D01*
X96129500Y-99051153D01*
X96129500Y-99208846D01*
X96160261Y-99363489D01*
X96160264Y-99363501D01*
X96220602Y-99509172D01*
X96220609Y-99509185D01*
X96308210Y-99640288D01*
X96308213Y-99640292D01*
X96419707Y-99751786D01*
X96419711Y-99751789D01*
X96550814Y-99839390D01*
X96550827Y-99839397D01*
X96696498Y-99899735D01*
X96696503Y-99899737D01*
X96851153Y-99930499D01*
X96851156Y-99930500D01*
X96851158Y-99930500D01*
X97008844Y-99930500D01*
X97008845Y-99930499D01*
X97163497Y-99899737D01*
X97309179Y-99839394D01*
X97403459Y-99776398D01*
X97470136Y-99755520D01*
X97472350Y-99755500D01*
X103931607Y-99755500D01*
X103992029Y-99743481D01*
X104052452Y-99731463D01*
X104085792Y-99717652D01*
X104166286Y-99684312D01*
X104232169Y-99640289D01*
X104268733Y-99615858D01*
X104355858Y-99528733D01*
X104355859Y-99528730D01*
X104422773Y-99461817D01*
X104484097Y-99428333D01*
X104510453Y-99425500D01*
X105025500Y-99425500D01*
X105092539Y-99445185D01*
X105138294Y-99497989D01*
X105149500Y-99549500D01*
X105149500Y-100977870D01*
X105149501Y-100977876D01*
X105155908Y-101037483D01*
X105206202Y-101172328D01*
X105206206Y-101172335D01*
X105292452Y-101287544D01*
X105292455Y-101287547D01*
X105407664Y-101373793D01*
X105407671Y-101373797D01*
X105542517Y-101424091D01*
X105542516Y-101424091D01*
X105549444Y-101424835D01*
X105602127Y-101430500D01*
X107397872Y-101430499D01*
X107457483Y-101424091D01*
X107592331Y-101373796D01*
X107707546Y-101287546D01*
X107793796Y-101172331D01*
X107844091Y-101037483D01*
X107850500Y-100977873D01*
X107850499Y-99549499D01*
X107870184Y-99482461D01*
X107922987Y-99436706D01*
X107974499Y-99425500D01*
X109025500Y-99425500D01*
X109092539Y-99445185D01*
X109138294Y-99497989D01*
X109149500Y-99549500D01*
X109149500Y-100977870D01*
X109149501Y-100977876D01*
X109155908Y-101037483D01*
X109206202Y-101172328D01*
X109206206Y-101172335D01*
X109292452Y-101287544D01*
X109292455Y-101287547D01*
X109407664Y-101373793D01*
X109407671Y-101373797D01*
X109542517Y-101424091D01*
X109542516Y-101424091D01*
X109549444Y-101424835D01*
X109602127Y-101430500D01*
X111397872Y-101430499D01*
X111457483Y-101424091D01*
X111592331Y-101373796D01*
X111707546Y-101287546D01*
X111793796Y-101172331D01*
X111844091Y-101037483D01*
X111850500Y-100977873D01*
X111850499Y-99560757D01*
X111870184Y-99493719D01*
X111922987Y-99447964D01*
X111992146Y-99438020D01*
X112043388Y-99457654D01*
X112120821Y-99509394D01*
X112120823Y-99509395D01*
X112120827Y-99509397D01*
X112244828Y-99560759D01*
X112266503Y-99569737D01*
X112421153Y-99600499D01*
X112421156Y-99600500D01*
X112421158Y-99600500D01*
X112578844Y-99600500D01*
X112578845Y-99600499D01*
X112733497Y-99569737D01*
X112879179Y-99509394D01*
X112956609Y-99457657D01*
X113023286Y-99436779D01*
X113090666Y-99455263D01*
X113137357Y-99507242D01*
X113149500Y-99560759D01*
X113149500Y-100977870D01*
X113149501Y-100977876D01*
X113155908Y-101037483D01*
X113206202Y-101172328D01*
X113206206Y-101172335D01*
X113292452Y-101287544D01*
X113292455Y-101287547D01*
X113407664Y-101373793D01*
X113407671Y-101373797D01*
X113542517Y-101424091D01*
X113542516Y-101424091D01*
X113549444Y-101424835D01*
X113602127Y-101430500D01*
X115397872Y-101430499D01*
X115457483Y-101424091D01*
X115592331Y-101373796D01*
X115707546Y-101287546D01*
X115793796Y-101172331D01*
X115844091Y-101037483D01*
X115850500Y-100977873D01*
X115850499Y-99182128D01*
X115844091Y-99122517D01*
X115799720Y-99003553D01*
X115793797Y-98987671D01*
X115793793Y-98987664D01*
X115707547Y-98872455D01*
X115707544Y-98872452D01*
X115592335Y-98786206D01*
X115592328Y-98786202D01*
X115460917Y-98737189D01*
X115404983Y-98695318D01*
X115380566Y-98629853D01*
X115395418Y-98561580D01*
X115416563Y-98533332D01*
X115530104Y-98419792D01*
X115655051Y-98247816D01*
X115751557Y-98058412D01*
X115817246Y-97856243D01*
X115850500Y-97646287D01*
X115850500Y-97433713D01*
X117149500Y-97433713D01*
X117149500Y-97646286D01*
X117182753Y-97856239D01*
X117182753Y-97856241D01*
X117182754Y-97856243D01*
X117240138Y-98032853D01*
X117248444Y-98058414D01*
X117344951Y-98247820D01*
X117469890Y-98419786D01*
X117583430Y-98533326D01*
X117616915Y-98594649D01*
X117611931Y-98664341D01*
X117570059Y-98720274D01*
X117539083Y-98737189D01*
X117407669Y-98786203D01*
X117407664Y-98786206D01*
X117292455Y-98872452D01*
X117292452Y-98872455D01*
X117206206Y-98987664D01*
X117206202Y-98987671D01*
X117155908Y-99122517D01*
X117149501Y-99182116D01*
X117149501Y-99182123D01*
X117149500Y-99182135D01*
X117149500Y-100977870D01*
X117149501Y-100977876D01*
X117155908Y-101037483D01*
X117206202Y-101172328D01*
X117206206Y-101172335D01*
X117292452Y-101287544D01*
X117292455Y-101287547D01*
X117407664Y-101373793D01*
X117407671Y-101373797D01*
X117542517Y-101424091D01*
X117542516Y-101424091D01*
X117549444Y-101424835D01*
X117602127Y-101430500D01*
X119397872Y-101430499D01*
X119457483Y-101424091D01*
X119592331Y-101373796D01*
X119707546Y-101287546D01*
X119793796Y-101172331D01*
X119844091Y-101037483D01*
X119850500Y-100977873D01*
X119850499Y-99182128D01*
X119844091Y-99122517D01*
X119799720Y-99003553D01*
X119793797Y-98987671D01*
X119793793Y-98987664D01*
X119707547Y-98872455D01*
X119707544Y-98872452D01*
X119592335Y-98786206D01*
X119592328Y-98786202D01*
X119460917Y-98737189D01*
X119460916Y-98737189D01*
X119436970Y-98719263D01*
X119404983Y-98695318D01*
X119380566Y-98629853D01*
X119390154Y-98585777D01*
X124739500Y-98585777D01*
X124739500Y-100214208D01*
X124739501Y-100214223D01*
X124749904Y-100346413D01*
X124749905Y-100346420D01*
X124804902Y-100564678D01*
X124804903Y-100564681D01*
X124897991Y-100769622D01*
X124897997Y-100769632D01*
X125026174Y-100954645D01*
X125026178Y-100954650D01*
X125026181Y-100954654D01*
X125185346Y-101113819D01*
X125185350Y-101113822D01*
X125185354Y-101113825D01*
X125324603Y-101210297D01*
X125370374Y-101242007D01*
X125575317Y-101335096D01*
X125575321Y-101335097D01*
X125793579Y-101390094D01*
X125793581Y-101390094D01*
X125793588Y-101390096D01*
X125925783Y-101400500D01*
X128554216Y-101400499D01*
X128686412Y-101390096D01*
X128904683Y-101335096D01*
X129109626Y-101242007D01*
X129294654Y-101113819D01*
X129453819Y-100954654D01*
X129582007Y-100769626D01*
X129675096Y-100564683D01*
X129730096Y-100346412D01*
X129740500Y-100214217D01*
X129740499Y-98585784D01*
X129730096Y-98453588D01*
X129728658Y-98447883D01*
X129675097Y-98235321D01*
X129675096Y-98235318D01*
X129674779Y-98234621D01*
X129582007Y-98030374D01*
X129485703Y-97891368D01*
X129453825Y-97845354D01*
X129453822Y-97845350D01*
X129453819Y-97845346D01*
X129294654Y-97686181D01*
X129294650Y-97686178D01*
X129294645Y-97686174D01*
X129109632Y-97557997D01*
X129109630Y-97557995D01*
X129109626Y-97557993D01*
X128904683Y-97464904D01*
X128904681Y-97464903D01*
X128904678Y-97464902D01*
X128686420Y-97409905D01*
X128686413Y-97409904D01*
X128642347Y-97406436D01*
X128554217Y-97399500D01*
X128554215Y-97399500D01*
X125925791Y-97399500D01*
X125925776Y-97399501D01*
X125793586Y-97409904D01*
X125793579Y-97409905D01*
X125575321Y-97464902D01*
X125575318Y-97464903D01*
X125370377Y-97557991D01*
X125370367Y-97557997D01*
X125185354Y-97686174D01*
X125185342Y-97686184D01*
X125026184Y-97845342D01*
X125026174Y-97845354D01*
X124897997Y-98030367D01*
X124897991Y-98030377D01*
X124804903Y-98235318D01*
X124804902Y-98235321D01*
X124749905Y-98453579D01*
X124749904Y-98453586D01*
X124739500Y-98585777D01*
X119390154Y-98585777D01*
X119395418Y-98561580D01*
X119416566Y-98533329D01*
X119530104Y-98419792D01*
X119655051Y-98247816D01*
X119751557Y-98058412D01*
X119817246Y-97856243D01*
X119850500Y-97646287D01*
X119850500Y-97433713D01*
X119817246Y-97223757D01*
X119751557Y-97021588D01*
X119655051Y-96832184D01*
X119655049Y-96832181D01*
X119655048Y-96832179D01*
X119530109Y-96660213D01*
X119379786Y-96509890D01*
X119207817Y-96384949D01*
X119198504Y-96380204D01*
X119147707Y-96332230D01*
X119130912Y-96264409D01*
X119153449Y-96198274D01*
X119198507Y-96159232D01*
X119207555Y-96154622D01*
X119261716Y-96115270D01*
X119261717Y-96115270D01*
X118629408Y-95482962D01*
X118692993Y-95465925D01*
X118807007Y-95400099D01*
X118900099Y-95307007D01*
X118965925Y-95192993D01*
X118982962Y-95129408D01*
X119615270Y-95761717D01*
X119615270Y-95761716D01*
X119654622Y-95707554D01*
X119751095Y-95518217D01*
X119816757Y-95316130D01*
X119816757Y-95316127D01*
X119850000Y-95106246D01*
X119850000Y-94893753D01*
X119849370Y-94889778D01*
X132839500Y-94889778D01*
X132839500Y-95110221D01*
X132873985Y-95327952D01*
X132942103Y-95537603D01*
X132942104Y-95537606D01*
X133042187Y-95734025D01*
X133171752Y-95912358D01*
X133171756Y-95912363D01*
X133192794Y-95933401D01*
X133226279Y-95994724D01*
X133221295Y-96064416D01*
X133179423Y-96120349D01*
X133148448Y-96137263D01*
X133097674Y-96156201D01*
X133097664Y-96156206D01*
X132982455Y-96242452D01*
X132982452Y-96242455D01*
X132896206Y-96357664D01*
X132896202Y-96357671D01*
X132845908Y-96492517D01*
X132844040Y-96509896D01*
X132839501Y-96552123D01*
X132839500Y-96552135D01*
X132839500Y-98447870D01*
X132839501Y-98447876D01*
X132845908Y-98507483D01*
X132896202Y-98642328D01*
X132896206Y-98642335D01*
X132982452Y-98757544D01*
X132982455Y-98757547D01*
X133097664Y-98843793D01*
X133097671Y-98843797D01*
X133232517Y-98894091D01*
X133232516Y-98894091D01*
X133239444Y-98894835D01*
X133292127Y-98900500D01*
X135187872Y-98900499D01*
X135247483Y-98894091D01*
X135382331Y-98843796D01*
X135497546Y-98757546D01*
X135583796Y-98642331D01*
X135634091Y-98507483D01*
X135640500Y-98447873D01*
X135640499Y-97433713D01*
X142029500Y-97433713D01*
X142029500Y-97646286D01*
X142062753Y-97856239D01*
X142062753Y-97856241D01*
X142062754Y-97856243D01*
X142120138Y-98032853D01*
X142128444Y-98058414D01*
X142224951Y-98247820D01*
X142349890Y-98419786D01*
X142500213Y-98570109D01*
X142672179Y-98695048D01*
X142672181Y-98695049D01*
X142672184Y-98695051D01*
X142861588Y-98791557D01*
X143063757Y-98857246D01*
X143273713Y-98890500D01*
X143273714Y-98890500D01*
X143486286Y-98890500D01*
X143486287Y-98890500D01*
X143696243Y-98857246D01*
X143898412Y-98791557D01*
X144087816Y-98695051D01*
X144160374Y-98642335D01*
X144259786Y-98570109D01*
X144259788Y-98570106D01*
X144259792Y-98570104D01*
X144410104Y-98419792D01*
X144410106Y-98419788D01*
X144410109Y-98419786D01*
X144535048Y-98247820D01*
X144535047Y-98247820D01*
X144535051Y-98247816D01*
X144539514Y-98239054D01*
X144587488Y-98188259D01*
X144655308Y-98171463D01*
X144721444Y-98193999D01*
X144760486Y-98239056D01*
X144764951Y-98247820D01*
X144889890Y-98419786D01*
X145040213Y-98570109D01*
X145212179Y-98695048D01*
X145212181Y-98695049D01*
X145212184Y-98695051D01*
X145401588Y-98791557D01*
X145603757Y-98857246D01*
X145813713Y-98890500D01*
X145813714Y-98890500D01*
X146026286Y-98890500D01*
X146026287Y-98890500D01*
X146236243Y-98857246D01*
X146438412Y-98791557D01*
X146627816Y-98695051D01*
X146700374Y-98642335D01*
X146799786Y-98570109D01*
X146799788Y-98570106D01*
X146799792Y-98570104D01*
X146950104Y-98419792D01*
X146950106Y-98419788D01*
X146950109Y-98419786D01*
X147075048Y-98247820D01*
X147075047Y-98247820D01*
X147075051Y-98247816D01*
X147079514Y-98239054D01*
X147127488Y-98188259D01*
X147195308Y-98171463D01*
X147261444Y-98193999D01*
X147300486Y-98239056D01*
X147304951Y-98247820D01*
X147429890Y-98419786D01*
X147580213Y-98570109D01*
X147752179Y-98695048D01*
X147752181Y-98695049D01*
X147752184Y-98695051D01*
X147941588Y-98791557D01*
X148143757Y-98857246D01*
X148353713Y-98890500D01*
X148353714Y-98890500D01*
X148566286Y-98890500D01*
X148566287Y-98890500D01*
X148776243Y-98857246D01*
X148978412Y-98791557D01*
X149167816Y-98695051D01*
X149240379Y-98642331D01*
X149339784Y-98570110D01*
X149339784Y-98570109D01*
X149339792Y-98570104D01*
X149453329Y-98456566D01*
X149514648Y-98423084D01*
X149584340Y-98428068D01*
X149640274Y-98469939D01*
X149657189Y-98500917D01*
X149706202Y-98632328D01*
X149706206Y-98632335D01*
X149792452Y-98747544D01*
X149792455Y-98747547D01*
X149907664Y-98833793D01*
X149907671Y-98833797D01*
X150042517Y-98884091D01*
X150042516Y-98884091D01*
X150049444Y-98884835D01*
X150102127Y-98890500D01*
X151897872Y-98890499D01*
X151957483Y-98884091D01*
X152092331Y-98833796D01*
X152207546Y-98747546D01*
X152293796Y-98632331D01*
X152344091Y-98497483D01*
X152350500Y-98437873D01*
X152350499Y-96642128D01*
X152344091Y-96582517D01*
X152342810Y-96579083D01*
X152293797Y-96447671D01*
X152293793Y-96447664D01*
X152207547Y-96332455D01*
X152207544Y-96332452D01*
X152092335Y-96246206D01*
X152092328Y-96246202D01*
X151957482Y-96195908D01*
X151957483Y-96195908D01*
X151897883Y-96189501D01*
X151897881Y-96189500D01*
X151897873Y-96189500D01*
X151897864Y-96189500D01*
X150102129Y-96189500D01*
X150102123Y-96189501D01*
X150042516Y-96195908D01*
X149907671Y-96246202D01*
X149907664Y-96246206D01*
X149792455Y-96332452D01*
X149792452Y-96332455D01*
X149706206Y-96447664D01*
X149706203Y-96447669D01*
X149657189Y-96579083D01*
X149615317Y-96635016D01*
X149549853Y-96659433D01*
X149481580Y-96644581D01*
X149453326Y-96623430D01*
X149339786Y-96509890D01*
X149167820Y-96384951D01*
X148978414Y-96288444D01*
X148978413Y-96288443D01*
X148978412Y-96288443D01*
X148776243Y-96222754D01*
X148776241Y-96222753D01*
X148776240Y-96222753D01*
X148614957Y-96197208D01*
X148566287Y-96189500D01*
X148353713Y-96189500D01*
X148305042Y-96197208D01*
X148143760Y-96222753D01*
X147941585Y-96288444D01*
X147752179Y-96384951D01*
X147580213Y-96509890D01*
X147429890Y-96660213D01*
X147304949Y-96832182D01*
X147300484Y-96840946D01*
X147252509Y-96891742D01*
X147184688Y-96908536D01*
X147118553Y-96885998D01*
X147079516Y-96840946D01*
X147075050Y-96832182D01*
X146950109Y-96660213D01*
X146799786Y-96509890D01*
X146627820Y-96384951D01*
X146438414Y-96288444D01*
X146438413Y-96288443D01*
X146438412Y-96288443D01*
X146236243Y-96222754D01*
X146236241Y-96222753D01*
X146236240Y-96222753D01*
X146074957Y-96197208D01*
X146026287Y-96189500D01*
X145813713Y-96189500D01*
X145765042Y-96197208D01*
X145603760Y-96222753D01*
X145401585Y-96288444D01*
X145212179Y-96384951D01*
X145040213Y-96509890D01*
X144889890Y-96660213D01*
X144764949Y-96832182D01*
X144760484Y-96840946D01*
X144712509Y-96891742D01*
X144644688Y-96908536D01*
X144578553Y-96885998D01*
X144539516Y-96840946D01*
X144535050Y-96832182D01*
X144410109Y-96660213D01*
X144259786Y-96509890D01*
X144087820Y-96384951D01*
X143898414Y-96288444D01*
X143898413Y-96288443D01*
X143898412Y-96288443D01*
X143696243Y-96222754D01*
X143696241Y-96222753D01*
X143696240Y-96222753D01*
X143534957Y-96197208D01*
X143486287Y-96189500D01*
X143273713Y-96189500D01*
X143225042Y-96197208D01*
X143063760Y-96222753D01*
X142861585Y-96288444D01*
X142672179Y-96384951D01*
X142500213Y-96509890D01*
X142349890Y-96660213D01*
X142224951Y-96832179D01*
X142128444Y-97021585D01*
X142062753Y-97223760D01*
X142029500Y-97433713D01*
X135640499Y-97433713D01*
X135640499Y-96552128D01*
X135634091Y-96492517D01*
X135618287Y-96450145D01*
X135583797Y-96357671D01*
X135583793Y-96357664D01*
X135497547Y-96242455D01*
X135497544Y-96242452D01*
X135382335Y-96156206D01*
X135382329Y-96156203D01*
X135331552Y-96137264D01*
X135275619Y-96095392D01*
X135251202Y-96029927D01*
X135266054Y-95961655D01*
X135287206Y-95933401D01*
X135308242Y-95912365D01*
X135437815Y-95734022D01*
X135537895Y-95537606D01*
X135606015Y-95327951D01*
X135640500Y-95110222D01*
X135640500Y-94889778D01*
X135606015Y-94672049D01*
X135550114Y-94500000D01*
X135537896Y-94462396D01*
X135537895Y-94462393D01*
X135437815Y-94265978D01*
X135369312Y-94171691D01*
X135369311Y-94171688D01*
X135318778Y-94102135D01*
X159389500Y-94102135D01*
X159389500Y-95897870D01*
X159389501Y-95897876D01*
X159395908Y-95957483D01*
X159446202Y-96092328D01*
X159446206Y-96092335D01*
X159532452Y-96207544D01*
X159532455Y-96207547D01*
X159647664Y-96293793D01*
X159647671Y-96293797D01*
X159779082Y-96342810D01*
X159835016Y-96384681D01*
X159859433Y-96450145D01*
X159844582Y-96518418D01*
X159823431Y-96546673D01*
X159709889Y-96660215D01*
X159584951Y-96832179D01*
X159488444Y-97021585D01*
X159422753Y-97223760D01*
X159389500Y-97433713D01*
X159389500Y-97646286D01*
X159422753Y-97856239D01*
X159422753Y-97856241D01*
X159422754Y-97856243D01*
X159480138Y-98032853D01*
X159488444Y-98058414D01*
X159584951Y-98247820D01*
X159709890Y-98419786D01*
X159860213Y-98570109D01*
X160032182Y-98695050D01*
X160040946Y-98699516D01*
X160091742Y-98747491D01*
X160108536Y-98815312D01*
X160085998Y-98881447D01*
X160040946Y-98920484D01*
X160032182Y-98924949D01*
X159860213Y-99049890D01*
X159709890Y-99200213D01*
X159584951Y-99372179D01*
X159488444Y-99561585D01*
X159422753Y-99763760D01*
X159389500Y-99973713D01*
X159389500Y-100186286D01*
X159422753Y-100396239D01*
X159488444Y-100598414D01*
X159584951Y-100787820D01*
X159709890Y-100959786D01*
X159860213Y-101110109D01*
X160032179Y-101235048D01*
X160032181Y-101235049D01*
X160032184Y-101235051D01*
X160221588Y-101331557D01*
X160423757Y-101397246D01*
X160633713Y-101430500D01*
X160633714Y-101430500D01*
X160846286Y-101430500D01*
X160846287Y-101430500D01*
X161056243Y-101397246D01*
X161258412Y-101331557D01*
X161447816Y-101235051D01*
X161534138Y-101172335D01*
X161619786Y-101110109D01*
X161619788Y-101110106D01*
X161619792Y-101110104D01*
X161770104Y-100959792D01*
X161770106Y-100959788D01*
X161770109Y-100959786D01*
X161895048Y-100787820D01*
X161895047Y-100787820D01*
X161895051Y-100787816D01*
X161991557Y-100598412D01*
X162057246Y-100396243D01*
X162090500Y-100186287D01*
X162090500Y-99973713D01*
X162057246Y-99763757D01*
X161991557Y-99561588D01*
X161895051Y-99372184D01*
X161895049Y-99372181D01*
X161895048Y-99372179D01*
X161770109Y-99200213D01*
X161619786Y-99049890D01*
X161447820Y-98924951D01*
X161447115Y-98924591D01*
X161439054Y-98920485D01*
X161388259Y-98872512D01*
X161371463Y-98804692D01*
X161393999Y-98738556D01*
X161439054Y-98699515D01*
X161447816Y-98695051D01*
X161520374Y-98642335D01*
X161619786Y-98570109D01*
X161619788Y-98570106D01*
X161619792Y-98570104D01*
X161770104Y-98419792D01*
X161770106Y-98419788D01*
X161770109Y-98419786D01*
X161895048Y-98247820D01*
X161895047Y-98247820D01*
X161895051Y-98247816D01*
X161991557Y-98058412D01*
X162057246Y-97856243D01*
X162090500Y-97646287D01*
X162090500Y-97433713D01*
X162057246Y-97223757D01*
X161991557Y-97021588D01*
X161895051Y-96832184D01*
X161895049Y-96832181D01*
X161895048Y-96832179D01*
X161770109Y-96660213D01*
X161656569Y-96546673D01*
X161623084Y-96485350D01*
X161628068Y-96415658D01*
X161669940Y-96359725D01*
X161700915Y-96342810D01*
X161832331Y-96293796D01*
X161947546Y-96207546D01*
X162033796Y-96092331D01*
X162084091Y-95957483D01*
X162090500Y-95897873D01*
X162090499Y-94102128D01*
X162084091Y-94042517D01*
X162080647Y-94033285D01*
X162065302Y-93992138D01*
X162050381Y-93952135D01*
X164739500Y-93952135D01*
X164739500Y-96047870D01*
X164739501Y-96047876D01*
X164745908Y-96107483D01*
X164796202Y-96242328D01*
X164796206Y-96242335D01*
X164882452Y-96357544D01*
X164882455Y-96357547D01*
X164997664Y-96443793D01*
X164997671Y-96443797D01*
X165132517Y-96494091D01*
X165132516Y-96494091D01*
X165139444Y-96494835D01*
X165192127Y-96500500D01*
X167287872Y-96500499D01*
X167347483Y-96494091D01*
X167482331Y-96443796D01*
X167597546Y-96357546D01*
X167683796Y-96242331D01*
X167734091Y-96107483D01*
X167740500Y-96047873D01*
X167740499Y-94881947D01*
X172340000Y-94881947D01*
X172340000Y-95118052D01*
X172376934Y-95351247D01*
X172449897Y-95575802D01*
X172557087Y-95786174D01*
X172617338Y-95869104D01*
X172617340Y-95869105D01*
X173357037Y-95129408D01*
X173374075Y-95192993D01*
X173439901Y-95307007D01*
X173532993Y-95400099D01*
X173647007Y-95465925D01*
X173710590Y-95482962D01*
X172970893Y-96222658D01*
X173053828Y-96282914D01*
X173264197Y-96390102D01*
X173488752Y-96463065D01*
X173488751Y-96463065D01*
X173721948Y-96500000D01*
X173958052Y-96500000D01*
X174191247Y-96463065D01*
X174415802Y-96390102D01*
X174626163Y-96282918D01*
X174626169Y-96282914D01*
X174709104Y-96222658D01*
X174709105Y-96222658D01*
X173969408Y-95482962D01*
X174032993Y-95465925D01*
X174147007Y-95400099D01*
X174240099Y-95307007D01*
X174305925Y-95192993D01*
X174322962Y-95129409D01*
X175062658Y-95869105D01*
X175062658Y-95869104D01*
X175122914Y-95786169D01*
X175122918Y-95786163D01*
X175230102Y-95575802D01*
X175303065Y-95351247D01*
X175340000Y-95118052D01*
X175340000Y-94881947D01*
X175303065Y-94648752D01*
X175230102Y-94424197D01*
X175122914Y-94213828D01*
X175062658Y-94130894D01*
X175062658Y-94130893D01*
X174322962Y-94870590D01*
X174305925Y-94807007D01*
X174240099Y-94692993D01*
X174147007Y-94599901D01*
X174032993Y-94534075D01*
X173969409Y-94517037D01*
X174709105Y-93777340D01*
X174709104Y-93777338D01*
X174626174Y-93717087D01*
X174415802Y-93609897D01*
X174191247Y-93536934D01*
X174191248Y-93536934D01*
X173958052Y-93500000D01*
X173721948Y-93500000D01*
X173488752Y-93536934D01*
X173264197Y-93609897D01*
X173053830Y-93717084D01*
X172970894Y-93777340D01*
X173710591Y-94517037D01*
X173647007Y-94534075D01*
X173532993Y-94599901D01*
X173439901Y-94692993D01*
X173374075Y-94807007D01*
X173357037Y-94870591D01*
X172617340Y-94130894D01*
X172557084Y-94213830D01*
X172449897Y-94424197D01*
X172376934Y-94648752D01*
X172340000Y-94881947D01*
X167740499Y-94881947D01*
X167740499Y-93952128D01*
X167734091Y-93892517D01*
X167731186Y-93884727D01*
X167724922Y-93867931D01*
X167683797Y-93757671D01*
X167683793Y-93757664D01*
X167597547Y-93642455D01*
X167597544Y-93642452D01*
X167482335Y-93556206D01*
X167482328Y-93556202D01*
X167347482Y-93505908D01*
X167347483Y-93505908D01*
X167287883Y-93499501D01*
X167287881Y-93499500D01*
X167287873Y-93499500D01*
X167287864Y-93499500D01*
X165192129Y-93499500D01*
X165192123Y-93499501D01*
X165132516Y-93505908D01*
X164997671Y-93556202D01*
X164997664Y-93556206D01*
X164882455Y-93642452D01*
X164882452Y-93642455D01*
X164796206Y-93757664D01*
X164796202Y-93757671D01*
X164745908Y-93892517D01*
X164741690Y-93931756D01*
X164739501Y-93952123D01*
X164739500Y-93952135D01*
X162050381Y-93952135D01*
X162033797Y-93907671D01*
X162033793Y-93907664D01*
X161947547Y-93792455D01*
X161947544Y-93792452D01*
X161832335Y-93706206D01*
X161832328Y-93706202D01*
X161697482Y-93655908D01*
X161697483Y-93655908D01*
X161637883Y-93649501D01*
X161637881Y-93649500D01*
X161637873Y-93649500D01*
X161637864Y-93649500D01*
X159842129Y-93649500D01*
X159842123Y-93649501D01*
X159782516Y-93655908D01*
X159647671Y-93706202D01*
X159647664Y-93706206D01*
X159532455Y-93792452D01*
X159532452Y-93792455D01*
X159446206Y-93907664D01*
X159446202Y-93907671D01*
X159395908Y-94042517D01*
X159391058Y-94087635D01*
X159389501Y-94102123D01*
X159389500Y-94102135D01*
X135318778Y-94102135D01*
X135308247Y-94087641D01*
X135308243Y-94087636D01*
X135152359Y-93931752D01*
X135039846Y-93850008D01*
X134997180Y-93794679D01*
X134991201Y-93725065D01*
X135023806Y-93663270D01*
X135037486Y-93651416D01*
X135037514Y-93651066D01*
X134369409Y-92982962D01*
X134432993Y-92965925D01*
X134547007Y-92900099D01*
X134640099Y-92807007D01*
X134705925Y-92692993D01*
X134722962Y-92629409D01*
X135391066Y-93297514D01*
X135391066Y-93297513D01*
X135437386Y-93233760D01*
X135537432Y-93037410D01*
X135605526Y-92827835D01*
X135640000Y-92610181D01*
X135640000Y-92389818D01*
X135605526Y-92172164D01*
X135537432Y-91962589D01*
X135437388Y-91766243D01*
X135391066Y-91702485D01*
X135391065Y-91702485D01*
X134722962Y-92370589D01*
X134705925Y-92307007D01*
X134640099Y-92192993D01*
X134547007Y-92099901D01*
X134432993Y-92034075D01*
X134369407Y-92017037D01*
X135037513Y-91348932D01*
X134973756Y-91302611D01*
X134777410Y-91202567D01*
X134567835Y-91134473D01*
X134350181Y-91100000D01*
X134129819Y-91100000D01*
X133912164Y-91134473D01*
X133702589Y-91202567D01*
X133506233Y-91302616D01*
X133442485Y-91348931D01*
X133442485Y-91348932D01*
X134110590Y-92017037D01*
X134047007Y-92034075D01*
X133932993Y-92099901D01*
X133839901Y-92192993D01*
X133774075Y-92307007D01*
X133757037Y-92370590D01*
X133088932Y-91702485D01*
X133088931Y-91702485D01*
X133042616Y-91766233D01*
X132942567Y-91962589D01*
X132874473Y-92172164D01*
X132840000Y-92389818D01*
X132840000Y-92610181D01*
X132874473Y-92827835D01*
X132942567Y-93037410D01*
X133042611Y-93233756D01*
X133088932Y-93297513D01*
X133757037Y-92629408D01*
X133774075Y-92692993D01*
X133839901Y-92807007D01*
X133932993Y-92900099D01*
X134047007Y-92965925D01*
X134110590Y-92982962D01*
X133442485Y-93651065D01*
X133442602Y-93652548D01*
X133482818Y-93704701D01*
X133488797Y-93774315D01*
X133456192Y-93836110D01*
X133440153Y-93850008D01*
X133327636Y-93931756D01*
X133171756Y-94087636D01*
X133171752Y-94087641D01*
X133042187Y-94265974D01*
X132942104Y-94462393D01*
X132942103Y-94462396D01*
X132873985Y-94672047D01*
X132839500Y-94889778D01*
X119849370Y-94889778D01*
X119816757Y-94683872D01*
X119816757Y-94683869D01*
X119751095Y-94481782D01*
X119654624Y-94292449D01*
X119615270Y-94238282D01*
X118982962Y-94870590D01*
X118965925Y-94807007D01*
X118900099Y-94692993D01*
X118807007Y-94599901D01*
X118692993Y-94534075D01*
X118629409Y-94517037D01*
X119261716Y-93884728D01*
X119207550Y-93845375D01*
X119018217Y-93748904D01*
X118816129Y-93683242D01*
X118606246Y-93650000D01*
X118393754Y-93650000D01*
X118183872Y-93683242D01*
X118183869Y-93683242D01*
X117981782Y-93748904D01*
X117792439Y-93845380D01*
X117738282Y-93884727D01*
X117738282Y-93884728D01*
X118370591Y-94517037D01*
X118307007Y-94534075D01*
X118192993Y-94599901D01*
X118099901Y-94692993D01*
X118034075Y-94807007D01*
X118017037Y-94870591D01*
X117384728Y-94238282D01*
X117384727Y-94238282D01*
X117345380Y-94292439D01*
X117248904Y-94481782D01*
X117183242Y-94683869D01*
X117183242Y-94683872D01*
X117150000Y-94893753D01*
X117150000Y-95106246D01*
X117183242Y-95316127D01*
X117183242Y-95316130D01*
X117248904Y-95518217D01*
X117345375Y-95707550D01*
X117384728Y-95761716D01*
X118017037Y-95129408D01*
X118034075Y-95192993D01*
X118099901Y-95307007D01*
X118192993Y-95400099D01*
X118307007Y-95465925D01*
X118370590Y-95482962D01*
X117738282Y-96115269D01*
X117738282Y-96115270D01*
X117792452Y-96154626D01*
X117792451Y-96154626D01*
X117801495Y-96159234D01*
X117852292Y-96207208D01*
X117869087Y-96275029D01*
X117846550Y-96341164D01*
X117801499Y-96380202D01*
X117792182Y-96384949D01*
X117620213Y-96509890D01*
X117469890Y-96660213D01*
X117344951Y-96832179D01*
X117248444Y-97021585D01*
X117182753Y-97223760D01*
X117149500Y-97433713D01*
X115850500Y-97433713D01*
X115817246Y-97223757D01*
X115751557Y-97021588D01*
X115655051Y-96832184D01*
X115655049Y-96832181D01*
X115655048Y-96832179D01*
X115530109Y-96660213D01*
X115379786Y-96509890D01*
X115207817Y-96384949D01*
X115198504Y-96380204D01*
X115147707Y-96332230D01*
X115130912Y-96264409D01*
X115153449Y-96198274D01*
X115198507Y-96159232D01*
X115207555Y-96154622D01*
X115261716Y-96115270D01*
X115261717Y-96115270D01*
X114629408Y-95482962D01*
X114692993Y-95465925D01*
X114807007Y-95400099D01*
X114900099Y-95307007D01*
X114965925Y-95192993D01*
X114982962Y-95129409D01*
X115615270Y-95761717D01*
X115615270Y-95761716D01*
X115654622Y-95707554D01*
X115751095Y-95518217D01*
X115816757Y-95316130D01*
X115816757Y-95316127D01*
X115850000Y-95106246D01*
X115850000Y-94893753D01*
X115816757Y-94683872D01*
X115816757Y-94683869D01*
X115751095Y-94481782D01*
X115654624Y-94292449D01*
X115615270Y-94238282D01*
X114982962Y-94870590D01*
X114965925Y-94807007D01*
X114900099Y-94692993D01*
X114807007Y-94599901D01*
X114692993Y-94534075D01*
X114629409Y-94517037D01*
X115261716Y-93884728D01*
X115207550Y-93845375D01*
X115018217Y-93748904D01*
X114816129Y-93683242D01*
X114606246Y-93650000D01*
X114393754Y-93650000D01*
X114183872Y-93683242D01*
X114183869Y-93683242D01*
X113981782Y-93748904D01*
X113792439Y-93845380D01*
X113738282Y-93884727D01*
X113738282Y-93884728D01*
X114370591Y-94517037D01*
X114307007Y-94534075D01*
X114192993Y-94599901D01*
X114099901Y-94692993D01*
X114034075Y-94807007D01*
X114017037Y-94870591D01*
X113384728Y-94238282D01*
X113384727Y-94238282D01*
X113345380Y-94292439D01*
X113248904Y-94481782D01*
X113183242Y-94683869D01*
X113183242Y-94683872D01*
X113150000Y-94893753D01*
X113150000Y-95106246D01*
X113183242Y-95316127D01*
X113183242Y-95316130D01*
X113248904Y-95518217D01*
X113345375Y-95707550D01*
X113384728Y-95761716D01*
X114017037Y-95129408D01*
X114034075Y-95192993D01*
X114099901Y-95307007D01*
X114192993Y-95400099D01*
X114307007Y-95465925D01*
X114370590Y-95482962D01*
X113738282Y-96115269D01*
X113738282Y-96115270D01*
X113792452Y-96154626D01*
X113792451Y-96154626D01*
X113801495Y-96159234D01*
X113852292Y-96207208D01*
X113869087Y-96275029D01*
X113846550Y-96341164D01*
X113801499Y-96380202D01*
X113792182Y-96384949D01*
X113620213Y-96509890D01*
X113469890Y-96660213D01*
X113344951Y-96832179D01*
X113248444Y-97021585D01*
X113182753Y-97223760D01*
X113149500Y-97433713D01*
X113149500Y-97646286D01*
X113182753Y-97856239D01*
X113182753Y-97856241D01*
X113182754Y-97856243D01*
X113240138Y-98032853D01*
X113248445Y-98058417D01*
X113264866Y-98090646D01*
X113277762Y-98159315D01*
X113251485Y-98224056D01*
X113194378Y-98264312D01*
X113124573Y-98267304D01*
X113066700Y-98234621D01*
X113010292Y-98178213D01*
X113010288Y-98178210D01*
X112879185Y-98090609D01*
X112879172Y-98090602D01*
X112733501Y-98030264D01*
X112733489Y-98030261D01*
X112578845Y-97999500D01*
X112578842Y-97999500D01*
X112421158Y-97999500D01*
X112421155Y-97999500D01*
X112266510Y-98030261D01*
X112266498Y-98030264D01*
X112120827Y-98090602D01*
X112120815Y-98090609D01*
X112026541Y-98153602D01*
X112008494Y-98159252D01*
X111992585Y-98169477D01*
X111961625Y-98173928D01*
X111959864Y-98174480D01*
X111957650Y-98174500D01*
X111884509Y-98174500D01*
X111817470Y-98154815D01*
X111771715Y-98102011D01*
X111761771Y-98032853D01*
X111766578Y-98012182D01*
X111770699Y-97999500D01*
X111817246Y-97856243D01*
X111850500Y-97646287D01*
X111850500Y-97433713D01*
X111817246Y-97223757D01*
X111751557Y-97021588D01*
X111655051Y-96832184D01*
X111655049Y-96832181D01*
X111655048Y-96832179D01*
X111530109Y-96660213D01*
X111379786Y-96509890D01*
X111207817Y-96384949D01*
X111198504Y-96380204D01*
X111147707Y-96332230D01*
X111130912Y-96264409D01*
X111153449Y-96198274D01*
X111198507Y-96159232D01*
X111207555Y-96154622D01*
X111261716Y-96115270D01*
X111261717Y-96115270D01*
X110629408Y-95482962D01*
X110692993Y-95465925D01*
X110807007Y-95400099D01*
X110900099Y-95307007D01*
X110965925Y-95192993D01*
X110982962Y-95129408D01*
X111615270Y-95761717D01*
X111615270Y-95761716D01*
X111654622Y-95707554D01*
X111751095Y-95518217D01*
X111816757Y-95316130D01*
X111816757Y-95316127D01*
X111850000Y-95106246D01*
X111850000Y-94893753D01*
X111816757Y-94683872D01*
X111816757Y-94683869D01*
X111751095Y-94481782D01*
X111654624Y-94292449D01*
X111615270Y-94238282D01*
X111615269Y-94238282D01*
X110982962Y-94870590D01*
X110965925Y-94807007D01*
X110900099Y-94692993D01*
X110807007Y-94599901D01*
X110692993Y-94534075D01*
X110629409Y-94517037D01*
X111261716Y-93884728D01*
X111207550Y-93845375D01*
X111018217Y-93748904D01*
X110816129Y-93683242D01*
X110606246Y-93650000D01*
X110393754Y-93650000D01*
X110183872Y-93683242D01*
X110183869Y-93683242D01*
X109981782Y-93748904D01*
X109792439Y-93845380D01*
X109738282Y-93884727D01*
X109738282Y-93884728D01*
X110370591Y-94517037D01*
X110307007Y-94534075D01*
X110192993Y-94599901D01*
X110099901Y-94692993D01*
X110034075Y-94807007D01*
X110017037Y-94870591D01*
X109384728Y-94238282D01*
X109384727Y-94238282D01*
X109345380Y-94292439D01*
X109248904Y-94481782D01*
X109183242Y-94683869D01*
X109183242Y-94683872D01*
X109150000Y-94893753D01*
X109150000Y-95106246D01*
X109183242Y-95316127D01*
X109183242Y-95316130D01*
X109248904Y-95518217D01*
X109345375Y-95707550D01*
X109384728Y-95761716D01*
X110017037Y-95129408D01*
X110034075Y-95192993D01*
X110099901Y-95307007D01*
X110192993Y-95400099D01*
X110307007Y-95465925D01*
X110370590Y-95482962D01*
X109738282Y-96115269D01*
X109738282Y-96115270D01*
X109792452Y-96154626D01*
X109792451Y-96154626D01*
X109801495Y-96159234D01*
X109852292Y-96207208D01*
X109869087Y-96275029D01*
X109846550Y-96341164D01*
X109801499Y-96380202D01*
X109792182Y-96384949D01*
X109620213Y-96509890D01*
X109469890Y-96660213D01*
X109344951Y-96832179D01*
X109248444Y-97021585D01*
X109182753Y-97223760D01*
X109149500Y-97433713D01*
X109149500Y-97646286D01*
X109182753Y-97856240D01*
X109233422Y-98012182D01*
X109235417Y-98082023D01*
X109199337Y-98141856D01*
X109136636Y-98172684D01*
X109115491Y-98174500D01*
X107884509Y-98174500D01*
X107817470Y-98154815D01*
X107771715Y-98102011D01*
X107761771Y-98032853D01*
X107766578Y-98012182D01*
X107770699Y-97999500D01*
X107817246Y-97856243D01*
X107850500Y-97646287D01*
X107850500Y-97433713D01*
X107817246Y-97223757D01*
X107751557Y-97021588D01*
X107655051Y-96832184D01*
X107655049Y-96832181D01*
X107655048Y-96832179D01*
X107530109Y-96660213D01*
X107379786Y-96509890D01*
X107207817Y-96384949D01*
X107198504Y-96380204D01*
X107147707Y-96332230D01*
X107130912Y-96264409D01*
X107153449Y-96198274D01*
X107198507Y-96159232D01*
X107207555Y-96154622D01*
X107261716Y-96115270D01*
X107261717Y-96115270D01*
X106629408Y-95482962D01*
X106692993Y-95465925D01*
X106807007Y-95400099D01*
X106900099Y-95307007D01*
X106965925Y-95192993D01*
X106982962Y-95129408D01*
X107615270Y-95761717D01*
X107615270Y-95761716D01*
X107654622Y-95707554D01*
X107751095Y-95518217D01*
X107816757Y-95316130D01*
X107816757Y-95316127D01*
X107850000Y-95106246D01*
X107850000Y-94893753D01*
X107816757Y-94683872D01*
X107816757Y-94683869D01*
X107751095Y-94481782D01*
X107654624Y-94292449D01*
X107615270Y-94238282D01*
X107615269Y-94238282D01*
X106982962Y-94870590D01*
X106965925Y-94807007D01*
X106900099Y-94692993D01*
X106807007Y-94599901D01*
X106692993Y-94534075D01*
X106629409Y-94517037D01*
X107261716Y-93884728D01*
X107207550Y-93845375D01*
X107018217Y-93748904D01*
X106816129Y-93683242D01*
X106606246Y-93650000D01*
X106393754Y-93650000D01*
X106183872Y-93683242D01*
X106183869Y-93683242D01*
X105981782Y-93748904D01*
X105792439Y-93845380D01*
X105738282Y-93884727D01*
X105738282Y-93884728D01*
X106370591Y-94517037D01*
X106307007Y-94534075D01*
X106192993Y-94599901D01*
X106099901Y-94692993D01*
X106034075Y-94807007D01*
X106017037Y-94870591D01*
X105384728Y-94238282D01*
X105384727Y-94238282D01*
X105345380Y-94292439D01*
X105248904Y-94481782D01*
X105183242Y-94683869D01*
X105183242Y-94683872D01*
X105150000Y-94893753D01*
X105150000Y-95106246D01*
X105183242Y-95316127D01*
X105183242Y-95316130D01*
X105248904Y-95518217D01*
X105345375Y-95707550D01*
X105384728Y-95761716D01*
X106017036Y-95129407D01*
X106034075Y-95192993D01*
X106099901Y-95307007D01*
X106192993Y-95400099D01*
X106307007Y-95465925D01*
X106370590Y-95482962D01*
X105738282Y-96115269D01*
X105738282Y-96115270D01*
X105792452Y-96154626D01*
X105792451Y-96154626D01*
X105801495Y-96159234D01*
X105852292Y-96207208D01*
X105869087Y-96275029D01*
X105846550Y-96341164D01*
X105801499Y-96380202D01*
X105792182Y-96384949D01*
X105620213Y-96509890D01*
X105469890Y-96660213D01*
X105344951Y-96832179D01*
X105248444Y-97021585D01*
X105182753Y-97223760D01*
X105149500Y-97433713D01*
X105149500Y-97646286D01*
X105182753Y-97856240D01*
X105233422Y-98012182D01*
X105235417Y-98082023D01*
X105199337Y-98141856D01*
X105136636Y-98172684D01*
X105115491Y-98174500D01*
X104138388Y-98174500D01*
X104017555Y-98198535D01*
X104017547Y-98198537D01*
X103903716Y-98245687D01*
X103801267Y-98314141D01*
X103734909Y-98380500D01*
X103647226Y-98468182D01*
X103585905Y-98501666D01*
X103559547Y-98504500D01*
X103254500Y-98504500D01*
X103187461Y-98484815D01*
X103141706Y-98432011D01*
X103130500Y-98380500D01*
X103130499Y-96642129D01*
X103130498Y-96642123D01*
X103124091Y-96582516D01*
X103073797Y-96447671D01*
X103073793Y-96447664D01*
X102987547Y-96332455D01*
X102987544Y-96332452D01*
X102872335Y-96246206D01*
X102872328Y-96246202D01*
X102737482Y-96195908D01*
X102737483Y-96195908D01*
X102677883Y-96189501D01*
X102677881Y-96189500D01*
X102677873Y-96189500D01*
X102677864Y-96189500D01*
X100882129Y-96189500D01*
X100882123Y-96189501D01*
X100822516Y-96195908D01*
X100687671Y-96246202D01*
X100687664Y-96246206D01*
X100572455Y-96332452D01*
X100572452Y-96332455D01*
X100486206Y-96447664D01*
X100486203Y-96447669D01*
X100437189Y-96579083D01*
X100395317Y-96635016D01*
X100329853Y-96659433D01*
X100261580Y-96644581D01*
X100233326Y-96623430D01*
X100119786Y-96509890D01*
X99947820Y-96384951D01*
X99758414Y-96288444D01*
X99758413Y-96288443D01*
X99758412Y-96288443D01*
X99556243Y-96222754D01*
X99556241Y-96222753D01*
X99556240Y-96222753D01*
X99394957Y-96197208D01*
X99346287Y-96189500D01*
X99133713Y-96189500D01*
X99085042Y-96197208D01*
X98923760Y-96222753D01*
X98721585Y-96288444D01*
X98532179Y-96384951D01*
X98360213Y-96509890D01*
X98209890Y-96660213D01*
X98084949Y-96832182D01*
X98080484Y-96840946D01*
X98032509Y-96891742D01*
X97964688Y-96908536D01*
X97898553Y-96885998D01*
X97859516Y-96840946D01*
X97855050Y-96832182D01*
X97730109Y-96660213D01*
X97579786Y-96509890D01*
X97407820Y-96384951D01*
X97218414Y-96288444D01*
X97218413Y-96288443D01*
X97218412Y-96288443D01*
X97016243Y-96222754D01*
X97016241Y-96222753D01*
X97016240Y-96222753D01*
X96854957Y-96197208D01*
X96806287Y-96189500D01*
X96593713Y-96189500D01*
X96545042Y-96197208D01*
X96383760Y-96222753D01*
X96181585Y-96288444D01*
X95992179Y-96384951D01*
X95820213Y-96509890D01*
X95669890Y-96660213D01*
X95544949Y-96832182D01*
X95540484Y-96840946D01*
X95492509Y-96891742D01*
X95424688Y-96908536D01*
X95358553Y-96885998D01*
X95319516Y-96840946D01*
X95315050Y-96832182D01*
X95190109Y-96660213D01*
X95039786Y-96509890D01*
X94867820Y-96384951D01*
X94678414Y-96288444D01*
X94678413Y-96288443D01*
X94678412Y-96288443D01*
X94476243Y-96222754D01*
X94476241Y-96222753D01*
X94476240Y-96222753D01*
X94314957Y-96197208D01*
X94266287Y-96189500D01*
X94053713Y-96189500D01*
X94005042Y-96197208D01*
X93843760Y-96222753D01*
X93641585Y-96288444D01*
X93452179Y-96384951D01*
X93280213Y-96509890D01*
X93129890Y-96660213D01*
X93004949Y-96832182D01*
X93000484Y-96840946D01*
X92952509Y-96891742D01*
X92884688Y-96908536D01*
X92818553Y-96885998D01*
X92779516Y-96840946D01*
X92775050Y-96832182D01*
X92650109Y-96660213D01*
X92499786Y-96509890D01*
X92327820Y-96384951D01*
X92138414Y-96288444D01*
X92138413Y-96288443D01*
X92138412Y-96288443D01*
X91936243Y-96222754D01*
X91936241Y-96222753D01*
X91936240Y-96222753D01*
X91774957Y-96197208D01*
X91726287Y-96189500D01*
X91513713Y-96189500D01*
X91465042Y-96197208D01*
X91303760Y-96222753D01*
X91101585Y-96288444D01*
X90912179Y-96384951D01*
X90740213Y-96509890D01*
X90589890Y-96660213D01*
X90464951Y-96832179D01*
X90368444Y-97021585D01*
X90302753Y-97223760D01*
X90269500Y-97433713D01*
X88950499Y-97433713D01*
X88950499Y-96642128D01*
X88944091Y-96582517D01*
X88942810Y-96579083D01*
X88893797Y-96447671D01*
X88893793Y-96447664D01*
X88807547Y-96332455D01*
X88807544Y-96332452D01*
X88692335Y-96246206D01*
X88692328Y-96246202D01*
X88557482Y-96195908D01*
X88557483Y-96195908D01*
X88497883Y-96189501D01*
X88497881Y-96189500D01*
X88497873Y-96189500D01*
X88497864Y-96189500D01*
X86702129Y-96189500D01*
X86702123Y-96189501D01*
X86642516Y-96195908D01*
X86507671Y-96246202D01*
X86507664Y-96246206D01*
X86392455Y-96332452D01*
X86392452Y-96332455D01*
X86306206Y-96447664D01*
X86306203Y-96447669D01*
X86257189Y-96579083D01*
X86215317Y-96635016D01*
X86149853Y-96659433D01*
X86081580Y-96644581D01*
X86053326Y-96623430D01*
X85939786Y-96509890D01*
X85767820Y-96384951D01*
X85578414Y-96288444D01*
X85578413Y-96288443D01*
X85578412Y-96288443D01*
X85376243Y-96222754D01*
X85376241Y-96222753D01*
X85376240Y-96222753D01*
X85214957Y-96197208D01*
X85166287Y-96189500D01*
X84953713Y-96189500D01*
X84905042Y-96197208D01*
X84743760Y-96222753D01*
X84541585Y-96288444D01*
X84352179Y-96384951D01*
X84180213Y-96509890D01*
X84029890Y-96660213D01*
X83904949Y-96832182D01*
X83900484Y-96840946D01*
X83852509Y-96891742D01*
X83784688Y-96908536D01*
X83718553Y-96885998D01*
X83679516Y-96840946D01*
X83675050Y-96832182D01*
X83550109Y-96660213D01*
X83399786Y-96509890D01*
X83227820Y-96384951D01*
X83038414Y-96288444D01*
X83038413Y-96288443D01*
X83038412Y-96288443D01*
X82836243Y-96222754D01*
X82836241Y-96222753D01*
X82836240Y-96222753D01*
X82674957Y-96197208D01*
X82626287Y-96189500D01*
X82413713Y-96189500D01*
X82365042Y-96197208D01*
X82203760Y-96222753D01*
X82001585Y-96288444D01*
X81812179Y-96384951D01*
X81640213Y-96509890D01*
X81489890Y-96660213D01*
X81364949Y-96832182D01*
X81360484Y-96840946D01*
X81312509Y-96891742D01*
X81244688Y-96908536D01*
X81178553Y-96885998D01*
X81139516Y-96840946D01*
X81135050Y-96832182D01*
X81010109Y-96660213D01*
X80859786Y-96509890D01*
X80687820Y-96384951D01*
X80498414Y-96288444D01*
X80498413Y-96288443D01*
X80498412Y-96288443D01*
X80296243Y-96222754D01*
X80296241Y-96222753D01*
X80296240Y-96222753D01*
X80134957Y-96197208D01*
X80086287Y-96189500D01*
X79873713Y-96189500D01*
X79825042Y-96197208D01*
X79663760Y-96222753D01*
X79461585Y-96288444D01*
X79272179Y-96384951D01*
X79100213Y-96509890D01*
X78949890Y-96660213D01*
X78824949Y-96832182D01*
X78820484Y-96840946D01*
X78772509Y-96891742D01*
X78704688Y-96908536D01*
X78638553Y-96885998D01*
X78599516Y-96840946D01*
X78595050Y-96832182D01*
X78470109Y-96660213D01*
X78319786Y-96509890D01*
X78147820Y-96384951D01*
X77958414Y-96288444D01*
X77958413Y-96288443D01*
X77958412Y-96288443D01*
X77756243Y-96222754D01*
X77756241Y-96222753D01*
X77756240Y-96222753D01*
X77594957Y-96197208D01*
X77546287Y-96189500D01*
X77333713Y-96189500D01*
X77285042Y-96197208D01*
X77123760Y-96222753D01*
X76921585Y-96288444D01*
X76732179Y-96384951D01*
X76560213Y-96509890D01*
X76409890Y-96660213D01*
X76284951Y-96832179D01*
X76188444Y-97021585D01*
X76122753Y-97223760D01*
X76089500Y-97433713D01*
X75250500Y-97433713D01*
X75250500Y-97421902D01*
X75213553Y-97188631D01*
X75140566Y-96964003D01*
X75033342Y-96753566D01*
X74894517Y-96562490D01*
X74727510Y-96395483D01*
X74536433Y-96256657D01*
X74508554Y-96242452D01*
X74325996Y-96149433D01*
X74101368Y-96076446D01*
X73868097Y-96039500D01*
X73868092Y-96039500D01*
X73631908Y-96039500D01*
X73631903Y-96039500D01*
X73398631Y-96076446D01*
X73174003Y-96149433D01*
X72963566Y-96256657D01*
X72912448Y-96293797D01*
X72772490Y-96395483D01*
X72772488Y-96395485D01*
X72772487Y-96395485D01*
X72605485Y-96562487D01*
X72605485Y-96562488D01*
X72605483Y-96562490D01*
X72552790Y-96635016D01*
X72466657Y-96753566D01*
X72359433Y-96964003D01*
X72286446Y-97188631D01*
X72249500Y-97421902D01*
X69250500Y-97421902D01*
X69213553Y-97188631D01*
X69140566Y-96964003D01*
X69033342Y-96753566D01*
X68894517Y-96562490D01*
X68727510Y-96395483D01*
X68536433Y-96256657D01*
X68508554Y-96242452D01*
X68325996Y-96149433D01*
X68101368Y-96076446D01*
X67868097Y-96039500D01*
X67868092Y-96039500D01*
X67631908Y-96039500D01*
X67631903Y-96039500D01*
X67398631Y-96076446D01*
X67174003Y-96149433D01*
X66963566Y-96256657D01*
X66912448Y-96293797D01*
X66772490Y-96395483D01*
X66772488Y-96395485D01*
X66772487Y-96395485D01*
X66605485Y-96562487D01*
X66605485Y-96562488D01*
X66605483Y-96562490D01*
X66552790Y-96635016D01*
X66466657Y-96753566D01*
X66359433Y-96964003D01*
X66286446Y-97188631D01*
X66249500Y-97421902D01*
X65375500Y-97421902D01*
X65338553Y-97188631D01*
X65265566Y-96964003D01*
X65158342Y-96753566D01*
X65019517Y-96562490D01*
X64852510Y-96395483D01*
X64661433Y-96256657D01*
X64633554Y-96242452D01*
X64450996Y-96149433D01*
X64226368Y-96076446D01*
X63993097Y-96039500D01*
X63993092Y-96039500D01*
X63756908Y-96039500D01*
X63756903Y-96039500D01*
X63523631Y-96076446D01*
X63299003Y-96149433D01*
X63088566Y-96256657D01*
X63037448Y-96293797D01*
X62897490Y-96395483D01*
X62897488Y-96395485D01*
X62897487Y-96395485D01*
X62730485Y-96562487D01*
X62730485Y-96562488D01*
X62730483Y-96562490D01*
X62677790Y-96635016D01*
X62591657Y-96753566D01*
X62484433Y-96964003D01*
X62411446Y-97188631D01*
X62374500Y-97421902D01*
X59375500Y-97421902D01*
X59338553Y-97188631D01*
X59265566Y-96964003D01*
X59158342Y-96753566D01*
X59019517Y-96562490D01*
X58852510Y-96395483D01*
X58661433Y-96256657D01*
X58633554Y-96242452D01*
X58450996Y-96149433D01*
X58226368Y-96076446D01*
X57993097Y-96039500D01*
X57993092Y-96039500D01*
X57756908Y-96039500D01*
X57756903Y-96039500D01*
X57523631Y-96076446D01*
X57299003Y-96149433D01*
X57088566Y-96256657D01*
X57037448Y-96293797D01*
X56897490Y-96395483D01*
X56897488Y-96395485D01*
X56897487Y-96395485D01*
X56730485Y-96562487D01*
X56730485Y-96562488D01*
X56730483Y-96562490D01*
X56677790Y-96635016D01*
X56591657Y-96753566D01*
X56484433Y-96964003D01*
X56411446Y-97188631D01*
X56374500Y-97421902D01*
X55500500Y-97421902D01*
X55463553Y-97188631D01*
X55390566Y-96964003D01*
X55283342Y-96753566D01*
X55144517Y-96562490D01*
X54977510Y-96395483D01*
X54786433Y-96256657D01*
X54758554Y-96242452D01*
X54575996Y-96149433D01*
X54351368Y-96076446D01*
X54118097Y-96039500D01*
X54118092Y-96039500D01*
X53881908Y-96039500D01*
X53881903Y-96039500D01*
X53648631Y-96076446D01*
X53424003Y-96149433D01*
X53213566Y-96256657D01*
X53162448Y-96293797D01*
X53022490Y-96395483D01*
X53022488Y-96395485D01*
X53022487Y-96395485D01*
X52855485Y-96562487D01*
X52855485Y-96562488D01*
X52855483Y-96562490D01*
X52802790Y-96635016D01*
X52716657Y-96753566D01*
X52609433Y-96964003D01*
X52536446Y-97188631D01*
X52499500Y-97421902D01*
X49500500Y-97421902D01*
X49463553Y-97188631D01*
X49390566Y-96964003D01*
X49283342Y-96753566D01*
X49144517Y-96562490D01*
X48977510Y-96395483D01*
X48786433Y-96256657D01*
X48758554Y-96242452D01*
X48575996Y-96149433D01*
X48351368Y-96076446D01*
X48118097Y-96039500D01*
X48118092Y-96039500D01*
X47881908Y-96039500D01*
X47881903Y-96039500D01*
X47648631Y-96076446D01*
X47424003Y-96149433D01*
X47213566Y-96256657D01*
X47162448Y-96293797D01*
X47022490Y-96395483D01*
X47022488Y-96395485D01*
X47022487Y-96395485D01*
X46855485Y-96562487D01*
X46855485Y-96562488D01*
X46855483Y-96562490D01*
X46802790Y-96635016D01*
X46716657Y-96753566D01*
X46609433Y-96964003D01*
X46536446Y-97188631D01*
X46499500Y-97421902D01*
X45625500Y-97421902D01*
X45588553Y-97188631D01*
X45515566Y-96964003D01*
X45408342Y-96753566D01*
X45269517Y-96562490D01*
X45102510Y-96395483D01*
X44911433Y-96256657D01*
X44883554Y-96242452D01*
X44700996Y-96149433D01*
X44476368Y-96076446D01*
X44243097Y-96039500D01*
X44243092Y-96039500D01*
X44006908Y-96039500D01*
X44006903Y-96039500D01*
X43773631Y-96076446D01*
X43549003Y-96149433D01*
X43338566Y-96256657D01*
X43287448Y-96293797D01*
X43147490Y-96395483D01*
X43147488Y-96395485D01*
X43147487Y-96395485D01*
X42980485Y-96562487D01*
X42980485Y-96562488D01*
X42980483Y-96562490D01*
X42927790Y-96635016D01*
X42841657Y-96753566D01*
X42734433Y-96964003D01*
X42661446Y-97188631D01*
X42624500Y-97421902D01*
X39625500Y-97421902D01*
X39588553Y-97188631D01*
X39515566Y-96964003D01*
X39408342Y-96753566D01*
X39269517Y-96562490D01*
X39102510Y-96395483D01*
X38911433Y-96256657D01*
X38883554Y-96242452D01*
X38700996Y-96149433D01*
X38476368Y-96076446D01*
X38243097Y-96039500D01*
X38243092Y-96039500D01*
X38006908Y-96039500D01*
X38006903Y-96039500D01*
X37773631Y-96076446D01*
X37549003Y-96149433D01*
X37338566Y-96256657D01*
X37287448Y-96293797D01*
X37147490Y-96395483D01*
X37147488Y-96395485D01*
X37147487Y-96395485D01*
X36980485Y-96562487D01*
X36980485Y-96562488D01*
X36980483Y-96562490D01*
X36927790Y-96635016D01*
X36841657Y-96753566D01*
X36734433Y-96964003D01*
X36661446Y-97188631D01*
X36624500Y-97421902D01*
X25500500Y-97421902D01*
X25500500Y-89785777D01*
X124739500Y-89785777D01*
X124739500Y-91414208D01*
X124739501Y-91414223D01*
X124749904Y-91546413D01*
X124749905Y-91546420D01*
X124804902Y-91764678D01*
X124804903Y-91764681D01*
X124897991Y-91969622D01*
X124897997Y-91969632D01*
X125026174Y-92154645D01*
X125026178Y-92154650D01*
X125026181Y-92154654D01*
X125185346Y-92313819D01*
X125185350Y-92313822D01*
X125185354Y-92313825D01*
X125295044Y-92389818D01*
X125370374Y-92442007D01*
X125575317Y-92535096D01*
X125575321Y-92535097D01*
X125793579Y-92590094D01*
X125793581Y-92590094D01*
X125793588Y-92590096D01*
X125925783Y-92600500D01*
X128554216Y-92600499D01*
X128686412Y-92590096D01*
X128904683Y-92535096D01*
X129109626Y-92442007D01*
X129294654Y-92313819D01*
X129453819Y-92154654D01*
X129582007Y-91969626D01*
X129675096Y-91764683D01*
X129730096Y-91546412D01*
X129740500Y-91414217D01*
X129740499Y-89785784D01*
X129730096Y-89653588D01*
X129675096Y-89435317D01*
X129582007Y-89230374D01*
X129453819Y-89045346D01*
X129294654Y-88886181D01*
X129294650Y-88886178D01*
X129294645Y-88886174D01*
X129109632Y-88757997D01*
X129109630Y-88757995D01*
X129109626Y-88757993D01*
X128904683Y-88664904D01*
X128904681Y-88664903D01*
X128904678Y-88664902D01*
X128686420Y-88609905D01*
X128686413Y-88609904D01*
X128642347Y-88606436D01*
X128554217Y-88599500D01*
X128554215Y-88599500D01*
X125925791Y-88599500D01*
X125925776Y-88599501D01*
X125793586Y-88609904D01*
X125793579Y-88609905D01*
X125575321Y-88664902D01*
X125575318Y-88664903D01*
X125370377Y-88757991D01*
X125370367Y-88757997D01*
X125185354Y-88886174D01*
X125185342Y-88886184D01*
X125026184Y-89045342D01*
X125026174Y-89045354D01*
X124897997Y-89230367D01*
X124897991Y-89230377D01*
X124804903Y-89435318D01*
X124804902Y-89435321D01*
X124749905Y-89653579D01*
X124749904Y-89653586D01*
X124739500Y-89785777D01*
X25500500Y-89785777D01*
X25500500Y-85911304D01*
X136099500Y-85911304D01*
X136099500Y-86088695D01*
X136134103Y-86262658D01*
X136134106Y-86262667D01*
X136201983Y-86426540D01*
X136201990Y-86426553D01*
X136300535Y-86574034D01*
X136300538Y-86574038D01*
X136425961Y-86699461D01*
X136425965Y-86699464D01*
X136573446Y-86798009D01*
X136573459Y-86798016D01*
X136650106Y-86829763D01*
X136737334Y-86865894D01*
X136784318Y-86875239D01*
X136846227Y-86907622D01*
X136847807Y-86909175D01*
X138090823Y-88152190D01*
X138124308Y-88213513D01*
X138124759Y-88215679D01*
X138134104Y-88262660D01*
X138134107Y-88262670D01*
X138201983Y-88426540D01*
X138201990Y-88426553D01*
X138300535Y-88574034D01*
X138300538Y-88574038D01*
X138425961Y-88699461D01*
X138425965Y-88699464D01*
X138573446Y-88798009D01*
X138573459Y-88798016D01*
X138696363Y-88848923D01*
X138737334Y-88865894D01*
X138737336Y-88865894D01*
X138737341Y-88865896D01*
X138911304Y-88900499D01*
X138911307Y-88900500D01*
X138911309Y-88900500D01*
X139088693Y-88900500D01*
X139088694Y-88900499D01*
X139160712Y-88886174D01*
X139262658Y-88865896D01*
X139262661Y-88865894D01*
X139262666Y-88865894D01*
X139426547Y-88798013D01*
X139574035Y-88699464D01*
X139699464Y-88574035D01*
X139798013Y-88426547D01*
X139865894Y-88262666D01*
X139875241Y-88215679D01*
X139900499Y-88088695D01*
X139900500Y-88088693D01*
X139900500Y-87911306D01*
X139900499Y-87911304D01*
X139865896Y-87737341D01*
X139865893Y-87737332D01*
X139798016Y-87573459D01*
X139798009Y-87573446D01*
X139699464Y-87425965D01*
X139699461Y-87425961D01*
X139574038Y-87300538D01*
X139574034Y-87300535D01*
X139426553Y-87201990D01*
X139426540Y-87201983D01*
X139262670Y-87134107D01*
X139262660Y-87134104D01*
X139215679Y-87124759D01*
X139153768Y-87092374D01*
X139152190Y-87090823D01*
X137909175Y-85847807D01*
X137875690Y-85786484D01*
X137875262Y-85784432D01*
X137865894Y-85737334D01*
X137848923Y-85696363D01*
X137798016Y-85573459D01*
X137798009Y-85573446D01*
X137699464Y-85425965D01*
X137699461Y-85425961D01*
X137574038Y-85300538D01*
X137574034Y-85300535D01*
X137426553Y-85201990D01*
X137426540Y-85201983D01*
X137262667Y-85134106D01*
X137262658Y-85134103D01*
X137088694Y-85099500D01*
X137088691Y-85099500D01*
X136911309Y-85099500D01*
X136911306Y-85099500D01*
X136737341Y-85134103D01*
X136737332Y-85134106D01*
X136573459Y-85201983D01*
X136573446Y-85201990D01*
X136425965Y-85300535D01*
X136425961Y-85300538D01*
X136300538Y-85425961D01*
X136300535Y-85425965D01*
X136201990Y-85573446D01*
X136201983Y-85573459D01*
X136134106Y-85737332D01*
X136134103Y-85737341D01*
X136099500Y-85911304D01*
X25500500Y-85911304D01*
X25500500Y-33411304D01*
X50299500Y-33411304D01*
X50299500Y-33588695D01*
X50334103Y-33762658D01*
X50334106Y-33762667D01*
X50401984Y-33926542D01*
X50401985Y-33926543D01*
X50401987Y-33926547D01*
X50428602Y-33966378D01*
X50449480Y-34033055D01*
X50449500Y-34035269D01*
X50449500Y-34573918D01*
X50449500Y-34573920D01*
X50449499Y-34573920D01*
X50478340Y-34718907D01*
X50478343Y-34718917D01*
X50534914Y-34855492D01*
X50534915Y-34855494D01*
X50534916Y-34855495D01*
X50546910Y-34873446D01*
X50567812Y-34904727D01*
X50567813Y-34904730D01*
X50617046Y-34978414D01*
X50617052Y-34978421D01*
X51090823Y-35452191D01*
X51124308Y-35513514D01*
X51124759Y-35515680D01*
X51134104Y-35562660D01*
X51134106Y-35562668D01*
X51201983Y-35726540D01*
X51201990Y-35726553D01*
X51300535Y-35874034D01*
X51300538Y-35874038D01*
X51425961Y-35999461D01*
X51425965Y-35999464D01*
X51573446Y-36098009D01*
X51573459Y-36098016D01*
X51696363Y-36148923D01*
X51737334Y-36165894D01*
X51737336Y-36165894D01*
X51737341Y-36165896D01*
X51911304Y-36200499D01*
X51911307Y-36200500D01*
X51911309Y-36200500D01*
X52088693Y-36200500D01*
X52088694Y-36200499D01*
X52146682Y-36188964D01*
X52262658Y-36165896D01*
X52262661Y-36165894D01*
X52262666Y-36165894D01*
X52426547Y-36098013D01*
X52574035Y-35999464D01*
X52699464Y-35874035D01*
X52798013Y-35726547D01*
X52865894Y-35562666D01*
X52900500Y-35388691D01*
X52900500Y-35211309D01*
X52900500Y-35211306D01*
X52900499Y-35211304D01*
X120299500Y-35211304D01*
X120299500Y-35388695D01*
X120334103Y-35562658D01*
X120334106Y-35562667D01*
X120401984Y-35726542D01*
X120401985Y-35726543D01*
X120401987Y-35726547D01*
X120428602Y-35766378D01*
X120449480Y-35833055D01*
X120449500Y-35835269D01*
X120449500Y-60384729D01*
X120429815Y-60451768D01*
X120428602Y-60453620D01*
X120401988Y-60493449D01*
X120401987Y-60493452D01*
X120334106Y-60657332D01*
X120334103Y-60657341D01*
X120299500Y-60831304D01*
X120299500Y-61008695D01*
X120334103Y-61182658D01*
X120334106Y-61182667D01*
X120401983Y-61346540D01*
X120401990Y-61346553D01*
X120500535Y-61494034D01*
X120500538Y-61494038D01*
X120625961Y-61619461D01*
X120625965Y-61619464D01*
X120773446Y-61718009D01*
X120773459Y-61718016D01*
X120896363Y-61768923D01*
X120937334Y-61785894D01*
X120937336Y-61785894D01*
X120937341Y-61785896D01*
X121111304Y-61820499D01*
X121111307Y-61820500D01*
X121111309Y-61820500D01*
X121288693Y-61820500D01*
X121288694Y-61820499D01*
X121346682Y-61808964D01*
X121462658Y-61785896D01*
X121462661Y-61785894D01*
X121462666Y-61785894D01*
X121626547Y-61718013D01*
X121774035Y-61619464D01*
X121899464Y-61494035D01*
X121998013Y-61346547D01*
X122065894Y-61182666D01*
X122100500Y-61008691D01*
X122100500Y-60831309D01*
X122100500Y-60831306D01*
X122100499Y-60831304D01*
X122065896Y-60657341D01*
X122065893Y-60657332D01*
X121998013Y-60493453D01*
X121998011Y-60493451D01*
X121998011Y-60493449D01*
X121971398Y-60453620D01*
X121950520Y-60386942D01*
X121950500Y-60384729D01*
X121950500Y-59591304D01*
X130599500Y-59591304D01*
X130599500Y-59768695D01*
X130634103Y-59942658D01*
X130634106Y-59942667D01*
X130701984Y-60106542D01*
X130701985Y-60106543D01*
X130701987Y-60106547D01*
X130728602Y-60146378D01*
X130749480Y-60213055D01*
X130749500Y-60215269D01*
X130749500Y-83764729D01*
X130729815Y-83831768D01*
X130728602Y-83833620D01*
X130701988Y-83873449D01*
X130701987Y-83873452D01*
X130634106Y-84037332D01*
X130634103Y-84037341D01*
X130599500Y-84211304D01*
X130599500Y-84388695D01*
X130634103Y-84562658D01*
X130634106Y-84562667D01*
X130701983Y-84726540D01*
X130701990Y-84726553D01*
X130800535Y-84874034D01*
X130800538Y-84874038D01*
X130925961Y-84999461D01*
X130925965Y-84999464D01*
X131073446Y-85098009D01*
X131073459Y-85098016D01*
X131160583Y-85134103D01*
X131237334Y-85165894D01*
X131237336Y-85165894D01*
X131237341Y-85165896D01*
X131411304Y-85200499D01*
X131411307Y-85200500D01*
X131411309Y-85200500D01*
X131588693Y-85200500D01*
X131588694Y-85200499D01*
X131646682Y-85188964D01*
X131762658Y-85165896D01*
X131762661Y-85165894D01*
X131762666Y-85165894D01*
X131926547Y-85098013D01*
X132074035Y-84999464D01*
X132199464Y-84874035D01*
X132298013Y-84726547D01*
X132365894Y-84562666D01*
X132400500Y-84388691D01*
X132400500Y-84211309D01*
X132400500Y-84211306D01*
X132400499Y-84211304D01*
X132365896Y-84037341D01*
X132365893Y-84037332D01*
X132298013Y-83873453D01*
X132298011Y-83873451D01*
X132298011Y-83873449D01*
X132271398Y-83833620D01*
X132250520Y-83766942D01*
X132250500Y-83764729D01*
X132250500Y-60215269D01*
X132270185Y-60148230D01*
X132271398Y-60146378D01*
X132298013Y-60106547D01*
X132365894Y-59942666D01*
X132378456Y-59879516D01*
X132400499Y-59768695D01*
X132400500Y-59768693D01*
X132400500Y-59591306D01*
X132400499Y-59591304D01*
X132365896Y-59417341D01*
X132365893Y-59417332D01*
X132298016Y-59253459D01*
X132298009Y-59253446D01*
X132199464Y-59105965D01*
X132199461Y-59105961D01*
X132074038Y-58980538D01*
X132074034Y-58980535D01*
X131926553Y-58881990D01*
X131926540Y-58881983D01*
X131762667Y-58814106D01*
X131762658Y-58814103D01*
X131588694Y-58779500D01*
X131588691Y-58779500D01*
X131411309Y-58779500D01*
X131411306Y-58779500D01*
X131237341Y-58814103D01*
X131237332Y-58814106D01*
X131073459Y-58881983D01*
X131073446Y-58881990D01*
X130925965Y-58980535D01*
X130925961Y-58980538D01*
X130800538Y-59105961D01*
X130800535Y-59105965D01*
X130701990Y-59253446D01*
X130701983Y-59253459D01*
X130634106Y-59417332D01*
X130634103Y-59417341D01*
X130599500Y-59591304D01*
X121950500Y-59591304D01*
X121950500Y-45122135D01*
X132889500Y-45122135D01*
X132889500Y-46917870D01*
X132889501Y-46917876D01*
X132895908Y-46977483D01*
X132946202Y-47112328D01*
X132946206Y-47112335D01*
X133032452Y-47227544D01*
X133032455Y-47227547D01*
X133147664Y-47313793D01*
X133147671Y-47313797D01*
X133279082Y-47362810D01*
X133335016Y-47404681D01*
X133359433Y-47470145D01*
X133344582Y-47538418D01*
X133323431Y-47566673D01*
X133209889Y-47680215D01*
X133084951Y-47852179D01*
X132988444Y-48041585D01*
X132922753Y-48243760D01*
X132889500Y-48453713D01*
X132889500Y-48666286D01*
X132922753Y-48876239D01*
X132988444Y-49078414D01*
X133084951Y-49267820D01*
X133209890Y-49439786D01*
X133360213Y-49590109D01*
X133532182Y-49715050D01*
X133540946Y-49719516D01*
X133591742Y-49767491D01*
X133608536Y-49835312D01*
X133585998Y-49901447D01*
X133540946Y-49940484D01*
X133532182Y-49944949D01*
X133360213Y-50069890D01*
X133209890Y-50220213D01*
X133084951Y-50392179D01*
X132988444Y-50581585D01*
X132922753Y-50783760D01*
X132889500Y-50993713D01*
X132889500Y-51206286D01*
X132922753Y-51416239D01*
X132988444Y-51618414D01*
X133084951Y-51807820D01*
X133209890Y-51979786D01*
X133360213Y-52130109D01*
X133532182Y-52255050D01*
X133540946Y-52259516D01*
X133591742Y-52307491D01*
X133608536Y-52375312D01*
X133585998Y-52441447D01*
X133540946Y-52480484D01*
X133532182Y-52484949D01*
X133360213Y-52609890D01*
X133209890Y-52760213D01*
X133084951Y-52932179D01*
X132988444Y-53121585D01*
X132922753Y-53323760D01*
X132889500Y-53533713D01*
X132889500Y-53746286D01*
X132922753Y-53956239D01*
X132988444Y-54158414D01*
X133084951Y-54347820D01*
X133209890Y-54519786D01*
X133360213Y-54670109D01*
X133532182Y-54795050D01*
X133540946Y-54799516D01*
X133591742Y-54847491D01*
X133608536Y-54915312D01*
X133585998Y-54981447D01*
X133540946Y-55020484D01*
X133532182Y-55024949D01*
X133360213Y-55149890D01*
X133209890Y-55300213D01*
X133084951Y-55472179D01*
X132988444Y-55661585D01*
X132922753Y-55863760D01*
X132889500Y-56073713D01*
X132889500Y-56286286D01*
X132922753Y-56496239D01*
X132988444Y-56698414D01*
X133084951Y-56887820D01*
X133209890Y-57059786D01*
X133360213Y-57210109D01*
X133532182Y-57335050D01*
X133540946Y-57339516D01*
X133591742Y-57387491D01*
X133608536Y-57455312D01*
X133585998Y-57521447D01*
X133540946Y-57560484D01*
X133532182Y-57564949D01*
X133360213Y-57689890D01*
X133209890Y-57840213D01*
X133084951Y-58012179D01*
X132988444Y-58201585D01*
X132922753Y-58403760D01*
X132889500Y-58613713D01*
X132889500Y-58826286D01*
X132922753Y-59036239D01*
X132988444Y-59238414D01*
X133084951Y-59427820D01*
X133209890Y-59599786D01*
X133360213Y-59750109D01*
X133532182Y-59875050D01*
X133540946Y-59879516D01*
X133591742Y-59927491D01*
X133608536Y-59995312D01*
X133585998Y-60061447D01*
X133540946Y-60100484D01*
X133532182Y-60104949D01*
X133360213Y-60229890D01*
X133209890Y-60380213D01*
X133084951Y-60552179D01*
X132988444Y-60741585D01*
X132922753Y-60943760D01*
X132889500Y-61153713D01*
X132889500Y-61366287D01*
X132922754Y-61576243D01*
X132936797Y-61619464D01*
X132988444Y-61778414D01*
X133084951Y-61967820D01*
X133209890Y-62139786D01*
X133360213Y-62290109D01*
X133532182Y-62415050D01*
X133540946Y-62419516D01*
X133591742Y-62467491D01*
X133608536Y-62535312D01*
X133585998Y-62601447D01*
X133540946Y-62640484D01*
X133532182Y-62644949D01*
X133360213Y-62769890D01*
X133209890Y-62920213D01*
X133084951Y-63092179D01*
X132988444Y-63281585D01*
X132922753Y-63483760D01*
X132889500Y-63693713D01*
X132889500Y-63906286D01*
X132922753Y-64116239D01*
X132988444Y-64318414D01*
X133084951Y-64507820D01*
X133209890Y-64679786D01*
X133360213Y-64830109D01*
X133532182Y-64955050D01*
X133540946Y-64959516D01*
X133591742Y-65007491D01*
X133608536Y-65075312D01*
X133585998Y-65141447D01*
X133540946Y-65180484D01*
X133532182Y-65184949D01*
X133360213Y-65309890D01*
X133209890Y-65460213D01*
X133084951Y-65632179D01*
X132988444Y-65821585D01*
X132922753Y-66023760D01*
X132889500Y-66233713D01*
X132889500Y-66446286D01*
X132922753Y-66656239D01*
X132988444Y-66858414D01*
X133084951Y-67047820D01*
X133209890Y-67219786D01*
X133360213Y-67370109D01*
X133532182Y-67495050D01*
X133540946Y-67499516D01*
X133591742Y-67547491D01*
X133608536Y-67615312D01*
X133585998Y-67681447D01*
X133540946Y-67720484D01*
X133532182Y-67724949D01*
X133360213Y-67849890D01*
X133209890Y-68000213D01*
X133084951Y-68172179D01*
X132988444Y-68361585D01*
X132922753Y-68563760D01*
X132889500Y-68773713D01*
X132889500Y-68986286D01*
X132922753Y-69196239D01*
X132988444Y-69398414D01*
X133084951Y-69587820D01*
X133209890Y-69759786D01*
X133360213Y-69910109D01*
X133532182Y-70035050D01*
X133540946Y-70039516D01*
X133591742Y-70087491D01*
X133608536Y-70155312D01*
X133585998Y-70221447D01*
X133540946Y-70260484D01*
X133532182Y-70264949D01*
X133360213Y-70389890D01*
X133209890Y-70540213D01*
X133084951Y-70712179D01*
X132988444Y-70901585D01*
X132922753Y-71103760D01*
X132889500Y-71313713D01*
X132889500Y-71526286D01*
X132922753Y-71736239D01*
X132988444Y-71938414D01*
X133084951Y-72127820D01*
X133209890Y-72299786D01*
X133360213Y-72450109D01*
X133532182Y-72575050D01*
X133540946Y-72579516D01*
X133591742Y-72627491D01*
X133608536Y-72695312D01*
X133585998Y-72761447D01*
X133540946Y-72800484D01*
X133532182Y-72804949D01*
X133360213Y-72929890D01*
X133209890Y-73080213D01*
X133084951Y-73252179D01*
X132988444Y-73441585D01*
X132922753Y-73643760D01*
X132889500Y-73853713D01*
X132889500Y-74066286D01*
X132922753Y-74276239D01*
X132988444Y-74478414D01*
X133084951Y-74667820D01*
X133209890Y-74839786D01*
X133360213Y-74990109D01*
X133532182Y-75115050D01*
X133540946Y-75119516D01*
X133591742Y-75167491D01*
X133608536Y-75235312D01*
X133585998Y-75301447D01*
X133540946Y-75340484D01*
X133532182Y-75344949D01*
X133360213Y-75469890D01*
X133209890Y-75620213D01*
X133084951Y-75792179D01*
X132988444Y-75981585D01*
X132922753Y-76183760D01*
X132889500Y-76393713D01*
X132889500Y-76606286D01*
X132922753Y-76816239D01*
X132988444Y-77018414D01*
X133084951Y-77207820D01*
X133209890Y-77379786D01*
X133360213Y-77530109D01*
X133532179Y-77655048D01*
X133532181Y-77655049D01*
X133532184Y-77655051D01*
X133541493Y-77659794D01*
X133592290Y-77707766D01*
X133609087Y-77775587D01*
X133586552Y-77841722D01*
X133541505Y-77880760D01*
X133532446Y-77885376D01*
X133532440Y-77885380D01*
X133478282Y-77924727D01*
X133478282Y-77924728D01*
X134110591Y-78557037D01*
X134047007Y-78574075D01*
X133932993Y-78639901D01*
X133839901Y-78732993D01*
X133774075Y-78847007D01*
X133757037Y-78910591D01*
X133124728Y-78278282D01*
X133124727Y-78278282D01*
X133085380Y-78332439D01*
X132988904Y-78521782D01*
X132923242Y-78723869D01*
X132923242Y-78723872D01*
X132890000Y-78933753D01*
X132890000Y-79146246D01*
X132923242Y-79356127D01*
X132923242Y-79356130D01*
X132988904Y-79558217D01*
X133085375Y-79747550D01*
X133124728Y-79801716D01*
X133757037Y-79169408D01*
X133774075Y-79232993D01*
X133839901Y-79347007D01*
X133932993Y-79440099D01*
X134047007Y-79505925D01*
X134110590Y-79522962D01*
X133478282Y-80155269D01*
X133478282Y-80155270D01*
X133532452Y-80194626D01*
X133532451Y-80194626D01*
X133541495Y-80199234D01*
X133592292Y-80247208D01*
X133609087Y-80315029D01*
X133586550Y-80381164D01*
X133541499Y-80420202D01*
X133532182Y-80424949D01*
X133360213Y-80549890D01*
X133209890Y-80700213D01*
X133084951Y-80872179D01*
X132988444Y-81061585D01*
X132922753Y-81263760D01*
X132889500Y-81473713D01*
X132889500Y-81686286D01*
X132922753Y-81896239D01*
X132988444Y-82098414D01*
X133084951Y-82287820D01*
X133209890Y-82459786D01*
X133360213Y-82610109D01*
X133532179Y-82735048D01*
X133532181Y-82735049D01*
X133532184Y-82735051D01*
X133721588Y-82831557D01*
X133923757Y-82897246D01*
X134133713Y-82930500D01*
X134133714Y-82930500D01*
X134346286Y-82930500D01*
X134346287Y-82930500D01*
X134556243Y-82897246D01*
X134758412Y-82831557D01*
X134947816Y-82735051D01*
X134969789Y-82719086D01*
X135119786Y-82610109D01*
X135119788Y-82610106D01*
X135119792Y-82610104D01*
X135270104Y-82459792D01*
X135270106Y-82459788D01*
X135270109Y-82459786D01*
X135395048Y-82287820D01*
X135395047Y-82287820D01*
X135395051Y-82287816D01*
X135491557Y-82098412D01*
X135557246Y-81896243D01*
X135590500Y-81686287D01*
X135590500Y-81473713D01*
X135557246Y-81263757D01*
X135491557Y-81061588D01*
X135395051Y-80872184D01*
X135395049Y-80872181D01*
X135395048Y-80872179D01*
X135270109Y-80700213D01*
X135119786Y-80549890D01*
X134947817Y-80424949D01*
X134938504Y-80420204D01*
X134887707Y-80372230D01*
X134870912Y-80304409D01*
X134893449Y-80238274D01*
X134938507Y-80199232D01*
X134947555Y-80194622D01*
X135001716Y-80155270D01*
X135001717Y-80155270D01*
X134369408Y-79522962D01*
X134432993Y-79505925D01*
X134547007Y-79440099D01*
X134640099Y-79347007D01*
X134705925Y-79232993D01*
X134722962Y-79169408D01*
X135355270Y-79801717D01*
X135355270Y-79801716D01*
X135394622Y-79747554D01*
X135491095Y-79558217D01*
X135556757Y-79356130D01*
X135556757Y-79356127D01*
X135590000Y-79146246D01*
X135590000Y-78933753D01*
X135556757Y-78723872D01*
X135556757Y-78723869D01*
X135491095Y-78521782D01*
X135394624Y-78332449D01*
X135355270Y-78278282D01*
X135355269Y-78278282D01*
X134722962Y-78910590D01*
X134705925Y-78847007D01*
X134640099Y-78732993D01*
X134547007Y-78639901D01*
X134432993Y-78574075D01*
X134369409Y-78557037D01*
X135001716Y-77924728D01*
X134947547Y-77885373D01*
X134947547Y-77885372D01*
X134938500Y-77880763D01*
X134887706Y-77832788D01*
X134870912Y-77764966D01*
X134893451Y-77698832D01*
X134938508Y-77659793D01*
X134947816Y-77655051D01*
X135027007Y-77597515D01*
X135119786Y-77530109D01*
X135119788Y-77530106D01*
X135119792Y-77530104D01*
X135270104Y-77379792D01*
X135270106Y-77379788D01*
X135270109Y-77379786D01*
X135395048Y-77207820D01*
X135395047Y-77207820D01*
X135395051Y-77207816D01*
X135491557Y-77018412D01*
X135557246Y-76816243D01*
X135590500Y-76606287D01*
X135590500Y-76393713D01*
X135557246Y-76183757D01*
X135491557Y-75981588D01*
X135395051Y-75792184D01*
X135395049Y-75792181D01*
X135395048Y-75792179D01*
X135270109Y-75620213D01*
X135119786Y-75469890D01*
X134947820Y-75344951D01*
X134947115Y-75344591D01*
X134939054Y-75340485D01*
X134888259Y-75292512D01*
X134871463Y-75224692D01*
X134893999Y-75158556D01*
X134939054Y-75119515D01*
X134947816Y-75115051D01*
X135002572Y-75075269D01*
X135119786Y-74990109D01*
X135119788Y-74990106D01*
X135119792Y-74990104D01*
X135270104Y-74839792D01*
X135270106Y-74839788D01*
X135270109Y-74839786D01*
X135395048Y-74667820D01*
X135395047Y-74667820D01*
X135395051Y-74667816D01*
X135491557Y-74478412D01*
X135557246Y-74276243D01*
X135590500Y-74066287D01*
X135590500Y-73853713D01*
X135557246Y-73643757D01*
X135491557Y-73441588D01*
X135395051Y-73252184D01*
X135395049Y-73252181D01*
X135395048Y-73252179D01*
X135270109Y-73080213D01*
X135119786Y-72929890D01*
X134947820Y-72804951D01*
X134939600Y-72800763D01*
X134939054Y-72800485D01*
X134888259Y-72752512D01*
X134871463Y-72684692D01*
X134893999Y-72618556D01*
X134939054Y-72579515D01*
X134947816Y-72575051D01*
X134969789Y-72559086D01*
X135119786Y-72450109D01*
X135119788Y-72450106D01*
X135119792Y-72450104D01*
X135270104Y-72299792D01*
X135270106Y-72299788D01*
X135270109Y-72299786D01*
X135395048Y-72127820D01*
X135395047Y-72127820D01*
X135395051Y-72127816D01*
X135491557Y-71938412D01*
X135557246Y-71736243D01*
X135590500Y-71526287D01*
X135590500Y-71313713D01*
X135557246Y-71103757D01*
X135491557Y-70901588D01*
X135395051Y-70712184D01*
X135395049Y-70712181D01*
X135395048Y-70712179D01*
X135270109Y-70540213D01*
X135119786Y-70389890D01*
X134947820Y-70264951D01*
X134947115Y-70264591D01*
X134939054Y-70260485D01*
X134888259Y-70212512D01*
X134871463Y-70144692D01*
X134893999Y-70078556D01*
X134939054Y-70039515D01*
X134947816Y-70035051D01*
X134969789Y-70019086D01*
X135119786Y-69910109D01*
X135119788Y-69910106D01*
X135119792Y-69910104D01*
X135270104Y-69759792D01*
X135270106Y-69759788D01*
X135270109Y-69759786D01*
X135395048Y-69587820D01*
X135395047Y-69587820D01*
X135395051Y-69587816D01*
X135491557Y-69398412D01*
X135557246Y-69196243D01*
X135590500Y-68986287D01*
X135590500Y-68773713D01*
X135557246Y-68563757D01*
X135491557Y-68361588D01*
X135395051Y-68172184D01*
X135395049Y-68172181D01*
X135395048Y-68172179D01*
X135270109Y-68000213D01*
X135119786Y-67849890D01*
X134947820Y-67724951D01*
X134947115Y-67724591D01*
X134939054Y-67720485D01*
X134888259Y-67672512D01*
X134871463Y-67604692D01*
X134893999Y-67538556D01*
X134939054Y-67499515D01*
X134947816Y-67495051D01*
X134969789Y-67479086D01*
X135119786Y-67370109D01*
X135119788Y-67370106D01*
X135119792Y-67370104D01*
X135270104Y-67219792D01*
X135270106Y-67219788D01*
X135270109Y-67219786D01*
X135395048Y-67047820D01*
X135395047Y-67047820D01*
X135395051Y-67047816D01*
X135491557Y-66858412D01*
X135557246Y-66656243D01*
X135590500Y-66446287D01*
X135590500Y-66233713D01*
X135557246Y-66023757D01*
X135491557Y-65821588D01*
X135395051Y-65632184D01*
X135395049Y-65632181D01*
X135395048Y-65632179D01*
X135270109Y-65460213D01*
X135119786Y-65309890D01*
X134947820Y-65184951D01*
X134947115Y-65184591D01*
X134939054Y-65180485D01*
X134888259Y-65132512D01*
X134871463Y-65064692D01*
X134893999Y-64998556D01*
X134939054Y-64959515D01*
X134947816Y-64955051D01*
X134969789Y-64939086D01*
X135119786Y-64830109D01*
X135119788Y-64830106D01*
X135119792Y-64830104D01*
X135270104Y-64679792D01*
X135270106Y-64679788D01*
X135270109Y-64679786D01*
X135395048Y-64507820D01*
X135395047Y-64507820D01*
X135395051Y-64507816D01*
X135491557Y-64318412D01*
X135557246Y-64116243D01*
X135590500Y-63906287D01*
X135590500Y-63693713D01*
X135557246Y-63483757D01*
X135491557Y-63281588D01*
X135395051Y-63092184D01*
X135395049Y-63092181D01*
X135395048Y-63092179D01*
X135270109Y-62920213D01*
X135119786Y-62769890D01*
X134947820Y-62644951D01*
X134947115Y-62644591D01*
X134939054Y-62640485D01*
X134888259Y-62592512D01*
X134871463Y-62524692D01*
X134893999Y-62458556D01*
X134939054Y-62419515D01*
X134947816Y-62415051D01*
X134969789Y-62399086D01*
X135119786Y-62290109D01*
X135119788Y-62290106D01*
X135119792Y-62290104D01*
X135270104Y-62139792D01*
X135270106Y-62139788D01*
X135270109Y-62139786D01*
X135395048Y-61967820D01*
X135395047Y-61967820D01*
X135395051Y-61967816D01*
X135491557Y-61778412D01*
X135557246Y-61576243D01*
X135590500Y-61366287D01*
X135590500Y-61153713D01*
X135557246Y-60943757D01*
X135491557Y-60741588D01*
X135395051Y-60552184D01*
X135395049Y-60552181D01*
X135395048Y-60552179D01*
X135270109Y-60380213D01*
X135119786Y-60229890D01*
X134947820Y-60104951D01*
X134947115Y-60104591D01*
X134939054Y-60100485D01*
X134888259Y-60052512D01*
X134871463Y-59984692D01*
X134893999Y-59918556D01*
X134939054Y-59879515D01*
X134947816Y-59875051D01*
X135094204Y-59768695D01*
X135119786Y-59750109D01*
X135119788Y-59750106D01*
X135119792Y-59750104D01*
X135270104Y-59599792D01*
X135270106Y-59599788D01*
X135270109Y-59599786D01*
X135395048Y-59427820D01*
X135395047Y-59427820D01*
X135395051Y-59427816D01*
X135491557Y-59238412D01*
X135557246Y-59036243D01*
X135590500Y-58826287D01*
X135590500Y-58613713D01*
X135557246Y-58403757D01*
X135491557Y-58201588D01*
X135395051Y-58012184D01*
X135395049Y-58012181D01*
X135395048Y-58012179D01*
X135270109Y-57840213D01*
X135119786Y-57689890D01*
X134947820Y-57564951D01*
X134947115Y-57564591D01*
X134939054Y-57560485D01*
X134888259Y-57512512D01*
X134871463Y-57444692D01*
X134893999Y-57378556D01*
X134939054Y-57339515D01*
X134947816Y-57335051D01*
X134969789Y-57319086D01*
X135119786Y-57210109D01*
X135119788Y-57210106D01*
X135119792Y-57210104D01*
X135270104Y-57059792D01*
X135270106Y-57059788D01*
X135270109Y-57059786D01*
X135395048Y-56887820D01*
X135395047Y-56887820D01*
X135395051Y-56887816D01*
X135491557Y-56698412D01*
X135557246Y-56496243D01*
X135590500Y-56286287D01*
X135590500Y-56073713D01*
X135557246Y-55863757D01*
X135491557Y-55661588D01*
X135395051Y-55472184D01*
X135395049Y-55472181D01*
X135395048Y-55472179D01*
X135270109Y-55300213D01*
X135119786Y-55149890D01*
X134947820Y-55024951D01*
X134947115Y-55024591D01*
X134939054Y-55020485D01*
X134888259Y-54972512D01*
X134871463Y-54904692D01*
X134893999Y-54838556D01*
X134939054Y-54799515D01*
X134947816Y-54795051D01*
X134969789Y-54779086D01*
X135119786Y-54670109D01*
X135119788Y-54670106D01*
X135119792Y-54670104D01*
X135270104Y-54519792D01*
X135270106Y-54519788D01*
X135270109Y-54519786D01*
X135395048Y-54347820D01*
X135395047Y-54347820D01*
X135395051Y-54347816D01*
X135491557Y-54158412D01*
X135557246Y-53956243D01*
X135590500Y-53746287D01*
X135590500Y-53533713D01*
X135557246Y-53323757D01*
X135491557Y-53121588D01*
X135395051Y-52932184D01*
X135395049Y-52932181D01*
X135395048Y-52932179D01*
X135270109Y-52760213D01*
X135119786Y-52609890D01*
X134947820Y-52484951D01*
X134947115Y-52484591D01*
X134939054Y-52480485D01*
X134888259Y-52432512D01*
X134871463Y-52364692D01*
X134893999Y-52298556D01*
X134939054Y-52259515D01*
X134947816Y-52255051D01*
X134969789Y-52239086D01*
X135119786Y-52130109D01*
X135119788Y-52130106D01*
X135119792Y-52130104D01*
X135270104Y-51979792D01*
X135270106Y-51979788D01*
X135270109Y-51979786D01*
X135395048Y-51807820D01*
X135395047Y-51807820D01*
X135395051Y-51807816D01*
X135491557Y-51618412D01*
X135557246Y-51416243D01*
X135590500Y-51206287D01*
X135590500Y-50993713D01*
X135557246Y-50783757D01*
X135491557Y-50581588D01*
X135395051Y-50392184D01*
X135395049Y-50392181D01*
X135395048Y-50392179D01*
X135270109Y-50220213D01*
X135119786Y-50069890D01*
X134947820Y-49944951D01*
X134947115Y-49944591D01*
X134939054Y-49940485D01*
X134888259Y-49892512D01*
X134871463Y-49824692D01*
X134893999Y-49758556D01*
X134939054Y-49719515D01*
X134947816Y-49715051D01*
X134969789Y-49699086D01*
X135119786Y-49590109D01*
X135119788Y-49590106D01*
X135119792Y-49590104D01*
X135270104Y-49439792D01*
X135270106Y-49439788D01*
X135270109Y-49439786D01*
X135395048Y-49267820D01*
X135395047Y-49267820D01*
X135395051Y-49267816D01*
X135491557Y-49078412D01*
X135557246Y-48876243D01*
X135590500Y-48666287D01*
X135590500Y-48453713D01*
X135557246Y-48243757D01*
X135491557Y-48041588D01*
X135395051Y-47852184D01*
X135395049Y-47852181D01*
X135395048Y-47852179D01*
X135270109Y-47680213D01*
X135156569Y-47566673D01*
X135123084Y-47505350D01*
X135128068Y-47435658D01*
X135169940Y-47379725D01*
X135200915Y-47362810D01*
X135332331Y-47313796D01*
X135447546Y-47227546D01*
X135533796Y-47112331D01*
X135584091Y-46977483D01*
X135590500Y-46917873D01*
X135590499Y-45122135D01*
X149649500Y-45122135D01*
X149649500Y-46917870D01*
X149649501Y-46917876D01*
X149655908Y-46977483D01*
X149706202Y-47112328D01*
X149706206Y-47112335D01*
X149792452Y-47227544D01*
X149792455Y-47227547D01*
X149907664Y-47313793D01*
X149907671Y-47313797D01*
X150039082Y-47362810D01*
X150095016Y-47404681D01*
X150119433Y-47470145D01*
X150104582Y-47538418D01*
X150083431Y-47566673D01*
X149969889Y-47680215D01*
X149844951Y-47852179D01*
X149748444Y-48041585D01*
X149682753Y-48243760D01*
X149649500Y-48453713D01*
X149649500Y-48666286D01*
X149682753Y-48876239D01*
X149748444Y-49078414D01*
X149844951Y-49267820D01*
X149969890Y-49439786D01*
X150120213Y-49590109D01*
X150292182Y-49715050D01*
X150300946Y-49719516D01*
X150351742Y-49767491D01*
X150368536Y-49835312D01*
X150345998Y-49901447D01*
X150300946Y-49940484D01*
X150292182Y-49944949D01*
X150120213Y-50069890D01*
X149969890Y-50220213D01*
X149844951Y-50392179D01*
X149748444Y-50581585D01*
X149682753Y-50783760D01*
X149649500Y-50993713D01*
X149649500Y-51206286D01*
X149682753Y-51416239D01*
X149748444Y-51618414D01*
X149844951Y-51807820D01*
X149969890Y-51979786D01*
X150120213Y-52130109D01*
X150292182Y-52255050D01*
X150300946Y-52259516D01*
X150351742Y-52307491D01*
X150368536Y-52375312D01*
X150345998Y-52441447D01*
X150300946Y-52480484D01*
X150292182Y-52484949D01*
X150120213Y-52609890D01*
X149969890Y-52760213D01*
X149844951Y-52932179D01*
X149748444Y-53121585D01*
X149682753Y-53323760D01*
X149649500Y-53533713D01*
X149649500Y-53746286D01*
X149682753Y-53956239D01*
X149748444Y-54158414D01*
X149844951Y-54347820D01*
X149969890Y-54519786D01*
X150120213Y-54670109D01*
X150292182Y-54795050D01*
X150300946Y-54799516D01*
X150351742Y-54847491D01*
X150368536Y-54915312D01*
X150345998Y-54981447D01*
X150300946Y-55020484D01*
X150292182Y-55024949D01*
X150120213Y-55149890D01*
X149969890Y-55300213D01*
X149844951Y-55472179D01*
X149748444Y-55661585D01*
X149682753Y-55863760D01*
X149649500Y-56073713D01*
X149649500Y-56286286D01*
X149682753Y-56496239D01*
X149748444Y-56698414D01*
X149844951Y-56887820D01*
X149969890Y-57059786D01*
X150120213Y-57210109D01*
X150292182Y-57335050D01*
X150300946Y-57339516D01*
X150351742Y-57387491D01*
X150368536Y-57455312D01*
X150345998Y-57521447D01*
X150300946Y-57560484D01*
X150292182Y-57564949D01*
X150120213Y-57689890D01*
X149969890Y-57840213D01*
X149844951Y-58012179D01*
X149748444Y-58201585D01*
X149682753Y-58403760D01*
X149649500Y-58613713D01*
X149649500Y-58826286D01*
X149682753Y-59036239D01*
X149748444Y-59238414D01*
X149844951Y-59427820D01*
X149969890Y-59599786D01*
X150120213Y-59750109D01*
X150292182Y-59875050D01*
X150300946Y-59879516D01*
X150351742Y-59927491D01*
X150368536Y-59995312D01*
X150345998Y-60061447D01*
X150300946Y-60100484D01*
X150292182Y-60104949D01*
X150120213Y-60229890D01*
X149969890Y-60380213D01*
X149844951Y-60552179D01*
X149748444Y-60741585D01*
X149682753Y-60943760D01*
X149649500Y-61153713D01*
X149649500Y-61366287D01*
X149682754Y-61576243D01*
X149696797Y-61619464D01*
X149748444Y-61778414D01*
X149844951Y-61967820D01*
X149969890Y-62139786D01*
X150120213Y-62290109D01*
X150292182Y-62415050D01*
X150300946Y-62419516D01*
X150351742Y-62467491D01*
X150368536Y-62535312D01*
X150345998Y-62601447D01*
X150300946Y-62640484D01*
X150292182Y-62644949D01*
X150120213Y-62769890D01*
X149969890Y-62920213D01*
X149844951Y-63092179D01*
X149748444Y-63281585D01*
X149682753Y-63483760D01*
X149649500Y-63693713D01*
X149649500Y-63906286D01*
X149682753Y-64116239D01*
X149748444Y-64318414D01*
X149844951Y-64507820D01*
X149969890Y-64679786D01*
X150120213Y-64830109D01*
X150292182Y-64955050D01*
X150300946Y-64959516D01*
X150351742Y-65007491D01*
X150368536Y-65075312D01*
X150345998Y-65141447D01*
X150300946Y-65180484D01*
X150292182Y-65184949D01*
X150120213Y-65309890D01*
X149969890Y-65460213D01*
X149844951Y-65632179D01*
X149748444Y-65821585D01*
X149682753Y-66023760D01*
X149649500Y-66233713D01*
X149649500Y-66446286D01*
X149682753Y-66656239D01*
X149748444Y-66858414D01*
X149844951Y-67047820D01*
X149969890Y-67219786D01*
X150120213Y-67370109D01*
X150292182Y-67495050D01*
X150300946Y-67499516D01*
X150351742Y-67547491D01*
X150368536Y-67615312D01*
X150345998Y-67681447D01*
X150300946Y-67720484D01*
X150292182Y-67724949D01*
X150120213Y-67849890D01*
X149969890Y-68000213D01*
X149844951Y-68172179D01*
X149748444Y-68361585D01*
X149682753Y-68563760D01*
X149649500Y-68773713D01*
X149649500Y-68986286D01*
X149682753Y-69196239D01*
X149748444Y-69398414D01*
X149844951Y-69587820D01*
X149969890Y-69759786D01*
X150120213Y-69910109D01*
X150292182Y-70035050D01*
X150300946Y-70039516D01*
X150351742Y-70087491D01*
X150368536Y-70155312D01*
X150345998Y-70221447D01*
X150300946Y-70260484D01*
X150292182Y-70264949D01*
X150120213Y-70389890D01*
X149969890Y-70540213D01*
X149844951Y-70712179D01*
X149748444Y-70901585D01*
X149682753Y-71103760D01*
X149649500Y-71313713D01*
X149649500Y-71526286D01*
X149682753Y-71736239D01*
X149748444Y-71938414D01*
X149844951Y-72127820D01*
X149969890Y-72299786D01*
X150120213Y-72450109D01*
X150292182Y-72575050D01*
X150300946Y-72579516D01*
X150351742Y-72627491D01*
X150368536Y-72695312D01*
X150345998Y-72761447D01*
X150300946Y-72800484D01*
X150292182Y-72804949D01*
X150120213Y-72929890D01*
X149969890Y-73080213D01*
X149844951Y-73252179D01*
X149748444Y-73441585D01*
X149682753Y-73643760D01*
X149649500Y-73853713D01*
X149649500Y-74066286D01*
X149682753Y-74276239D01*
X149748444Y-74478414D01*
X149844951Y-74667820D01*
X149969890Y-74839786D01*
X150120213Y-74990109D01*
X150292182Y-75115050D01*
X150300946Y-75119516D01*
X150351742Y-75167491D01*
X150368536Y-75235312D01*
X150345998Y-75301447D01*
X150300946Y-75340484D01*
X150292182Y-75344949D01*
X150120213Y-75469890D01*
X149969890Y-75620213D01*
X149844951Y-75792179D01*
X149748444Y-75981585D01*
X149682753Y-76183760D01*
X149649500Y-76393713D01*
X149649500Y-76606286D01*
X149682753Y-76816239D01*
X149748444Y-77018414D01*
X149844951Y-77207820D01*
X149969890Y-77379786D01*
X150120213Y-77530109D01*
X150292179Y-77655048D01*
X150292181Y-77655049D01*
X150292184Y-77655051D01*
X150301493Y-77659794D01*
X150352290Y-77707766D01*
X150369087Y-77775587D01*
X150346552Y-77841722D01*
X150301505Y-77880760D01*
X150292446Y-77885376D01*
X150292440Y-77885380D01*
X150238282Y-77924727D01*
X150238282Y-77924728D01*
X150870591Y-78557037D01*
X150807007Y-78574075D01*
X150692993Y-78639901D01*
X150599901Y-78732993D01*
X150534075Y-78847007D01*
X150517037Y-78910591D01*
X149884728Y-78278282D01*
X149884727Y-78278282D01*
X149845380Y-78332439D01*
X149748904Y-78521782D01*
X149683242Y-78723869D01*
X149683242Y-78723872D01*
X149650000Y-78933753D01*
X149650000Y-79146246D01*
X149683242Y-79356127D01*
X149683242Y-79356130D01*
X149748904Y-79558217D01*
X149845375Y-79747550D01*
X149884728Y-79801716D01*
X150517037Y-79169408D01*
X150534075Y-79232993D01*
X150599901Y-79347007D01*
X150692993Y-79440099D01*
X150807007Y-79505925D01*
X150870590Y-79522962D01*
X150238282Y-80155269D01*
X150238282Y-80155270D01*
X150292452Y-80194626D01*
X150292451Y-80194626D01*
X150301495Y-80199234D01*
X150352292Y-80247208D01*
X150369087Y-80315029D01*
X150346550Y-80381164D01*
X150301499Y-80420202D01*
X150292182Y-80424949D01*
X150120213Y-80549890D01*
X149969890Y-80700213D01*
X149844951Y-80872179D01*
X149748444Y-81061585D01*
X149682753Y-81263760D01*
X149649500Y-81473713D01*
X149649500Y-81686286D01*
X149682753Y-81896239D01*
X149748444Y-82098414D01*
X149844951Y-82287820D01*
X149969890Y-82459786D01*
X150120213Y-82610109D01*
X150292179Y-82735048D01*
X150292181Y-82735049D01*
X150292184Y-82735051D01*
X150481588Y-82831557D01*
X150683757Y-82897246D01*
X150893713Y-82930500D01*
X150893714Y-82930500D01*
X151106286Y-82930500D01*
X151106287Y-82930500D01*
X151316243Y-82897246D01*
X151518412Y-82831557D01*
X151707816Y-82735051D01*
X151729789Y-82719086D01*
X151879786Y-82610109D01*
X151879788Y-82610106D01*
X151879792Y-82610104D01*
X152030104Y-82459792D01*
X152030106Y-82459788D01*
X152030109Y-82459786D01*
X152155048Y-82287820D01*
X152155047Y-82287820D01*
X152155051Y-82287816D01*
X152251557Y-82098412D01*
X152317246Y-81896243D01*
X152350500Y-81686287D01*
X152350500Y-81473713D01*
X152317246Y-81263757D01*
X152251557Y-81061588D01*
X152155051Y-80872184D01*
X152155049Y-80872181D01*
X152155048Y-80872179D01*
X152030109Y-80700213D01*
X151879786Y-80549890D01*
X151707817Y-80424949D01*
X151698504Y-80420204D01*
X151647707Y-80372230D01*
X151630912Y-80304409D01*
X151653449Y-80238274D01*
X151698507Y-80199232D01*
X151707555Y-80194622D01*
X151761716Y-80155270D01*
X151761717Y-80155270D01*
X151129408Y-79522962D01*
X151192993Y-79505925D01*
X151307007Y-79440099D01*
X151400099Y-79347007D01*
X151465925Y-79232993D01*
X151482962Y-79169408D01*
X152115270Y-79801717D01*
X152115270Y-79801716D01*
X152154622Y-79747554D01*
X152251095Y-79558217D01*
X152316757Y-79356130D01*
X152316757Y-79356127D01*
X152350000Y-79146246D01*
X152350000Y-78933753D01*
X152316757Y-78723872D01*
X152316757Y-78723869D01*
X152251095Y-78521782D01*
X152154624Y-78332449D01*
X152115270Y-78278282D01*
X152115269Y-78278282D01*
X151482962Y-78910590D01*
X151465925Y-78847007D01*
X151400099Y-78732993D01*
X151307007Y-78639901D01*
X151192993Y-78574075D01*
X151129409Y-78557037D01*
X151761716Y-77924728D01*
X151707547Y-77885373D01*
X151707547Y-77885372D01*
X151698500Y-77880763D01*
X151647706Y-77832788D01*
X151630912Y-77764966D01*
X151653451Y-77698832D01*
X151698508Y-77659793D01*
X151707816Y-77655051D01*
X151787007Y-77597515D01*
X151879786Y-77530109D01*
X151879788Y-77530106D01*
X151879792Y-77530104D01*
X152030104Y-77379792D01*
X152030106Y-77379788D01*
X152030109Y-77379786D01*
X152155048Y-77207820D01*
X152155047Y-77207820D01*
X152155051Y-77207816D01*
X152251557Y-77018412D01*
X152317246Y-76816243D01*
X152350500Y-76606287D01*
X152350500Y-76393713D01*
X152317246Y-76183757D01*
X152251557Y-75981588D01*
X152155051Y-75792184D01*
X152155049Y-75792181D01*
X152155048Y-75792179D01*
X152030109Y-75620213D01*
X151879786Y-75469890D01*
X151707820Y-75344951D01*
X151707115Y-75344591D01*
X151699054Y-75340485D01*
X151648259Y-75292512D01*
X151631463Y-75224692D01*
X151653999Y-75158556D01*
X151699054Y-75119515D01*
X151707816Y-75115051D01*
X151762572Y-75075269D01*
X151879786Y-74990109D01*
X151879788Y-74990106D01*
X151879792Y-74990104D01*
X152030104Y-74839792D01*
X152030106Y-74839788D01*
X152030109Y-74839786D01*
X152155048Y-74667820D01*
X152155047Y-74667820D01*
X152155051Y-74667816D01*
X152251557Y-74478412D01*
X152317246Y-74276243D01*
X152350500Y-74066287D01*
X152350500Y-73853713D01*
X152317246Y-73643757D01*
X152251557Y-73441588D01*
X152155051Y-73252184D01*
X152155049Y-73252181D01*
X152155048Y-73252179D01*
X152030109Y-73080213D01*
X151879786Y-72929890D01*
X151707820Y-72804951D01*
X151699600Y-72800763D01*
X151699054Y-72800485D01*
X151648259Y-72752512D01*
X151631463Y-72684692D01*
X151653999Y-72618556D01*
X151699054Y-72579515D01*
X151707816Y-72575051D01*
X151729789Y-72559086D01*
X151879786Y-72450109D01*
X151879788Y-72450106D01*
X151879792Y-72450104D01*
X152030104Y-72299792D01*
X152030106Y-72299788D01*
X152030109Y-72299786D01*
X152155048Y-72127820D01*
X152155047Y-72127820D01*
X152155051Y-72127816D01*
X152251557Y-71938412D01*
X152317246Y-71736243D01*
X152350500Y-71526287D01*
X152350500Y-71313713D01*
X152317246Y-71103757D01*
X152251557Y-70901588D01*
X152155051Y-70712184D01*
X152155049Y-70712181D01*
X152155048Y-70712179D01*
X152030109Y-70540213D01*
X151879786Y-70389890D01*
X151707820Y-70264951D01*
X151707115Y-70264591D01*
X151699054Y-70260485D01*
X151648259Y-70212512D01*
X151631463Y-70144692D01*
X151653999Y-70078556D01*
X151699054Y-70039515D01*
X151707816Y-70035051D01*
X151729789Y-70019086D01*
X151879786Y-69910109D01*
X151879788Y-69910106D01*
X151879792Y-69910104D01*
X152030104Y-69759792D01*
X152030106Y-69759788D01*
X152030109Y-69759786D01*
X152155048Y-69587820D01*
X152155047Y-69587820D01*
X152155051Y-69587816D01*
X152251557Y-69398412D01*
X152317246Y-69196243D01*
X152350500Y-68986287D01*
X152350500Y-68773713D01*
X152317246Y-68563757D01*
X152251557Y-68361588D01*
X152155051Y-68172184D01*
X152155049Y-68172181D01*
X152155048Y-68172179D01*
X152030109Y-68000213D01*
X151879786Y-67849890D01*
X151707820Y-67724951D01*
X151707115Y-67724591D01*
X151699054Y-67720485D01*
X151648259Y-67672512D01*
X151631463Y-67604692D01*
X151653999Y-67538556D01*
X151699054Y-67499515D01*
X151707816Y-67495051D01*
X151729789Y-67479086D01*
X151879786Y-67370109D01*
X151879788Y-67370106D01*
X151879792Y-67370104D01*
X152030104Y-67219792D01*
X152030106Y-67219788D01*
X152030109Y-67219786D01*
X152155048Y-67047820D01*
X152155047Y-67047820D01*
X152155051Y-67047816D01*
X152251557Y-66858412D01*
X152317246Y-66656243D01*
X152350500Y-66446287D01*
X152350500Y-66233713D01*
X152317246Y-66023757D01*
X152251557Y-65821588D01*
X152155051Y-65632184D01*
X152155049Y-65632181D01*
X152155048Y-65632179D01*
X152030109Y-65460213D01*
X151879786Y-65309890D01*
X151707820Y-65184951D01*
X151707115Y-65184591D01*
X151699054Y-65180485D01*
X151648259Y-65132512D01*
X151631463Y-65064692D01*
X151653999Y-64998556D01*
X151699054Y-64959515D01*
X151707816Y-64955051D01*
X151729789Y-64939086D01*
X151879786Y-64830109D01*
X151879788Y-64830106D01*
X151879792Y-64830104D01*
X152030104Y-64679792D01*
X152030106Y-64679788D01*
X152030109Y-64679786D01*
X152155048Y-64507820D01*
X152155047Y-64507820D01*
X152155051Y-64507816D01*
X152251557Y-64318412D01*
X152317246Y-64116243D01*
X152350500Y-63906287D01*
X152350500Y-63693713D01*
X152317246Y-63483757D01*
X152251557Y-63281588D01*
X152155051Y-63092184D01*
X152155049Y-63092181D01*
X152155048Y-63092179D01*
X152030109Y-62920213D01*
X151879786Y-62769890D01*
X151707820Y-62644951D01*
X151707115Y-62644591D01*
X151699054Y-62640485D01*
X151648259Y-62592512D01*
X151631463Y-62524692D01*
X151653999Y-62458556D01*
X151699054Y-62419515D01*
X151707816Y-62415051D01*
X151729789Y-62399086D01*
X151879786Y-62290109D01*
X151879788Y-62290106D01*
X151879792Y-62290104D01*
X152030104Y-62139792D01*
X152030106Y-62139788D01*
X152030109Y-62139786D01*
X152155048Y-61967820D01*
X152155047Y-61967820D01*
X152155051Y-61967816D01*
X152251557Y-61778412D01*
X152317246Y-61576243D01*
X152350500Y-61366287D01*
X152350500Y-61153713D01*
X152317246Y-60943757D01*
X152251557Y-60741588D01*
X152155051Y-60552184D01*
X152155049Y-60552181D01*
X152155048Y-60552179D01*
X152030109Y-60380213D01*
X151879786Y-60229890D01*
X151707820Y-60104951D01*
X151707115Y-60104591D01*
X151699054Y-60100485D01*
X151648259Y-60052512D01*
X151631463Y-59984692D01*
X151653999Y-59918556D01*
X151699054Y-59879515D01*
X151707816Y-59875051D01*
X151854204Y-59768695D01*
X151879786Y-59750109D01*
X151879788Y-59750106D01*
X151879792Y-59750104D01*
X152030104Y-59599792D01*
X152030106Y-59599788D01*
X152030109Y-59599786D01*
X152155048Y-59427820D01*
X152155047Y-59427820D01*
X152155051Y-59427816D01*
X152251557Y-59238412D01*
X152317246Y-59036243D01*
X152350500Y-58826287D01*
X152350500Y-58613713D01*
X152317246Y-58403757D01*
X152251557Y-58201588D01*
X152155051Y-58012184D01*
X152155049Y-58012181D01*
X152155048Y-58012179D01*
X152030109Y-57840213D01*
X151879786Y-57689890D01*
X151707820Y-57564951D01*
X151707115Y-57564591D01*
X151699054Y-57560485D01*
X151648259Y-57512512D01*
X151631463Y-57444692D01*
X151653999Y-57378556D01*
X151699054Y-57339515D01*
X151707816Y-57335051D01*
X151729789Y-57319086D01*
X151879786Y-57210109D01*
X151879788Y-57210106D01*
X151879792Y-57210104D01*
X152030104Y-57059792D01*
X152030106Y-57059788D01*
X152030109Y-57059786D01*
X152155048Y-56887820D01*
X152155047Y-56887820D01*
X152155051Y-56887816D01*
X152251557Y-56698412D01*
X152317246Y-56496243D01*
X152350500Y-56286287D01*
X152350500Y-56073713D01*
X152317246Y-55863757D01*
X152251557Y-55661588D01*
X152155051Y-55472184D01*
X152155049Y-55472181D01*
X152155048Y-55472179D01*
X152030109Y-55300213D01*
X151879786Y-55149890D01*
X151707820Y-55024951D01*
X151707115Y-55024591D01*
X151699054Y-55020485D01*
X151648259Y-54972512D01*
X151631463Y-54904692D01*
X151653999Y-54838556D01*
X151699054Y-54799515D01*
X151707816Y-54795051D01*
X151729789Y-54779086D01*
X151879786Y-54670109D01*
X151879788Y-54670106D01*
X151879792Y-54670104D01*
X152030104Y-54519792D01*
X152030106Y-54519788D01*
X152030109Y-54519786D01*
X152155048Y-54347820D01*
X152155047Y-54347820D01*
X152155051Y-54347816D01*
X152251557Y-54158412D01*
X152317246Y-53956243D01*
X152350500Y-53746287D01*
X152350500Y-53533713D01*
X152317246Y-53323757D01*
X152251557Y-53121588D01*
X152155051Y-52932184D01*
X152155049Y-52932181D01*
X152155048Y-52932179D01*
X152030109Y-52760213D01*
X151879786Y-52609890D01*
X151707820Y-52484951D01*
X151707115Y-52484591D01*
X151699054Y-52480485D01*
X151648259Y-52432512D01*
X151631463Y-52364692D01*
X151653999Y-52298556D01*
X151699054Y-52259515D01*
X151707816Y-52255051D01*
X151729789Y-52239086D01*
X151879786Y-52130109D01*
X151879788Y-52130106D01*
X151879792Y-52130104D01*
X152030104Y-51979792D01*
X152030106Y-51979788D01*
X152030109Y-51979786D01*
X152155048Y-51807820D01*
X152155047Y-51807820D01*
X152155051Y-51807816D01*
X152251557Y-51618412D01*
X152317246Y-51416243D01*
X152350500Y-51206287D01*
X152350500Y-50993713D01*
X152317246Y-50783757D01*
X152251557Y-50581588D01*
X152155051Y-50392184D01*
X152155049Y-50392181D01*
X152155048Y-50392179D01*
X152030109Y-50220213D01*
X151879786Y-50069890D01*
X151707820Y-49944951D01*
X151707115Y-49944591D01*
X151699054Y-49940485D01*
X151648259Y-49892512D01*
X151631463Y-49824692D01*
X151653999Y-49758556D01*
X151699054Y-49719515D01*
X151707816Y-49715051D01*
X151729789Y-49699086D01*
X151879786Y-49590109D01*
X151879788Y-49590106D01*
X151879792Y-49590104D01*
X152030104Y-49439792D01*
X152030106Y-49439788D01*
X152030109Y-49439786D01*
X152155048Y-49267820D01*
X152155047Y-49267820D01*
X152155051Y-49267816D01*
X152251557Y-49078412D01*
X152317246Y-48876243D01*
X152350500Y-48666287D01*
X152350500Y-48453713D01*
X152317246Y-48243757D01*
X152251557Y-48041588D01*
X152155051Y-47852184D01*
X152155049Y-47852181D01*
X152155048Y-47852179D01*
X152030109Y-47680213D01*
X151916569Y-47566673D01*
X151883084Y-47505350D01*
X151888068Y-47435658D01*
X151929940Y-47379725D01*
X151960915Y-47362810D01*
X152092331Y-47313796D01*
X152207546Y-47227546D01*
X152293796Y-47112331D01*
X152344091Y-46977483D01*
X152350500Y-46917873D01*
X152350499Y-45122135D01*
X164889500Y-45122135D01*
X164889500Y-46917870D01*
X164889501Y-46917876D01*
X164895908Y-46977483D01*
X164946202Y-47112328D01*
X164946206Y-47112335D01*
X165032452Y-47227544D01*
X165032455Y-47227547D01*
X165147664Y-47313793D01*
X165147671Y-47313797D01*
X165279082Y-47362810D01*
X165335016Y-47404681D01*
X165359433Y-47470145D01*
X165344582Y-47538418D01*
X165323431Y-47566673D01*
X165209889Y-47680215D01*
X165084951Y-47852179D01*
X164988444Y-48041585D01*
X164922753Y-48243760D01*
X164889500Y-48453713D01*
X164889500Y-48666286D01*
X164922753Y-48876239D01*
X164988444Y-49078414D01*
X165084951Y-49267820D01*
X165209890Y-49439786D01*
X165360213Y-49590109D01*
X165532182Y-49715050D01*
X165540946Y-49719516D01*
X165591742Y-49767491D01*
X165608536Y-49835312D01*
X165585998Y-49901447D01*
X165540946Y-49940484D01*
X165532182Y-49944949D01*
X165360213Y-50069890D01*
X165209890Y-50220213D01*
X165084951Y-50392179D01*
X164988444Y-50581585D01*
X164922753Y-50783760D01*
X164889500Y-50993713D01*
X164889500Y-51206286D01*
X164922753Y-51416239D01*
X164988444Y-51618414D01*
X165084951Y-51807820D01*
X165209890Y-51979786D01*
X165360213Y-52130109D01*
X165532182Y-52255050D01*
X165540946Y-52259516D01*
X165591742Y-52307491D01*
X165608536Y-52375312D01*
X165585998Y-52441447D01*
X165540946Y-52480484D01*
X165532182Y-52484949D01*
X165360213Y-52609890D01*
X165209890Y-52760213D01*
X165084951Y-52932179D01*
X164988444Y-53121585D01*
X164922753Y-53323760D01*
X164889500Y-53533713D01*
X164889500Y-53746286D01*
X164922753Y-53956239D01*
X164988444Y-54158414D01*
X165084951Y-54347820D01*
X165209890Y-54519786D01*
X165360213Y-54670109D01*
X165532182Y-54795050D01*
X165540946Y-54799516D01*
X165591742Y-54847491D01*
X165608536Y-54915312D01*
X165585998Y-54981447D01*
X165540946Y-55020484D01*
X165532182Y-55024949D01*
X165360213Y-55149890D01*
X165209890Y-55300213D01*
X165084951Y-55472179D01*
X164988444Y-55661585D01*
X164922753Y-55863760D01*
X164889500Y-56073713D01*
X164889500Y-56286286D01*
X164922753Y-56496239D01*
X164988444Y-56698414D01*
X165084951Y-56887820D01*
X165209890Y-57059786D01*
X165360213Y-57210109D01*
X165532182Y-57335050D01*
X165540946Y-57339516D01*
X165591742Y-57387491D01*
X165608536Y-57455312D01*
X165585998Y-57521447D01*
X165540946Y-57560484D01*
X165532182Y-57564949D01*
X165360213Y-57689890D01*
X165209890Y-57840213D01*
X165084951Y-58012179D01*
X164988444Y-58201585D01*
X164922753Y-58403760D01*
X164889500Y-58613713D01*
X164889500Y-58826286D01*
X164922753Y-59036239D01*
X164988444Y-59238414D01*
X165084951Y-59427820D01*
X165209890Y-59599786D01*
X165360213Y-59750109D01*
X165532182Y-59875050D01*
X165540946Y-59879516D01*
X165591742Y-59927491D01*
X165608536Y-59995312D01*
X165585998Y-60061447D01*
X165540946Y-60100484D01*
X165532182Y-60104949D01*
X165360213Y-60229890D01*
X165209890Y-60380213D01*
X165084951Y-60552179D01*
X164988444Y-60741585D01*
X164922753Y-60943760D01*
X164889500Y-61153713D01*
X164889500Y-61366287D01*
X164922754Y-61576243D01*
X164936797Y-61619464D01*
X164988444Y-61778414D01*
X165084951Y-61967820D01*
X165209890Y-62139786D01*
X165360213Y-62290109D01*
X165532182Y-62415050D01*
X165540946Y-62419516D01*
X165591742Y-62467491D01*
X165608536Y-62535312D01*
X165585998Y-62601447D01*
X165540946Y-62640484D01*
X165532182Y-62644949D01*
X165360213Y-62769890D01*
X165209890Y-62920213D01*
X165084951Y-63092179D01*
X164988444Y-63281585D01*
X164922753Y-63483760D01*
X164889500Y-63693713D01*
X164889500Y-63906286D01*
X164922753Y-64116239D01*
X164988444Y-64318414D01*
X165084951Y-64507820D01*
X165209890Y-64679786D01*
X165360213Y-64830109D01*
X165532182Y-64955050D01*
X165540946Y-64959516D01*
X165591742Y-65007491D01*
X165608536Y-65075312D01*
X165585998Y-65141447D01*
X165540946Y-65180484D01*
X165532182Y-65184949D01*
X165360213Y-65309890D01*
X165209890Y-65460213D01*
X165084951Y-65632179D01*
X164988444Y-65821585D01*
X164922753Y-66023760D01*
X164889500Y-66233713D01*
X164889500Y-66446286D01*
X164922753Y-66656239D01*
X164988444Y-66858414D01*
X165084951Y-67047820D01*
X165209890Y-67219786D01*
X165360213Y-67370109D01*
X165532182Y-67495050D01*
X165540946Y-67499516D01*
X165591742Y-67547491D01*
X165608536Y-67615312D01*
X165585998Y-67681447D01*
X165540946Y-67720484D01*
X165532182Y-67724949D01*
X165360213Y-67849890D01*
X165209890Y-68000213D01*
X165084951Y-68172179D01*
X164988444Y-68361585D01*
X164922753Y-68563760D01*
X164889500Y-68773713D01*
X164889500Y-68986286D01*
X164922753Y-69196239D01*
X164988444Y-69398414D01*
X165084951Y-69587820D01*
X165209890Y-69759786D01*
X165360213Y-69910109D01*
X165532182Y-70035050D01*
X165540946Y-70039516D01*
X165591742Y-70087491D01*
X165608536Y-70155312D01*
X165585998Y-70221447D01*
X165540946Y-70260484D01*
X165532182Y-70264949D01*
X165360213Y-70389890D01*
X165209890Y-70540213D01*
X165084951Y-70712179D01*
X164988444Y-70901585D01*
X164922753Y-71103760D01*
X164889500Y-71313713D01*
X164889500Y-71526286D01*
X164922753Y-71736239D01*
X164988444Y-71938414D01*
X165084951Y-72127820D01*
X165209890Y-72299786D01*
X165360213Y-72450109D01*
X165532179Y-72575048D01*
X165532181Y-72575049D01*
X165532184Y-72575051D01*
X165541493Y-72579794D01*
X165592290Y-72627766D01*
X165609087Y-72695587D01*
X165586552Y-72761722D01*
X165541505Y-72800760D01*
X165532446Y-72805376D01*
X165532440Y-72805380D01*
X165478282Y-72844727D01*
X165478282Y-72844728D01*
X166110591Y-73477037D01*
X166047007Y-73494075D01*
X165932993Y-73559901D01*
X165839901Y-73652993D01*
X165774075Y-73767007D01*
X165757037Y-73830591D01*
X165124728Y-73198282D01*
X165124727Y-73198282D01*
X165085380Y-73252439D01*
X164988904Y-73441782D01*
X164923242Y-73643869D01*
X164923242Y-73643872D01*
X164890000Y-73853753D01*
X164890000Y-74066246D01*
X164923242Y-74276127D01*
X164923242Y-74276130D01*
X164988904Y-74478217D01*
X165085375Y-74667550D01*
X165124728Y-74721716D01*
X165757036Y-74089407D01*
X165774075Y-74152993D01*
X165839901Y-74267007D01*
X165932993Y-74360099D01*
X166047007Y-74425925D01*
X166110590Y-74442962D01*
X165478282Y-75075269D01*
X165478282Y-75075270D01*
X165532452Y-75114626D01*
X165532451Y-75114626D01*
X165541495Y-75119234D01*
X165592292Y-75167208D01*
X165609087Y-75235029D01*
X165586550Y-75301164D01*
X165541499Y-75340202D01*
X165532182Y-75344949D01*
X165360213Y-75469890D01*
X165209890Y-75620213D01*
X165084951Y-75792179D01*
X164988444Y-75981585D01*
X164922753Y-76183760D01*
X164889500Y-76393713D01*
X164889500Y-76606286D01*
X164922753Y-76816239D01*
X164988444Y-77018414D01*
X165084951Y-77207820D01*
X165209890Y-77379786D01*
X165360213Y-77530109D01*
X165532182Y-77655050D01*
X165540946Y-77659516D01*
X165591742Y-77707491D01*
X165608536Y-77775312D01*
X165585998Y-77841447D01*
X165540946Y-77880484D01*
X165532182Y-77884949D01*
X165360213Y-78009890D01*
X165209890Y-78160213D01*
X165084951Y-78332179D01*
X164988444Y-78521585D01*
X164922753Y-78723760D01*
X164889500Y-78933713D01*
X164889500Y-79146286D01*
X164922753Y-79356239D01*
X164988444Y-79558414D01*
X165084951Y-79747820D01*
X165209890Y-79919786D01*
X165360213Y-80070109D01*
X165532182Y-80195050D01*
X165540946Y-80199516D01*
X165591742Y-80247491D01*
X165608536Y-80315312D01*
X165585998Y-80381447D01*
X165540946Y-80420484D01*
X165532182Y-80424949D01*
X165360213Y-80549890D01*
X165209890Y-80700213D01*
X165084951Y-80872179D01*
X164988444Y-81061585D01*
X164922753Y-81263760D01*
X164889500Y-81473713D01*
X164889500Y-81686286D01*
X164922753Y-81896239D01*
X164988444Y-82098414D01*
X165084951Y-82287820D01*
X165209890Y-82459786D01*
X165360213Y-82610109D01*
X165532179Y-82735048D01*
X165532181Y-82735049D01*
X165532184Y-82735051D01*
X165721588Y-82831557D01*
X165923757Y-82897246D01*
X166133713Y-82930500D01*
X166133714Y-82930500D01*
X166346286Y-82930500D01*
X166346287Y-82930500D01*
X166556243Y-82897246D01*
X166758412Y-82831557D01*
X166947816Y-82735051D01*
X166969789Y-82719086D01*
X167119786Y-82610109D01*
X167119788Y-82610106D01*
X167119792Y-82610104D01*
X167270104Y-82459792D01*
X167270106Y-82459788D01*
X167270109Y-82459786D01*
X167395048Y-82287820D01*
X167395047Y-82287820D01*
X167395051Y-82287816D01*
X167491557Y-82098412D01*
X167557246Y-81896243D01*
X167590500Y-81686287D01*
X167590500Y-81473713D01*
X167557246Y-81263757D01*
X167491557Y-81061588D01*
X167395051Y-80872184D01*
X167395049Y-80872181D01*
X167395048Y-80872179D01*
X167270109Y-80700213D01*
X167119786Y-80549890D01*
X166947820Y-80424951D01*
X166947115Y-80424591D01*
X166939054Y-80420485D01*
X166888259Y-80372512D01*
X166871463Y-80304692D01*
X166893999Y-80238556D01*
X166939054Y-80199515D01*
X166947816Y-80195051D01*
X167002572Y-80155269D01*
X167119786Y-80070109D01*
X167119788Y-80070106D01*
X167119792Y-80070104D01*
X167270104Y-79919792D01*
X167270106Y-79919788D01*
X167270109Y-79919786D01*
X167395048Y-79747820D01*
X167395047Y-79747820D01*
X167395051Y-79747816D01*
X167491557Y-79558412D01*
X167557246Y-79356243D01*
X167590500Y-79146287D01*
X167590500Y-78933713D01*
X167557246Y-78723757D01*
X167491557Y-78521588D01*
X167395051Y-78332184D01*
X167395049Y-78332181D01*
X167395048Y-78332179D01*
X167270109Y-78160213D01*
X167119786Y-78009890D01*
X166947820Y-77884951D01*
X166939600Y-77880763D01*
X166939054Y-77880485D01*
X166888259Y-77832512D01*
X166871463Y-77764692D01*
X166893999Y-77698556D01*
X166939054Y-77659515D01*
X166947816Y-77655051D01*
X166969789Y-77639086D01*
X167119786Y-77530109D01*
X167119788Y-77530106D01*
X167119792Y-77530104D01*
X167270104Y-77379792D01*
X167270106Y-77379788D01*
X167270109Y-77379786D01*
X167395048Y-77207820D01*
X167395047Y-77207820D01*
X167395051Y-77207816D01*
X167491557Y-77018412D01*
X167557246Y-76816243D01*
X167590500Y-76606287D01*
X167590500Y-76393713D01*
X167557246Y-76183757D01*
X167491557Y-75981588D01*
X167395051Y-75792184D01*
X167395049Y-75792181D01*
X167395048Y-75792179D01*
X167270109Y-75620213D01*
X167119786Y-75469890D01*
X166947817Y-75344949D01*
X166938504Y-75340204D01*
X166887707Y-75292230D01*
X166870912Y-75224409D01*
X166893449Y-75158274D01*
X166938507Y-75119232D01*
X166947555Y-75114622D01*
X167001716Y-75075270D01*
X167001717Y-75075270D01*
X166369408Y-74442962D01*
X166432993Y-74425925D01*
X166547007Y-74360099D01*
X166640099Y-74267007D01*
X166705925Y-74152993D01*
X166722962Y-74089408D01*
X167355270Y-74721717D01*
X167355270Y-74721716D01*
X167394622Y-74667554D01*
X167491095Y-74478217D01*
X167556757Y-74276130D01*
X167556757Y-74276127D01*
X167590000Y-74066246D01*
X167590000Y-73853753D01*
X167556757Y-73643872D01*
X167556757Y-73643869D01*
X167491095Y-73441782D01*
X167394624Y-73252449D01*
X167355270Y-73198282D01*
X167355269Y-73198282D01*
X166722962Y-73830590D01*
X166705925Y-73767007D01*
X166640099Y-73652993D01*
X166547007Y-73559901D01*
X166432993Y-73494075D01*
X166369409Y-73477037D01*
X167001716Y-72844728D01*
X166947547Y-72805373D01*
X166947547Y-72805372D01*
X166938500Y-72800763D01*
X166887706Y-72752788D01*
X166870912Y-72684966D01*
X166893451Y-72618832D01*
X166938508Y-72579793D01*
X166947816Y-72575051D01*
X167027007Y-72517515D01*
X167119786Y-72450109D01*
X167119788Y-72450106D01*
X167119792Y-72450104D01*
X167270104Y-72299792D01*
X167270106Y-72299788D01*
X167270109Y-72299786D01*
X167395048Y-72127820D01*
X167395047Y-72127820D01*
X167395051Y-72127816D01*
X167491557Y-71938412D01*
X167557246Y-71736243D01*
X167590500Y-71526287D01*
X167590500Y-71313713D01*
X167557246Y-71103757D01*
X167491557Y-70901588D01*
X167395051Y-70712184D01*
X167395049Y-70712181D01*
X167395048Y-70712179D01*
X167270109Y-70540213D01*
X167119786Y-70389890D01*
X166947820Y-70264951D01*
X166947115Y-70264591D01*
X166939054Y-70260485D01*
X166888259Y-70212512D01*
X166871463Y-70144692D01*
X166893999Y-70078556D01*
X166939054Y-70039515D01*
X166947816Y-70035051D01*
X166969789Y-70019086D01*
X167119786Y-69910109D01*
X167119788Y-69910106D01*
X167119792Y-69910104D01*
X167270104Y-69759792D01*
X167270106Y-69759788D01*
X167270109Y-69759786D01*
X167395048Y-69587820D01*
X167395047Y-69587820D01*
X167395051Y-69587816D01*
X167491557Y-69398412D01*
X167557246Y-69196243D01*
X167590500Y-68986287D01*
X167590500Y-68773713D01*
X167557246Y-68563757D01*
X167491557Y-68361588D01*
X167395051Y-68172184D01*
X167395049Y-68172181D01*
X167395048Y-68172179D01*
X167270109Y-68000213D01*
X167119786Y-67849890D01*
X166947820Y-67724951D01*
X166947115Y-67724591D01*
X166939054Y-67720485D01*
X166888259Y-67672512D01*
X166871463Y-67604692D01*
X166893999Y-67538556D01*
X166939054Y-67499515D01*
X166947816Y-67495051D01*
X166969789Y-67479086D01*
X167119786Y-67370109D01*
X167119788Y-67370106D01*
X167119792Y-67370104D01*
X167270104Y-67219792D01*
X167270106Y-67219788D01*
X167270109Y-67219786D01*
X167395048Y-67047820D01*
X167395047Y-67047820D01*
X167395051Y-67047816D01*
X167491557Y-66858412D01*
X167557246Y-66656243D01*
X167590500Y-66446287D01*
X167590500Y-66233713D01*
X167557246Y-66023757D01*
X167491557Y-65821588D01*
X167395051Y-65632184D01*
X167395049Y-65632181D01*
X167395048Y-65632179D01*
X167270109Y-65460213D01*
X167119786Y-65309890D01*
X166947820Y-65184951D01*
X166947115Y-65184591D01*
X166939054Y-65180485D01*
X166888259Y-65132512D01*
X166871463Y-65064692D01*
X166893999Y-64998556D01*
X166939054Y-64959515D01*
X166947816Y-64955051D01*
X166969789Y-64939086D01*
X167119786Y-64830109D01*
X167119788Y-64830106D01*
X167119792Y-64830104D01*
X167270104Y-64679792D01*
X167270106Y-64679788D01*
X167270109Y-64679786D01*
X167395048Y-64507820D01*
X167395047Y-64507820D01*
X167395051Y-64507816D01*
X167491557Y-64318412D01*
X167557246Y-64116243D01*
X167590500Y-63906287D01*
X167590500Y-63693713D01*
X167557246Y-63483757D01*
X167491557Y-63281588D01*
X167395051Y-63092184D01*
X167395049Y-63092181D01*
X167395048Y-63092179D01*
X167270109Y-62920213D01*
X167119786Y-62769890D01*
X166947820Y-62644951D01*
X166947115Y-62644591D01*
X166939054Y-62640485D01*
X166888259Y-62592512D01*
X166871463Y-62524692D01*
X166893999Y-62458556D01*
X166939054Y-62419515D01*
X166947816Y-62415051D01*
X166969789Y-62399086D01*
X167119786Y-62290109D01*
X167119788Y-62290106D01*
X167119792Y-62290104D01*
X167270104Y-62139792D01*
X167270106Y-62139788D01*
X167270109Y-62139786D01*
X167395048Y-61967820D01*
X167395047Y-61967820D01*
X167395051Y-61967816D01*
X167491557Y-61778412D01*
X167557246Y-61576243D01*
X167590500Y-61366287D01*
X167590500Y-61153713D01*
X167557246Y-60943757D01*
X167491557Y-60741588D01*
X167395051Y-60552184D01*
X167395049Y-60552181D01*
X167395048Y-60552179D01*
X167270109Y-60380213D01*
X167119786Y-60229890D01*
X166947820Y-60104951D01*
X166947115Y-60104591D01*
X166939054Y-60100485D01*
X166888259Y-60052512D01*
X166871463Y-59984692D01*
X166893999Y-59918556D01*
X166939054Y-59879515D01*
X166947816Y-59875051D01*
X167094204Y-59768695D01*
X167119786Y-59750109D01*
X167119788Y-59750106D01*
X167119792Y-59750104D01*
X167270104Y-59599792D01*
X167270106Y-59599788D01*
X167270109Y-59599786D01*
X167395048Y-59427820D01*
X167395047Y-59427820D01*
X167395051Y-59427816D01*
X167491557Y-59238412D01*
X167557246Y-59036243D01*
X167590500Y-58826287D01*
X167590500Y-58613713D01*
X167557246Y-58403757D01*
X167491557Y-58201588D01*
X167395051Y-58012184D01*
X167395049Y-58012181D01*
X167395048Y-58012179D01*
X167270109Y-57840213D01*
X167119786Y-57689890D01*
X166947820Y-57564951D01*
X166947115Y-57564591D01*
X166939054Y-57560485D01*
X166888259Y-57512512D01*
X166871463Y-57444692D01*
X166893999Y-57378556D01*
X166939054Y-57339515D01*
X166947816Y-57335051D01*
X166969789Y-57319086D01*
X167119786Y-57210109D01*
X167119788Y-57210106D01*
X167119792Y-57210104D01*
X167270104Y-57059792D01*
X167270106Y-57059788D01*
X167270109Y-57059786D01*
X167395048Y-56887820D01*
X167395047Y-56887820D01*
X167395051Y-56887816D01*
X167491557Y-56698412D01*
X167557246Y-56496243D01*
X167590500Y-56286287D01*
X167590500Y-56073713D01*
X167557246Y-55863757D01*
X167491557Y-55661588D01*
X167395051Y-55472184D01*
X167395049Y-55472181D01*
X167395048Y-55472179D01*
X167270109Y-55300213D01*
X167119786Y-55149890D01*
X166947820Y-55024951D01*
X166947115Y-55024591D01*
X166939054Y-55020485D01*
X166888259Y-54972512D01*
X166871463Y-54904692D01*
X166893999Y-54838556D01*
X166939054Y-54799515D01*
X166947816Y-54795051D01*
X166969789Y-54779086D01*
X167119786Y-54670109D01*
X167119788Y-54670106D01*
X167119792Y-54670104D01*
X167270104Y-54519792D01*
X167270106Y-54519788D01*
X167270109Y-54519786D01*
X167395048Y-54347820D01*
X167395047Y-54347820D01*
X167395051Y-54347816D01*
X167491557Y-54158412D01*
X167557246Y-53956243D01*
X167590500Y-53746287D01*
X167590500Y-53533713D01*
X167557246Y-53323757D01*
X167491557Y-53121588D01*
X167395051Y-52932184D01*
X167395049Y-52932181D01*
X167395048Y-52932179D01*
X167270109Y-52760213D01*
X167119786Y-52609890D01*
X166947820Y-52484951D01*
X166947115Y-52484591D01*
X166939054Y-52480485D01*
X166888259Y-52432512D01*
X166871463Y-52364692D01*
X166893999Y-52298556D01*
X166939054Y-52259515D01*
X166947816Y-52255051D01*
X166969789Y-52239086D01*
X167119786Y-52130109D01*
X167119788Y-52130106D01*
X167119792Y-52130104D01*
X167270104Y-51979792D01*
X167270106Y-51979788D01*
X167270109Y-51979786D01*
X167395048Y-51807820D01*
X167395047Y-51807820D01*
X167395051Y-51807816D01*
X167491557Y-51618412D01*
X167557246Y-51416243D01*
X167590500Y-51206287D01*
X167590500Y-50993713D01*
X167557246Y-50783757D01*
X167491557Y-50581588D01*
X167395051Y-50392184D01*
X167395049Y-50392181D01*
X167395048Y-50392179D01*
X167270109Y-50220213D01*
X167119786Y-50069890D01*
X166947820Y-49944951D01*
X166947115Y-49944591D01*
X166939054Y-49940485D01*
X166888259Y-49892512D01*
X166871463Y-49824692D01*
X166893999Y-49758556D01*
X166939054Y-49719515D01*
X166947816Y-49715051D01*
X166969789Y-49699086D01*
X167119786Y-49590109D01*
X167119788Y-49590106D01*
X167119792Y-49590104D01*
X167270104Y-49439792D01*
X167270106Y-49439788D01*
X167270109Y-49439786D01*
X167395048Y-49267820D01*
X167395047Y-49267820D01*
X167395051Y-49267816D01*
X167491557Y-49078412D01*
X167557246Y-48876243D01*
X167590500Y-48666287D01*
X167590500Y-48453713D01*
X167557246Y-48243757D01*
X167491557Y-48041588D01*
X167395051Y-47852184D01*
X167395049Y-47852181D01*
X167395048Y-47852179D01*
X167270109Y-47680213D01*
X167156569Y-47566673D01*
X167123084Y-47505350D01*
X167128068Y-47435658D01*
X167169940Y-47379725D01*
X167200915Y-47362810D01*
X167332331Y-47313796D01*
X167447546Y-47227546D01*
X167533796Y-47112331D01*
X167584091Y-46977483D01*
X167590500Y-46917873D01*
X167590499Y-45122135D01*
X181649500Y-45122135D01*
X181649500Y-46917870D01*
X181649501Y-46917876D01*
X181655908Y-46977483D01*
X181706202Y-47112328D01*
X181706206Y-47112335D01*
X181792452Y-47227544D01*
X181792455Y-47227547D01*
X181907664Y-47313793D01*
X181907671Y-47313797D01*
X182039082Y-47362810D01*
X182095016Y-47404681D01*
X182119433Y-47470145D01*
X182104582Y-47538418D01*
X182083431Y-47566673D01*
X181969889Y-47680215D01*
X181844951Y-47852179D01*
X181748444Y-48041585D01*
X181682753Y-48243760D01*
X181649500Y-48453713D01*
X181649500Y-48666286D01*
X181682753Y-48876239D01*
X181748444Y-49078414D01*
X181844951Y-49267820D01*
X181969890Y-49439786D01*
X182120213Y-49590109D01*
X182292182Y-49715050D01*
X182300946Y-49719516D01*
X182351742Y-49767491D01*
X182368536Y-49835312D01*
X182345998Y-49901447D01*
X182300946Y-49940484D01*
X182292182Y-49944949D01*
X182120213Y-50069890D01*
X181969890Y-50220213D01*
X181844951Y-50392179D01*
X181748444Y-50581585D01*
X181682753Y-50783760D01*
X181649500Y-50993713D01*
X181649500Y-51206286D01*
X181682753Y-51416239D01*
X181748444Y-51618414D01*
X181844951Y-51807820D01*
X181969890Y-51979786D01*
X182120213Y-52130109D01*
X182292182Y-52255050D01*
X182300946Y-52259516D01*
X182351742Y-52307491D01*
X182368536Y-52375312D01*
X182345998Y-52441447D01*
X182300946Y-52480484D01*
X182292182Y-52484949D01*
X182120213Y-52609890D01*
X181969890Y-52760213D01*
X181844951Y-52932179D01*
X181748444Y-53121585D01*
X181682753Y-53323760D01*
X181649500Y-53533713D01*
X181649500Y-53746286D01*
X181682753Y-53956239D01*
X181748444Y-54158414D01*
X181844951Y-54347820D01*
X181969890Y-54519786D01*
X182120213Y-54670109D01*
X182292182Y-54795050D01*
X182300946Y-54799516D01*
X182351742Y-54847491D01*
X182368536Y-54915312D01*
X182345998Y-54981447D01*
X182300946Y-55020484D01*
X182292182Y-55024949D01*
X182120213Y-55149890D01*
X181969890Y-55300213D01*
X181844951Y-55472179D01*
X181748444Y-55661585D01*
X181682753Y-55863760D01*
X181649500Y-56073713D01*
X181649500Y-56286286D01*
X181682753Y-56496239D01*
X181748444Y-56698414D01*
X181844951Y-56887820D01*
X181969890Y-57059786D01*
X182120213Y-57210109D01*
X182292182Y-57335050D01*
X182300946Y-57339516D01*
X182351742Y-57387491D01*
X182368536Y-57455312D01*
X182345998Y-57521447D01*
X182300946Y-57560484D01*
X182292182Y-57564949D01*
X182120213Y-57689890D01*
X181969890Y-57840213D01*
X181844951Y-58012179D01*
X181748444Y-58201585D01*
X181682753Y-58403760D01*
X181649500Y-58613713D01*
X181649500Y-58826286D01*
X181682753Y-59036239D01*
X181748444Y-59238414D01*
X181844951Y-59427820D01*
X181969890Y-59599786D01*
X182120213Y-59750109D01*
X182292182Y-59875050D01*
X182300946Y-59879516D01*
X182351742Y-59927491D01*
X182368536Y-59995312D01*
X182345998Y-60061447D01*
X182300946Y-60100484D01*
X182292182Y-60104949D01*
X182120213Y-60229890D01*
X181969890Y-60380213D01*
X181844951Y-60552179D01*
X181748444Y-60741585D01*
X181682753Y-60943760D01*
X181649500Y-61153713D01*
X181649500Y-61366287D01*
X181682754Y-61576243D01*
X181696797Y-61619464D01*
X181748444Y-61778414D01*
X181844951Y-61967820D01*
X181969890Y-62139786D01*
X182120213Y-62290109D01*
X182292182Y-62415050D01*
X182300946Y-62419516D01*
X182351742Y-62467491D01*
X182368536Y-62535312D01*
X182345998Y-62601447D01*
X182300946Y-62640484D01*
X182292182Y-62644949D01*
X182120213Y-62769890D01*
X181969890Y-62920213D01*
X181844951Y-63092179D01*
X181748444Y-63281585D01*
X181682753Y-63483760D01*
X181649500Y-63693713D01*
X181649500Y-63906286D01*
X181682753Y-64116239D01*
X181748444Y-64318414D01*
X181844951Y-64507820D01*
X181969890Y-64679786D01*
X182120213Y-64830109D01*
X182292182Y-64955050D01*
X182300946Y-64959516D01*
X182351742Y-65007491D01*
X182368536Y-65075312D01*
X182345998Y-65141447D01*
X182300946Y-65180484D01*
X182292182Y-65184949D01*
X182120213Y-65309890D01*
X181969890Y-65460213D01*
X181844951Y-65632179D01*
X181748444Y-65821585D01*
X181682753Y-66023760D01*
X181649500Y-66233713D01*
X181649500Y-66446286D01*
X181682753Y-66656239D01*
X181748444Y-66858414D01*
X181844951Y-67047820D01*
X181969890Y-67219786D01*
X182120213Y-67370109D01*
X182292182Y-67495050D01*
X182300946Y-67499516D01*
X182351742Y-67547491D01*
X182368536Y-67615312D01*
X182345998Y-67681447D01*
X182300946Y-67720484D01*
X182292182Y-67724949D01*
X182120213Y-67849890D01*
X181969890Y-68000213D01*
X181844951Y-68172179D01*
X181748444Y-68361585D01*
X181682753Y-68563760D01*
X181649500Y-68773713D01*
X181649500Y-68986286D01*
X181682753Y-69196239D01*
X181748444Y-69398414D01*
X181844951Y-69587820D01*
X181969890Y-69759786D01*
X182120213Y-69910109D01*
X182292182Y-70035050D01*
X182300946Y-70039516D01*
X182351742Y-70087491D01*
X182368536Y-70155312D01*
X182345998Y-70221447D01*
X182300946Y-70260484D01*
X182292182Y-70264949D01*
X182120213Y-70389890D01*
X181969890Y-70540213D01*
X181844951Y-70712179D01*
X181748444Y-70901585D01*
X181682753Y-71103760D01*
X181649500Y-71313713D01*
X181649500Y-71526286D01*
X181682753Y-71736239D01*
X181748444Y-71938414D01*
X181844951Y-72127820D01*
X181969890Y-72299786D01*
X182120213Y-72450109D01*
X182292179Y-72575048D01*
X182292181Y-72575049D01*
X182292184Y-72575051D01*
X182301493Y-72579794D01*
X182352290Y-72627766D01*
X182369087Y-72695587D01*
X182346552Y-72761722D01*
X182301505Y-72800760D01*
X182292446Y-72805376D01*
X182292440Y-72805380D01*
X182238282Y-72844727D01*
X182238282Y-72844728D01*
X182870591Y-73477037D01*
X182807007Y-73494075D01*
X182692993Y-73559901D01*
X182599901Y-73652993D01*
X182534075Y-73767007D01*
X182517037Y-73830591D01*
X181884728Y-73198282D01*
X181884727Y-73198282D01*
X181845380Y-73252439D01*
X181748904Y-73441782D01*
X181683242Y-73643869D01*
X181683242Y-73643872D01*
X181650000Y-73853753D01*
X181650000Y-74066246D01*
X181683242Y-74276127D01*
X181683242Y-74276130D01*
X181748904Y-74478217D01*
X181845375Y-74667550D01*
X181884728Y-74721716D01*
X182517036Y-74089407D01*
X182534075Y-74152993D01*
X182599901Y-74267007D01*
X182692993Y-74360099D01*
X182807007Y-74425925D01*
X182870590Y-74442962D01*
X182238282Y-75075269D01*
X182238282Y-75075270D01*
X182292452Y-75114626D01*
X182292451Y-75114626D01*
X182301495Y-75119234D01*
X182352292Y-75167208D01*
X182369087Y-75235029D01*
X182346550Y-75301164D01*
X182301499Y-75340202D01*
X182292182Y-75344949D01*
X182120213Y-75469890D01*
X181969890Y-75620213D01*
X181844951Y-75792179D01*
X181748444Y-75981585D01*
X181682753Y-76183760D01*
X181649500Y-76393713D01*
X181649500Y-76606286D01*
X181682753Y-76816239D01*
X181748444Y-77018414D01*
X181844951Y-77207820D01*
X181969890Y-77379786D01*
X182120213Y-77530109D01*
X182292182Y-77655050D01*
X182300946Y-77659516D01*
X182351742Y-77707491D01*
X182368536Y-77775312D01*
X182345998Y-77841447D01*
X182300946Y-77880484D01*
X182292182Y-77884949D01*
X182120213Y-78009890D01*
X181969890Y-78160213D01*
X181844951Y-78332179D01*
X181748444Y-78521585D01*
X181682753Y-78723760D01*
X181649500Y-78933713D01*
X181649500Y-79146286D01*
X181682753Y-79356239D01*
X181748444Y-79558414D01*
X181844951Y-79747820D01*
X181969890Y-79919786D01*
X182120213Y-80070109D01*
X182292182Y-80195050D01*
X182300946Y-80199516D01*
X182351742Y-80247491D01*
X182368536Y-80315312D01*
X182345998Y-80381447D01*
X182300946Y-80420484D01*
X182292182Y-80424949D01*
X182120213Y-80549890D01*
X181969890Y-80700213D01*
X181844951Y-80872179D01*
X181748444Y-81061585D01*
X181682753Y-81263760D01*
X181649500Y-81473713D01*
X181649500Y-81686286D01*
X181682753Y-81896239D01*
X181748444Y-82098414D01*
X181844951Y-82287820D01*
X181969890Y-82459786D01*
X182120213Y-82610109D01*
X182292179Y-82735048D01*
X182292181Y-82735049D01*
X182292184Y-82735051D01*
X182481588Y-82831557D01*
X182683757Y-82897246D01*
X182893713Y-82930500D01*
X182893714Y-82930500D01*
X183106286Y-82930500D01*
X183106287Y-82930500D01*
X183316243Y-82897246D01*
X183518412Y-82831557D01*
X183707816Y-82735051D01*
X183729789Y-82719086D01*
X183879786Y-82610109D01*
X183879788Y-82610106D01*
X183879792Y-82610104D01*
X184030104Y-82459792D01*
X184030106Y-82459788D01*
X184030109Y-82459786D01*
X184155048Y-82287820D01*
X184155047Y-82287820D01*
X184155051Y-82287816D01*
X184251557Y-82098412D01*
X184317246Y-81896243D01*
X184350500Y-81686287D01*
X184350500Y-81473713D01*
X184317246Y-81263757D01*
X184251557Y-81061588D01*
X184155051Y-80872184D01*
X184155049Y-80872181D01*
X184155048Y-80872179D01*
X184030109Y-80700213D01*
X183879786Y-80549890D01*
X183707820Y-80424951D01*
X183707115Y-80424591D01*
X183699054Y-80420485D01*
X183648259Y-80372512D01*
X183631463Y-80304692D01*
X183653999Y-80238556D01*
X183699054Y-80199515D01*
X183707816Y-80195051D01*
X183762572Y-80155269D01*
X183879786Y-80070109D01*
X183879788Y-80070106D01*
X183879792Y-80070104D01*
X184030104Y-79919792D01*
X184030106Y-79919788D01*
X184030109Y-79919786D01*
X184155048Y-79747820D01*
X184155047Y-79747820D01*
X184155051Y-79747816D01*
X184251557Y-79558412D01*
X184317246Y-79356243D01*
X184350500Y-79146287D01*
X184350500Y-78933713D01*
X184317246Y-78723757D01*
X184251557Y-78521588D01*
X184155051Y-78332184D01*
X184155049Y-78332181D01*
X184155048Y-78332179D01*
X184030109Y-78160213D01*
X183879786Y-78009890D01*
X183707820Y-77884951D01*
X183699600Y-77880763D01*
X183699054Y-77880485D01*
X183648259Y-77832512D01*
X183631463Y-77764692D01*
X183653999Y-77698556D01*
X183699054Y-77659515D01*
X183707816Y-77655051D01*
X183729789Y-77639086D01*
X183879786Y-77530109D01*
X183879788Y-77530106D01*
X183879792Y-77530104D01*
X184030104Y-77379792D01*
X184030106Y-77379788D01*
X184030109Y-77379786D01*
X184155048Y-77207820D01*
X184155047Y-77207820D01*
X184155051Y-77207816D01*
X184251557Y-77018412D01*
X184317246Y-76816243D01*
X184350500Y-76606287D01*
X184350500Y-76393713D01*
X184317246Y-76183757D01*
X184251557Y-75981588D01*
X184155051Y-75792184D01*
X184155049Y-75792181D01*
X184155048Y-75792179D01*
X184030109Y-75620213D01*
X183879786Y-75469890D01*
X183707817Y-75344949D01*
X183698504Y-75340204D01*
X183647707Y-75292230D01*
X183630912Y-75224409D01*
X183653449Y-75158274D01*
X183698507Y-75119232D01*
X183707555Y-75114622D01*
X183761716Y-75075270D01*
X183761717Y-75075270D01*
X183129408Y-74442962D01*
X183192993Y-74425925D01*
X183307007Y-74360099D01*
X183400099Y-74267007D01*
X183465925Y-74152993D01*
X183482962Y-74089408D01*
X184115270Y-74721717D01*
X184115270Y-74721716D01*
X184154622Y-74667554D01*
X184251095Y-74478217D01*
X184316757Y-74276130D01*
X184316757Y-74276127D01*
X184350000Y-74066246D01*
X184350000Y-73853753D01*
X184316757Y-73643872D01*
X184316757Y-73643869D01*
X184251095Y-73441782D01*
X184154624Y-73252449D01*
X184115270Y-73198282D01*
X184115269Y-73198282D01*
X183482962Y-73830590D01*
X183465925Y-73767007D01*
X183400099Y-73652993D01*
X183307007Y-73559901D01*
X183192993Y-73494075D01*
X183129409Y-73477037D01*
X183761716Y-72844728D01*
X183707547Y-72805373D01*
X183707547Y-72805372D01*
X183698500Y-72800763D01*
X183647706Y-72752788D01*
X183630912Y-72684966D01*
X183653451Y-72618832D01*
X183698508Y-72579793D01*
X183707816Y-72575051D01*
X183787007Y-72517515D01*
X183879786Y-72450109D01*
X183879788Y-72450106D01*
X183879792Y-72450104D01*
X184030104Y-72299792D01*
X184030106Y-72299788D01*
X184030109Y-72299786D01*
X184155048Y-72127820D01*
X184155047Y-72127820D01*
X184155051Y-72127816D01*
X184251557Y-71938412D01*
X184317246Y-71736243D01*
X184350500Y-71526287D01*
X184350500Y-71313713D01*
X184317246Y-71103757D01*
X184251557Y-70901588D01*
X184155051Y-70712184D01*
X184155049Y-70712181D01*
X184155048Y-70712179D01*
X184030109Y-70540213D01*
X183879786Y-70389890D01*
X183707820Y-70264951D01*
X183707115Y-70264591D01*
X183699054Y-70260485D01*
X183648259Y-70212512D01*
X183631463Y-70144692D01*
X183653999Y-70078556D01*
X183699054Y-70039515D01*
X183707816Y-70035051D01*
X183729789Y-70019086D01*
X183879786Y-69910109D01*
X183879788Y-69910106D01*
X183879792Y-69910104D01*
X184030104Y-69759792D01*
X184030106Y-69759788D01*
X184030109Y-69759786D01*
X184155048Y-69587820D01*
X184155047Y-69587820D01*
X184155051Y-69587816D01*
X184251557Y-69398412D01*
X184317246Y-69196243D01*
X184350500Y-68986287D01*
X184350500Y-68773713D01*
X184317246Y-68563757D01*
X184251557Y-68361588D01*
X184155051Y-68172184D01*
X184155049Y-68172181D01*
X184155048Y-68172179D01*
X184030109Y-68000213D01*
X183879786Y-67849890D01*
X183707820Y-67724951D01*
X183707115Y-67724591D01*
X183699054Y-67720485D01*
X183648259Y-67672512D01*
X183631463Y-67604692D01*
X183653999Y-67538556D01*
X183699054Y-67499515D01*
X183707816Y-67495051D01*
X183729789Y-67479086D01*
X183879786Y-67370109D01*
X183879788Y-67370106D01*
X183879792Y-67370104D01*
X184030104Y-67219792D01*
X184030106Y-67219788D01*
X184030109Y-67219786D01*
X184155048Y-67047820D01*
X184155047Y-67047820D01*
X184155051Y-67047816D01*
X184251557Y-66858412D01*
X184317246Y-66656243D01*
X184350500Y-66446287D01*
X184350500Y-66233713D01*
X184317246Y-66023757D01*
X184251557Y-65821588D01*
X184155051Y-65632184D01*
X184155049Y-65632181D01*
X184155048Y-65632179D01*
X184030109Y-65460213D01*
X183879786Y-65309890D01*
X183707820Y-65184951D01*
X183707115Y-65184591D01*
X183699054Y-65180485D01*
X183648259Y-65132512D01*
X183631463Y-65064692D01*
X183653999Y-64998556D01*
X183699054Y-64959515D01*
X183707816Y-64955051D01*
X183729789Y-64939086D01*
X183879786Y-64830109D01*
X183879788Y-64830106D01*
X183879792Y-64830104D01*
X184030104Y-64679792D01*
X184030106Y-64679788D01*
X184030109Y-64679786D01*
X184155048Y-64507820D01*
X184155047Y-64507820D01*
X184155051Y-64507816D01*
X184251557Y-64318412D01*
X184317246Y-64116243D01*
X184350500Y-63906287D01*
X184350500Y-63693713D01*
X184317246Y-63483757D01*
X184251557Y-63281588D01*
X184155051Y-63092184D01*
X184155049Y-63092181D01*
X184155048Y-63092179D01*
X184030109Y-62920213D01*
X183879786Y-62769890D01*
X183707820Y-62644951D01*
X183707115Y-62644591D01*
X183699054Y-62640485D01*
X183648259Y-62592512D01*
X183631463Y-62524692D01*
X183653999Y-62458556D01*
X183699054Y-62419515D01*
X183707816Y-62415051D01*
X183729789Y-62399086D01*
X183879786Y-62290109D01*
X183879788Y-62290106D01*
X183879792Y-62290104D01*
X184030104Y-62139792D01*
X184030106Y-62139788D01*
X184030109Y-62139786D01*
X184155048Y-61967820D01*
X184155047Y-61967820D01*
X184155051Y-61967816D01*
X184251557Y-61778412D01*
X184317246Y-61576243D01*
X184350500Y-61366287D01*
X184350500Y-61153713D01*
X184317246Y-60943757D01*
X184251557Y-60741588D01*
X184155051Y-60552184D01*
X184155049Y-60552181D01*
X184155048Y-60552179D01*
X184030109Y-60380213D01*
X183879786Y-60229890D01*
X183707820Y-60104951D01*
X183707115Y-60104591D01*
X183699054Y-60100485D01*
X183648259Y-60052512D01*
X183631463Y-59984692D01*
X183653999Y-59918556D01*
X183699054Y-59879515D01*
X183707816Y-59875051D01*
X183854204Y-59768695D01*
X183879786Y-59750109D01*
X183879788Y-59750106D01*
X183879792Y-59750104D01*
X184030104Y-59599792D01*
X184030106Y-59599788D01*
X184030109Y-59599786D01*
X184155048Y-59427820D01*
X184155047Y-59427820D01*
X184155051Y-59427816D01*
X184251557Y-59238412D01*
X184317246Y-59036243D01*
X184350500Y-58826287D01*
X184350500Y-58613713D01*
X184317246Y-58403757D01*
X184251557Y-58201588D01*
X184155051Y-58012184D01*
X184155049Y-58012181D01*
X184155048Y-58012179D01*
X184030109Y-57840213D01*
X183879786Y-57689890D01*
X183707820Y-57564951D01*
X183707115Y-57564591D01*
X183699054Y-57560485D01*
X183648259Y-57512512D01*
X183631463Y-57444692D01*
X183653999Y-57378556D01*
X183699054Y-57339515D01*
X183707816Y-57335051D01*
X183729789Y-57319086D01*
X183879786Y-57210109D01*
X183879788Y-57210106D01*
X183879792Y-57210104D01*
X184030104Y-57059792D01*
X184030106Y-57059788D01*
X184030109Y-57059786D01*
X184155048Y-56887820D01*
X184155047Y-56887820D01*
X184155051Y-56887816D01*
X184251557Y-56698412D01*
X184317246Y-56496243D01*
X184350500Y-56286287D01*
X184350500Y-56073713D01*
X184317246Y-55863757D01*
X184251557Y-55661588D01*
X184155051Y-55472184D01*
X184155049Y-55472181D01*
X184155048Y-55472179D01*
X184030109Y-55300213D01*
X183879786Y-55149890D01*
X183707820Y-55024951D01*
X183707115Y-55024591D01*
X183699054Y-55020485D01*
X183648259Y-54972512D01*
X183631463Y-54904692D01*
X183653999Y-54838556D01*
X183699054Y-54799515D01*
X183707816Y-54795051D01*
X183729789Y-54779086D01*
X183879786Y-54670109D01*
X183879788Y-54670106D01*
X183879792Y-54670104D01*
X184030104Y-54519792D01*
X184030106Y-54519788D01*
X184030109Y-54519786D01*
X184155048Y-54347820D01*
X184155047Y-54347820D01*
X184155051Y-54347816D01*
X184251557Y-54158412D01*
X184317246Y-53956243D01*
X184350500Y-53746287D01*
X184350500Y-53533713D01*
X184317246Y-53323757D01*
X184251557Y-53121588D01*
X184155051Y-52932184D01*
X184155049Y-52932181D01*
X184155048Y-52932179D01*
X184030109Y-52760213D01*
X183879786Y-52609890D01*
X183707820Y-52484951D01*
X183707115Y-52484591D01*
X183699054Y-52480485D01*
X183648259Y-52432512D01*
X183631463Y-52364692D01*
X183653999Y-52298556D01*
X183699054Y-52259515D01*
X183707816Y-52255051D01*
X183729789Y-52239086D01*
X183879786Y-52130109D01*
X183879788Y-52130106D01*
X183879792Y-52130104D01*
X184030104Y-51979792D01*
X184030106Y-51979788D01*
X184030109Y-51979786D01*
X184155048Y-51807820D01*
X184155047Y-51807820D01*
X184155051Y-51807816D01*
X184251557Y-51618412D01*
X184317246Y-51416243D01*
X184350500Y-51206287D01*
X184350500Y-50993713D01*
X184317246Y-50783757D01*
X184251557Y-50581588D01*
X184155051Y-50392184D01*
X184155049Y-50392181D01*
X184155048Y-50392179D01*
X184030109Y-50220213D01*
X183879786Y-50069890D01*
X183707820Y-49944951D01*
X183707115Y-49944591D01*
X183699054Y-49940485D01*
X183648259Y-49892512D01*
X183631463Y-49824692D01*
X183653999Y-49758556D01*
X183699054Y-49719515D01*
X183707816Y-49715051D01*
X183729789Y-49699086D01*
X183879786Y-49590109D01*
X183879788Y-49590106D01*
X183879792Y-49590104D01*
X184030104Y-49439792D01*
X184030106Y-49439788D01*
X184030109Y-49439786D01*
X184155048Y-49267820D01*
X184155047Y-49267820D01*
X184155051Y-49267816D01*
X184251557Y-49078412D01*
X184317246Y-48876243D01*
X184350500Y-48666287D01*
X184350500Y-48453713D01*
X184317246Y-48243757D01*
X184251557Y-48041588D01*
X184155051Y-47852184D01*
X184155049Y-47852181D01*
X184155048Y-47852179D01*
X184030109Y-47680213D01*
X183916569Y-47566673D01*
X183883084Y-47505350D01*
X183888068Y-47435658D01*
X183929940Y-47379725D01*
X183960915Y-47362810D01*
X184092331Y-47313796D01*
X184207546Y-47227546D01*
X184293796Y-47112331D01*
X184344091Y-46977483D01*
X184350500Y-46917873D01*
X184350499Y-45122128D01*
X184344091Y-45062517D01*
X184293796Y-44927669D01*
X184293795Y-44927668D01*
X184293793Y-44927664D01*
X184207547Y-44812455D01*
X184207544Y-44812452D01*
X184092335Y-44726206D01*
X184092328Y-44726202D01*
X183957482Y-44675908D01*
X183957483Y-44675908D01*
X183897883Y-44669501D01*
X183897881Y-44669500D01*
X183897873Y-44669500D01*
X183897864Y-44669500D01*
X182102129Y-44669500D01*
X182102123Y-44669501D01*
X182042516Y-44675908D01*
X181907671Y-44726202D01*
X181907664Y-44726206D01*
X181792455Y-44812452D01*
X181792452Y-44812455D01*
X181706206Y-44927664D01*
X181706202Y-44927671D01*
X181655908Y-45062517D01*
X181649501Y-45122116D01*
X181649501Y-45122123D01*
X181649500Y-45122135D01*
X167590499Y-45122135D01*
X167590499Y-45122128D01*
X167584091Y-45062517D01*
X167533796Y-44927669D01*
X167533795Y-44927668D01*
X167533793Y-44927664D01*
X167447547Y-44812455D01*
X167447544Y-44812452D01*
X167332335Y-44726206D01*
X167332328Y-44726202D01*
X167197482Y-44675908D01*
X167197483Y-44675908D01*
X167137883Y-44669501D01*
X167137881Y-44669500D01*
X167137873Y-44669500D01*
X167137864Y-44669500D01*
X165342129Y-44669500D01*
X165342123Y-44669501D01*
X165282516Y-44675908D01*
X165147671Y-44726202D01*
X165147664Y-44726206D01*
X165032455Y-44812452D01*
X165032452Y-44812455D01*
X164946206Y-44927664D01*
X164946202Y-44927671D01*
X164895908Y-45062517D01*
X164889501Y-45122116D01*
X164889501Y-45122123D01*
X164889500Y-45122135D01*
X152350499Y-45122135D01*
X152350499Y-45122128D01*
X152344091Y-45062517D01*
X152293796Y-44927669D01*
X152293795Y-44927668D01*
X152293793Y-44927664D01*
X152207547Y-44812455D01*
X152207544Y-44812452D01*
X152092335Y-44726206D01*
X152092328Y-44726202D01*
X151957482Y-44675908D01*
X151957483Y-44675908D01*
X151897883Y-44669501D01*
X151897881Y-44669500D01*
X151897873Y-44669500D01*
X151897864Y-44669500D01*
X150102129Y-44669500D01*
X150102123Y-44669501D01*
X150042516Y-44675908D01*
X149907671Y-44726202D01*
X149907664Y-44726206D01*
X149792455Y-44812452D01*
X149792452Y-44812455D01*
X149706206Y-44927664D01*
X149706202Y-44927671D01*
X149655908Y-45062517D01*
X149649501Y-45122116D01*
X149649501Y-45122123D01*
X149649500Y-45122135D01*
X135590499Y-45122135D01*
X135590499Y-45122128D01*
X135584091Y-45062517D01*
X135533796Y-44927669D01*
X135533795Y-44927668D01*
X135533793Y-44927664D01*
X135447547Y-44812455D01*
X135447544Y-44812452D01*
X135332335Y-44726206D01*
X135332328Y-44726202D01*
X135197482Y-44675908D01*
X135197483Y-44675908D01*
X135137883Y-44669501D01*
X135137881Y-44669500D01*
X135137873Y-44669500D01*
X135137864Y-44669500D01*
X133342129Y-44669500D01*
X133342123Y-44669501D01*
X133282516Y-44675908D01*
X133147671Y-44726202D01*
X133147664Y-44726206D01*
X133032455Y-44812452D01*
X133032452Y-44812455D01*
X132946206Y-44927664D01*
X132946202Y-44927671D01*
X132895908Y-45062517D01*
X132889501Y-45122116D01*
X132889501Y-45122123D01*
X132889500Y-45122135D01*
X121950500Y-45122135D01*
X121950500Y-35835269D01*
X121970185Y-35768230D01*
X121971398Y-35766378D01*
X121998013Y-35726547D01*
X122065894Y-35562666D01*
X122100500Y-35388691D01*
X122100500Y-35211309D01*
X122100500Y-35211306D01*
X122100499Y-35211304D01*
X122065896Y-35037341D01*
X122065893Y-35037332D01*
X121998016Y-34873459D01*
X121998009Y-34873446D01*
X121899464Y-34725965D01*
X121899461Y-34725961D01*
X121774038Y-34600538D01*
X121774034Y-34600535D01*
X121626553Y-34501990D01*
X121626540Y-34501983D01*
X121462667Y-34434106D01*
X121462658Y-34434103D01*
X121288694Y-34399500D01*
X121288691Y-34399500D01*
X121111309Y-34399500D01*
X121111306Y-34399500D01*
X120937341Y-34434103D01*
X120937332Y-34434106D01*
X120773459Y-34501983D01*
X120773446Y-34501990D01*
X120625965Y-34600535D01*
X120625961Y-34600538D01*
X120500538Y-34725961D01*
X120500535Y-34725965D01*
X120401990Y-34873446D01*
X120401983Y-34873459D01*
X120334106Y-35037332D01*
X120334103Y-35037341D01*
X120299500Y-35211304D01*
X52900499Y-35211304D01*
X52865896Y-35037341D01*
X52865893Y-35037332D01*
X52798016Y-34873459D01*
X52798009Y-34873446D01*
X52699464Y-34725965D01*
X52699461Y-34725961D01*
X52574038Y-34600538D01*
X52574034Y-34600535D01*
X52426553Y-34501990D01*
X52426540Y-34501983D01*
X52262668Y-34434106D01*
X52262660Y-34434104D01*
X52215680Y-34424759D01*
X52198923Y-34415993D01*
X52180445Y-34411974D01*
X52155408Y-34393231D01*
X52153769Y-34392374D01*
X52152191Y-34390823D01*
X51986819Y-34225451D01*
X51953334Y-34164128D01*
X51950500Y-34137770D01*
X51950500Y-34035269D01*
X51970185Y-33968230D01*
X51971398Y-33966378D01*
X51998013Y-33926547D01*
X52065894Y-33762666D01*
X52100500Y-33588691D01*
X52100500Y-33411309D01*
X52100500Y-33411306D01*
X52100499Y-33411304D01*
X52065896Y-33237341D01*
X52065893Y-33237332D01*
X51998016Y-33073459D01*
X51998009Y-33073446D01*
X51899464Y-32925965D01*
X51899461Y-32925961D01*
X51774038Y-32800538D01*
X51774034Y-32800535D01*
X51626553Y-32701990D01*
X51626540Y-32701983D01*
X51462667Y-32634106D01*
X51462658Y-32634103D01*
X51288694Y-32599500D01*
X51288691Y-32599500D01*
X51111309Y-32599500D01*
X51111306Y-32599500D01*
X50937341Y-32634103D01*
X50937332Y-32634106D01*
X50773459Y-32701983D01*
X50773446Y-32701990D01*
X50625965Y-32800535D01*
X50625961Y-32800538D01*
X50500538Y-32925961D01*
X50500535Y-32925965D01*
X50401990Y-33073446D01*
X50401983Y-33073459D01*
X50334106Y-33237332D01*
X50334103Y-33237341D01*
X50299500Y-33411304D01*
X25500500Y-33411304D01*
X25500500Y-29953713D01*
X76089500Y-29953713D01*
X76089500Y-30166286D01*
X76122753Y-30376239D01*
X76188444Y-30578414D01*
X76284951Y-30767820D01*
X76409890Y-30939786D01*
X76560213Y-31090109D01*
X76732179Y-31215048D01*
X76732181Y-31215049D01*
X76732184Y-31215051D01*
X76921588Y-31311557D01*
X77123757Y-31377246D01*
X77333713Y-31410500D01*
X77333714Y-31410500D01*
X77546286Y-31410500D01*
X77546287Y-31410500D01*
X77756243Y-31377246D01*
X77958412Y-31311557D01*
X78147816Y-31215051D01*
X78234138Y-31152335D01*
X78319786Y-31090109D01*
X78319788Y-31090106D01*
X78319792Y-31090104D01*
X78470104Y-30939792D01*
X78470106Y-30939788D01*
X78470109Y-30939786D01*
X78595048Y-30767820D01*
X78595047Y-30767820D01*
X78595051Y-30767816D01*
X78599514Y-30759054D01*
X78647488Y-30708259D01*
X78715308Y-30691463D01*
X78781444Y-30713999D01*
X78820486Y-30759056D01*
X78824951Y-30767820D01*
X78949890Y-30939786D01*
X79100213Y-31090109D01*
X79272179Y-31215048D01*
X79272181Y-31215049D01*
X79272184Y-31215051D01*
X79461588Y-31311557D01*
X79663757Y-31377246D01*
X79873713Y-31410500D01*
X79873714Y-31410500D01*
X80086286Y-31410500D01*
X80086287Y-31410500D01*
X80296243Y-31377246D01*
X80498412Y-31311557D01*
X80687816Y-31215051D01*
X80774138Y-31152335D01*
X80859786Y-31090109D01*
X80859788Y-31090106D01*
X80859792Y-31090104D01*
X81010104Y-30939792D01*
X81010106Y-30939788D01*
X81010109Y-30939786D01*
X81135048Y-30767820D01*
X81135047Y-30767820D01*
X81135051Y-30767816D01*
X81139514Y-30759054D01*
X81187488Y-30708259D01*
X81255308Y-30691463D01*
X81321444Y-30713999D01*
X81360486Y-30759056D01*
X81364951Y-30767820D01*
X81489890Y-30939786D01*
X81640213Y-31090109D01*
X81812179Y-31215048D01*
X81812181Y-31215049D01*
X81812184Y-31215051D01*
X82001588Y-31311557D01*
X82203757Y-31377246D01*
X82413713Y-31410500D01*
X82413714Y-31410500D01*
X82626286Y-31410500D01*
X82626287Y-31410500D01*
X82836243Y-31377246D01*
X83038412Y-31311557D01*
X83227816Y-31215051D01*
X83314138Y-31152335D01*
X83399786Y-31090109D01*
X83399788Y-31090106D01*
X83399792Y-31090104D01*
X83550104Y-30939792D01*
X83550106Y-30939788D01*
X83550109Y-30939786D01*
X83675048Y-30767820D01*
X83675047Y-30767820D01*
X83675051Y-30767816D01*
X83679514Y-30759054D01*
X83727488Y-30708259D01*
X83795308Y-30691463D01*
X83861444Y-30713999D01*
X83900486Y-30759056D01*
X83904951Y-30767820D01*
X84029890Y-30939786D01*
X84180213Y-31090109D01*
X84352179Y-31215048D01*
X84352181Y-31215049D01*
X84352184Y-31215051D01*
X84541588Y-31311557D01*
X84743757Y-31377246D01*
X84953713Y-31410500D01*
X84953714Y-31410500D01*
X85166286Y-31410500D01*
X85166287Y-31410500D01*
X85376243Y-31377246D01*
X85578412Y-31311557D01*
X85767816Y-31215051D01*
X85854471Y-31152093D01*
X85939784Y-31090110D01*
X85939784Y-31090109D01*
X85939792Y-31090104D01*
X86053329Y-30976566D01*
X86114648Y-30943084D01*
X86184340Y-30948068D01*
X86240274Y-30989939D01*
X86257189Y-31020917D01*
X86306202Y-31152328D01*
X86306206Y-31152335D01*
X86392452Y-31267544D01*
X86392455Y-31267547D01*
X86507664Y-31353793D01*
X86507671Y-31353797D01*
X86642517Y-31404091D01*
X86642516Y-31404091D01*
X86649444Y-31404835D01*
X86702127Y-31410500D01*
X88497872Y-31410499D01*
X88557483Y-31404091D01*
X88692331Y-31353796D01*
X88807546Y-31267546D01*
X88893796Y-31152331D01*
X88944091Y-31017483D01*
X88950500Y-30957873D01*
X88950499Y-29953753D01*
X92810000Y-29953753D01*
X92810000Y-30166246D01*
X92843242Y-30376127D01*
X92843242Y-30376130D01*
X92908904Y-30578217D01*
X93005375Y-30767550D01*
X93044728Y-30821716D01*
X93677037Y-30189408D01*
X93694075Y-30252993D01*
X93759901Y-30367007D01*
X93852993Y-30460099D01*
X93967007Y-30525925D01*
X94030590Y-30542962D01*
X93398282Y-31175269D01*
X93398282Y-31175270D01*
X93452449Y-31214624D01*
X93641782Y-31311095D01*
X93843870Y-31376757D01*
X94053754Y-31410000D01*
X94266246Y-31410000D01*
X94476127Y-31376757D01*
X94476130Y-31376757D01*
X94678217Y-31311095D01*
X94867554Y-31214622D01*
X94921716Y-31175270D01*
X94921717Y-31175270D01*
X94289408Y-30542962D01*
X94352993Y-30525925D01*
X94467007Y-30460099D01*
X94560099Y-30367007D01*
X94625925Y-30252993D01*
X94642962Y-30189408D01*
X95275270Y-30821717D01*
X95275270Y-30821716D01*
X95314622Y-30767554D01*
X95319514Y-30757954D01*
X95367488Y-30707157D01*
X95435308Y-30690361D01*
X95501444Y-30712897D01*
X95540486Y-30757954D01*
X95545375Y-30767550D01*
X95584728Y-30821716D01*
X96217037Y-30189408D01*
X96234075Y-30252993D01*
X96299901Y-30367007D01*
X96392993Y-30460099D01*
X96507007Y-30525925D01*
X96570590Y-30542962D01*
X95938282Y-31175269D01*
X95938282Y-31175270D01*
X95992449Y-31214624D01*
X96181782Y-31311095D01*
X96383870Y-31376757D01*
X96593754Y-31410000D01*
X96806246Y-31410000D01*
X97016127Y-31376757D01*
X97016130Y-31376757D01*
X97218217Y-31311095D01*
X97407554Y-31214622D01*
X97461716Y-31175270D01*
X97461717Y-31175270D01*
X96829408Y-30542962D01*
X96892993Y-30525925D01*
X97007007Y-30460099D01*
X97100099Y-30367007D01*
X97165925Y-30252993D01*
X97182962Y-30189409D01*
X97815270Y-30821717D01*
X97815270Y-30821716D01*
X97854622Y-30767554D01*
X97859514Y-30757954D01*
X97907488Y-30707157D01*
X97975308Y-30690361D01*
X98041444Y-30712897D01*
X98080486Y-30757954D01*
X98085375Y-30767550D01*
X98124728Y-30821716D01*
X98757037Y-30189408D01*
X98774075Y-30252993D01*
X98839901Y-30367007D01*
X98932993Y-30460099D01*
X99047007Y-30525925D01*
X99110590Y-30542962D01*
X98478282Y-31175269D01*
X98478282Y-31175270D01*
X98532449Y-31214624D01*
X98721782Y-31311095D01*
X98923870Y-31376757D01*
X99133754Y-31410000D01*
X99346246Y-31410000D01*
X99556127Y-31376757D01*
X99556130Y-31376757D01*
X99758217Y-31311095D01*
X99947554Y-31214622D01*
X100001716Y-31175270D01*
X100001717Y-31175270D01*
X99369408Y-30542962D01*
X99432993Y-30525925D01*
X99547007Y-30460099D01*
X99640099Y-30367007D01*
X99705925Y-30252993D01*
X99722962Y-30189408D01*
X100392356Y-30858803D01*
X100425841Y-30920126D01*
X100424926Y-30934831D01*
X100427497Y-30934555D01*
X100436401Y-31017373D01*
X100436403Y-31017380D01*
X100486645Y-31152086D01*
X100486649Y-31152093D01*
X100572809Y-31267187D01*
X100572812Y-31267190D01*
X100687906Y-31353350D01*
X100687913Y-31353354D01*
X100822620Y-31403596D01*
X100822627Y-31403598D01*
X100882155Y-31409999D01*
X100882172Y-31410000D01*
X101530000Y-31410000D01*
X101530000Y-30493012D01*
X101587007Y-30525925D01*
X101714174Y-30560000D01*
X101845826Y-30560000D01*
X101972993Y-30525925D01*
X102030000Y-30493012D01*
X102030000Y-31410000D01*
X102677828Y-31410000D01*
X102677844Y-31409999D01*
X102737372Y-31403598D01*
X102737379Y-31403596D01*
X102872086Y-31353354D01*
X102872093Y-31353350D01*
X102987187Y-31267190D01*
X102987190Y-31267187D01*
X103073350Y-31152093D01*
X103073354Y-31152086D01*
X103123596Y-31017379D01*
X103123598Y-31017372D01*
X103129999Y-30957844D01*
X103130000Y-30957827D01*
X103130000Y-30310000D01*
X102213012Y-30310000D01*
X102245925Y-30252993D01*
X102280000Y-30125826D01*
X102280000Y-29994174D01*
X102269158Y-29953713D01*
X106989500Y-29953713D01*
X106989500Y-30166286D01*
X107022753Y-30376239D01*
X107088444Y-30578414D01*
X107184951Y-30767820D01*
X107309890Y-30939786D01*
X107460213Y-31090109D01*
X107632179Y-31215048D01*
X107632181Y-31215049D01*
X107632184Y-31215051D01*
X107821588Y-31311557D01*
X108023757Y-31377246D01*
X108233713Y-31410500D01*
X108233714Y-31410500D01*
X108446286Y-31410500D01*
X108446287Y-31410500D01*
X108656243Y-31377246D01*
X108858412Y-31311557D01*
X109047816Y-31215051D01*
X109134138Y-31152335D01*
X109219786Y-31090109D01*
X109219788Y-31090106D01*
X109219792Y-31090104D01*
X109370104Y-30939792D01*
X109370106Y-30939788D01*
X109370109Y-30939786D01*
X109495048Y-30767820D01*
X109495047Y-30767820D01*
X109495051Y-30767816D01*
X109499514Y-30759054D01*
X109547488Y-30708259D01*
X109615308Y-30691463D01*
X109681444Y-30713999D01*
X109720486Y-30759056D01*
X109724951Y-30767820D01*
X109849890Y-30939786D01*
X110000213Y-31090109D01*
X110172179Y-31215048D01*
X110172181Y-31215049D01*
X110172184Y-31215051D01*
X110361588Y-31311557D01*
X110563757Y-31377246D01*
X110773713Y-31410500D01*
X110773714Y-31410500D01*
X110986286Y-31410500D01*
X110986287Y-31410500D01*
X111196243Y-31377246D01*
X111398412Y-31311557D01*
X111587816Y-31215051D01*
X111674138Y-31152335D01*
X111759786Y-31090109D01*
X111759788Y-31090106D01*
X111759792Y-31090104D01*
X111910104Y-30939792D01*
X111910106Y-30939788D01*
X111910109Y-30939786D01*
X112035048Y-30767820D01*
X112035047Y-30767820D01*
X112035051Y-30767816D01*
X112039514Y-30759054D01*
X112087488Y-30708259D01*
X112155308Y-30691463D01*
X112221444Y-30713999D01*
X112260486Y-30759056D01*
X112264951Y-30767820D01*
X112389890Y-30939786D01*
X112540213Y-31090109D01*
X112712179Y-31215048D01*
X112712181Y-31215049D01*
X112712184Y-31215051D01*
X112901588Y-31311557D01*
X113103757Y-31377246D01*
X113313713Y-31410500D01*
X113313714Y-31410500D01*
X113526286Y-31410500D01*
X113526287Y-31410500D01*
X113736243Y-31377246D01*
X113938412Y-31311557D01*
X114127816Y-31215051D01*
X114214471Y-31152093D01*
X114299784Y-31090110D01*
X114299784Y-31090109D01*
X114299792Y-31090104D01*
X114413329Y-30976566D01*
X114474648Y-30943084D01*
X114544340Y-30948068D01*
X114600274Y-30989939D01*
X114617189Y-31020917D01*
X114666202Y-31152328D01*
X114666206Y-31152335D01*
X114752452Y-31267544D01*
X114752455Y-31267547D01*
X114867664Y-31353793D01*
X114867671Y-31353797D01*
X115002517Y-31404091D01*
X115002516Y-31404091D01*
X115009444Y-31404835D01*
X115062127Y-31410500D01*
X116857872Y-31410499D01*
X116917483Y-31404091D01*
X117052331Y-31353796D01*
X117167546Y-31267546D01*
X117253796Y-31152331D01*
X117304091Y-31017483D01*
X117310500Y-30957873D01*
X117310499Y-29162128D01*
X117304091Y-29102517D01*
X117302810Y-29099083D01*
X117253797Y-28967671D01*
X117253793Y-28967664D01*
X117167547Y-28852455D01*
X117167544Y-28852452D01*
X117052335Y-28766206D01*
X117052328Y-28766202D01*
X116917482Y-28715908D01*
X116917483Y-28715908D01*
X116857883Y-28709501D01*
X116857881Y-28709500D01*
X116857873Y-28709500D01*
X116857864Y-28709500D01*
X115062129Y-28709500D01*
X115062123Y-28709501D01*
X115002516Y-28715908D01*
X114867671Y-28766202D01*
X114867664Y-28766206D01*
X114752455Y-28852452D01*
X114752452Y-28852455D01*
X114666206Y-28967664D01*
X114666203Y-28967669D01*
X114617189Y-29099083D01*
X114575317Y-29155016D01*
X114509853Y-29179433D01*
X114441580Y-29164581D01*
X114413326Y-29143430D01*
X114299786Y-29029890D01*
X114127820Y-28904951D01*
X113938414Y-28808444D01*
X113938413Y-28808443D01*
X113938412Y-28808443D01*
X113736243Y-28742754D01*
X113736241Y-28742753D01*
X113736240Y-28742753D01*
X113574957Y-28717208D01*
X113526287Y-28709500D01*
X113313713Y-28709500D01*
X113265042Y-28717208D01*
X113103760Y-28742753D01*
X112901585Y-28808444D01*
X112712179Y-28904951D01*
X112540213Y-29029890D01*
X112389890Y-29180213D01*
X112264949Y-29352182D01*
X112260484Y-29360946D01*
X112212509Y-29411742D01*
X112144688Y-29428536D01*
X112078553Y-29405998D01*
X112039516Y-29360946D01*
X112035050Y-29352182D01*
X111910109Y-29180213D01*
X111759786Y-29029890D01*
X111587820Y-28904951D01*
X111398414Y-28808444D01*
X111398413Y-28808443D01*
X111398412Y-28808443D01*
X111196243Y-28742754D01*
X111196241Y-28742753D01*
X111196240Y-28742753D01*
X111034957Y-28717208D01*
X110986287Y-28709500D01*
X110773713Y-28709500D01*
X110725042Y-28717208D01*
X110563760Y-28742753D01*
X110361585Y-28808444D01*
X110172179Y-28904951D01*
X110000213Y-29029890D01*
X109849890Y-29180213D01*
X109724949Y-29352182D01*
X109720484Y-29360946D01*
X109672509Y-29411742D01*
X109604688Y-29428536D01*
X109538553Y-29405998D01*
X109499516Y-29360946D01*
X109495050Y-29352182D01*
X109370109Y-29180213D01*
X109219786Y-29029890D01*
X109047820Y-28904951D01*
X108858414Y-28808444D01*
X108858413Y-28808443D01*
X108858412Y-28808443D01*
X108656243Y-28742754D01*
X108656241Y-28742753D01*
X108656240Y-28742753D01*
X108494957Y-28717208D01*
X108446287Y-28709500D01*
X108233713Y-28709500D01*
X108185042Y-28717208D01*
X108023760Y-28742753D01*
X107821585Y-28808444D01*
X107632179Y-28904951D01*
X107460213Y-29029890D01*
X107309890Y-29180213D01*
X107184951Y-29352179D01*
X107088444Y-29541585D01*
X107022753Y-29743760D01*
X106989500Y-29953713D01*
X102269158Y-29953713D01*
X102245925Y-29867007D01*
X102213012Y-29810000D01*
X103130000Y-29810000D01*
X103130000Y-29162172D01*
X103129999Y-29162155D01*
X103123598Y-29102627D01*
X103123596Y-29102620D01*
X103073354Y-28967913D01*
X103073350Y-28967906D01*
X102987190Y-28852812D01*
X102987187Y-28852809D01*
X102872093Y-28766649D01*
X102872086Y-28766645D01*
X102737379Y-28716403D01*
X102737372Y-28716401D01*
X102677844Y-28710000D01*
X102030000Y-28710000D01*
X102030000Y-29626988D01*
X101972993Y-29594075D01*
X101845826Y-29560000D01*
X101714174Y-29560000D01*
X101587007Y-29594075D01*
X101530000Y-29626988D01*
X101530000Y-28710000D01*
X100882155Y-28710000D01*
X100822627Y-28716401D01*
X100822620Y-28716403D01*
X100687913Y-28766645D01*
X100687906Y-28766649D01*
X100572812Y-28852809D01*
X100572809Y-28852812D01*
X100486649Y-28967906D01*
X100486645Y-28967913D01*
X100436403Y-29102619D01*
X100436401Y-29102626D01*
X100427497Y-29185444D01*
X100424434Y-29185114D01*
X100425336Y-29202094D01*
X100392356Y-29261195D01*
X99722962Y-29930590D01*
X99705925Y-29867007D01*
X99640099Y-29752993D01*
X99547007Y-29659901D01*
X99432993Y-29594075D01*
X99369409Y-29577037D01*
X100001716Y-28944728D01*
X99947550Y-28905375D01*
X99758217Y-28808904D01*
X99556129Y-28743242D01*
X99346246Y-28710000D01*
X99133754Y-28710000D01*
X98923872Y-28743242D01*
X98923869Y-28743242D01*
X98721782Y-28808904D01*
X98532439Y-28905380D01*
X98478282Y-28944727D01*
X98478282Y-28944728D01*
X99110591Y-29577037D01*
X99047007Y-29594075D01*
X98932993Y-29659901D01*
X98839901Y-29752993D01*
X98774075Y-29867007D01*
X98757037Y-29930591D01*
X98124728Y-29298282D01*
X98124727Y-29298282D01*
X98085380Y-29352440D01*
X98080483Y-29362051D01*
X98032506Y-29412845D01*
X97964684Y-29429638D01*
X97898550Y-29407098D01*
X97859516Y-29362048D01*
X97854626Y-29352452D01*
X97815270Y-29298282D01*
X97815269Y-29298282D01*
X97182962Y-29930590D01*
X97165925Y-29867007D01*
X97100099Y-29752993D01*
X97007007Y-29659901D01*
X96892993Y-29594075D01*
X96829409Y-29577037D01*
X97461716Y-28944728D01*
X97407550Y-28905375D01*
X97218217Y-28808904D01*
X97016129Y-28743242D01*
X96806246Y-28710000D01*
X96593754Y-28710000D01*
X96383872Y-28743242D01*
X96383869Y-28743242D01*
X96181782Y-28808904D01*
X95992439Y-28905380D01*
X95938282Y-28944727D01*
X95938282Y-28944728D01*
X96570591Y-29577037D01*
X96507007Y-29594075D01*
X96392993Y-29659901D01*
X96299901Y-29752993D01*
X96234075Y-29867007D01*
X96217037Y-29930591D01*
X95584728Y-29298282D01*
X95584727Y-29298282D01*
X95545380Y-29352440D01*
X95540483Y-29362051D01*
X95492506Y-29412845D01*
X95424684Y-29429638D01*
X95358550Y-29407098D01*
X95319516Y-29362048D01*
X95314626Y-29352452D01*
X95275270Y-29298282D01*
X95275269Y-29298282D01*
X94642962Y-29930590D01*
X94625925Y-29867007D01*
X94560099Y-29752993D01*
X94467007Y-29659901D01*
X94352993Y-29594075D01*
X94289409Y-29577037D01*
X94921716Y-28944728D01*
X94867550Y-28905375D01*
X94678217Y-28808904D01*
X94476129Y-28743242D01*
X94266246Y-28710000D01*
X94053754Y-28710000D01*
X93843872Y-28743242D01*
X93843869Y-28743242D01*
X93641782Y-28808904D01*
X93452439Y-28905380D01*
X93398282Y-28944727D01*
X93398282Y-28944728D01*
X94030591Y-29577037D01*
X93967007Y-29594075D01*
X93852993Y-29659901D01*
X93759901Y-29752993D01*
X93694075Y-29867007D01*
X93677037Y-29930591D01*
X93044728Y-29298282D01*
X93044727Y-29298282D01*
X93005380Y-29352439D01*
X92908904Y-29541782D01*
X92843242Y-29743869D01*
X92843242Y-29743872D01*
X92810000Y-29953753D01*
X88950499Y-29953753D01*
X88950499Y-29162128D01*
X88944091Y-29102517D01*
X88907617Y-29004726D01*
X88893798Y-28967673D01*
X88893793Y-28967664D01*
X88807547Y-28852455D01*
X88807544Y-28852452D01*
X88692335Y-28766206D01*
X88692328Y-28766202D01*
X88557482Y-28715908D01*
X88557483Y-28715908D01*
X88497883Y-28709501D01*
X88497881Y-28709500D01*
X88497873Y-28709500D01*
X88497864Y-28709500D01*
X86702129Y-28709500D01*
X86702123Y-28709501D01*
X86642516Y-28715908D01*
X86507671Y-28766202D01*
X86507664Y-28766206D01*
X86392455Y-28852452D01*
X86392452Y-28852455D01*
X86306206Y-28967664D01*
X86306203Y-28967669D01*
X86257189Y-29099083D01*
X86215317Y-29155016D01*
X86149853Y-29179433D01*
X86081580Y-29164581D01*
X86053326Y-29143430D01*
X85939786Y-29029890D01*
X85767820Y-28904951D01*
X85578414Y-28808444D01*
X85578413Y-28808443D01*
X85578412Y-28808443D01*
X85376243Y-28742754D01*
X85376241Y-28742753D01*
X85376240Y-28742753D01*
X85214957Y-28717208D01*
X85166287Y-28709500D01*
X84953713Y-28709500D01*
X84905042Y-28717208D01*
X84743760Y-28742753D01*
X84541585Y-28808444D01*
X84352179Y-28904951D01*
X84180213Y-29029890D01*
X84029890Y-29180213D01*
X83904949Y-29352182D01*
X83900484Y-29360946D01*
X83852509Y-29411742D01*
X83784688Y-29428536D01*
X83718553Y-29405998D01*
X83679516Y-29360946D01*
X83675050Y-29352182D01*
X83550109Y-29180213D01*
X83399786Y-29029890D01*
X83227820Y-28904951D01*
X83038414Y-28808444D01*
X83038413Y-28808443D01*
X83038412Y-28808443D01*
X82836243Y-28742754D01*
X82836241Y-28742753D01*
X82836240Y-28742753D01*
X82674957Y-28717208D01*
X82626287Y-28709500D01*
X82413713Y-28709500D01*
X82365042Y-28717208D01*
X82203760Y-28742753D01*
X82001585Y-28808444D01*
X81812179Y-28904951D01*
X81640213Y-29029890D01*
X81489890Y-29180213D01*
X81364949Y-29352182D01*
X81360484Y-29360946D01*
X81312509Y-29411742D01*
X81244688Y-29428536D01*
X81178553Y-29405998D01*
X81139516Y-29360946D01*
X81135050Y-29352182D01*
X81010109Y-29180213D01*
X80859786Y-29029890D01*
X80687820Y-28904951D01*
X80498414Y-28808444D01*
X80498413Y-28808443D01*
X80498412Y-28808443D01*
X80296243Y-28742754D01*
X80296241Y-28742753D01*
X80296240Y-28742753D01*
X80134957Y-28717208D01*
X80086287Y-28709500D01*
X79873713Y-28709500D01*
X79825042Y-28717208D01*
X79663760Y-28742753D01*
X79461585Y-28808444D01*
X79272179Y-28904951D01*
X79100213Y-29029890D01*
X78949890Y-29180213D01*
X78824949Y-29352182D01*
X78820484Y-29360946D01*
X78772509Y-29411742D01*
X78704688Y-29428536D01*
X78638553Y-29405998D01*
X78599516Y-29360946D01*
X78595050Y-29352182D01*
X78470109Y-29180213D01*
X78319786Y-29029890D01*
X78147820Y-28904951D01*
X77958414Y-28808444D01*
X77958413Y-28808443D01*
X77958412Y-28808443D01*
X77756243Y-28742754D01*
X77756241Y-28742753D01*
X77756240Y-28742753D01*
X77594957Y-28717208D01*
X77546287Y-28709500D01*
X77333713Y-28709500D01*
X77285042Y-28717208D01*
X77123760Y-28742753D01*
X76921585Y-28808444D01*
X76732179Y-28904951D01*
X76560213Y-29029890D01*
X76409890Y-29180213D01*
X76284951Y-29352179D01*
X76188444Y-29541585D01*
X76122753Y-29743760D01*
X76089500Y-29953713D01*
X25500500Y-29953713D01*
X25500500Y-25624500D01*
X25520185Y-25557461D01*
X25572989Y-25511706D01*
X25624500Y-25500500D01*
X187375500Y-25500500D01*
X187442539Y-25520185D01*
G37*
%TD.AperFunction*%
%TD*%
M02*
