%TF.GenerationSoftware,KiCad,Pcbnew,10.0.3*%
%TF.CreationDate,2026-06-14T16:41:43-04:00*%
%TF.ProjectId,ArdNanoESP32_DevBoard,4172644e-616e-46f4-9553-5033325f4465,rev?*%
%TF.SameCoordinates,Original*%
%TF.FileFunction,Legend,Top*%
%TF.FilePolarity,Positive*%
%FSLAX46Y46*%
G04 Gerber Fmt 4.6, Leading zero omitted, Abs format (unit mm)*
G04 Created by KiCad (PCBNEW 10.0.3) date 2026-06-14 16:41:43*
%MOMM*%
%LPD*%
G01*
G04 APERTURE LIST*
%ADD10C,0.093750*%
%ADD11C,0.050000*%
%ADD12C,0.150000*%
%ADD13C,0.087500*%
%ADD14C,0.100000*%
%ADD15C,0.120000*%
G04 APERTURE END LIST*
D10*
X81966428Y-95405220D02*
X81966428Y-94605220D01*
X82394999Y-95405220D02*
X82073571Y-94948077D01*
X82394999Y-94605220D02*
X81966428Y-95062363D01*
X82644999Y-94605220D02*
X83109285Y-94605220D01*
X83109285Y-94605220D02*
X82859285Y-94909982D01*
X82859285Y-94909982D02*
X82966428Y-94909982D01*
X82966428Y-94909982D02*
X83037857Y-94948077D01*
X83037857Y-94948077D02*
X83073571Y-94986172D01*
X83073571Y-94986172D02*
X83109285Y-95062363D01*
X83109285Y-95062363D02*
X83109285Y-95252839D01*
X83109285Y-95252839D02*
X83073571Y-95329029D01*
X83073571Y-95329029D02*
X83037857Y-95367125D01*
X83037857Y-95367125D02*
X82966428Y-95405220D01*
X82966428Y-95405220D02*
X82752142Y-95405220D01*
X82752142Y-95405220D02*
X82680714Y-95367125D01*
X82680714Y-95367125D02*
X82644999Y-95329029D01*
X100780000Y-93257125D02*
X100887143Y-93295220D01*
X100887143Y-93295220D02*
X101065714Y-93295220D01*
X101065714Y-93295220D02*
X101137143Y-93257125D01*
X101137143Y-93257125D02*
X101172857Y-93219029D01*
X101172857Y-93219029D02*
X101208571Y-93142839D01*
X101208571Y-93142839D02*
X101208571Y-93066648D01*
X101208571Y-93066648D02*
X101172857Y-92990458D01*
X101172857Y-92990458D02*
X101137143Y-92952363D01*
X101137143Y-92952363D02*
X101065714Y-92914267D01*
X101065714Y-92914267D02*
X100922857Y-92876172D01*
X100922857Y-92876172D02*
X100851428Y-92838077D01*
X100851428Y-92838077D02*
X100815714Y-92799982D01*
X100815714Y-92799982D02*
X100780000Y-92723791D01*
X100780000Y-92723791D02*
X100780000Y-92647601D01*
X100780000Y-92647601D02*
X100815714Y-92571410D01*
X100815714Y-92571410D02*
X100851428Y-92533315D01*
X100851428Y-92533315D02*
X100922857Y-92495220D01*
X100922857Y-92495220D02*
X101101428Y-92495220D01*
X101101428Y-92495220D02*
X101208571Y-92533315D01*
X101458571Y-92495220D02*
X101637143Y-93295220D01*
X101637143Y-93295220D02*
X101780000Y-92723791D01*
X101780000Y-92723791D02*
X101922857Y-93295220D01*
X101922857Y-93295220D02*
X102101429Y-92495220D01*
X102780000Y-93295220D02*
X102351429Y-93295220D01*
X102565714Y-93295220D02*
X102565714Y-92495220D01*
X102565714Y-92495220D02*
X102494286Y-92609505D01*
X102494286Y-92609505D02*
X102422857Y-92685696D01*
X102422857Y-92685696D02*
X102351429Y-92723791D01*
X98240000Y-93257125D02*
X98347143Y-93295220D01*
X98347143Y-93295220D02*
X98525714Y-93295220D01*
X98525714Y-93295220D02*
X98597143Y-93257125D01*
X98597143Y-93257125D02*
X98632857Y-93219029D01*
X98632857Y-93219029D02*
X98668571Y-93142839D01*
X98668571Y-93142839D02*
X98668571Y-93066648D01*
X98668571Y-93066648D02*
X98632857Y-92990458D01*
X98632857Y-92990458D02*
X98597143Y-92952363D01*
X98597143Y-92952363D02*
X98525714Y-92914267D01*
X98525714Y-92914267D02*
X98382857Y-92876172D01*
X98382857Y-92876172D02*
X98311428Y-92838077D01*
X98311428Y-92838077D02*
X98275714Y-92799982D01*
X98275714Y-92799982D02*
X98240000Y-92723791D01*
X98240000Y-92723791D02*
X98240000Y-92647601D01*
X98240000Y-92647601D02*
X98275714Y-92571410D01*
X98275714Y-92571410D02*
X98311428Y-92533315D01*
X98311428Y-92533315D02*
X98382857Y-92495220D01*
X98382857Y-92495220D02*
X98561428Y-92495220D01*
X98561428Y-92495220D02*
X98668571Y-92533315D01*
X98918571Y-92495220D02*
X99097143Y-93295220D01*
X99097143Y-93295220D02*
X99240000Y-92723791D01*
X99240000Y-92723791D02*
X99382857Y-93295220D01*
X99382857Y-93295220D02*
X99561429Y-92495220D01*
X99811429Y-92571410D02*
X99847143Y-92533315D01*
X99847143Y-92533315D02*
X99918572Y-92495220D01*
X99918572Y-92495220D02*
X100097143Y-92495220D01*
X100097143Y-92495220D02*
X100168572Y-92533315D01*
X100168572Y-92533315D02*
X100204286Y-92571410D01*
X100204286Y-92571410D02*
X100240000Y-92647601D01*
X100240000Y-92647601D02*
X100240000Y-92723791D01*
X100240000Y-92723791D02*
X100204286Y-92838077D01*
X100204286Y-92838077D02*
X99775714Y-93295220D01*
X99775714Y-93295220D02*
X100240000Y-93295220D01*
X95700000Y-93257125D02*
X95807143Y-93295220D01*
X95807143Y-93295220D02*
X95985714Y-93295220D01*
X95985714Y-93295220D02*
X96057143Y-93257125D01*
X96057143Y-93257125D02*
X96092857Y-93219029D01*
X96092857Y-93219029D02*
X96128571Y-93142839D01*
X96128571Y-93142839D02*
X96128571Y-93066648D01*
X96128571Y-93066648D02*
X96092857Y-92990458D01*
X96092857Y-92990458D02*
X96057143Y-92952363D01*
X96057143Y-92952363D02*
X95985714Y-92914267D01*
X95985714Y-92914267D02*
X95842857Y-92876172D01*
X95842857Y-92876172D02*
X95771428Y-92838077D01*
X95771428Y-92838077D02*
X95735714Y-92799982D01*
X95735714Y-92799982D02*
X95700000Y-92723791D01*
X95700000Y-92723791D02*
X95700000Y-92647601D01*
X95700000Y-92647601D02*
X95735714Y-92571410D01*
X95735714Y-92571410D02*
X95771428Y-92533315D01*
X95771428Y-92533315D02*
X95842857Y-92495220D01*
X95842857Y-92495220D02*
X96021428Y-92495220D01*
X96021428Y-92495220D02*
X96128571Y-92533315D01*
X96378571Y-92495220D02*
X96557143Y-93295220D01*
X96557143Y-93295220D02*
X96700000Y-92723791D01*
X96700000Y-92723791D02*
X96842857Y-93295220D01*
X96842857Y-93295220D02*
X97021429Y-92495220D01*
X97235714Y-92495220D02*
X97700000Y-92495220D01*
X97700000Y-92495220D02*
X97450000Y-92799982D01*
X97450000Y-92799982D02*
X97557143Y-92799982D01*
X97557143Y-92799982D02*
X97628572Y-92838077D01*
X97628572Y-92838077D02*
X97664286Y-92876172D01*
X97664286Y-92876172D02*
X97700000Y-92952363D01*
X97700000Y-92952363D02*
X97700000Y-93142839D01*
X97700000Y-93142839D02*
X97664286Y-93219029D01*
X97664286Y-93219029D02*
X97628572Y-93257125D01*
X97628572Y-93257125D02*
X97557143Y-93295220D01*
X97557143Y-93295220D02*
X97342857Y-93295220D01*
X97342857Y-93295220D02*
X97271429Y-93257125D01*
X97271429Y-93257125D02*
X97235714Y-93219029D01*
X93160000Y-93257125D02*
X93267143Y-93295220D01*
X93267143Y-93295220D02*
X93445714Y-93295220D01*
X93445714Y-93295220D02*
X93517143Y-93257125D01*
X93517143Y-93257125D02*
X93552857Y-93219029D01*
X93552857Y-93219029D02*
X93588571Y-93142839D01*
X93588571Y-93142839D02*
X93588571Y-93066648D01*
X93588571Y-93066648D02*
X93552857Y-92990458D01*
X93552857Y-92990458D02*
X93517143Y-92952363D01*
X93517143Y-92952363D02*
X93445714Y-92914267D01*
X93445714Y-92914267D02*
X93302857Y-92876172D01*
X93302857Y-92876172D02*
X93231428Y-92838077D01*
X93231428Y-92838077D02*
X93195714Y-92799982D01*
X93195714Y-92799982D02*
X93160000Y-92723791D01*
X93160000Y-92723791D02*
X93160000Y-92647601D01*
X93160000Y-92647601D02*
X93195714Y-92571410D01*
X93195714Y-92571410D02*
X93231428Y-92533315D01*
X93231428Y-92533315D02*
X93302857Y-92495220D01*
X93302857Y-92495220D02*
X93481428Y-92495220D01*
X93481428Y-92495220D02*
X93588571Y-92533315D01*
X93838571Y-92495220D02*
X94017143Y-93295220D01*
X94017143Y-93295220D02*
X94160000Y-92723791D01*
X94160000Y-92723791D02*
X94302857Y-93295220D01*
X94302857Y-93295220D02*
X94481429Y-92495220D01*
X95088572Y-92761886D02*
X95088572Y-93295220D01*
X94910000Y-92457125D02*
X94731429Y-93028553D01*
X94731429Y-93028553D02*
X95195714Y-93028553D01*
D11*
X101780000Y-93420000D02*
X101780000Y-93430000D01*
X101780000Y-93630000D02*
X101780000Y-93640000D01*
X101780000Y-93840000D02*
X101780000Y-93850000D01*
X101780000Y-94050000D02*
X101780000Y-94060000D01*
X99240000Y-93420000D02*
X99240000Y-93430000D01*
X99240000Y-93630000D02*
X99240000Y-93640000D01*
X99240000Y-93840000D02*
X99240000Y-93850000D01*
X99240000Y-94050000D02*
X99240000Y-94060000D01*
X96700000Y-93420000D02*
X96700000Y-93430000D01*
X96700000Y-93630000D02*
X96700000Y-93640000D01*
X96700000Y-93840000D02*
X96700000Y-93850000D01*
X96700000Y-94050000D02*
X96700000Y-94060000D01*
X94160000Y-93420000D02*
X94160000Y-93430000D01*
X94160000Y-93630000D02*
X94160000Y-93640000D01*
X94160000Y-93840000D02*
X94160000Y-93850000D01*
X94160000Y-94050000D02*
X94160000Y-94060000D01*
D10*
X90745000Y-93295220D02*
X90745000Y-92495220D01*
X90745000Y-92495220D02*
X91030714Y-92495220D01*
X91030714Y-92495220D02*
X91102143Y-92533315D01*
X91102143Y-92533315D02*
X91137857Y-92571410D01*
X91137857Y-92571410D02*
X91173571Y-92647601D01*
X91173571Y-92647601D02*
X91173571Y-92761886D01*
X91173571Y-92761886D02*
X91137857Y-92838077D01*
X91137857Y-92838077D02*
X91102143Y-92876172D01*
X91102143Y-92876172D02*
X91030714Y-92914267D01*
X91030714Y-92914267D02*
X90745000Y-92914267D01*
X91637857Y-92495220D02*
X91780714Y-92495220D01*
X91780714Y-92495220D02*
X91852143Y-92533315D01*
X91852143Y-92533315D02*
X91923571Y-92609505D01*
X91923571Y-92609505D02*
X91959286Y-92761886D01*
X91959286Y-92761886D02*
X91959286Y-93028553D01*
X91959286Y-93028553D02*
X91923571Y-93180934D01*
X91923571Y-93180934D02*
X91852143Y-93257125D01*
X91852143Y-93257125D02*
X91780714Y-93295220D01*
X91780714Y-93295220D02*
X91637857Y-93295220D01*
X91637857Y-93295220D02*
X91566429Y-93257125D01*
X91566429Y-93257125D02*
X91495000Y-93180934D01*
X91495000Y-93180934D02*
X91459286Y-93028553D01*
X91459286Y-93028553D02*
X91459286Y-92761886D01*
X91459286Y-92761886D02*
X91495000Y-92609505D01*
X91495000Y-92609505D02*
X91566429Y-92533315D01*
X91566429Y-92533315D02*
X91637857Y-92495220D01*
X92173571Y-92495220D02*
X92602143Y-92495220D01*
X92387857Y-93295220D02*
X92387857Y-92495220D01*
X87046428Y-95405220D02*
X87046428Y-94605220D01*
X87474999Y-95405220D02*
X87153571Y-94948077D01*
X87474999Y-94605220D02*
X87046428Y-95062363D01*
X88189285Y-95405220D02*
X87760714Y-95405220D01*
X87974999Y-95405220D02*
X87974999Y-94605220D01*
X87974999Y-94605220D02*
X87903571Y-94719505D01*
X87903571Y-94719505D02*
X87832142Y-94795696D01*
X87832142Y-94795696D02*
X87760714Y-94833791D01*
X84506428Y-95405220D02*
X84506428Y-94605220D01*
X84934999Y-95405220D02*
X84613571Y-94948077D01*
X84934999Y-94605220D02*
X84506428Y-95062363D01*
X85220714Y-94681410D02*
X85256428Y-94643315D01*
X85256428Y-94643315D02*
X85327857Y-94605220D01*
X85327857Y-94605220D02*
X85506428Y-94605220D01*
X85506428Y-94605220D02*
X85577857Y-94643315D01*
X85577857Y-94643315D02*
X85613571Y-94681410D01*
X85613571Y-94681410D02*
X85649285Y-94757601D01*
X85649285Y-94757601D02*
X85649285Y-94833791D01*
X85649285Y-94833791D02*
X85613571Y-94948077D01*
X85613571Y-94948077D02*
X85184999Y-95405220D01*
X85184999Y-95405220D02*
X85649285Y-95405220D01*
X79426428Y-95405220D02*
X79426428Y-94605220D01*
X79854999Y-95405220D02*
X79533571Y-94948077D01*
X79854999Y-94605220D02*
X79426428Y-95062363D01*
X80497857Y-94871886D02*
X80497857Y-95405220D01*
X80319285Y-94567125D02*
X80140714Y-95138553D01*
X80140714Y-95138553D02*
X80604999Y-95138553D01*
X76386428Y-94986172D02*
X76493571Y-95024267D01*
X76493571Y-95024267D02*
X76529285Y-95062363D01*
X76529285Y-95062363D02*
X76564999Y-95138553D01*
X76564999Y-95138553D02*
X76564999Y-95252839D01*
X76564999Y-95252839D02*
X76529285Y-95329029D01*
X76529285Y-95329029D02*
X76493571Y-95367125D01*
X76493571Y-95367125D02*
X76422142Y-95405220D01*
X76422142Y-95405220D02*
X76136428Y-95405220D01*
X76136428Y-95405220D02*
X76136428Y-94605220D01*
X76136428Y-94605220D02*
X76386428Y-94605220D01*
X76386428Y-94605220D02*
X76457857Y-94643315D01*
X76457857Y-94643315D02*
X76493571Y-94681410D01*
X76493571Y-94681410D02*
X76529285Y-94757601D01*
X76529285Y-94757601D02*
X76529285Y-94833791D01*
X76529285Y-94833791D02*
X76493571Y-94909982D01*
X76493571Y-94909982D02*
X76457857Y-94948077D01*
X76457857Y-94948077D02*
X76386428Y-94986172D01*
X76386428Y-94986172D02*
X76136428Y-94986172D01*
X76886428Y-94605220D02*
X76886428Y-95252839D01*
X76886428Y-95252839D02*
X76922142Y-95329029D01*
X76922142Y-95329029D02*
X76957857Y-95367125D01*
X76957857Y-95367125D02*
X77029285Y-95405220D01*
X77029285Y-95405220D02*
X77172142Y-95405220D01*
X77172142Y-95405220D02*
X77243571Y-95367125D01*
X77243571Y-95367125D02*
X77279285Y-95329029D01*
X77279285Y-95329029D02*
X77314999Y-95252839D01*
X77314999Y-95252839D02*
X77314999Y-94605220D01*
X77600713Y-94605220D02*
X78100713Y-94605220D01*
X78100713Y-94605220D02*
X77600713Y-95405220D01*
X77600713Y-95405220D02*
X78100713Y-95405220D01*
X78314999Y-94605220D02*
X78814999Y-94605220D01*
X78814999Y-94605220D02*
X78314999Y-95405220D01*
X78314999Y-95405220D02*
X78814999Y-95405220D01*
D12*
X173110714Y-81144295D02*
X173110714Y-80344295D01*
X173110714Y-80344295D02*
X173289285Y-80344295D01*
X173289285Y-80344295D02*
X173396428Y-80382390D01*
X173396428Y-80382390D02*
X173467857Y-80458580D01*
X173467857Y-80458580D02*
X173503571Y-80534771D01*
X173503571Y-80534771D02*
X173539285Y-80687152D01*
X173539285Y-80687152D02*
X173539285Y-80801438D01*
X173539285Y-80801438D02*
X173503571Y-80953819D01*
X173503571Y-80953819D02*
X173467857Y-81030009D01*
X173467857Y-81030009D02*
X173396428Y-81106200D01*
X173396428Y-81106200D02*
X173289285Y-81144295D01*
X173289285Y-81144295D02*
X173110714Y-81144295D01*
X174253571Y-81144295D02*
X173825000Y-81144295D01*
X174039285Y-81144295D02*
X174039285Y-80344295D01*
X174039285Y-80344295D02*
X173967857Y-80458580D01*
X173967857Y-80458580D02*
X173896428Y-80534771D01*
X173896428Y-80534771D02*
X173825000Y-80572866D01*
X175110714Y-80306200D02*
X174467857Y-81334771D01*
X175253571Y-80344295D02*
X175682143Y-80344295D01*
X175467857Y-81144295D02*
X175467857Y-80344295D01*
X175860714Y-80344295D02*
X176360714Y-81144295D01*
X176360714Y-80344295D02*
X175860714Y-81144295D01*
X141325000Y-72709295D02*
X141575000Y-73509295D01*
X141575000Y-73509295D02*
X141825000Y-72709295D01*
X142075000Y-72709295D02*
X142075000Y-73356914D01*
X142075000Y-73356914D02*
X142110714Y-73433104D01*
X142110714Y-73433104D02*
X142146429Y-73471200D01*
X142146429Y-73471200D02*
X142217857Y-73509295D01*
X142217857Y-73509295D02*
X142360714Y-73509295D01*
X142360714Y-73509295D02*
X142432143Y-73471200D01*
X142432143Y-73471200D02*
X142467857Y-73433104D01*
X142467857Y-73433104D02*
X142503571Y-73356914D01*
X142503571Y-73356914D02*
X142503571Y-72709295D01*
X142825000Y-73471200D02*
X142932143Y-73509295D01*
X142932143Y-73509295D02*
X143110714Y-73509295D01*
X143110714Y-73509295D02*
X143182143Y-73471200D01*
X143182143Y-73471200D02*
X143217857Y-73433104D01*
X143217857Y-73433104D02*
X143253571Y-73356914D01*
X143253571Y-73356914D02*
X143253571Y-73280723D01*
X143253571Y-73280723D02*
X143217857Y-73204533D01*
X143217857Y-73204533D02*
X143182143Y-73166438D01*
X143182143Y-73166438D02*
X143110714Y-73128342D01*
X143110714Y-73128342D02*
X142967857Y-73090247D01*
X142967857Y-73090247D02*
X142896428Y-73052152D01*
X142896428Y-73052152D02*
X142860714Y-73014057D01*
X142860714Y-73014057D02*
X142825000Y-72937866D01*
X142825000Y-72937866D02*
X142825000Y-72861676D01*
X142825000Y-72861676D02*
X142860714Y-72785485D01*
X142860714Y-72785485D02*
X142896428Y-72747390D01*
X142896428Y-72747390D02*
X142967857Y-72709295D01*
X142967857Y-72709295D02*
X143146428Y-72709295D01*
X143146428Y-72709295D02*
X143253571Y-72747390D01*
X143825000Y-73090247D02*
X143932143Y-73128342D01*
X143932143Y-73128342D02*
X143967857Y-73166438D01*
X143967857Y-73166438D02*
X144003571Y-73242628D01*
X144003571Y-73242628D02*
X144003571Y-73356914D01*
X144003571Y-73356914D02*
X143967857Y-73433104D01*
X143967857Y-73433104D02*
X143932143Y-73471200D01*
X143932143Y-73471200D02*
X143860714Y-73509295D01*
X143860714Y-73509295D02*
X143575000Y-73509295D01*
X143575000Y-73509295D02*
X143575000Y-72709295D01*
X143575000Y-72709295D02*
X143825000Y-72709295D01*
X143825000Y-72709295D02*
X143896429Y-72747390D01*
X143896429Y-72747390D02*
X143932143Y-72785485D01*
X143932143Y-72785485D02*
X143967857Y-72861676D01*
X143967857Y-72861676D02*
X143967857Y-72937866D01*
X143967857Y-72937866D02*
X143932143Y-73014057D01*
X143932143Y-73014057D02*
X143896429Y-73052152D01*
X143896429Y-73052152D02*
X143825000Y-73090247D01*
X143825000Y-73090247D02*
X143575000Y-73090247D01*
X141878571Y-80544295D02*
X142128571Y-81344295D01*
X142128571Y-81344295D02*
X142378571Y-80544295D01*
X142628571Y-81344295D02*
X142628571Y-80544295D01*
X142985714Y-81344295D02*
X142985714Y-80544295D01*
X142985714Y-80544295D02*
X143414285Y-81344295D01*
X143414285Y-81344295D02*
X143414285Y-80544295D01*
X174217856Y-78799295D02*
X173967856Y-78418342D01*
X173789285Y-78799295D02*
X173789285Y-77999295D01*
X173789285Y-77999295D02*
X174074999Y-77999295D01*
X174074999Y-77999295D02*
X174146428Y-78037390D01*
X174146428Y-78037390D02*
X174182142Y-78075485D01*
X174182142Y-78075485D02*
X174217856Y-78151676D01*
X174217856Y-78151676D02*
X174217856Y-78265961D01*
X174217856Y-78265961D02*
X174182142Y-78342152D01*
X174182142Y-78342152D02*
X174146428Y-78380247D01*
X174146428Y-78380247D02*
X174074999Y-78418342D01*
X174074999Y-78418342D02*
X173789285Y-78418342D01*
X174467856Y-77999295D02*
X174967856Y-78799295D01*
X174967856Y-77999295D02*
X174467856Y-78799295D01*
X175396428Y-77999295D02*
X175467857Y-77999295D01*
X175467857Y-77999295D02*
X175539285Y-78037390D01*
X175539285Y-78037390D02*
X175575000Y-78075485D01*
X175575000Y-78075485D02*
X175610714Y-78151676D01*
X175610714Y-78151676D02*
X175646428Y-78304057D01*
X175646428Y-78304057D02*
X175646428Y-78494533D01*
X175646428Y-78494533D02*
X175610714Y-78646914D01*
X175610714Y-78646914D02*
X175575000Y-78723104D01*
X175575000Y-78723104D02*
X175539285Y-78761200D01*
X175539285Y-78761200D02*
X175467857Y-78799295D01*
X175467857Y-78799295D02*
X175396428Y-78799295D01*
X175396428Y-78799295D02*
X175325000Y-78761200D01*
X175325000Y-78761200D02*
X175289285Y-78723104D01*
X175289285Y-78723104D02*
X175253571Y-78646914D01*
X175253571Y-78646914D02*
X175217857Y-78494533D01*
X175217857Y-78494533D02*
X175217857Y-78304057D01*
X175217857Y-78304057D02*
X175253571Y-78151676D01*
X175253571Y-78151676D02*
X175289285Y-78075485D01*
X175289285Y-78075485D02*
X175325000Y-78037390D01*
X175325000Y-78037390D02*
X175396428Y-77999295D01*
X174289285Y-76254295D02*
X174039285Y-75873342D01*
X173860714Y-76254295D02*
X173860714Y-75454295D01*
X173860714Y-75454295D02*
X174146428Y-75454295D01*
X174146428Y-75454295D02*
X174217857Y-75492390D01*
X174217857Y-75492390D02*
X174253571Y-75530485D01*
X174253571Y-75530485D02*
X174289285Y-75606676D01*
X174289285Y-75606676D02*
X174289285Y-75720961D01*
X174289285Y-75720961D02*
X174253571Y-75797152D01*
X174253571Y-75797152D02*
X174217857Y-75835247D01*
X174217857Y-75835247D02*
X174146428Y-75873342D01*
X174146428Y-75873342D02*
X173860714Y-75873342D01*
X174575000Y-76216200D02*
X174682143Y-76254295D01*
X174682143Y-76254295D02*
X174860714Y-76254295D01*
X174860714Y-76254295D02*
X174932143Y-76216200D01*
X174932143Y-76216200D02*
X174967857Y-76178104D01*
X174967857Y-76178104D02*
X175003571Y-76101914D01*
X175003571Y-76101914D02*
X175003571Y-76025723D01*
X175003571Y-76025723D02*
X174967857Y-75949533D01*
X174967857Y-75949533D02*
X174932143Y-75911438D01*
X174932143Y-75911438D02*
X174860714Y-75873342D01*
X174860714Y-75873342D02*
X174717857Y-75835247D01*
X174717857Y-75835247D02*
X174646428Y-75797152D01*
X174646428Y-75797152D02*
X174610714Y-75759057D01*
X174610714Y-75759057D02*
X174575000Y-75682866D01*
X174575000Y-75682866D02*
X174575000Y-75606676D01*
X174575000Y-75606676D02*
X174610714Y-75530485D01*
X174610714Y-75530485D02*
X174646428Y-75492390D01*
X174646428Y-75492390D02*
X174717857Y-75454295D01*
X174717857Y-75454295D02*
X174896428Y-75454295D01*
X174896428Y-75454295D02*
X175003571Y-75492390D01*
X175217857Y-75454295D02*
X175646429Y-75454295D01*
X175432143Y-76254295D02*
X175432143Y-75454295D01*
X142396428Y-75835247D02*
X142503571Y-75873342D01*
X142503571Y-75873342D02*
X142539285Y-75911438D01*
X142539285Y-75911438D02*
X142574999Y-75987628D01*
X142574999Y-75987628D02*
X142574999Y-76101914D01*
X142574999Y-76101914D02*
X142539285Y-76178104D01*
X142539285Y-76178104D02*
X142503571Y-76216200D01*
X142503571Y-76216200D02*
X142432142Y-76254295D01*
X142432142Y-76254295D02*
X142146428Y-76254295D01*
X142146428Y-76254295D02*
X142146428Y-75454295D01*
X142146428Y-75454295D02*
X142396428Y-75454295D01*
X142396428Y-75454295D02*
X142467857Y-75492390D01*
X142467857Y-75492390D02*
X142503571Y-75530485D01*
X142503571Y-75530485D02*
X142539285Y-75606676D01*
X142539285Y-75606676D02*
X142539285Y-75682866D01*
X142539285Y-75682866D02*
X142503571Y-75759057D01*
X142503571Y-75759057D02*
X142467857Y-75797152D01*
X142467857Y-75797152D02*
X142396428Y-75835247D01*
X142396428Y-75835247D02*
X142146428Y-75835247D01*
X143289285Y-76254295D02*
X142860714Y-76254295D01*
X143074999Y-76254295D02*
X143074999Y-75454295D01*
X143074999Y-75454295D02*
X143003571Y-75568580D01*
X143003571Y-75568580D02*
X142932142Y-75644771D01*
X142932142Y-75644771D02*
X142860714Y-75682866D01*
X174146428Y-71164295D02*
X174146428Y-70364295D01*
X174146428Y-70364295D02*
X174324999Y-70364295D01*
X174324999Y-70364295D02*
X174432142Y-70402390D01*
X174432142Y-70402390D02*
X174503571Y-70478580D01*
X174503571Y-70478580D02*
X174539285Y-70554771D01*
X174539285Y-70554771D02*
X174574999Y-70707152D01*
X174574999Y-70707152D02*
X174574999Y-70821438D01*
X174574999Y-70821438D02*
X174539285Y-70973819D01*
X174539285Y-70973819D02*
X174503571Y-71050009D01*
X174503571Y-71050009D02*
X174432142Y-71126200D01*
X174432142Y-71126200D02*
X174324999Y-71164295D01*
X174324999Y-71164295D02*
X174146428Y-71164295D01*
X174860714Y-70440485D02*
X174896428Y-70402390D01*
X174896428Y-70402390D02*
X174967857Y-70364295D01*
X174967857Y-70364295D02*
X175146428Y-70364295D01*
X175146428Y-70364295D02*
X175217857Y-70402390D01*
X175217857Y-70402390D02*
X175253571Y-70440485D01*
X175253571Y-70440485D02*
X175289285Y-70516676D01*
X175289285Y-70516676D02*
X175289285Y-70592866D01*
X175289285Y-70592866D02*
X175253571Y-70707152D01*
X175253571Y-70707152D02*
X174824999Y-71164295D01*
X174824999Y-71164295D02*
X175289285Y-71164295D01*
X142164286Y-70935723D02*
X142521429Y-70935723D01*
X142092857Y-71164295D02*
X142342857Y-70364295D01*
X142342857Y-70364295D02*
X142592857Y-71164295D01*
X142771428Y-70364295D02*
X143271428Y-70364295D01*
X143271428Y-70364295D02*
X142950000Y-71164295D01*
X174146428Y-68619295D02*
X174146428Y-67819295D01*
X174146428Y-67819295D02*
X174324999Y-67819295D01*
X174324999Y-67819295D02*
X174432142Y-67857390D01*
X174432142Y-67857390D02*
X174503571Y-67933580D01*
X174503571Y-67933580D02*
X174539285Y-68009771D01*
X174539285Y-68009771D02*
X174574999Y-68162152D01*
X174574999Y-68162152D02*
X174574999Y-68276438D01*
X174574999Y-68276438D02*
X174539285Y-68428819D01*
X174539285Y-68428819D02*
X174503571Y-68505009D01*
X174503571Y-68505009D02*
X174432142Y-68581200D01*
X174432142Y-68581200D02*
X174324999Y-68619295D01*
X174324999Y-68619295D02*
X174146428Y-68619295D01*
X174824999Y-67819295D02*
X175289285Y-67819295D01*
X175289285Y-67819295D02*
X175039285Y-68124057D01*
X175039285Y-68124057D02*
X175146428Y-68124057D01*
X175146428Y-68124057D02*
X175217857Y-68162152D01*
X175217857Y-68162152D02*
X175253571Y-68200247D01*
X175253571Y-68200247D02*
X175289285Y-68276438D01*
X175289285Y-68276438D02*
X175289285Y-68466914D01*
X175289285Y-68466914D02*
X175253571Y-68543104D01*
X175253571Y-68543104D02*
X175217857Y-68581200D01*
X175217857Y-68581200D02*
X175146428Y-68619295D01*
X175146428Y-68619295D02*
X174932142Y-68619295D01*
X174932142Y-68619295D02*
X174860714Y-68581200D01*
X174860714Y-68581200D02*
X174824999Y-68543104D01*
X142164286Y-68390723D02*
X142521429Y-68390723D01*
X142092857Y-68619295D02*
X142342857Y-67819295D01*
X142342857Y-67819295D02*
X142592857Y-68619295D01*
X143164286Y-67819295D02*
X143021428Y-67819295D01*
X143021428Y-67819295D02*
X142950000Y-67857390D01*
X142950000Y-67857390D02*
X142914286Y-67895485D01*
X142914286Y-67895485D02*
X142842857Y-68009771D01*
X142842857Y-68009771D02*
X142807143Y-68162152D01*
X142807143Y-68162152D02*
X142807143Y-68466914D01*
X142807143Y-68466914D02*
X142842857Y-68543104D01*
X142842857Y-68543104D02*
X142878571Y-68581200D01*
X142878571Y-68581200D02*
X142950000Y-68619295D01*
X142950000Y-68619295D02*
X143092857Y-68619295D01*
X143092857Y-68619295D02*
X143164286Y-68581200D01*
X143164286Y-68581200D02*
X143200000Y-68543104D01*
X143200000Y-68543104D02*
X143235714Y-68466914D01*
X143235714Y-68466914D02*
X143235714Y-68276438D01*
X143235714Y-68276438D02*
X143200000Y-68200247D01*
X143200000Y-68200247D02*
X143164286Y-68162152D01*
X143164286Y-68162152D02*
X143092857Y-68124057D01*
X143092857Y-68124057D02*
X142950000Y-68124057D01*
X142950000Y-68124057D02*
X142878571Y-68162152D01*
X142878571Y-68162152D02*
X142842857Y-68200247D01*
X142842857Y-68200247D02*
X142807143Y-68276438D01*
X174146428Y-66074295D02*
X174146428Y-65274295D01*
X174146428Y-65274295D02*
X174324999Y-65274295D01*
X174324999Y-65274295D02*
X174432142Y-65312390D01*
X174432142Y-65312390D02*
X174503571Y-65388580D01*
X174503571Y-65388580D02*
X174539285Y-65464771D01*
X174539285Y-65464771D02*
X174574999Y-65617152D01*
X174574999Y-65617152D02*
X174574999Y-65731438D01*
X174574999Y-65731438D02*
X174539285Y-65883819D01*
X174539285Y-65883819D02*
X174503571Y-65960009D01*
X174503571Y-65960009D02*
X174432142Y-66036200D01*
X174432142Y-66036200D02*
X174324999Y-66074295D01*
X174324999Y-66074295D02*
X174146428Y-66074295D01*
X175217857Y-65540961D02*
X175217857Y-66074295D01*
X175039285Y-65236200D02*
X174860714Y-65807628D01*
X174860714Y-65807628D02*
X175324999Y-65807628D01*
X142164286Y-65845723D02*
X142521429Y-65845723D01*
X142092857Y-66074295D02*
X142342857Y-65274295D01*
X142342857Y-65274295D02*
X142592857Y-66074295D01*
X143200000Y-65274295D02*
X142842857Y-65274295D01*
X142842857Y-65274295D02*
X142807143Y-65655247D01*
X142807143Y-65655247D02*
X142842857Y-65617152D01*
X142842857Y-65617152D02*
X142914286Y-65579057D01*
X142914286Y-65579057D02*
X143092857Y-65579057D01*
X143092857Y-65579057D02*
X143164286Y-65617152D01*
X143164286Y-65617152D02*
X143200000Y-65655247D01*
X143200000Y-65655247D02*
X143235714Y-65731438D01*
X143235714Y-65731438D02*
X143235714Y-65921914D01*
X143235714Y-65921914D02*
X143200000Y-65998104D01*
X143200000Y-65998104D02*
X143164286Y-66036200D01*
X143164286Y-66036200D02*
X143092857Y-66074295D01*
X143092857Y-66074295D02*
X142914286Y-66074295D01*
X142914286Y-66074295D02*
X142842857Y-66036200D01*
X142842857Y-66036200D02*
X142807143Y-65998104D01*
X174146428Y-63529295D02*
X174146428Y-62729295D01*
X174146428Y-62729295D02*
X174324999Y-62729295D01*
X174324999Y-62729295D02*
X174432142Y-62767390D01*
X174432142Y-62767390D02*
X174503571Y-62843580D01*
X174503571Y-62843580D02*
X174539285Y-62919771D01*
X174539285Y-62919771D02*
X174574999Y-63072152D01*
X174574999Y-63072152D02*
X174574999Y-63186438D01*
X174574999Y-63186438D02*
X174539285Y-63338819D01*
X174539285Y-63338819D02*
X174503571Y-63415009D01*
X174503571Y-63415009D02*
X174432142Y-63491200D01*
X174432142Y-63491200D02*
X174324999Y-63529295D01*
X174324999Y-63529295D02*
X174146428Y-63529295D01*
X175253571Y-62729295D02*
X174896428Y-62729295D01*
X174896428Y-62729295D02*
X174860714Y-63110247D01*
X174860714Y-63110247D02*
X174896428Y-63072152D01*
X174896428Y-63072152D02*
X174967857Y-63034057D01*
X174967857Y-63034057D02*
X175146428Y-63034057D01*
X175146428Y-63034057D02*
X175217857Y-63072152D01*
X175217857Y-63072152D02*
X175253571Y-63110247D01*
X175253571Y-63110247D02*
X175289285Y-63186438D01*
X175289285Y-63186438D02*
X175289285Y-63376914D01*
X175289285Y-63376914D02*
X175253571Y-63453104D01*
X175253571Y-63453104D02*
X175217857Y-63491200D01*
X175217857Y-63491200D02*
X175146428Y-63529295D01*
X175146428Y-63529295D02*
X174967857Y-63529295D01*
X174967857Y-63529295D02*
X174896428Y-63491200D01*
X174896428Y-63491200D02*
X174860714Y-63453104D01*
X142164286Y-63300723D02*
X142521429Y-63300723D01*
X142092857Y-63529295D02*
X142342857Y-62729295D01*
X142342857Y-62729295D02*
X142592857Y-63529295D01*
X143164286Y-62995961D02*
X143164286Y-63529295D01*
X142985714Y-62691200D02*
X142807143Y-63262628D01*
X142807143Y-63262628D02*
X143271428Y-63262628D01*
X174146428Y-60984295D02*
X174146428Y-60184295D01*
X174146428Y-60184295D02*
X174324999Y-60184295D01*
X174324999Y-60184295D02*
X174432142Y-60222390D01*
X174432142Y-60222390D02*
X174503571Y-60298580D01*
X174503571Y-60298580D02*
X174539285Y-60374771D01*
X174539285Y-60374771D02*
X174574999Y-60527152D01*
X174574999Y-60527152D02*
X174574999Y-60641438D01*
X174574999Y-60641438D02*
X174539285Y-60793819D01*
X174539285Y-60793819D02*
X174503571Y-60870009D01*
X174503571Y-60870009D02*
X174432142Y-60946200D01*
X174432142Y-60946200D02*
X174324999Y-60984295D01*
X174324999Y-60984295D02*
X174146428Y-60984295D01*
X175217857Y-60184295D02*
X175074999Y-60184295D01*
X175074999Y-60184295D02*
X175003571Y-60222390D01*
X175003571Y-60222390D02*
X174967857Y-60260485D01*
X174967857Y-60260485D02*
X174896428Y-60374771D01*
X174896428Y-60374771D02*
X174860714Y-60527152D01*
X174860714Y-60527152D02*
X174860714Y-60831914D01*
X174860714Y-60831914D02*
X174896428Y-60908104D01*
X174896428Y-60908104D02*
X174932142Y-60946200D01*
X174932142Y-60946200D02*
X175003571Y-60984295D01*
X175003571Y-60984295D02*
X175146428Y-60984295D01*
X175146428Y-60984295D02*
X175217857Y-60946200D01*
X175217857Y-60946200D02*
X175253571Y-60908104D01*
X175253571Y-60908104D02*
X175289285Y-60831914D01*
X175289285Y-60831914D02*
X175289285Y-60641438D01*
X175289285Y-60641438D02*
X175253571Y-60565247D01*
X175253571Y-60565247D02*
X175217857Y-60527152D01*
X175217857Y-60527152D02*
X175146428Y-60489057D01*
X175146428Y-60489057D02*
X175003571Y-60489057D01*
X175003571Y-60489057D02*
X174932142Y-60527152D01*
X174932142Y-60527152D02*
X174896428Y-60565247D01*
X174896428Y-60565247D02*
X174860714Y-60641438D01*
X142164286Y-60755723D02*
X142521429Y-60755723D01*
X142092857Y-60984295D02*
X142342857Y-60184295D01*
X142342857Y-60184295D02*
X142592857Y-60984295D01*
X142771428Y-60184295D02*
X143235714Y-60184295D01*
X143235714Y-60184295D02*
X142985714Y-60489057D01*
X142985714Y-60489057D02*
X143092857Y-60489057D01*
X143092857Y-60489057D02*
X143164286Y-60527152D01*
X143164286Y-60527152D02*
X143200000Y-60565247D01*
X143200000Y-60565247D02*
X143235714Y-60641438D01*
X143235714Y-60641438D02*
X143235714Y-60831914D01*
X143235714Y-60831914D02*
X143200000Y-60908104D01*
X143200000Y-60908104D02*
X143164286Y-60946200D01*
X143164286Y-60946200D02*
X143092857Y-60984295D01*
X143092857Y-60984295D02*
X142878571Y-60984295D01*
X142878571Y-60984295D02*
X142807143Y-60946200D01*
X142807143Y-60946200D02*
X142771428Y-60908104D01*
X174146428Y-58439295D02*
X174146428Y-57639295D01*
X174146428Y-57639295D02*
X174324999Y-57639295D01*
X174324999Y-57639295D02*
X174432142Y-57677390D01*
X174432142Y-57677390D02*
X174503571Y-57753580D01*
X174503571Y-57753580D02*
X174539285Y-57829771D01*
X174539285Y-57829771D02*
X174574999Y-57982152D01*
X174574999Y-57982152D02*
X174574999Y-58096438D01*
X174574999Y-58096438D02*
X174539285Y-58248819D01*
X174539285Y-58248819D02*
X174503571Y-58325009D01*
X174503571Y-58325009D02*
X174432142Y-58401200D01*
X174432142Y-58401200D02*
X174324999Y-58439295D01*
X174324999Y-58439295D02*
X174146428Y-58439295D01*
X174824999Y-57639295D02*
X175324999Y-57639295D01*
X175324999Y-57639295D02*
X175003571Y-58439295D01*
X142164286Y-58210723D02*
X142521429Y-58210723D01*
X142092857Y-58439295D02*
X142342857Y-57639295D01*
X142342857Y-57639295D02*
X142592857Y-58439295D01*
X142807143Y-57715485D02*
X142842857Y-57677390D01*
X142842857Y-57677390D02*
X142914286Y-57639295D01*
X142914286Y-57639295D02*
X143092857Y-57639295D01*
X143092857Y-57639295D02*
X143164286Y-57677390D01*
X143164286Y-57677390D02*
X143200000Y-57715485D01*
X143200000Y-57715485D02*
X143235714Y-57791676D01*
X143235714Y-57791676D02*
X143235714Y-57867866D01*
X143235714Y-57867866D02*
X143200000Y-57982152D01*
X143200000Y-57982152D02*
X142771428Y-58439295D01*
X142771428Y-58439295D02*
X143235714Y-58439295D01*
X174146428Y-55894295D02*
X174146428Y-55094295D01*
X174146428Y-55094295D02*
X174324999Y-55094295D01*
X174324999Y-55094295D02*
X174432142Y-55132390D01*
X174432142Y-55132390D02*
X174503571Y-55208580D01*
X174503571Y-55208580D02*
X174539285Y-55284771D01*
X174539285Y-55284771D02*
X174574999Y-55437152D01*
X174574999Y-55437152D02*
X174574999Y-55551438D01*
X174574999Y-55551438D02*
X174539285Y-55703819D01*
X174539285Y-55703819D02*
X174503571Y-55780009D01*
X174503571Y-55780009D02*
X174432142Y-55856200D01*
X174432142Y-55856200D02*
X174324999Y-55894295D01*
X174324999Y-55894295D02*
X174146428Y-55894295D01*
X175003571Y-55437152D02*
X174932142Y-55399057D01*
X174932142Y-55399057D02*
X174896428Y-55360961D01*
X174896428Y-55360961D02*
X174860714Y-55284771D01*
X174860714Y-55284771D02*
X174860714Y-55246676D01*
X174860714Y-55246676D02*
X174896428Y-55170485D01*
X174896428Y-55170485D02*
X174932142Y-55132390D01*
X174932142Y-55132390D02*
X175003571Y-55094295D01*
X175003571Y-55094295D02*
X175146428Y-55094295D01*
X175146428Y-55094295D02*
X175217857Y-55132390D01*
X175217857Y-55132390D02*
X175253571Y-55170485D01*
X175253571Y-55170485D02*
X175289285Y-55246676D01*
X175289285Y-55246676D02*
X175289285Y-55284771D01*
X175289285Y-55284771D02*
X175253571Y-55360961D01*
X175253571Y-55360961D02*
X175217857Y-55399057D01*
X175217857Y-55399057D02*
X175146428Y-55437152D01*
X175146428Y-55437152D02*
X175003571Y-55437152D01*
X175003571Y-55437152D02*
X174932142Y-55475247D01*
X174932142Y-55475247D02*
X174896428Y-55513342D01*
X174896428Y-55513342D02*
X174860714Y-55589533D01*
X174860714Y-55589533D02*
X174860714Y-55741914D01*
X174860714Y-55741914D02*
X174896428Y-55818104D01*
X174896428Y-55818104D02*
X174932142Y-55856200D01*
X174932142Y-55856200D02*
X175003571Y-55894295D01*
X175003571Y-55894295D02*
X175146428Y-55894295D01*
X175146428Y-55894295D02*
X175217857Y-55856200D01*
X175217857Y-55856200D02*
X175253571Y-55818104D01*
X175253571Y-55818104D02*
X175289285Y-55741914D01*
X175289285Y-55741914D02*
X175289285Y-55589533D01*
X175289285Y-55589533D02*
X175253571Y-55513342D01*
X175253571Y-55513342D02*
X175217857Y-55475247D01*
X175217857Y-55475247D02*
X175146428Y-55437152D01*
X142164286Y-55665723D02*
X142521429Y-55665723D01*
X142092857Y-55894295D02*
X142342857Y-55094295D01*
X142342857Y-55094295D02*
X142592857Y-55894295D01*
X143235714Y-55894295D02*
X142807143Y-55894295D01*
X143021428Y-55894295D02*
X143021428Y-55094295D01*
X143021428Y-55094295D02*
X142950000Y-55208580D01*
X142950000Y-55208580D02*
X142878571Y-55284771D01*
X142878571Y-55284771D02*
X142807143Y-55322866D01*
X174146428Y-53349295D02*
X174146428Y-52549295D01*
X174146428Y-52549295D02*
X174324999Y-52549295D01*
X174324999Y-52549295D02*
X174432142Y-52587390D01*
X174432142Y-52587390D02*
X174503571Y-52663580D01*
X174503571Y-52663580D02*
X174539285Y-52739771D01*
X174539285Y-52739771D02*
X174574999Y-52892152D01*
X174574999Y-52892152D02*
X174574999Y-53006438D01*
X174574999Y-53006438D02*
X174539285Y-53158819D01*
X174539285Y-53158819D02*
X174503571Y-53235009D01*
X174503571Y-53235009D02*
X174432142Y-53311200D01*
X174432142Y-53311200D02*
X174324999Y-53349295D01*
X174324999Y-53349295D02*
X174146428Y-53349295D01*
X174932142Y-53349295D02*
X175074999Y-53349295D01*
X175074999Y-53349295D02*
X175146428Y-53311200D01*
X175146428Y-53311200D02*
X175182142Y-53273104D01*
X175182142Y-53273104D02*
X175253571Y-53158819D01*
X175253571Y-53158819D02*
X175289285Y-53006438D01*
X175289285Y-53006438D02*
X175289285Y-52701676D01*
X175289285Y-52701676D02*
X175253571Y-52625485D01*
X175253571Y-52625485D02*
X175217857Y-52587390D01*
X175217857Y-52587390D02*
X175146428Y-52549295D01*
X175146428Y-52549295D02*
X175003571Y-52549295D01*
X175003571Y-52549295D02*
X174932142Y-52587390D01*
X174932142Y-52587390D02*
X174896428Y-52625485D01*
X174896428Y-52625485D02*
X174860714Y-52701676D01*
X174860714Y-52701676D02*
X174860714Y-52892152D01*
X174860714Y-52892152D02*
X174896428Y-52968342D01*
X174896428Y-52968342D02*
X174932142Y-53006438D01*
X174932142Y-53006438D02*
X175003571Y-53044533D01*
X175003571Y-53044533D02*
X175146428Y-53044533D01*
X175146428Y-53044533D02*
X175217857Y-53006438D01*
X175217857Y-53006438D02*
X175253571Y-52968342D01*
X175253571Y-52968342D02*
X175289285Y-52892152D01*
X142164286Y-53120723D02*
X142521429Y-53120723D01*
X142092857Y-53349295D02*
X142342857Y-52549295D01*
X142342857Y-52549295D02*
X142592857Y-53349295D01*
X142985714Y-52549295D02*
X143057143Y-52549295D01*
X143057143Y-52549295D02*
X143128571Y-52587390D01*
X143128571Y-52587390D02*
X143164286Y-52625485D01*
X143164286Y-52625485D02*
X143200000Y-52701676D01*
X143200000Y-52701676D02*
X143235714Y-52854057D01*
X143235714Y-52854057D02*
X143235714Y-53044533D01*
X143235714Y-53044533D02*
X143200000Y-53196914D01*
X143200000Y-53196914D02*
X143164286Y-53273104D01*
X143164286Y-53273104D02*
X143128571Y-53311200D01*
X143128571Y-53311200D02*
X143057143Y-53349295D01*
X143057143Y-53349295D02*
X142985714Y-53349295D01*
X142985714Y-53349295D02*
X142914286Y-53311200D01*
X142914286Y-53311200D02*
X142878571Y-53273104D01*
X142878571Y-53273104D02*
X142842857Y-53196914D01*
X142842857Y-53196914D02*
X142807143Y-53044533D01*
X142807143Y-53044533D02*
X142807143Y-52854057D01*
X142807143Y-52854057D02*
X142842857Y-52701676D01*
X142842857Y-52701676D02*
X142878571Y-52625485D01*
X142878571Y-52625485D02*
X142914286Y-52587390D01*
X142914286Y-52587390D02*
X142985714Y-52549295D01*
X173789285Y-50804295D02*
X173789285Y-50004295D01*
X173789285Y-50004295D02*
X173967856Y-50004295D01*
X173967856Y-50004295D02*
X174074999Y-50042390D01*
X174074999Y-50042390D02*
X174146428Y-50118580D01*
X174146428Y-50118580D02*
X174182142Y-50194771D01*
X174182142Y-50194771D02*
X174217856Y-50347152D01*
X174217856Y-50347152D02*
X174217856Y-50461438D01*
X174217856Y-50461438D02*
X174182142Y-50613819D01*
X174182142Y-50613819D02*
X174146428Y-50690009D01*
X174146428Y-50690009D02*
X174074999Y-50766200D01*
X174074999Y-50766200D02*
X173967856Y-50804295D01*
X173967856Y-50804295D02*
X173789285Y-50804295D01*
X174932142Y-50804295D02*
X174503571Y-50804295D01*
X174717856Y-50804295D02*
X174717856Y-50004295D01*
X174717856Y-50004295D02*
X174646428Y-50118580D01*
X174646428Y-50118580D02*
X174574999Y-50194771D01*
X174574999Y-50194771D02*
X174503571Y-50232866D01*
X175396428Y-50004295D02*
X175467857Y-50004295D01*
X175467857Y-50004295D02*
X175539285Y-50042390D01*
X175539285Y-50042390D02*
X175575000Y-50080485D01*
X175575000Y-50080485D02*
X175610714Y-50156676D01*
X175610714Y-50156676D02*
X175646428Y-50309057D01*
X175646428Y-50309057D02*
X175646428Y-50499533D01*
X175646428Y-50499533D02*
X175610714Y-50651914D01*
X175610714Y-50651914D02*
X175575000Y-50728104D01*
X175575000Y-50728104D02*
X175539285Y-50766200D01*
X175539285Y-50766200D02*
X175467857Y-50804295D01*
X175467857Y-50804295D02*
X175396428Y-50804295D01*
X175396428Y-50804295D02*
X175325000Y-50766200D01*
X175325000Y-50766200D02*
X175289285Y-50728104D01*
X175289285Y-50728104D02*
X175253571Y-50651914D01*
X175253571Y-50651914D02*
X175217857Y-50499533D01*
X175217857Y-50499533D02*
X175217857Y-50309057D01*
X175217857Y-50309057D02*
X175253571Y-50156676D01*
X175253571Y-50156676D02*
X175289285Y-50080485D01*
X175289285Y-50080485D02*
X175325000Y-50042390D01*
X175325000Y-50042390D02*
X175396428Y-50004295D01*
X142396428Y-50385247D02*
X142503571Y-50423342D01*
X142503571Y-50423342D02*
X142539285Y-50461438D01*
X142539285Y-50461438D02*
X142574999Y-50537628D01*
X142574999Y-50537628D02*
X142574999Y-50651914D01*
X142574999Y-50651914D02*
X142539285Y-50728104D01*
X142539285Y-50728104D02*
X142503571Y-50766200D01*
X142503571Y-50766200D02*
X142432142Y-50804295D01*
X142432142Y-50804295D02*
X142146428Y-50804295D01*
X142146428Y-50804295D02*
X142146428Y-50004295D01*
X142146428Y-50004295D02*
X142396428Y-50004295D01*
X142396428Y-50004295D02*
X142467857Y-50042390D01*
X142467857Y-50042390D02*
X142503571Y-50080485D01*
X142503571Y-50080485D02*
X142539285Y-50156676D01*
X142539285Y-50156676D02*
X142539285Y-50232866D01*
X142539285Y-50232866D02*
X142503571Y-50309057D01*
X142503571Y-50309057D02*
X142467857Y-50347152D01*
X142467857Y-50347152D02*
X142396428Y-50385247D01*
X142396428Y-50385247D02*
X142146428Y-50385247D01*
X143039285Y-50004295D02*
X143110714Y-50004295D01*
X143110714Y-50004295D02*
X143182142Y-50042390D01*
X143182142Y-50042390D02*
X143217857Y-50080485D01*
X143217857Y-50080485D02*
X143253571Y-50156676D01*
X143253571Y-50156676D02*
X143289285Y-50309057D01*
X143289285Y-50309057D02*
X143289285Y-50499533D01*
X143289285Y-50499533D02*
X143253571Y-50651914D01*
X143253571Y-50651914D02*
X143217857Y-50728104D01*
X143217857Y-50728104D02*
X143182142Y-50766200D01*
X143182142Y-50766200D02*
X143110714Y-50804295D01*
X143110714Y-50804295D02*
X143039285Y-50804295D01*
X143039285Y-50804295D02*
X142967857Y-50766200D01*
X142967857Y-50766200D02*
X142932142Y-50728104D01*
X142932142Y-50728104D02*
X142896428Y-50651914D01*
X142896428Y-50651914D02*
X142860714Y-50499533D01*
X142860714Y-50499533D02*
X142860714Y-50309057D01*
X142860714Y-50309057D02*
X142896428Y-50156676D01*
X142896428Y-50156676D02*
X142932142Y-50080485D01*
X142932142Y-50080485D02*
X142967857Y-50042390D01*
X142967857Y-50042390D02*
X143039285Y-50004295D01*
X173789285Y-48259295D02*
X173789285Y-47459295D01*
X173789285Y-47459295D02*
X173967856Y-47459295D01*
X173967856Y-47459295D02*
X174074999Y-47497390D01*
X174074999Y-47497390D02*
X174146428Y-47573580D01*
X174146428Y-47573580D02*
X174182142Y-47649771D01*
X174182142Y-47649771D02*
X174217856Y-47802152D01*
X174217856Y-47802152D02*
X174217856Y-47916438D01*
X174217856Y-47916438D02*
X174182142Y-48068819D01*
X174182142Y-48068819D02*
X174146428Y-48145009D01*
X174146428Y-48145009D02*
X174074999Y-48221200D01*
X174074999Y-48221200D02*
X173967856Y-48259295D01*
X173967856Y-48259295D02*
X173789285Y-48259295D01*
X174932142Y-48259295D02*
X174503571Y-48259295D01*
X174717856Y-48259295D02*
X174717856Y-47459295D01*
X174717856Y-47459295D02*
X174646428Y-47573580D01*
X174646428Y-47573580D02*
X174574999Y-47649771D01*
X174574999Y-47649771D02*
X174503571Y-47687866D01*
X175646428Y-48259295D02*
X175217857Y-48259295D01*
X175432142Y-48259295D02*
X175432142Y-47459295D01*
X175432142Y-47459295D02*
X175360714Y-47573580D01*
X175360714Y-47573580D02*
X175289285Y-47649771D01*
X175289285Y-47649771D02*
X175217857Y-47687866D01*
X141771428Y-47259295D02*
X142235714Y-47259295D01*
X142235714Y-47259295D02*
X141985714Y-47564057D01*
X141985714Y-47564057D02*
X142092857Y-47564057D01*
X142092857Y-47564057D02*
X142164286Y-47602152D01*
X142164286Y-47602152D02*
X142200000Y-47640247D01*
X142200000Y-47640247D02*
X142235714Y-47716438D01*
X142235714Y-47716438D02*
X142235714Y-47906914D01*
X142235714Y-47906914D02*
X142200000Y-47983104D01*
X142200000Y-47983104D02*
X142164286Y-48021200D01*
X142164286Y-48021200D02*
X142092857Y-48059295D01*
X142092857Y-48059295D02*
X141878571Y-48059295D01*
X141878571Y-48059295D02*
X141807143Y-48021200D01*
X141807143Y-48021200D02*
X141771428Y-47983104D01*
X142450000Y-47259295D02*
X142700000Y-48059295D01*
X142700000Y-48059295D02*
X142950000Y-47259295D01*
X143128571Y-47259295D02*
X143592857Y-47259295D01*
X143592857Y-47259295D02*
X143342857Y-47564057D01*
X143342857Y-47564057D02*
X143450000Y-47564057D01*
X143450000Y-47564057D02*
X143521429Y-47602152D01*
X143521429Y-47602152D02*
X143557143Y-47640247D01*
X143557143Y-47640247D02*
X143592857Y-47716438D01*
X143592857Y-47716438D02*
X143592857Y-47906914D01*
X143592857Y-47906914D02*
X143557143Y-47983104D01*
X143557143Y-47983104D02*
X143521429Y-48021200D01*
X143521429Y-48021200D02*
X143450000Y-48059295D01*
X143450000Y-48059295D02*
X143235714Y-48059295D01*
X143235714Y-48059295D02*
X143164286Y-48021200D01*
X143164286Y-48021200D02*
X143128571Y-47983104D01*
X173789285Y-45714295D02*
X173789285Y-44914295D01*
X173789285Y-44914295D02*
X173967856Y-44914295D01*
X173967856Y-44914295D02*
X174074999Y-44952390D01*
X174074999Y-44952390D02*
X174146428Y-45028580D01*
X174146428Y-45028580D02*
X174182142Y-45104771D01*
X174182142Y-45104771D02*
X174217856Y-45257152D01*
X174217856Y-45257152D02*
X174217856Y-45371438D01*
X174217856Y-45371438D02*
X174182142Y-45523819D01*
X174182142Y-45523819D02*
X174146428Y-45600009D01*
X174146428Y-45600009D02*
X174074999Y-45676200D01*
X174074999Y-45676200D02*
X173967856Y-45714295D01*
X173967856Y-45714295D02*
X173789285Y-45714295D01*
X174932142Y-45714295D02*
X174503571Y-45714295D01*
X174717856Y-45714295D02*
X174717856Y-44914295D01*
X174717856Y-44914295D02*
X174646428Y-45028580D01*
X174646428Y-45028580D02*
X174574999Y-45104771D01*
X174574999Y-45104771D02*
X174503571Y-45142866D01*
X175217857Y-44990485D02*
X175253571Y-44952390D01*
X175253571Y-44952390D02*
X175325000Y-44914295D01*
X175325000Y-44914295D02*
X175503571Y-44914295D01*
X175503571Y-44914295D02*
X175575000Y-44952390D01*
X175575000Y-44952390D02*
X175610714Y-44990485D01*
X175610714Y-44990485D02*
X175646428Y-45066676D01*
X175646428Y-45066676D02*
X175646428Y-45142866D01*
X175646428Y-45142866D02*
X175610714Y-45257152D01*
X175610714Y-45257152D02*
X175182142Y-45714295D01*
X175182142Y-45714295D02*
X175646428Y-45714295D01*
X141789285Y-45714295D02*
X141789285Y-44914295D01*
X141789285Y-44914295D02*
X141967856Y-44914295D01*
X141967856Y-44914295D02*
X142074999Y-44952390D01*
X142074999Y-44952390D02*
X142146428Y-45028580D01*
X142146428Y-45028580D02*
X142182142Y-45104771D01*
X142182142Y-45104771D02*
X142217856Y-45257152D01*
X142217856Y-45257152D02*
X142217856Y-45371438D01*
X142217856Y-45371438D02*
X142182142Y-45523819D01*
X142182142Y-45523819D02*
X142146428Y-45600009D01*
X142146428Y-45600009D02*
X142074999Y-45676200D01*
X142074999Y-45676200D02*
X141967856Y-45714295D01*
X141967856Y-45714295D02*
X141789285Y-45714295D01*
X142932142Y-45714295D02*
X142503571Y-45714295D01*
X142717856Y-45714295D02*
X142717856Y-44914295D01*
X142717856Y-44914295D02*
X142646428Y-45028580D01*
X142646428Y-45028580D02*
X142574999Y-45104771D01*
X142574999Y-45104771D02*
X142503571Y-45142866D01*
X143182142Y-44914295D02*
X143646428Y-44914295D01*
X143646428Y-44914295D02*
X143396428Y-45219057D01*
X143396428Y-45219057D02*
X143503571Y-45219057D01*
X143503571Y-45219057D02*
X143575000Y-45257152D01*
X143575000Y-45257152D02*
X143610714Y-45295247D01*
X143610714Y-45295247D02*
X143646428Y-45371438D01*
X143646428Y-45371438D02*
X143646428Y-45561914D01*
X143646428Y-45561914D02*
X143610714Y-45638104D01*
X143610714Y-45638104D02*
X143575000Y-45676200D01*
X143575000Y-45676200D02*
X143503571Y-45714295D01*
X143503571Y-45714295D02*
X143289285Y-45714295D01*
X143289285Y-45714295D02*
X143217857Y-45676200D01*
X143217857Y-45676200D02*
X143182142Y-45638104D01*
D13*
X77102454Y-32524231D02*
X77483407Y-32290898D01*
X77102454Y-32124231D02*
X77902454Y-32124231D01*
X77902454Y-32124231D02*
X77902454Y-32390898D01*
X77902454Y-32390898D02*
X77864359Y-32457565D01*
X77864359Y-32457565D02*
X77826264Y-32490898D01*
X77826264Y-32490898D02*
X77750073Y-32524231D01*
X77750073Y-32524231D02*
X77635788Y-32524231D01*
X77635788Y-32524231D02*
X77559597Y-32490898D01*
X77559597Y-32490898D02*
X77521502Y-32457565D01*
X77521502Y-32457565D02*
X77483407Y-32390898D01*
X77483407Y-32390898D02*
X77483407Y-32124231D01*
X77864359Y-33190898D02*
X77902454Y-33124231D01*
X77902454Y-33124231D02*
X77902454Y-33024231D01*
X77902454Y-33024231D02*
X77864359Y-32924231D01*
X77864359Y-32924231D02*
X77788169Y-32857565D01*
X77788169Y-32857565D02*
X77711978Y-32824231D01*
X77711978Y-32824231D02*
X77559597Y-32790898D01*
X77559597Y-32790898D02*
X77445311Y-32790898D01*
X77445311Y-32790898D02*
X77292930Y-32824231D01*
X77292930Y-32824231D02*
X77216740Y-32857565D01*
X77216740Y-32857565D02*
X77140550Y-32924231D01*
X77140550Y-32924231D02*
X77102454Y-33024231D01*
X77102454Y-33024231D02*
X77102454Y-33090898D01*
X77102454Y-33090898D02*
X77140550Y-33190898D01*
X77140550Y-33190898D02*
X77178645Y-33224231D01*
X77178645Y-33224231D02*
X77445311Y-33224231D01*
X77445311Y-33224231D02*
X77445311Y-33090898D01*
X77521502Y-33757565D02*
X77483407Y-33857565D01*
X77483407Y-33857565D02*
X77445311Y-33890898D01*
X77445311Y-33890898D02*
X77369121Y-33924231D01*
X77369121Y-33924231D02*
X77254835Y-33924231D01*
X77254835Y-33924231D02*
X77178645Y-33890898D01*
X77178645Y-33890898D02*
X77140550Y-33857565D01*
X77140550Y-33857565D02*
X77102454Y-33790898D01*
X77102454Y-33790898D02*
X77102454Y-33524231D01*
X77102454Y-33524231D02*
X77902454Y-33524231D01*
X77902454Y-33524231D02*
X77902454Y-33757565D01*
X77902454Y-33757565D02*
X77864359Y-33824231D01*
X77864359Y-33824231D02*
X77826264Y-33857565D01*
X77826264Y-33857565D02*
X77750073Y-33890898D01*
X77750073Y-33890898D02*
X77673883Y-33890898D01*
X77673883Y-33890898D02*
X77597692Y-33857565D01*
X77597692Y-33857565D02*
X77559597Y-33824231D01*
X77559597Y-33824231D02*
X77521502Y-33757565D01*
X77521502Y-33757565D02*
X77521502Y-33524231D01*
X79602454Y-32457565D02*
X79602454Y-32124231D01*
X79602454Y-32124231D02*
X80402454Y-32124231D01*
X80021502Y-32690898D02*
X80021502Y-32924232D01*
X79602454Y-33024232D02*
X79602454Y-32690898D01*
X79602454Y-32690898D02*
X80402454Y-32690898D01*
X80402454Y-32690898D02*
X80402454Y-33024232D01*
X79602454Y-33324231D02*
X80402454Y-33324231D01*
X80402454Y-33324231D02*
X80402454Y-33490898D01*
X80402454Y-33490898D02*
X80364359Y-33590898D01*
X80364359Y-33590898D02*
X80288169Y-33657565D01*
X80288169Y-33657565D02*
X80211978Y-33690898D01*
X80211978Y-33690898D02*
X80059597Y-33724231D01*
X80059597Y-33724231D02*
X79945311Y-33724231D01*
X79945311Y-33724231D02*
X79792930Y-33690898D01*
X79792930Y-33690898D02*
X79716740Y-33657565D01*
X79716740Y-33657565D02*
X79640550Y-33590898D01*
X79640550Y-33590898D02*
X79602454Y-33490898D01*
X79602454Y-33490898D02*
X79602454Y-33324231D01*
X80135788Y-34324231D02*
X79602454Y-34324231D01*
X80440550Y-34157565D02*
X79869121Y-33990898D01*
X79869121Y-33990898D02*
X79869121Y-34424231D01*
X82102454Y-32457565D02*
X82102454Y-32124231D01*
X82102454Y-32124231D02*
X82902454Y-32124231D01*
X82521502Y-32690898D02*
X82521502Y-32924232D01*
X82102454Y-33024232D02*
X82102454Y-32690898D01*
X82102454Y-32690898D02*
X82902454Y-32690898D01*
X82902454Y-32690898D02*
X82902454Y-33024232D01*
X82102454Y-33324231D02*
X82902454Y-33324231D01*
X82902454Y-33324231D02*
X82902454Y-33490898D01*
X82902454Y-33490898D02*
X82864359Y-33590898D01*
X82864359Y-33590898D02*
X82788169Y-33657565D01*
X82788169Y-33657565D02*
X82711978Y-33690898D01*
X82711978Y-33690898D02*
X82559597Y-33724231D01*
X82559597Y-33724231D02*
X82445311Y-33724231D01*
X82445311Y-33724231D02*
X82292930Y-33690898D01*
X82292930Y-33690898D02*
X82216740Y-33657565D01*
X82216740Y-33657565D02*
X82140550Y-33590898D01*
X82140550Y-33590898D02*
X82102454Y-33490898D01*
X82102454Y-33490898D02*
X82102454Y-33324231D01*
X82902454Y-33957565D02*
X82902454Y-34390898D01*
X82902454Y-34390898D02*
X82597692Y-34157565D01*
X82597692Y-34157565D02*
X82597692Y-34257565D01*
X82597692Y-34257565D02*
X82559597Y-34324231D01*
X82559597Y-34324231D02*
X82521502Y-34357565D01*
X82521502Y-34357565D02*
X82445311Y-34390898D01*
X82445311Y-34390898D02*
X82254835Y-34390898D01*
X82254835Y-34390898D02*
X82178645Y-34357565D01*
X82178645Y-34357565D02*
X82140550Y-34324231D01*
X82140550Y-34324231D02*
X82102454Y-34257565D01*
X82102454Y-34257565D02*
X82102454Y-34057565D01*
X82102454Y-34057565D02*
X82140550Y-33990898D01*
X82140550Y-33990898D02*
X82178645Y-33957565D01*
X84602454Y-32457565D02*
X84602454Y-32124231D01*
X84602454Y-32124231D02*
X85402454Y-32124231D01*
X85021502Y-32690898D02*
X85021502Y-32924232D01*
X84602454Y-33024232D02*
X84602454Y-32690898D01*
X84602454Y-32690898D02*
X85402454Y-32690898D01*
X85402454Y-32690898D02*
X85402454Y-33024232D01*
X84602454Y-33324231D02*
X85402454Y-33324231D01*
X85402454Y-33324231D02*
X85402454Y-33490898D01*
X85402454Y-33490898D02*
X85364359Y-33590898D01*
X85364359Y-33590898D02*
X85288169Y-33657565D01*
X85288169Y-33657565D02*
X85211978Y-33690898D01*
X85211978Y-33690898D02*
X85059597Y-33724231D01*
X85059597Y-33724231D02*
X84945311Y-33724231D01*
X84945311Y-33724231D02*
X84792930Y-33690898D01*
X84792930Y-33690898D02*
X84716740Y-33657565D01*
X84716740Y-33657565D02*
X84640550Y-33590898D01*
X84640550Y-33590898D02*
X84602454Y-33490898D01*
X84602454Y-33490898D02*
X84602454Y-33324231D01*
X85326264Y-33990898D02*
X85364359Y-34024231D01*
X85364359Y-34024231D02*
X85402454Y-34090898D01*
X85402454Y-34090898D02*
X85402454Y-34257565D01*
X85402454Y-34257565D02*
X85364359Y-34324231D01*
X85364359Y-34324231D02*
X85326264Y-34357565D01*
X85326264Y-34357565D02*
X85250073Y-34390898D01*
X85250073Y-34390898D02*
X85173883Y-34390898D01*
X85173883Y-34390898D02*
X85059597Y-34357565D01*
X85059597Y-34357565D02*
X84602454Y-33957565D01*
X84602454Y-33957565D02*
X84602454Y-34390898D01*
X87102454Y-32457565D02*
X87102454Y-32124231D01*
X87102454Y-32124231D02*
X87902454Y-32124231D01*
X87521502Y-32690898D02*
X87521502Y-32924232D01*
X87102454Y-33024232D02*
X87102454Y-32690898D01*
X87102454Y-32690898D02*
X87902454Y-32690898D01*
X87902454Y-32690898D02*
X87902454Y-33024232D01*
X87102454Y-33324231D02*
X87902454Y-33324231D01*
X87902454Y-33324231D02*
X87902454Y-33490898D01*
X87902454Y-33490898D02*
X87864359Y-33590898D01*
X87864359Y-33590898D02*
X87788169Y-33657565D01*
X87788169Y-33657565D02*
X87711978Y-33690898D01*
X87711978Y-33690898D02*
X87559597Y-33724231D01*
X87559597Y-33724231D02*
X87445311Y-33724231D01*
X87445311Y-33724231D02*
X87292930Y-33690898D01*
X87292930Y-33690898D02*
X87216740Y-33657565D01*
X87216740Y-33657565D02*
X87140550Y-33590898D01*
X87140550Y-33590898D02*
X87102454Y-33490898D01*
X87102454Y-33490898D02*
X87102454Y-33324231D01*
X87102454Y-34390898D02*
X87102454Y-33990898D01*
X87102454Y-34190898D02*
X87902454Y-34190898D01*
X87902454Y-34190898D02*
X87788169Y-34124231D01*
X87788169Y-34124231D02*
X87711978Y-34057565D01*
X87711978Y-34057565D02*
X87673883Y-33990898D01*
X39324231Y-27197545D02*
X39090898Y-26816592D01*
X38924231Y-27197545D02*
X38924231Y-26397545D01*
X38924231Y-26397545D02*
X39190898Y-26397545D01*
X39190898Y-26397545D02*
X39257565Y-26435640D01*
X39257565Y-26435640D02*
X39290898Y-26473735D01*
X39290898Y-26473735D02*
X39324231Y-26549926D01*
X39324231Y-26549926D02*
X39324231Y-26664211D01*
X39324231Y-26664211D02*
X39290898Y-26740402D01*
X39290898Y-26740402D02*
X39257565Y-26778497D01*
X39257565Y-26778497D02*
X39190898Y-26816592D01*
X39190898Y-26816592D02*
X38924231Y-26816592D01*
X39990898Y-26435640D02*
X39924231Y-26397545D01*
X39924231Y-26397545D02*
X39824231Y-26397545D01*
X39824231Y-26397545D02*
X39724231Y-26435640D01*
X39724231Y-26435640D02*
X39657565Y-26511830D01*
X39657565Y-26511830D02*
X39624231Y-26588021D01*
X39624231Y-26588021D02*
X39590898Y-26740402D01*
X39590898Y-26740402D02*
X39590898Y-26854688D01*
X39590898Y-26854688D02*
X39624231Y-27007069D01*
X39624231Y-27007069D02*
X39657565Y-27083259D01*
X39657565Y-27083259D02*
X39724231Y-27159450D01*
X39724231Y-27159450D02*
X39824231Y-27197545D01*
X39824231Y-27197545D02*
X39890898Y-27197545D01*
X39890898Y-27197545D02*
X39990898Y-27159450D01*
X39990898Y-27159450D02*
X40024231Y-27121354D01*
X40024231Y-27121354D02*
X40024231Y-26854688D01*
X40024231Y-26854688D02*
X39890898Y-26854688D01*
X40557565Y-26778497D02*
X40657565Y-26816592D01*
X40657565Y-26816592D02*
X40690898Y-26854688D01*
X40690898Y-26854688D02*
X40724231Y-26930878D01*
X40724231Y-26930878D02*
X40724231Y-27045164D01*
X40724231Y-27045164D02*
X40690898Y-27121354D01*
X40690898Y-27121354D02*
X40657565Y-27159450D01*
X40657565Y-27159450D02*
X40590898Y-27197545D01*
X40590898Y-27197545D02*
X40324231Y-27197545D01*
X40324231Y-27197545D02*
X40324231Y-26397545D01*
X40324231Y-26397545D02*
X40557565Y-26397545D01*
X40557565Y-26397545D02*
X40624231Y-26435640D01*
X40624231Y-26435640D02*
X40657565Y-26473735D01*
X40657565Y-26473735D02*
X40690898Y-26549926D01*
X40690898Y-26549926D02*
X40690898Y-26626116D01*
X40690898Y-26626116D02*
X40657565Y-26702307D01*
X40657565Y-26702307D02*
X40624231Y-26740402D01*
X40624231Y-26740402D02*
X40557565Y-26778497D01*
X40557565Y-26778497D02*
X40324231Y-26778497D01*
D14*
X30000000Y-36300000D02*
X113000000Y-36300000D01*
X113000000Y-91300000D01*
X30000000Y-91300000D01*
X30000000Y-36300000D01*
D11*
X91710000Y-93420000D02*
X91710000Y-93430000D01*
X91710000Y-93630000D02*
X91710000Y-93640000D01*
X91710000Y-93840000D02*
X91710000Y-93850000D01*
X91710000Y-94050000D02*
X91710000Y-94060000D01*
D12*
X52880952Y-33954817D02*
X52404762Y-33954817D01*
X52404762Y-33954817D02*
X52404762Y-32954817D01*
X53214286Y-33431007D02*
X53547619Y-33431007D01*
X53690476Y-33954817D02*
X53214286Y-33954817D01*
X53214286Y-33954817D02*
X53214286Y-32954817D01*
X53214286Y-32954817D02*
X53690476Y-32954817D01*
X54119048Y-33954817D02*
X54119048Y-32954817D01*
X54119048Y-32954817D02*
X54357143Y-32954817D01*
X54357143Y-32954817D02*
X54500000Y-33002436D01*
X54500000Y-33002436D02*
X54595238Y-33097674D01*
X54595238Y-33097674D02*
X54642857Y-33192912D01*
X54642857Y-33192912D02*
X54690476Y-33383388D01*
X54690476Y-33383388D02*
X54690476Y-33526245D01*
X54690476Y-33526245D02*
X54642857Y-33716721D01*
X54642857Y-33716721D02*
X54595238Y-33811959D01*
X54595238Y-33811959D02*
X54500000Y-33907198D01*
X54500000Y-33907198D02*
X54357143Y-33954817D01*
X54357143Y-33954817D02*
X54119048Y-33954817D01*
X55642857Y-33954817D02*
X55071429Y-33954817D01*
X55357143Y-33954817D02*
X55357143Y-32954817D01*
X55357143Y-32954817D02*
X55261905Y-33097674D01*
X55261905Y-33097674D02*
X55166667Y-33192912D01*
X55166667Y-33192912D02*
X55071429Y-33240531D01*
X57180952Y-33954817D02*
X56704762Y-33954817D01*
X56704762Y-33954817D02*
X56704762Y-32954817D01*
X57514286Y-33431007D02*
X57847619Y-33431007D01*
X57990476Y-33954817D02*
X57514286Y-33954817D01*
X57514286Y-33954817D02*
X57514286Y-32954817D01*
X57514286Y-32954817D02*
X57990476Y-32954817D01*
X58419048Y-33954817D02*
X58419048Y-32954817D01*
X58419048Y-32954817D02*
X58657143Y-32954817D01*
X58657143Y-32954817D02*
X58800000Y-33002436D01*
X58800000Y-33002436D02*
X58895238Y-33097674D01*
X58895238Y-33097674D02*
X58942857Y-33192912D01*
X58942857Y-33192912D02*
X58990476Y-33383388D01*
X58990476Y-33383388D02*
X58990476Y-33526245D01*
X58990476Y-33526245D02*
X58942857Y-33716721D01*
X58942857Y-33716721D02*
X58895238Y-33811959D01*
X58895238Y-33811959D02*
X58800000Y-33907198D01*
X58800000Y-33907198D02*
X58657143Y-33954817D01*
X58657143Y-33954817D02*
X58419048Y-33954817D01*
X59371429Y-33050055D02*
X59419048Y-33002436D01*
X59419048Y-33002436D02*
X59514286Y-32954817D01*
X59514286Y-32954817D02*
X59752381Y-32954817D01*
X59752381Y-32954817D02*
X59847619Y-33002436D01*
X59847619Y-33002436D02*
X59895238Y-33050055D01*
X59895238Y-33050055D02*
X59942857Y-33145293D01*
X59942857Y-33145293D02*
X59942857Y-33240531D01*
X59942857Y-33240531D02*
X59895238Y-33383388D01*
X59895238Y-33383388D02*
X59323810Y-33954817D01*
X59323810Y-33954817D02*
X59942857Y-33954817D01*
X61480952Y-33954819D02*
X61004762Y-33954819D01*
X61004762Y-33954819D02*
X61004762Y-32954819D01*
X61814286Y-33431009D02*
X62147619Y-33431009D01*
X62290476Y-33954819D02*
X61814286Y-33954819D01*
X61814286Y-33954819D02*
X61814286Y-32954819D01*
X61814286Y-32954819D02*
X62290476Y-32954819D01*
X62719048Y-33954819D02*
X62719048Y-32954819D01*
X62719048Y-32954819D02*
X62957143Y-32954819D01*
X62957143Y-32954819D02*
X63100000Y-33002438D01*
X63100000Y-33002438D02*
X63195238Y-33097676D01*
X63195238Y-33097676D02*
X63242857Y-33192914D01*
X63242857Y-33192914D02*
X63290476Y-33383390D01*
X63290476Y-33383390D02*
X63290476Y-33526247D01*
X63290476Y-33526247D02*
X63242857Y-33716723D01*
X63242857Y-33716723D02*
X63195238Y-33811961D01*
X63195238Y-33811961D02*
X63100000Y-33907200D01*
X63100000Y-33907200D02*
X62957143Y-33954819D01*
X62957143Y-33954819D02*
X62719048Y-33954819D01*
X63623810Y-32954819D02*
X64242857Y-32954819D01*
X64242857Y-32954819D02*
X63909524Y-33335771D01*
X63909524Y-33335771D02*
X64052381Y-33335771D01*
X64052381Y-33335771D02*
X64147619Y-33383390D01*
X64147619Y-33383390D02*
X64195238Y-33431009D01*
X64195238Y-33431009D02*
X64242857Y-33526247D01*
X64242857Y-33526247D02*
X64242857Y-33764342D01*
X64242857Y-33764342D02*
X64195238Y-33859580D01*
X64195238Y-33859580D02*
X64147619Y-33907200D01*
X64147619Y-33907200D02*
X64052381Y-33954819D01*
X64052381Y-33954819D02*
X63766667Y-33954819D01*
X63766667Y-33954819D02*
X63671429Y-33907200D01*
X63671429Y-33907200D02*
X63623810Y-33859580D01*
X65880952Y-33954817D02*
X65404762Y-33954817D01*
X65404762Y-33954817D02*
X65404762Y-32954817D01*
X66214286Y-33431007D02*
X66547619Y-33431007D01*
X66690476Y-33954817D02*
X66214286Y-33954817D01*
X66214286Y-33954817D02*
X66214286Y-32954817D01*
X66214286Y-32954817D02*
X66690476Y-32954817D01*
X67119048Y-33954817D02*
X67119048Y-32954817D01*
X67119048Y-32954817D02*
X67357143Y-32954817D01*
X67357143Y-32954817D02*
X67500000Y-33002436D01*
X67500000Y-33002436D02*
X67595238Y-33097674D01*
X67595238Y-33097674D02*
X67642857Y-33192912D01*
X67642857Y-33192912D02*
X67690476Y-33383388D01*
X67690476Y-33383388D02*
X67690476Y-33526245D01*
X67690476Y-33526245D02*
X67642857Y-33716721D01*
X67642857Y-33716721D02*
X67595238Y-33811959D01*
X67595238Y-33811959D02*
X67500000Y-33907198D01*
X67500000Y-33907198D02*
X67357143Y-33954817D01*
X67357143Y-33954817D02*
X67119048Y-33954817D01*
X68547619Y-33288150D02*
X68547619Y-33954817D01*
X68309524Y-32907198D02*
X68071429Y-33621483D01*
X68071429Y-33621483D02*
X68690476Y-33621483D01*
X127737619Y-29098819D02*
X127737619Y-28098819D01*
X128166190Y-28194057D02*
X128213809Y-28146438D01*
X128213809Y-28146438D02*
X128309047Y-28098819D01*
X128309047Y-28098819D02*
X128547142Y-28098819D01*
X128547142Y-28098819D02*
X128642380Y-28146438D01*
X128642380Y-28146438D02*
X128689999Y-28194057D01*
X128689999Y-28194057D02*
X128737618Y-28289295D01*
X128737618Y-28289295D02*
X128737618Y-28384533D01*
X128737618Y-28384533D02*
X128689999Y-28527390D01*
X128689999Y-28527390D02*
X128118571Y-29098819D01*
X128118571Y-29098819D02*
X128737618Y-29098819D01*
X129737618Y-29003580D02*
X129689999Y-29051200D01*
X129689999Y-29051200D02*
X129547142Y-29098819D01*
X129547142Y-29098819D02*
X129451904Y-29098819D01*
X129451904Y-29098819D02*
X129309047Y-29051200D01*
X129309047Y-29051200D02*
X129213809Y-28955961D01*
X129213809Y-28955961D02*
X129166190Y-28860723D01*
X129166190Y-28860723D02*
X129118571Y-28670247D01*
X129118571Y-28670247D02*
X129118571Y-28527390D01*
X129118571Y-28527390D02*
X129166190Y-28336914D01*
X129166190Y-28336914D02*
X129213809Y-28241676D01*
X129213809Y-28241676D02*
X129309047Y-28146438D01*
X129309047Y-28146438D02*
X129451904Y-28098819D01*
X129451904Y-28098819D02*
X129547142Y-28098819D01*
X129547142Y-28098819D02*
X129689999Y-28146438D01*
X129689999Y-28146438D02*
X129737618Y-28194057D01*
X130689999Y-29098819D02*
X130118571Y-29098819D01*
X130404285Y-29098819D02*
X130404285Y-28098819D01*
X130404285Y-28098819D02*
X130309047Y-28241676D01*
X130309047Y-28241676D02*
X130213809Y-28336914D01*
X130213809Y-28336914D02*
X130118571Y-28384533D01*
X107014286Y-27733866D02*
X107776191Y-27733866D01*
X107395238Y-28114819D02*
X107395238Y-27352914D01*
X108728571Y-27114819D02*
X108252381Y-27114819D01*
X108252381Y-27114819D02*
X108204762Y-27591009D01*
X108204762Y-27591009D02*
X108252381Y-27543390D01*
X108252381Y-27543390D02*
X108347619Y-27495771D01*
X108347619Y-27495771D02*
X108585714Y-27495771D01*
X108585714Y-27495771D02*
X108680952Y-27543390D01*
X108680952Y-27543390D02*
X108728571Y-27591009D01*
X108728571Y-27591009D02*
X108776190Y-27686247D01*
X108776190Y-27686247D02*
X108776190Y-27924342D01*
X108776190Y-27924342D02*
X108728571Y-28019580D01*
X108728571Y-28019580D02*
X108680952Y-28067200D01*
X108680952Y-28067200D02*
X108585714Y-28114819D01*
X108585714Y-28114819D02*
X108347619Y-28114819D01*
X108347619Y-28114819D02*
X108252381Y-28067200D01*
X108252381Y-28067200D02*
X108204762Y-28019580D01*
X109061905Y-27114819D02*
X109395238Y-28114819D01*
X109395238Y-28114819D02*
X109728571Y-27114819D01*
X142238095Y-100173866D02*
X143000000Y-100173866D01*
X142619047Y-100554819D02*
X142619047Y-99792914D01*
X143380952Y-99554819D02*
X143999999Y-99554819D01*
X143999999Y-99554819D02*
X143666666Y-99935771D01*
X143666666Y-99935771D02*
X143809523Y-99935771D01*
X143809523Y-99935771D02*
X143904761Y-99983390D01*
X143904761Y-99983390D02*
X143952380Y-100031009D01*
X143952380Y-100031009D02*
X143999999Y-100126247D01*
X143999999Y-100126247D02*
X143999999Y-100364342D01*
X143999999Y-100364342D02*
X143952380Y-100459580D01*
X143952380Y-100459580D02*
X143904761Y-100507200D01*
X143904761Y-100507200D02*
X143809523Y-100554819D01*
X143809523Y-100554819D02*
X143523809Y-100554819D01*
X143523809Y-100554819D02*
X143428571Y-100507200D01*
X143428571Y-100507200D02*
X143380952Y-100459580D01*
X144285714Y-99554819D02*
X144619047Y-100554819D01*
X144619047Y-100554819D02*
X144952380Y-99554819D01*
X145190476Y-99554819D02*
X145809523Y-99554819D01*
X145809523Y-99554819D02*
X145476190Y-99935771D01*
X145476190Y-99935771D02*
X145619047Y-99935771D01*
X145619047Y-99935771D02*
X145714285Y-99983390D01*
X145714285Y-99983390D02*
X145761904Y-100031009D01*
X145761904Y-100031009D02*
X145809523Y-100126247D01*
X145809523Y-100126247D02*
X145809523Y-100364342D01*
X145809523Y-100364342D02*
X145761904Y-100459580D01*
X145761904Y-100459580D02*
X145714285Y-100507200D01*
X145714285Y-100507200D02*
X145619047Y-100554819D01*
X145619047Y-100554819D02*
X145333333Y-100554819D01*
X145333333Y-100554819D02*
X145238095Y-100507200D01*
X145238095Y-100507200D02*
X145190476Y-100459580D01*
X93438095Y-27102438D02*
X93342857Y-27054819D01*
X93342857Y-27054819D02*
X93200000Y-27054819D01*
X93200000Y-27054819D02*
X93057143Y-27102438D01*
X93057143Y-27102438D02*
X92961905Y-27197676D01*
X92961905Y-27197676D02*
X92914286Y-27292914D01*
X92914286Y-27292914D02*
X92866667Y-27483390D01*
X92866667Y-27483390D02*
X92866667Y-27626247D01*
X92866667Y-27626247D02*
X92914286Y-27816723D01*
X92914286Y-27816723D02*
X92961905Y-27911961D01*
X92961905Y-27911961D02*
X93057143Y-28007200D01*
X93057143Y-28007200D02*
X93200000Y-28054819D01*
X93200000Y-28054819D02*
X93295238Y-28054819D01*
X93295238Y-28054819D02*
X93438095Y-28007200D01*
X93438095Y-28007200D02*
X93485714Y-27959580D01*
X93485714Y-27959580D02*
X93485714Y-27626247D01*
X93485714Y-27626247D02*
X93295238Y-27626247D01*
X93914286Y-28054819D02*
X93914286Y-27054819D01*
X93914286Y-27054819D02*
X94485714Y-28054819D01*
X94485714Y-28054819D02*
X94485714Y-27054819D01*
X94961905Y-28054819D02*
X94961905Y-27054819D01*
X94961905Y-27054819D02*
X95200000Y-27054819D01*
X95200000Y-27054819D02*
X95342857Y-27102438D01*
X95342857Y-27102438D02*
X95438095Y-27197676D01*
X95438095Y-27197676D02*
X95485714Y-27292914D01*
X95485714Y-27292914D02*
X95533333Y-27483390D01*
X95533333Y-27483390D02*
X95533333Y-27626247D01*
X95533333Y-27626247D02*
X95485714Y-27816723D01*
X95485714Y-27816723D02*
X95438095Y-27911961D01*
X95438095Y-27911961D02*
X95342857Y-28007200D01*
X95342857Y-28007200D02*
X95200000Y-28054819D01*
X95200000Y-28054819D02*
X94961905Y-28054819D01*
X101397142Y-95394819D02*
X101063809Y-94918628D01*
X100825714Y-95394819D02*
X100825714Y-94394819D01*
X100825714Y-94394819D02*
X101206666Y-94394819D01*
X101206666Y-94394819D02*
X101301904Y-94442438D01*
X101301904Y-94442438D02*
X101349523Y-94490057D01*
X101349523Y-94490057D02*
X101397142Y-94585295D01*
X101397142Y-94585295D02*
X101397142Y-94728152D01*
X101397142Y-94728152D02*
X101349523Y-94823390D01*
X101349523Y-94823390D02*
X101301904Y-94871009D01*
X101301904Y-94871009D02*
X101206666Y-94918628D01*
X101206666Y-94918628D02*
X100825714Y-94918628D01*
X102349523Y-95394819D02*
X101778095Y-95394819D01*
X102063809Y-95394819D02*
X102063809Y-94394819D01*
X102063809Y-94394819D02*
X101968571Y-94537676D01*
X101968571Y-94537676D02*
X101873333Y-94632914D01*
X101873333Y-94632914D02*
X101778095Y-94680533D01*
X102968571Y-94394819D02*
X103063809Y-94394819D01*
X103063809Y-94394819D02*
X103159047Y-94442438D01*
X103159047Y-94442438D02*
X103206666Y-94490057D01*
X103206666Y-94490057D02*
X103254285Y-94585295D01*
X103254285Y-94585295D02*
X103301904Y-94775771D01*
X103301904Y-94775771D02*
X103301904Y-95013866D01*
X103301904Y-95013866D02*
X103254285Y-95204342D01*
X103254285Y-95204342D02*
X103206666Y-95299580D01*
X103206666Y-95299580D02*
X103159047Y-95347200D01*
X103159047Y-95347200D02*
X103063809Y-95394819D01*
X103063809Y-95394819D02*
X102968571Y-95394819D01*
X102968571Y-95394819D02*
X102873333Y-95347200D01*
X102873333Y-95347200D02*
X102825714Y-95299580D01*
X102825714Y-95299580D02*
X102778095Y-95204342D01*
X102778095Y-95204342D02*
X102730476Y-95013866D01*
X102730476Y-95013866D02*
X102730476Y-94775771D01*
X102730476Y-94775771D02*
X102778095Y-94585295D01*
X102778095Y-94585295D02*
X102825714Y-94490057D01*
X102825714Y-94490057D02*
X102873333Y-94442438D01*
X102873333Y-94442438D02*
X102968571Y-94394819D01*
X59633333Y-30554819D02*
X59300000Y-30078628D01*
X59061905Y-30554819D02*
X59061905Y-29554819D01*
X59061905Y-29554819D02*
X59442857Y-29554819D01*
X59442857Y-29554819D02*
X59538095Y-29602438D01*
X59538095Y-29602438D02*
X59585714Y-29650057D01*
X59585714Y-29650057D02*
X59633333Y-29745295D01*
X59633333Y-29745295D02*
X59633333Y-29888152D01*
X59633333Y-29888152D02*
X59585714Y-29983390D01*
X59585714Y-29983390D02*
X59538095Y-30031009D01*
X59538095Y-30031009D02*
X59442857Y-30078628D01*
X59442857Y-30078628D02*
X59061905Y-30078628D01*
X60014286Y-29650057D02*
X60061905Y-29602438D01*
X60061905Y-29602438D02*
X60157143Y-29554819D01*
X60157143Y-29554819D02*
X60395238Y-29554819D01*
X60395238Y-29554819D02*
X60490476Y-29602438D01*
X60490476Y-29602438D02*
X60538095Y-29650057D01*
X60538095Y-29650057D02*
X60585714Y-29745295D01*
X60585714Y-29745295D02*
X60585714Y-29840533D01*
X60585714Y-29840533D02*
X60538095Y-29983390D01*
X60538095Y-29983390D02*
X59966667Y-30554819D01*
X59966667Y-30554819D02*
X60585714Y-30554819D01*
X46261905Y-100494819D02*
X46261905Y-99494819D01*
X46833333Y-100494819D02*
X46404762Y-99923390D01*
X46833333Y-99494819D02*
X46261905Y-100066247D01*
X47214286Y-99590057D02*
X47261905Y-99542438D01*
X47261905Y-99542438D02*
X47357143Y-99494819D01*
X47357143Y-99494819D02*
X47595238Y-99494819D01*
X47595238Y-99494819D02*
X47690476Y-99542438D01*
X47690476Y-99542438D02*
X47738095Y-99590057D01*
X47738095Y-99590057D02*
X47785714Y-99685295D01*
X47785714Y-99685295D02*
X47785714Y-99780533D01*
X47785714Y-99780533D02*
X47738095Y-99923390D01*
X47738095Y-99923390D02*
X47166667Y-100494819D01*
X47166667Y-100494819D02*
X47785714Y-100494819D01*
X36070833Y-93454819D02*
X35737500Y-92978628D01*
X35499405Y-93454819D02*
X35499405Y-92454819D01*
X35499405Y-92454819D02*
X35880357Y-92454819D01*
X35880357Y-92454819D02*
X35975595Y-92502438D01*
X35975595Y-92502438D02*
X36023214Y-92550057D01*
X36023214Y-92550057D02*
X36070833Y-92645295D01*
X36070833Y-92645295D02*
X36070833Y-92788152D01*
X36070833Y-92788152D02*
X36023214Y-92883390D01*
X36023214Y-92883390D02*
X35975595Y-92931009D01*
X35975595Y-92931009D02*
X35880357Y-92978628D01*
X35880357Y-92978628D02*
X35499405Y-92978628D01*
X36927976Y-92454819D02*
X36737500Y-92454819D01*
X36737500Y-92454819D02*
X36642262Y-92502438D01*
X36642262Y-92502438D02*
X36594643Y-92550057D01*
X36594643Y-92550057D02*
X36499405Y-92692914D01*
X36499405Y-92692914D02*
X36451786Y-92883390D01*
X36451786Y-92883390D02*
X36451786Y-93264342D01*
X36451786Y-93264342D02*
X36499405Y-93359580D01*
X36499405Y-93359580D02*
X36547024Y-93407200D01*
X36547024Y-93407200D02*
X36642262Y-93454819D01*
X36642262Y-93454819D02*
X36832738Y-93454819D01*
X36832738Y-93454819D02*
X36927976Y-93407200D01*
X36927976Y-93407200D02*
X36975595Y-93359580D01*
X36975595Y-93359580D02*
X37023214Y-93264342D01*
X37023214Y-93264342D02*
X37023214Y-93026247D01*
X37023214Y-93026247D02*
X36975595Y-92931009D01*
X36975595Y-92931009D02*
X36927976Y-92883390D01*
X36927976Y-92883390D02*
X36832738Y-92835771D01*
X36832738Y-92835771D02*
X36642262Y-92835771D01*
X36642262Y-92835771D02*
X36547024Y-92883390D01*
X36547024Y-92883390D02*
X36499405Y-92931009D01*
X36499405Y-92931009D02*
X36451786Y-93026247D01*
X65795833Y-93454819D02*
X65462500Y-92978628D01*
X65224405Y-93454819D02*
X65224405Y-92454819D01*
X65224405Y-92454819D02*
X65605357Y-92454819D01*
X65605357Y-92454819D02*
X65700595Y-92502438D01*
X65700595Y-92502438D02*
X65748214Y-92550057D01*
X65748214Y-92550057D02*
X65795833Y-92645295D01*
X65795833Y-92645295D02*
X65795833Y-92788152D01*
X65795833Y-92788152D02*
X65748214Y-92883390D01*
X65748214Y-92883390D02*
X65700595Y-92931009D01*
X65700595Y-92931009D02*
X65605357Y-92978628D01*
X65605357Y-92978628D02*
X65224405Y-92978628D01*
X66272024Y-93454819D02*
X66462500Y-93454819D01*
X66462500Y-93454819D02*
X66557738Y-93407200D01*
X66557738Y-93407200D02*
X66605357Y-93359580D01*
X66605357Y-93359580D02*
X66700595Y-93216723D01*
X66700595Y-93216723D02*
X66748214Y-93026247D01*
X66748214Y-93026247D02*
X66748214Y-92645295D01*
X66748214Y-92645295D02*
X66700595Y-92550057D01*
X66700595Y-92550057D02*
X66652976Y-92502438D01*
X66652976Y-92502438D02*
X66557738Y-92454819D01*
X66557738Y-92454819D02*
X66367262Y-92454819D01*
X66367262Y-92454819D02*
X66272024Y-92502438D01*
X66272024Y-92502438D02*
X66224405Y-92550057D01*
X66224405Y-92550057D02*
X66176786Y-92645295D01*
X66176786Y-92645295D02*
X66176786Y-92883390D01*
X66176786Y-92883390D02*
X66224405Y-92978628D01*
X66224405Y-92978628D02*
X66272024Y-93026247D01*
X66272024Y-93026247D02*
X66367262Y-93073866D01*
X66367262Y-93073866D02*
X66557738Y-93073866D01*
X66557738Y-93073866D02*
X66652976Y-93026247D01*
X66652976Y-93026247D02*
X66700595Y-92978628D01*
X66700595Y-92978628D02*
X66748214Y-92883390D01*
X159406667Y-93027200D02*
X159549524Y-93074819D01*
X159549524Y-93074819D02*
X159787619Y-93074819D01*
X159787619Y-93074819D02*
X159882857Y-93027200D01*
X159882857Y-93027200D02*
X159930476Y-92979580D01*
X159930476Y-92979580D02*
X159978095Y-92884342D01*
X159978095Y-92884342D02*
X159978095Y-92789104D01*
X159978095Y-92789104D02*
X159930476Y-92693866D01*
X159930476Y-92693866D02*
X159882857Y-92646247D01*
X159882857Y-92646247D02*
X159787619Y-92598628D01*
X159787619Y-92598628D02*
X159597143Y-92551009D01*
X159597143Y-92551009D02*
X159501905Y-92503390D01*
X159501905Y-92503390D02*
X159454286Y-92455771D01*
X159454286Y-92455771D02*
X159406667Y-92360533D01*
X159406667Y-92360533D02*
X159406667Y-92265295D01*
X159406667Y-92265295D02*
X159454286Y-92170057D01*
X159454286Y-92170057D02*
X159501905Y-92122438D01*
X159501905Y-92122438D02*
X159597143Y-92074819D01*
X159597143Y-92074819D02*
X159835238Y-92074819D01*
X159835238Y-92074819D02*
X159978095Y-92122438D01*
X160311429Y-92074819D02*
X160549524Y-93074819D01*
X160549524Y-93074819D02*
X160740000Y-92360533D01*
X160740000Y-92360533D02*
X160930476Y-93074819D01*
X160930476Y-93074819D02*
X161168572Y-92074819D01*
X161597143Y-93074819D02*
X161787619Y-93074819D01*
X161787619Y-93074819D02*
X161882857Y-93027200D01*
X161882857Y-93027200D02*
X161930476Y-92979580D01*
X161930476Y-92979580D02*
X162025714Y-92836723D01*
X162025714Y-92836723D02*
X162073333Y-92646247D01*
X162073333Y-92646247D02*
X162073333Y-92265295D01*
X162073333Y-92265295D02*
X162025714Y-92170057D01*
X162025714Y-92170057D02*
X161978095Y-92122438D01*
X161978095Y-92122438D02*
X161882857Y-92074819D01*
X161882857Y-92074819D02*
X161692381Y-92074819D01*
X161692381Y-92074819D02*
X161597143Y-92122438D01*
X161597143Y-92122438D02*
X161549524Y-92170057D01*
X161549524Y-92170057D02*
X161501905Y-92265295D01*
X161501905Y-92265295D02*
X161501905Y-92503390D01*
X161501905Y-92503390D02*
X161549524Y-92598628D01*
X161549524Y-92598628D02*
X161597143Y-92646247D01*
X161597143Y-92646247D02*
X161692381Y-92693866D01*
X161692381Y-92693866D02*
X161882857Y-92693866D01*
X161882857Y-92693866D02*
X161978095Y-92646247D01*
X161978095Y-92646247D02*
X162025714Y-92598628D01*
X162025714Y-92598628D02*
X162073333Y-92503390D01*
X169159047Y-87731009D02*
X169301904Y-87778628D01*
X169301904Y-87778628D02*
X169349523Y-87826247D01*
X169349523Y-87826247D02*
X169397142Y-87921485D01*
X169397142Y-87921485D02*
X169397142Y-88064342D01*
X169397142Y-88064342D02*
X169349523Y-88159580D01*
X169349523Y-88159580D02*
X169301904Y-88207200D01*
X169301904Y-88207200D02*
X169206666Y-88254819D01*
X169206666Y-88254819D02*
X168825714Y-88254819D01*
X168825714Y-88254819D02*
X168825714Y-87254819D01*
X168825714Y-87254819D02*
X169159047Y-87254819D01*
X169159047Y-87254819D02*
X169254285Y-87302438D01*
X169254285Y-87302438D02*
X169301904Y-87350057D01*
X169301904Y-87350057D02*
X169349523Y-87445295D01*
X169349523Y-87445295D02*
X169349523Y-87540533D01*
X169349523Y-87540533D02*
X169301904Y-87635771D01*
X169301904Y-87635771D02*
X169254285Y-87683390D01*
X169254285Y-87683390D02*
X169159047Y-87731009D01*
X169159047Y-87731009D02*
X168825714Y-87731009D01*
X169730476Y-87254819D02*
X170397142Y-87254819D01*
X170397142Y-87254819D02*
X169730476Y-88254819D01*
X169730476Y-88254819D02*
X170397142Y-88254819D01*
X171301904Y-88254819D02*
X170730476Y-88254819D01*
X171016190Y-88254819D02*
X171016190Y-87254819D01*
X171016190Y-87254819D02*
X170920952Y-87397676D01*
X170920952Y-87397676D02*
X170825714Y-87492914D01*
X170825714Y-87492914D02*
X170730476Y-87540533D01*
X165849048Y-92533866D02*
X166610953Y-92533866D01*
X166230000Y-92914819D02*
X166230000Y-92152914D01*
X112966667Y-92807200D02*
X113109524Y-92854819D01*
X113109524Y-92854819D02*
X113347619Y-92854819D01*
X113347619Y-92854819D02*
X113442857Y-92807200D01*
X113442857Y-92807200D02*
X113490476Y-92759580D01*
X113490476Y-92759580D02*
X113538095Y-92664342D01*
X113538095Y-92664342D02*
X113538095Y-92569104D01*
X113538095Y-92569104D02*
X113490476Y-92473866D01*
X113490476Y-92473866D02*
X113442857Y-92426247D01*
X113442857Y-92426247D02*
X113347619Y-92378628D01*
X113347619Y-92378628D02*
X113157143Y-92331009D01*
X113157143Y-92331009D02*
X113061905Y-92283390D01*
X113061905Y-92283390D02*
X113014286Y-92235771D01*
X113014286Y-92235771D02*
X112966667Y-92140533D01*
X112966667Y-92140533D02*
X112966667Y-92045295D01*
X112966667Y-92045295D02*
X113014286Y-91950057D01*
X113014286Y-91950057D02*
X113061905Y-91902438D01*
X113061905Y-91902438D02*
X113157143Y-91854819D01*
X113157143Y-91854819D02*
X113395238Y-91854819D01*
X113395238Y-91854819D02*
X113538095Y-91902438D01*
X113871429Y-91854819D02*
X114109524Y-92854819D01*
X114109524Y-92854819D02*
X114300000Y-92140533D01*
X114300000Y-92140533D02*
X114490476Y-92854819D01*
X114490476Y-92854819D02*
X114728572Y-91854819D01*
X115014286Y-91854819D02*
X115633333Y-91854819D01*
X115633333Y-91854819D02*
X115300000Y-92235771D01*
X115300000Y-92235771D02*
X115442857Y-92235771D01*
X115442857Y-92235771D02*
X115538095Y-92283390D01*
X115538095Y-92283390D02*
X115585714Y-92331009D01*
X115585714Y-92331009D02*
X115633333Y-92426247D01*
X115633333Y-92426247D02*
X115633333Y-92664342D01*
X115633333Y-92664342D02*
X115585714Y-92759580D01*
X115585714Y-92759580D02*
X115538095Y-92807200D01*
X115538095Y-92807200D02*
X115442857Y-92854819D01*
X115442857Y-92854819D02*
X115157143Y-92854819D01*
X115157143Y-92854819D02*
X115061905Y-92807200D01*
X115061905Y-92807200D02*
X115014286Y-92759580D01*
X101397142Y-100594819D02*
X101063809Y-100118628D01*
X100825714Y-100594819D02*
X100825714Y-99594819D01*
X100825714Y-99594819D02*
X101206666Y-99594819D01*
X101206666Y-99594819D02*
X101301904Y-99642438D01*
X101301904Y-99642438D02*
X101349523Y-99690057D01*
X101349523Y-99690057D02*
X101397142Y-99785295D01*
X101397142Y-99785295D02*
X101397142Y-99928152D01*
X101397142Y-99928152D02*
X101349523Y-100023390D01*
X101349523Y-100023390D02*
X101301904Y-100071009D01*
X101301904Y-100071009D02*
X101206666Y-100118628D01*
X101206666Y-100118628D02*
X100825714Y-100118628D01*
X102349523Y-100594819D02*
X101778095Y-100594819D01*
X102063809Y-100594819D02*
X102063809Y-99594819D01*
X102063809Y-99594819D02*
X101968571Y-99737676D01*
X101968571Y-99737676D02*
X101873333Y-99832914D01*
X101873333Y-99832914D02*
X101778095Y-99880533D01*
X103301904Y-100594819D02*
X102730476Y-100594819D01*
X103016190Y-100594819D02*
X103016190Y-99594819D01*
X103016190Y-99594819D02*
X102920952Y-99737676D01*
X102920952Y-99737676D02*
X102825714Y-99832914D01*
X102825714Y-99832914D02*
X102730476Y-99880533D01*
X105166667Y-92807200D02*
X105309524Y-92854819D01*
X105309524Y-92854819D02*
X105547619Y-92854819D01*
X105547619Y-92854819D02*
X105642857Y-92807200D01*
X105642857Y-92807200D02*
X105690476Y-92759580D01*
X105690476Y-92759580D02*
X105738095Y-92664342D01*
X105738095Y-92664342D02*
X105738095Y-92569104D01*
X105738095Y-92569104D02*
X105690476Y-92473866D01*
X105690476Y-92473866D02*
X105642857Y-92426247D01*
X105642857Y-92426247D02*
X105547619Y-92378628D01*
X105547619Y-92378628D02*
X105357143Y-92331009D01*
X105357143Y-92331009D02*
X105261905Y-92283390D01*
X105261905Y-92283390D02*
X105214286Y-92235771D01*
X105214286Y-92235771D02*
X105166667Y-92140533D01*
X105166667Y-92140533D02*
X105166667Y-92045295D01*
X105166667Y-92045295D02*
X105214286Y-91950057D01*
X105214286Y-91950057D02*
X105261905Y-91902438D01*
X105261905Y-91902438D02*
X105357143Y-91854819D01*
X105357143Y-91854819D02*
X105595238Y-91854819D01*
X105595238Y-91854819D02*
X105738095Y-91902438D01*
X106071429Y-91854819D02*
X106309524Y-92854819D01*
X106309524Y-92854819D02*
X106500000Y-92140533D01*
X106500000Y-92140533D02*
X106690476Y-92854819D01*
X106690476Y-92854819D02*
X106928572Y-91854819D01*
X107833333Y-92854819D02*
X107261905Y-92854819D01*
X107547619Y-92854819D02*
X107547619Y-91854819D01*
X107547619Y-91854819D02*
X107452381Y-91997676D01*
X107452381Y-91997676D02*
X107357143Y-92092914D01*
X107357143Y-92092914D02*
X107261905Y-92140533D01*
X47083333Y-27559580D02*
X47035714Y-27607200D01*
X47035714Y-27607200D02*
X46892857Y-27654819D01*
X46892857Y-27654819D02*
X46797619Y-27654819D01*
X46797619Y-27654819D02*
X46654762Y-27607200D01*
X46654762Y-27607200D02*
X46559524Y-27511961D01*
X46559524Y-27511961D02*
X46511905Y-27416723D01*
X46511905Y-27416723D02*
X46464286Y-27226247D01*
X46464286Y-27226247D02*
X46464286Y-27083390D01*
X46464286Y-27083390D02*
X46511905Y-26892914D01*
X46511905Y-26892914D02*
X46559524Y-26797676D01*
X46559524Y-26797676D02*
X46654762Y-26702438D01*
X46654762Y-26702438D02*
X46797619Y-26654819D01*
X46797619Y-26654819D02*
X46892857Y-26654819D01*
X46892857Y-26654819D02*
X47035714Y-26702438D01*
X47035714Y-26702438D02*
X47083333Y-26750057D01*
X48035714Y-27654819D02*
X47464286Y-27654819D01*
X47750000Y-27654819D02*
X47750000Y-26654819D01*
X47750000Y-26654819D02*
X47654762Y-26797676D01*
X47654762Y-26797676D02*
X47559524Y-26892914D01*
X47559524Y-26892914D02*
X47464286Y-26940533D01*
X56136905Y-100494819D02*
X56136905Y-99494819D01*
X56708333Y-100494819D02*
X56279762Y-99923390D01*
X56708333Y-99494819D02*
X56136905Y-100066247D01*
X57041667Y-99494819D02*
X57660714Y-99494819D01*
X57660714Y-99494819D02*
X57327381Y-99875771D01*
X57327381Y-99875771D02*
X57470238Y-99875771D01*
X57470238Y-99875771D02*
X57565476Y-99923390D01*
X57565476Y-99923390D02*
X57613095Y-99971009D01*
X57613095Y-99971009D02*
X57660714Y-100066247D01*
X57660714Y-100066247D02*
X57660714Y-100304342D01*
X57660714Y-100304342D02*
X57613095Y-100399580D01*
X57613095Y-100399580D02*
X57565476Y-100447200D01*
X57565476Y-100447200D02*
X57470238Y-100494819D01*
X57470238Y-100494819D02*
X57184524Y-100494819D01*
X57184524Y-100494819D02*
X57089286Y-100447200D01*
X57089286Y-100447200D02*
X57041667Y-100399580D01*
X66011905Y-100494819D02*
X66011905Y-99494819D01*
X66583333Y-100494819D02*
X66154762Y-99923390D01*
X66583333Y-99494819D02*
X66011905Y-100066247D01*
X67440476Y-99828152D02*
X67440476Y-100494819D01*
X67202381Y-99447200D02*
X66964286Y-100161485D01*
X66964286Y-100161485D02*
X67583333Y-100161485D01*
X63933333Y-30554819D02*
X63600000Y-30078628D01*
X63361905Y-30554819D02*
X63361905Y-29554819D01*
X63361905Y-29554819D02*
X63742857Y-29554819D01*
X63742857Y-29554819D02*
X63838095Y-29602438D01*
X63838095Y-29602438D02*
X63885714Y-29650057D01*
X63885714Y-29650057D02*
X63933333Y-29745295D01*
X63933333Y-29745295D02*
X63933333Y-29888152D01*
X63933333Y-29888152D02*
X63885714Y-29983390D01*
X63885714Y-29983390D02*
X63838095Y-30031009D01*
X63838095Y-30031009D02*
X63742857Y-30078628D01*
X63742857Y-30078628D02*
X63361905Y-30078628D01*
X64266667Y-29554819D02*
X64885714Y-29554819D01*
X64885714Y-29554819D02*
X64552381Y-29935771D01*
X64552381Y-29935771D02*
X64695238Y-29935771D01*
X64695238Y-29935771D02*
X64790476Y-29983390D01*
X64790476Y-29983390D02*
X64838095Y-30031009D01*
X64838095Y-30031009D02*
X64885714Y-30126247D01*
X64885714Y-30126247D02*
X64885714Y-30364342D01*
X64885714Y-30364342D02*
X64838095Y-30459580D01*
X64838095Y-30459580D02*
X64790476Y-30507200D01*
X64790476Y-30507200D02*
X64695238Y-30554819D01*
X64695238Y-30554819D02*
X64409524Y-30554819D01*
X64409524Y-30554819D02*
X64314286Y-30507200D01*
X64314286Y-30507200D02*
X64266667Y-30459580D01*
X156757142Y-98854819D02*
X156423809Y-98378628D01*
X156185714Y-98854819D02*
X156185714Y-97854819D01*
X156185714Y-97854819D02*
X156566666Y-97854819D01*
X156566666Y-97854819D02*
X156661904Y-97902438D01*
X156661904Y-97902438D02*
X156709523Y-97950057D01*
X156709523Y-97950057D02*
X156757142Y-98045295D01*
X156757142Y-98045295D02*
X156757142Y-98188152D01*
X156757142Y-98188152D02*
X156709523Y-98283390D01*
X156709523Y-98283390D02*
X156661904Y-98331009D01*
X156661904Y-98331009D02*
X156566666Y-98378628D01*
X156566666Y-98378628D02*
X156185714Y-98378628D01*
X157709523Y-98854819D02*
X157138095Y-98854819D01*
X157423809Y-98854819D02*
X157423809Y-97854819D01*
X157423809Y-97854819D02*
X157328571Y-97997676D01*
X157328571Y-97997676D02*
X157233333Y-98092914D01*
X157233333Y-98092914D02*
X157138095Y-98140533D01*
X158566666Y-97854819D02*
X158376190Y-97854819D01*
X158376190Y-97854819D02*
X158280952Y-97902438D01*
X158280952Y-97902438D02*
X158233333Y-97950057D01*
X158233333Y-97950057D02*
X158138095Y-98092914D01*
X158138095Y-98092914D02*
X158090476Y-98283390D01*
X158090476Y-98283390D02*
X158090476Y-98664342D01*
X158090476Y-98664342D02*
X158138095Y-98759580D01*
X158138095Y-98759580D02*
X158185714Y-98807200D01*
X158185714Y-98807200D02*
X158280952Y-98854819D01*
X158280952Y-98854819D02*
X158471428Y-98854819D01*
X158471428Y-98854819D02*
X158566666Y-98807200D01*
X158566666Y-98807200D02*
X158614285Y-98759580D01*
X158614285Y-98759580D02*
X158661904Y-98664342D01*
X158661904Y-98664342D02*
X158661904Y-98426247D01*
X158661904Y-98426247D02*
X158614285Y-98331009D01*
X158614285Y-98331009D02*
X158566666Y-98283390D01*
X158566666Y-98283390D02*
X158471428Y-98235771D01*
X158471428Y-98235771D02*
X158280952Y-98235771D01*
X158280952Y-98235771D02*
X158185714Y-98283390D01*
X158185714Y-98283390D02*
X158138095Y-98331009D01*
X158138095Y-98331009D02*
X158090476Y-98426247D01*
X45845833Y-93454819D02*
X45512500Y-92978628D01*
X45274405Y-93454819D02*
X45274405Y-92454819D01*
X45274405Y-92454819D02*
X45655357Y-92454819D01*
X45655357Y-92454819D02*
X45750595Y-92502438D01*
X45750595Y-92502438D02*
X45798214Y-92550057D01*
X45798214Y-92550057D02*
X45845833Y-92645295D01*
X45845833Y-92645295D02*
X45845833Y-92788152D01*
X45845833Y-92788152D02*
X45798214Y-92883390D01*
X45798214Y-92883390D02*
X45750595Y-92931009D01*
X45750595Y-92931009D02*
X45655357Y-92978628D01*
X45655357Y-92978628D02*
X45274405Y-92978628D01*
X46179167Y-92454819D02*
X46845833Y-92454819D01*
X46845833Y-92454819D02*
X46417262Y-93454819D01*
X126757142Y-37454819D02*
X126423809Y-36978628D01*
X126185714Y-37454819D02*
X126185714Y-36454819D01*
X126185714Y-36454819D02*
X126566666Y-36454819D01*
X126566666Y-36454819D02*
X126661904Y-36502438D01*
X126661904Y-36502438D02*
X126709523Y-36550057D01*
X126709523Y-36550057D02*
X126757142Y-36645295D01*
X126757142Y-36645295D02*
X126757142Y-36788152D01*
X126757142Y-36788152D02*
X126709523Y-36883390D01*
X126709523Y-36883390D02*
X126661904Y-36931009D01*
X126661904Y-36931009D02*
X126566666Y-36978628D01*
X126566666Y-36978628D02*
X126185714Y-36978628D01*
X127709523Y-37454819D02*
X127138095Y-37454819D01*
X127423809Y-37454819D02*
X127423809Y-36454819D01*
X127423809Y-36454819D02*
X127328571Y-36597676D01*
X127328571Y-36597676D02*
X127233333Y-36692914D01*
X127233333Y-36692914D02*
X127138095Y-36740533D01*
X128614285Y-36454819D02*
X128138095Y-36454819D01*
X128138095Y-36454819D02*
X128090476Y-36931009D01*
X128090476Y-36931009D02*
X128138095Y-36883390D01*
X128138095Y-36883390D02*
X128233333Y-36835771D01*
X128233333Y-36835771D02*
X128471428Y-36835771D01*
X128471428Y-36835771D02*
X128566666Y-36883390D01*
X128566666Y-36883390D02*
X128614285Y-36931009D01*
X128614285Y-36931009D02*
X128661904Y-37026247D01*
X128661904Y-37026247D02*
X128661904Y-37264342D01*
X128661904Y-37264342D02*
X128614285Y-37359580D01*
X128614285Y-37359580D02*
X128566666Y-37407200D01*
X128566666Y-37407200D02*
X128471428Y-37454819D01*
X128471428Y-37454819D02*
X128233333Y-37454819D01*
X128233333Y-37454819D02*
X128138095Y-37407200D01*
X128138095Y-37407200D02*
X128090476Y-37359580D01*
X126857142Y-38954819D02*
X126523809Y-38478628D01*
X126285714Y-38954819D02*
X126285714Y-37954819D01*
X126285714Y-37954819D02*
X126666666Y-37954819D01*
X126666666Y-37954819D02*
X126761904Y-38002438D01*
X126761904Y-38002438D02*
X126809523Y-38050057D01*
X126809523Y-38050057D02*
X126857142Y-38145295D01*
X126857142Y-38145295D02*
X126857142Y-38288152D01*
X126857142Y-38288152D02*
X126809523Y-38383390D01*
X126809523Y-38383390D02*
X126761904Y-38431009D01*
X126761904Y-38431009D02*
X126666666Y-38478628D01*
X126666666Y-38478628D02*
X126285714Y-38478628D01*
X127809523Y-38954819D02*
X127238095Y-38954819D01*
X127523809Y-38954819D02*
X127523809Y-37954819D01*
X127523809Y-37954819D02*
X127428571Y-38097676D01*
X127428571Y-38097676D02*
X127333333Y-38192914D01*
X127333333Y-38192914D02*
X127238095Y-38240533D01*
X128666666Y-38288152D02*
X128666666Y-38954819D01*
X128428571Y-37907200D02*
X128190476Y-38621485D01*
X128190476Y-38621485D02*
X128809523Y-38621485D01*
X36386905Y-100494819D02*
X36386905Y-99494819D01*
X36958333Y-100494819D02*
X36529762Y-99923390D01*
X36958333Y-99494819D02*
X36386905Y-100066247D01*
X37910714Y-100494819D02*
X37339286Y-100494819D01*
X37625000Y-100494819D02*
X37625000Y-99494819D01*
X37625000Y-99494819D02*
X37529762Y-99637676D01*
X37529762Y-99637676D02*
X37434524Y-99732914D01*
X37434524Y-99732914D02*
X37339286Y-99780533D01*
X109166667Y-92807200D02*
X109309524Y-92854819D01*
X109309524Y-92854819D02*
X109547619Y-92854819D01*
X109547619Y-92854819D02*
X109642857Y-92807200D01*
X109642857Y-92807200D02*
X109690476Y-92759580D01*
X109690476Y-92759580D02*
X109738095Y-92664342D01*
X109738095Y-92664342D02*
X109738095Y-92569104D01*
X109738095Y-92569104D02*
X109690476Y-92473866D01*
X109690476Y-92473866D02*
X109642857Y-92426247D01*
X109642857Y-92426247D02*
X109547619Y-92378628D01*
X109547619Y-92378628D02*
X109357143Y-92331009D01*
X109357143Y-92331009D02*
X109261905Y-92283390D01*
X109261905Y-92283390D02*
X109214286Y-92235771D01*
X109214286Y-92235771D02*
X109166667Y-92140533D01*
X109166667Y-92140533D02*
X109166667Y-92045295D01*
X109166667Y-92045295D02*
X109214286Y-91950057D01*
X109214286Y-91950057D02*
X109261905Y-91902438D01*
X109261905Y-91902438D02*
X109357143Y-91854819D01*
X109357143Y-91854819D02*
X109595238Y-91854819D01*
X109595238Y-91854819D02*
X109738095Y-91902438D01*
X110071429Y-91854819D02*
X110309524Y-92854819D01*
X110309524Y-92854819D02*
X110500000Y-92140533D01*
X110500000Y-92140533D02*
X110690476Y-92854819D01*
X110690476Y-92854819D02*
X110928572Y-91854819D01*
X111261905Y-91950057D02*
X111309524Y-91902438D01*
X111309524Y-91902438D02*
X111404762Y-91854819D01*
X111404762Y-91854819D02*
X111642857Y-91854819D01*
X111642857Y-91854819D02*
X111738095Y-91902438D01*
X111738095Y-91902438D02*
X111785714Y-91950057D01*
X111785714Y-91950057D02*
X111833333Y-92045295D01*
X111833333Y-92045295D02*
X111833333Y-92140533D01*
X111833333Y-92140533D02*
X111785714Y-92283390D01*
X111785714Y-92283390D02*
X111214286Y-92854819D01*
X111214286Y-92854819D02*
X111833333Y-92854819D01*
X91197142Y-95394819D02*
X90863809Y-94918628D01*
X90625714Y-95394819D02*
X90625714Y-94394819D01*
X90625714Y-94394819D02*
X91006666Y-94394819D01*
X91006666Y-94394819D02*
X91101904Y-94442438D01*
X91101904Y-94442438D02*
X91149523Y-94490057D01*
X91149523Y-94490057D02*
X91197142Y-94585295D01*
X91197142Y-94585295D02*
X91197142Y-94728152D01*
X91197142Y-94728152D02*
X91149523Y-94823390D01*
X91149523Y-94823390D02*
X91101904Y-94871009D01*
X91101904Y-94871009D02*
X91006666Y-94918628D01*
X91006666Y-94918628D02*
X90625714Y-94918628D01*
X92149523Y-95394819D02*
X91578095Y-95394819D01*
X91863809Y-95394819D02*
X91863809Y-94394819D01*
X91863809Y-94394819D02*
X91768571Y-94537676D01*
X91768571Y-94537676D02*
X91673333Y-94632914D01*
X91673333Y-94632914D02*
X91578095Y-94680533D01*
X92530476Y-94490057D02*
X92578095Y-94442438D01*
X92578095Y-94442438D02*
X92673333Y-94394819D01*
X92673333Y-94394819D02*
X92911428Y-94394819D01*
X92911428Y-94394819D02*
X93006666Y-94442438D01*
X93006666Y-94442438D02*
X93054285Y-94490057D01*
X93054285Y-94490057D02*
X93101904Y-94585295D01*
X93101904Y-94585295D02*
X93101904Y-94680533D01*
X93101904Y-94680533D02*
X93054285Y-94823390D01*
X93054285Y-94823390D02*
X92482857Y-95394819D01*
X92482857Y-95394819D02*
X93101904Y-95394819D01*
X91197142Y-100594819D02*
X90863809Y-100118628D01*
X90625714Y-100594819D02*
X90625714Y-99594819D01*
X90625714Y-99594819D02*
X91006666Y-99594819D01*
X91006666Y-99594819D02*
X91101904Y-99642438D01*
X91101904Y-99642438D02*
X91149523Y-99690057D01*
X91149523Y-99690057D02*
X91197142Y-99785295D01*
X91197142Y-99785295D02*
X91197142Y-99928152D01*
X91197142Y-99928152D02*
X91149523Y-100023390D01*
X91149523Y-100023390D02*
X91101904Y-100071009D01*
X91101904Y-100071009D02*
X91006666Y-100118628D01*
X91006666Y-100118628D02*
X90625714Y-100118628D01*
X92149523Y-100594819D02*
X91578095Y-100594819D01*
X91863809Y-100594819D02*
X91863809Y-99594819D01*
X91863809Y-99594819D02*
X91768571Y-99737676D01*
X91768571Y-99737676D02*
X91673333Y-99832914D01*
X91673333Y-99832914D02*
X91578095Y-99880533D01*
X92482857Y-99594819D02*
X93101904Y-99594819D01*
X93101904Y-99594819D02*
X92768571Y-99975771D01*
X92768571Y-99975771D02*
X92911428Y-99975771D01*
X92911428Y-99975771D02*
X93006666Y-100023390D01*
X93006666Y-100023390D02*
X93054285Y-100071009D01*
X93054285Y-100071009D02*
X93101904Y-100166247D01*
X93101904Y-100166247D02*
X93101904Y-100404342D01*
X93101904Y-100404342D02*
X93054285Y-100499580D01*
X93054285Y-100499580D02*
X93006666Y-100547200D01*
X93006666Y-100547200D02*
X92911428Y-100594819D01*
X92911428Y-100594819D02*
X92625714Y-100594819D01*
X92625714Y-100594819D02*
X92530476Y-100547200D01*
X92530476Y-100547200D02*
X92482857Y-100499580D01*
X55333333Y-30554819D02*
X55000000Y-30078628D01*
X54761905Y-30554819D02*
X54761905Y-29554819D01*
X54761905Y-29554819D02*
X55142857Y-29554819D01*
X55142857Y-29554819D02*
X55238095Y-29602438D01*
X55238095Y-29602438D02*
X55285714Y-29650057D01*
X55285714Y-29650057D02*
X55333333Y-29745295D01*
X55333333Y-29745295D02*
X55333333Y-29888152D01*
X55333333Y-29888152D02*
X55285714Y-29983390D01*
X55285714Y-29983390D02*
X55238095Y-30031009D01*
X55238095Y-30031009D02*
X55142857Y-30078628D01*
X55142857Y-30078628D02*
X54761905Y-30078628D01*
X56285714Y-30554819D02*
X55714286Y-30554819D01*
X56000000Y-30554819D02*
X56000000Y-29554819D01*
X56000000Y-29554819D02*
X55904762Y-29697676D01*
X55904762Y-29697676D02*
X55809524Y-29792914D01*
X55809524Y-29792914D02*
X55714286Y-29840533D01*
X55820833Y-93454819D02*
X55487500Y-92978628D01*
X55249405Y-93454819D02*
X55249405Y-92454819D01*
X55249405Y-92454819D02*
X55630357Y-92454819D01*
X55630357Y-92454819D02*
X55725595Y-92502438D01*
X55725595Y-92502438D02*
X55773214Y-92550057D01*
X55773214Y-92550057D02*
X55820833Y-92645295D01*
X55820833Y-92645295D02*
X55820833Y-92788152D01*
X55820833Y-92788152D02*
X55773214Y-92883390D01*
X55773214Y-92883390D02*
X55725595Y-92931009D01*
X55725595Y-92931009D02*
X55630357Y-92978628D01*
X55630357Y-92978628D02*
X55249405Y-92978628D01*
X56392262Y-92883390D02*
X56297024Y-92835771D01*
X56297024Y-92835771D02*
X56249405Y-92788152D01*
X56249405Y-92788152D02*
X56201786Y-92692914D01*
X56201786Y-92692914D02*
X56201786Y-92645295D01*
X56201786Y-92645295D02*
X56249405Y-92550057D01*
X56249405Y-92550057D02*
X56297024Y-92502438D01*
X56297024Y-92502438D02*
X56392262Y-92454819D01*
X56392262Y-92454819D02*
X56582738Y-92454819D01*
X56582738Y-92454819D02*
X56677976Y-92502438D01*
X56677976Y-92502438D02*
X56725595Y-92550057D01*
X56725595Y-92550057D02*
X56773214Y-92645295D01*
X56773214Y-92645295D02*
X56773214Y-92692914D01*
X56773214Y-92692914D02*
X56725595Y-92788152D01*
X56725595Y-92788152D02*
X56677976Y-92835771D01*
X56677976Y-92835771D02*
X56582738Y-92883390D01*
X56582738Y-92883390D02*
X56392262Y-92883390D01*
X56392262Y-92883390D02*
X56297024Y-92931009D01*
X56297024Y-92931009D02*
X56249405Y-92978628D01*
X56249405Y-92978628D02*
X56201786Y-93073866D01*
X56201786Y-93073866D02*
X56201786Y-93264342D01*
X56201786Y-93264342D02*
X56249405Y-93359580D01*
X56249405Y-93359580D02*
X56297024Y-93407200D01*
X56297024Y-93407200D02*
X56392262Y-93454819D01*
X56392262Y-93454819D02*
X56582738Y-93454819D01*
X56582738Y-93454819D02*
X56677976Y-93407200D01*
X56677976Y-93407200D02*
X56725595Y-93359580D01*
X56725595Y-93359580D02*
X56773214Y-93264342D01*
X56773214Y-93264342D02*
X56773214Y-93073866D01*
X56773214Y-93073866D02*
X56725595Y-92978628D01*
X56725595Y-92978628D02*
X56677976Y-92931009D01*
X56677976Y-92931009D02*
X56582738Y-92883390D01*
X47083333Y-32554819D02*
X46750000Y-32078628D01*
X46511905Y-32554819D02*
X46511905Y-31554819D01*
X46511905Y-31554819D02*
X46892857Y-31554819D01*
X46892857Y-31554819D02*
X46988095Y-31602438D01*
X46988095Y-31602438D02*
X47035714Y-31650057D01*
X47035714Y-31650057D02*
X47083333Y-31745295D01*
X47083333Y-31745295D02*
X47083333Y-31888152D01*
X47083333Y-31888152D02*
X47035714Y-31983390D01*
X47035714Y-31983390D02*
X46988095Y-32031009D01*
X46988095Y-32031009D02*
X46892857Y-32078628D01*
X46892857Y-32078628D02*
X46511905Y-32078628D01*
X47988095Y-31554819D02*
X47511905Y-31554819D01*
X47511905Y-31554819D02*
X47464286Y-32031009D01*
X47464286Y-32031009D02*
X47511905Y-31983390D01*
X47511905Y-31983390D02*
X47607143Y-31935771D01*
X47607143Y-31935771D02*
X47845238Y-31935771D01*
X47845238Y-31935771D02*
X47940476Y-31983390D01*
X47940476Y-31983390D02*
X47988095Y-32031009D01*
X47988095Y-32031009D02*
X48035714Y-32126247D01*
X48035714Y-32126247D02*
X48035714Y-32364342D01*
X48035714Y-32364342D02*
X47988095Y-32459580D01*
X47988095Y-32459580D02*
X47940476Y-32507200D01*
X47940476Y-32507200D02*
X47845238Y-32554819D01*
X47845238Y-32554819D02*
X47607143Y-32554819D01*
X47607143Y-32554819D02*
X47511905Y-32507200D01*
X47511905Y-32507200D02*
X47464286Y-32459580D01*
X117166667Y-92807200D02*
X117309524Y-92854819D01*
X117309524Y-92854819D02*
X117547619Y-92854819D01*
X117547619Y-92854819D02*
X117642857Y-92807200D01*
X117642857Y-92807200D02*
X117690476Y-92759580D01*
X117690476Y-92759580D02*
X117738095Y-92664342D01*
X117738095Y-92664342D02*
X117738095Y-92569104D01*
X117738095Y-92569104D02*
X117690476Y-92473866D01*
X117690476Y-92473866D02*
X117642857Y-92426247D01*
X117642857Y-92426247D02*
X117547619Y-92378628D01*
X117547619Y-92378628D02*
X117357143Y-92331009D01*
X117357143Y-92331009D02*
X117261905Y-92283390D01*
X117261905Y-92283390D02*
X117214286Y-92235771D01*
X117214286Y-92235771D02*
X117166667Y-92140533D01*
X117166667Y-92140533D02*
X117166667Y-92045295D01*
X117166667Y-92045295D02*
X117214286Y-91950057D01*
X117214286Y-91950057D02*
X117261905Y-91902438D01*
X117261905Y-91902438D02*
X117357143Y-91854819D01*
X117357143Y-91854819D02*
X117595238Y-91854819D01*
X117595238Y-91854819D02*
X117738095Y-91902438D01*
X118071429Y-91854819D02*
X118309524Y-92854819D01*
X118309524Y-92854819D02*
X118500000Y-92140533D01*
X118500000Y-92140533D02*
X118690476Y-92854819D01*
X118690476Y-92854819D02*
X118928572Y-91854819D01*
X119738095Y-92188152D02*
X119738095Y-92854819D01*
X119500000Y-91807200D02*
X119261905Y-92521485D01*
X119261905Y-92521485D02*
X119880952Y-92521485D01*
X68333333Y-30554819D02*
X68000000Y-30078628D01*
X67761905Y-30554819D02*
X67761905Y-29554819D01*
X67761905Y-29554819D02*
X68142857Y-29554819D01*
X68142857Y-29554819D02*
X68238095Y-29602438D01*
X68238095Y-29602438D02*
X68285714Y-29650057D01*
X68285714Y-29650057D02*
X68333333Y-29745295D01*
X68333333Y-29745295D02*
X68333333Y-29888152D01*
X68333333Y-29888152D02*
X68285714Y-29983390D01*
X68285714Y-29983390D02*
X68238095Y-30031009D01*
X68238095Y-30031009D02*
X68142857Y-30078628D01*
X68142857Y-30078628D02*
X67761905Y-30078628D01*
X69190476Y-29888152D02*
X69190476Y-30554819D01*
X68952381Y-29507200D02*
X68714286Y-30221485D01*
X68714286Y-30221485D02*
X69333333Y-30221485D01*
%TO.C,LED1*%
D15*
X53823002Y-32759998D02*
X53823002Y-30299998D01*
X52353002Y-32759998D02*
X53823002Y-32759998D01*
X52353002Y-30299998D02*
X52353002Y-32759998D01*
%TO.C,LED2*%
X58160502Y-32759998D02*
X58160502Y-30299998D01*
X56690502Y-32759998D02*
X58160502Y-32759998D01*
X56690502Y-30299998D02*
X56690502Y-32759998D01*
%TO.C,LED3*%
X62410502Y-32759998D02*
X62410502Y-30299998D01*
X60940502Y-32759998D02*
X62410502Y-32759998D01*
X60940502Y-30299998D02*
X60940502Y-32759998D01*
%TO.C,LED4*%
X66823002Y-32759998D02*
X66823002Y-30299998D01*
X65353002Y-32759998D02*
X66823002Y-32759998D01*
X65353002Y-30299998D02*
X65353002Y-32759998D01*
%TO.C,I2C1*%
X132320000Y-34645000D02*
X131270000Y-34645000D01*
X132320000Y-32145000D02*
X132320000Y-34645000D01*
X131270000Y-34645000D02*
X131270000Y-35635000D01*
X131150000Y-30175000D02*
X127270000Y-30175000D01*
X126100000Y-34645000D02*
X127150000Y-34645000D01*
X126100000Y-32145000D02*
X126100000Y-34645000D01*
%TO.C,+5V*%
X117340000Y-28680000D02*
X117340000Y-30060000D01*
X115960000Y-28680000D02*
X117340000Y-28680000D01*
X114690000Y-31440000D02*
X106960000Y-31440000D01*
X114690000Y-28680000D02*
X114690000Y-31440000D01*
X114690000Y-28680000D02*
X106960000Y-28680000D01*
X106960000Y-28680000D02*
X106960000Y-31440000D01*
%TO.C,+3V3*%
X152380000Y-96160000D02*
X152380000Y-97540000D01*
X151000000Y-96160000D02*
X152380000Y-96160000D01*
X149730000Y-98920000D02*
X142000000Y-98920000D01*
X149730000Y-96160000D02*
X149730000Y-98920000D01*
X149730000Y-96160000D02*
X142000000Y-96160000D01*
X142000000Y-96160000D02*
X142000000Y-98920000D01*
%TO.C,GND*%
X103160000Y-28680000D02*
X103160000Y-30060000D01*
X101780000Y-28680000D02*
X103160000Y-28680000D01*
X100510000Y-31440000D02*
X92780000Y-31440000D01*
X100510000Y-28680000D02*
X100510000Y-31440000D01*
X100510000Y-28680000D02*
X92780000Y-28680000D01*
X92780000Y-28680000D02*
X92780000Y-31440000D01*
%TO.C,RV1*%
X133360000Y-100021000D02*
X133360000Y-98700000D01*
X133360000Y-100021000D02*
X129423000Y-100021000D01*
X133360000Y-96250000D02*
X133360000Y-95870000D01*
X133360000Y-94129000D02*
X133360000Y-93370000D01*
X133360000Y-91630000D02*
X133360000Y-89980000D01*
X133360000Y-89980000D02*
X129423000Y-89980000D01*
X125056000Y-100021000D02*
X121120000Y-100021000D01*
X125056000Y-89980000D02*
X121120000Y-89980000D01*
X121120000Y-100021000D02*
X121120000Y-89980000D01*
%TO.C,R10*%
X98385276Y-94417500D02*
X98894724Y-94417500D01*
X98385276Y-95462500D02*
X98894724Y-95462500D01*
%TO.C,R2*%
X58592726Y-28077498D02*
X58083278Y-28077498D01*
X58592726Y-29122498D02*
X58083278Y-29122498D01*
%TO.C,J1*%
X132860000Y-44640000D02*
X134240000Y-44640000D01*
X132860000Y-46020000D02*
X132860000Y-44640000D01*
X132860000Y-47290000D02*
X132860000Y-82960000D01*
X132860000Y-47290000D02*
X135620000Y-47290000D01*
X132860000Y-82960000D02*
X135620000Y-82960000D01*
X135620000Y-47290000D02*
X135620000Y-82960000D01*
%TO.C,K2*%
X46750000Y-96790000D02*
X46750000Y-98290000D01*
X48750000Y-100790000D02*
X53250000Y-100790000D01*
X53250000Y-94290000D02*
X48750000Y-94290000D01*
X55250000Y-98290000D02*
X55250000Y-96790000D01*
%TO.C,R6*%
X38782776Y-92477500D02*
X39292224Y-92477500D01*
X38782776Y-93522500D02*
X39292224Y-93522500D01*
%TO.C,D1*%
X38750000Y-27550000D02*
X38750000Y-34100000D01*
X38750000Y-34100000D02*
X39200000Y-34550000D01*
X39200000Y-34550000D02*
X44250000Y-34550000D01*
X40600000Y-28350000D02*
X42400000Y-28350000D01*
X40600000Y-33750000D02*
X42400000Y-33750000D01*
X44250000Y-27550000D02*
X38750000Y-27550000D01*
X44250000Y-27550000D02*
X44250000Y-34550000D01*
%TO.C,J8*%
X76060000Y-96160000D02*
X76060000Y-98920000D01*
X86330000Y-96160000D02*
X76060000Y-96160000D01*
X86330000Y-96160000D02*
X86330000Y-98920000D01*
X86330000Y-98920000D02*
X76060000Y-98920000D01*
X87600000Y-96160000D02*
X88980000Y-96160000D01*
X88980000Y-96160000D02*
X88980000Y-97540000D01*
%TO.C,R9*%
X68407776Y-92477500D02*
X68917224Y-92477500D01*
X68407776Y-93522500D02*
X68917224Y-93522500D01*
%TO.C,SW9*%
X159360000Y-93620000D02*
X160740000Y-93620000D01*
X159360000Y-95000000D02*
X159360000Y-93620000D01*
X159360000Y-96270000D02*
X159360000Y-101460000D01*
X159360000Y-96270000D02*
X162120000Y-96270000D01*
X159360000Y-101460000D02*
X162120000Y-101460000D01*
X162120000Y-96270000D02*
X162120000Y-101460000D01*
%TO.C,BZ1*%
X176140000Y-95000000D02*
G75*
G02*
X163940000Y-95000000I-6100000J0D01*
G01*
X163940000Y-95000000D02*
G75*
G02*
X176140000Y-95000000I6100000J0D01*
G01*
%TO.C,SW3*%
X113120000Y-98810000D02*
X113120000Y-93620000D01*
X115880000Y-93620000D02*
X113120000Y-93620000D01*
X115880000Y-98810000D02*
X113120000Y-98810000D01*
X115880000Y-98810000D02*
X115880000Y-93620000D01*
X115880000Y-100080000D02*
X115880000Y-101460000D01*
X115880000Y-101460000D02*
X114500000Y-101460000D01*
%TO.C,R11*%
X98385276Y-99617500D02*
X98894724Y-99617500D01*
X98385276Y-100662500D02*
X98894724Y-100662500D01*
%TO.C,SW1*%
X105120000Y-98810000D02*
X105120000Y-93620000D01*
X107880000Y-93620000D02*
X105120000Y-93620000D01*
X107880000Y-98810000D02*
X105120000Y-98810000D01*
X107880000Y-98810000D02*
X107880000Y-93620000D01*
X107880000Y-100080000D02*
X107880000Y-101460000D01*
X107880000Y-101460000D02*
X106500000Y-101460000D01*
%TO.C,STATEFUL1*%
X90240000Y-96160000D02*
X90240000Y-98920000D01*
X100510000Y-96160000D02*
X90240000Y-96160000D01*
X100510000Y-96160000D02*
X100510000Y-98920000D01*
X100510000Y-98920000D02*
X90240000Y-98920000D01*
X101780000Y-96160000D02*
X103160000Y-96160000D01*
X103160000Y-96160000D02*
X103160000Y-97540000D01*
%TO.C,C1*%
X46303733Y-28090000D02*
X46596267Y-28090000D01*
X46303733Y-29110000D02*
X46596267Y-29110000D01*
%TO.C,K3*%
X56625000Y-96790000D02*
X56625000Y-98290000D01*
X58625000Y-100790000D02*
X63125000Y-100790000D01*
X63125000Y-94290000D02*
X58625000Y-94290000D01*
X65125000Y-98290000D02*
X65125000Y-96790000D01*
%TO.C,K4*%
X66500000Y-96790000D02*
X66500000Y-98290000D01*
X68500000Y-100790000D02*
X73000000Y-100790000D01*
X73000000Y-94290000D02*
X68500000Y-94290000D01*
X75000000Y-98290000D02*
X75000000Y-96790000D01*
%TO.C,R3*%
X62842726Y-28077498D02*
X62333278Y-28077498D01*
X62842726Y-29122498D02*
X62333278Y-29122498D01*
%TO.C,R16*%
X157217500Y-95657776D02*
X157217500Y-96167224D01*
X158262500Y-95657776D02*
X158262500Y-96167224D01*
%TO.C,LEDs1*%
X76060000Y-28680000D02*
X76060000Y-31440000D01*
X86330000Y-28680000D02*
X76060000Y-28680000D01*
X86330000Y-28680000D02*
X86330000Y-31440000D01*
X86330000Y-31440000D02*
X76060000Y-31440000D01*
X87600000Y-28680000D02*
X88980000Y-28680000D01*
X88980000Y-28680000D02*
X88980000Y-30060000D01*
%TO.C,R7*%
X48657776Y-92477500D02*
X49167224Y-92477500D01*
X48657776Y-93522500D02*
X49167224Y-93522500D01*
%TO.C,R15*%
X130345276Y-36477500D02*
X130854724Y-36477500D01*
X130345276Y-37522500D02*
X130854724Y-37522500D01*
%TO.C,R14*%
X130345276Y-37977500D02*
X130854724Y-37977500D01*
X130345276Y-39022500D02*
X130854724Y-39022500D01*
%TO.C,K1*%
X36875000Y-96790000D02*
X36875000Y-98290000D01*
X38875000Y-100790000D02*
X43375000Y-100790000D01*
X43375000Y-94290000D02*
X38875000Y-94290000D01*
X45375000Y-98290000D02*
X45375000Y-96790000D01*
%TO.C,J4*%
X164910000Y-47290000D02*
X164910000Y-82910000D01*
X164910000Y-47290000D02*
X167570000Y-47290000D01*
X164910000Y-82910000D02*
X167570000Y-82910000D01*
X166240000Y-44690000D02*
X167570000Y-44690000D01*
X167570000Y-44690000D02*
X167570000Y-46020000D01*
X167570000Y-47290000D02*
X167570000Y-82910000D01*
%TO.C,SW2*%
X109120000Y-98810000D02*
X109120000Y-93620000D01*
X111880000Y-93620000D02*
X109120000Y-93620000D01*
X111880000Y-98810000D02*
X109120000Y-98810000D01*
X111880000Y-98810000D02*
X111880000Y-93620000D01*
X111880000Y-100080000D02*
X111880000Y-101460000D01*
X111880000Y-101460000D02*
X110500000Y-101460000D01*
%TO.C,R12*%
X94985276Y-94417500D02*
X95494724Y-94417500D01*
X94985276Y-95462500D02*
X95494724Y-95462500D01*
%TO.C,J3*%
X181620000Y-44640000D02*
X183000000Y-44640000D01*
X181620000Y-46020000D02*
X181620000Y-44640000D01*
X181620000Y-47290000D02*
X181620000Y-82960000D01*
X181620000Y-47290000D02*
X184380000Y-47290000D01*
X181620000Y-82960000D02*
X184380000Y-82960000D01*
X184380000Y-47290000D02*
X184380000Y-82960000D01*
%TO.C,R13*%
X94985276Y-99617500D02*
X95494724Y-99617500D01*
X94985276Y-100662500D02*
X95494724Y-100662500D01*
%TO.C,R1*%
X54255226Y-28077498D02*
X53745778Y-28077498D01*
X54255226Y-29122498D02*
X53745778Y-29122498D01*
%TO.C,R8*%
X58532776Y-92477500D02*
X59042224Y-92477500D01*
X58532776Y-93522500D02*
X59042224Y-93522500D01*
%TO.C,R5*%
X46704724Y-32977500D02*
X46195276Y-32977500D01*
X46704724Y-34022500D02*
X46195276Y-34022500D01*
%TO.C,J2*%
X149670000Y-47290000D02*
X149670000Y-82910000D01*
X149670000Y-47290000D02*
X152330000Y-47290000D01*
X149670000Y-82910000D02*
X152330000Y-82910000D01*
X151000000Y-44690000D02*
X152330000Y-44690000D01*
X152330000Y-44690000D02*
X152330000Y-46020000D01*
X152330000Y-47290000D02*
X152330000Y-82910000D01*
%TO.C,SW4*%
X117120000Y-98810000D02*
X117120000Y-93620000D01*
X119880000Y-93620000D02*
X117120000Y-93620000D01*
X119880000Y-98810000D02*
X117120000Y-98810000D01*
X119880000Y-98810000D02*
X119880000Y-93620000D01*
X119880000Y-100080000D02*
X119880000Y-101460000D01*
X119880000Y-101460000D02*
X118500000Y-101460000D01*
%TO.C,R4*%
X67255226Y-28077498D02*
X66745778Y-28077498D01*
X67255226Y-29122498D02*
X66745778Y-29122498D01*
%TD*%
M02*
