%TF.GenerationSoftware,KiCad,Pcbnew,10.0.3*%
%TF.CreationDate,2026-06-14T16:41:43-04:00*%
%TF.ProjectId,ArdNanoESP32_DevBoard,4172644e-616e-46f4-9553-5033325f4465,rev?*%
%TF.SameCoordinates,Original*%
%TF.FileFunction,Soldermask,Top*%
%TF.FilePolarity,Negative*%
%FSLAX46Y46*%
G04 Gerber Fmt 4.6, Leading zero omitted, Abs format (unit mm)*
G04 Created by KiCad (PCBNEW 10.0.3) date 2026-06-14 16:41:43*
%MOMM*%
%LPD*%
G01*
G04 APERTURE LIST*
G04 Aperture macros list*
%AMRoundRect*
0 Rectangle with rounded corners*
0 $1 Rounding radius*
0 $2 $3 $4 $5 $6 $7 $8 $9 X,Y pos of 4 corners*
0 Add a 4 corners polygon primitive as box body*
4,1,4,$2,$3,$4,$5,$6,$7,$8,$9,$2,$3,0*
0 Add four circle primitives for the rounded corners*
1,1,$1+$1,$2,$3*
1,1,$1+$1,$4,$5*
1,1,$1+$1,$6,$7*
1,1,$1+$1,$8,$9*
0 Add four rect primitives between the rounded corners*
20,1,$1+$1,$2,$3,$4,$5,0*
20,1,$1+$1,$4,$5,$6,$7,0*
20,1,$1+$1,$6,$7,$8,$9,0*
20,1,$1+$1,$8,$9,$2,$3,0*%
G04 Aperture macros list end*
%ADD10RoundRect,0.237500X0.237500X-0.287500X0.237500X0.287500X-0.237500X0.287500X-0.237500X-0.287500X0*%
%ADD11RoundRect,0.250000X0.350000X0.650000X-0.350000X0.650000X-0.350000X-0.650000X0.350000X-0.650000X0*%
%ADD12RoundRect,0.150000X0.150000X0.625000X-0.150000X0.625000X-0.150000X-0.625000X0.150000X-0.625000X0*%
%ADD13C,1.700000*%
%ADD14R,1.700000X1.700000*%
%ADD15RoundRect,0.750000X1.250000X0.750000X-1.250000X0.750000X-1.250000X-0.750000X1.250000X-0.750000X0*%
%ADD16C,1.800000*%
%ADD17R,1.800000X1.800000*%
%ADD18RoundRect,0.237500X-0.250000X-0.237500X0.250000X-0.237500X0.250000X0.237500X-0.250000X0.237500X0*%
%ADD19RoundRect,0.237500X0.250000X0.237500X-0.250000X0.237500X-0.250000X-0.237500X0.250000X-0.237500X0*%
%ADD20C,2.000000*%
%ADD21RoundRect,0.090000X-0.360000X0.660000X-0.360000X-0.660000X0.360000X-0.660000X0.360000X0.660000X0*%
%ADD22R,2.000000X2.000000*%
%ADD23RoundRect,0.237500X-0.300000X-0.237500X0.300000X-0.237500X0.300000X0.237500X-0.300000X0.237500X0*%
%ADD24RoundRect,0.237500X-0.237500X0.250000X-0.237500X-0.250000X0.237500X-0.250000X0.237500X0.250000X0*%
%ADD25C,6.400000*%
G04 APERTURE END LIST*
D10*
%TO.C,LED1*%
X53088002Y-30224998D03*
X53088002Y-31974998D03*
%TD*%
%TO.C,LED2*%
X57425502Y-30224998D03*
X57425502Y-31974998D03*
%TD*%
%TO.C,LED3*%
X61675502Y-30224998D03*
X61675502Y-31974998D03*
%TD*%
%TO.C,LED4*%
X66088002Y-30224998D03*
X66088002Y-31974998D03*
%TD*%
D11*
%TO.C,I2C1*%
X126410000Y-30985000D03*
X132010000Y-30985000D03*
D12*
X127710000Y-34860000D03*
X128710000Y-34860000D03*
X129710000Y-34860000D03*
X130710000Y-34860000D03*
%TD*%
D13*
%TO.C,+5V*%
X108340000Y-30060000D03*
X110880000Y-30060000D03*
X113420000Y-30060000D03*
D14*
X115960000Y-30060000D03*
%TD*%
D13*
%TO.C,+3V3*%
X143380000Y-97540000D03*
X145920000Y-97540000D03*
X148460000Y-97540000D03*
D14*
X151000000Y-97540000D03*
%TD*%
D13*
%TO.C,GND*%
X94160000Y-30060000D03*
X96700000Y-30060000D03*
X99240000Y-30060000D03*
D14*
X101780000Y-30060000D03*
%TD*%
D15*
%TO.C,RV1*%
X127240000Y-90600000D03*
X127240000Y-99400000D03*
D16*
X134240000Y-92500000D03*
X134240000Y-95000000D03*
D17*
X134240000Y-97500000D03*
%TD*%
D18*
%TO.C,R10*%
X97727500Y-94940000D03*
X99552500Y-94940000D03*
%TD*%
D19*
%TO.C,R2*%
X59250502Y-28599998D03*
X57425502Y-28599998D03*
%TD*%
D14*
%TO.C,J1*%
X134240000Y-46020000D03*
D13*
X134240000Y-48560000D03*
X134240000Y-51100000D03*
X134240000Y-53640000D03*
X134240000Y-56180000D03*
X134240000Y-58720000D03*
X134240000Y-61260000D03*
X134240000Y-63800000D03*
X134240000Y-66340000D03*
X134240000Y-68880000D03*
X134240000Y-71420000D03*
X134240000Y-73960000D03*
X134240000Y-76500000D03*
X134240000Y-79040000D03*
X134240000Y-81580000D03*
%TD*%
D20*
%TO.C,K2*%
X54000000Y-97540000D03*
X48000000Y-97540000D03*
%TD*%
D18*
%TO.C,R6*%
X38125000Y-93000000D03*
X39950000Y-93000000D03*
%TD*%
D21*
%TO.C,D1*%
X43150000Y-28600000D03*
X39850000Y-28600000D03*
X39850000Y-33500000D03*
X43150000Y-33500000D03*
%TD*%
D14*
%TO.C,J8*%
X87600000Y-97540000D03*
D13*
X85060000Y-97540000D03*
X82520000Y-97540000D03*
X79980000Y-97540000D03*
X77440000Y-97540000D03*
%TD*%
D18*
%TO.C,R9*%
X67750000Y-93000000D03*
X69575000Y-93000000D03*
%TD*%
D14*
%TO.C,SW9*%
X160740000Y-95000000D03*
D13*
X160740000Y-97540000D03*
X160740000Y-100080000D03*
%TD*%
D22*
%TO.C,BZ1*%
X166240000Y-95000000D03*
D20*
X173840000Y-95000000D03*
%TD*%
D14*
%TO.C,SW3*%
X114500000Y-100080000D03*
D13*
X114500000Y-97540000D03*
X114500000Y-95000000D03*
%TD*%
D18*
%TO.C,R11*%
X97727500Y-100140000D03*
X99552500Y-100140000D03*
%TD*%
D14*
%TO.C,SW1*%
X106500000Y-100080000D03*
D13*
X106500000Y-97540000D03*
X106500000Y-95000000D03*
%TD*%
D14*
%TO.C,STATEFUL1*%
X101780000Y-97540000D03*
D13*
X99240000Y-97540000D03*
X96700000Y-97540000D03*
X94160000Y-97540000D03*
X91620000Y-97540000D03*
%TD*%
D23*
%TO.C,C1*%
X45587500Y-28600000D03*
X47312500Y-28600000D03*
%TD*%
D20*
%TO.C,K3*%
X63875000Y-97540000D03*
X57875000Y-97540000D03*
%TD*%
%TO.C,K4*%
X73750000Y-97540000D03*
X67750000Y-97540000D03*
%TD*%
D19*
%TO.C,R3*%
X63500502Y-28599998D03*
X61675502Y-28599998D03*
%TD*%
D24*
%TO.C,R16*%
X157740000Y-95000000D03*
X157740000Y-96825000D03*
%TD*%
D14*
%TO.C,LEDs1*%
X87600000Y-30060000D03*
D13*
X85060000Y-30060000D03*
X82520000Y-30060000D03*
X79980000Y-30060000D03*
X77440000Y-30060000D03*
%TD*%
D18*
%TO.C,R7*%
X48000000Y-93000000D03*
X49825000Y-93000000D03*
%TD*%
%TO.C,R15*%
X129687500Y-37000000D03*
X131512500Y-37000000D03*
%TD*%
D25*
%TO.C,*%
X30000000Y-97600000D03*
%TD*%
D18*
%TO.C,R14*%
X129687500Y-38500000D03*
X131512500Y-38500000D03*
%TD*%
D20*
%TO.C,K1*%
X44125000Y-97540000D03*
X38125000Y-97540000D03*
%TD*%
D14*
%TO.C,J4*%
X166240000Y-46020000D03*
D13*
X166240000Y-48560000D03*
X166240000Y-51100000D03*
X166240000Y-53640000D03*
X166240000Y-56180000D03*
X166240000Y-58720000D03*
X166240000Y-61260000D03*
X166240000Y-63800000D03*
X166240000Y-66340000D03*
X166240000Y-68880000D03*
X166240000Y-71420000D03*
X166240000Y-73960000D03*
X166240000Y-76500000D03*
X166240000Y-79040000D03*
X166240000Y-81580000D03*
%TD*%
D14*
%TO.C,SW2*%
X110500000Y-100080000D03*
D13*
X110500000Y-97540000D03*
X110500000Y-95000000D03*
%TD*%
D18*
%TO.C,R12*%
X94327500Y-94940000D03*
X96152500Y-94940000D03*
%TD*%
D14*
%TO.C,J3*%
X183000000Y-46020000D03*
D13*
X183000000Y-48560000D03*
X183000000Y-51100000D03*
X183000000Y-53640000D03*
X183000000Y-56180000D03*
X183000000Y-58720000D03*
X183000000Y-61260000D03*
X183000000Y-63800000D03*
X183000000Y-66340000D03*
X183000000Y-68880000D03*
X183000000Y-71420000D03*
X183000000Y-73960000D03*
X183000000Y-76500000D03*
X183000000Y-79040000D03*
X183000000Y-81580000D03*
%TD*%
D25*
%TO.C,*%
X183000000Y-97600000D03*
%TD*%
D18*
%TO.C,R13*%
X94327500Y-100140000D03*
X96152500Y-100140000D03*
%TD*%
D19*
%TO.C,R1*%
X54913002Y-28599998D03*
X53088002Y-28599998D03*
%TD*%
D18*
%TO.C,R8*%
X57875000Y-93000000D03*
X59700000Y-93000000D03*
%TD*%
D25*
%TO.C,REF\u002A\u002A*%
X30000000Y-30000000D03*
%TD*%
D19*
%TO.C,R5*%
X47362500Y-33500000D03*
X45537500Y-33500000D03*
%TD*%
D25*
%TO.C,*%
X183000000Y-30000000D03*
%TD*%
D14*
%TO.C,J2*%
X151000000Y-46020000D03*
D13*
X151000000Y-48560000D03*
X151000000Y-51100000D03*
X151000000Y-53640000D03*
X151000000Y-56180000D03*
X151000000Y-58720000D03*
X151000000Y-61260000D03*
X151000000Y-63800000D03*
X151000000Y-66340000D03*
X151000000Y-68880000D03*
X151000000Y-71420000D03*
X151000000Y-73960000D03*
X151000000Y-76500000D03*
X151000000Y-79040000D03*
X151000000Y-81580000D03*
%TD*%
D14*
%TO.C,SW4*%
X118500000Y-100080000D03*
D13*
X118500000Y-97540000D03*
X118500000Y-95000000D03*
%TD*%
D19*
%TO.C,R4*%
X67913002Y-28599998D03*
X66088002Y-28599998D03*
%TD*%
M02*
