M48
; DRILL file KiCad 10.0.3 date 2026-06-14T16:42:37
; FORMAT={-:-/ absolute / metric / decimal}
; #@! TF.CreationDate,2026-06-14T16:42:37-04:00
; #@! TF.GenerationSoftware,Kicad,Pcbnew,10.0.3
; #@! TF.FileFunction,Plated,1,2,PTH
FMAT,2
METRIC
; #@! TA.AperFunction,Plated,PTH,ViaDrill
T1C0.300
; #@! TA.AperFunction,Plated,PTH,ViaDrill
T2C0.400
; #@! TA.AperFunction,Plated,PTH,ComponentDrill
T3C1.000
; #@! TA.AperFunction,Plated,PTH,ComponentDrill
T4C1.100
; #@! TA.AperFunction,Plated,PTH,ComponentDrill
T5C1.800
; #@! TA.AperFunction,Plated,PTH,ComponentDrill
T6C3.200
%
G90
G05
T1
X96.93Y-99.13
X112.5Y-98.8
T2
X51.2Y-33.5
X52.0Y-35.3
X121.2Y-35.3
X121.2Y-60.92
X131.5Y-59.68
X131.5Y-84.3
X137.0Y-86.0
X139.0Y-88.0
T3
X77.44Y-30.06
X77.44Y-97.54
X79.98Y-30.06
X79.98Y-97.54
X82.52Y-30.06
X82.52Y-97.54
X85.06Y-30.06
X85.06Y-97.54
X87.6Y-30.06
X87.6Y-97.54
X91.62Y-97.54
X94.16Y-30.06
X94.16Y-97.54
X96.7Y-30.06
X96.7Y-97.54
X99.24Y-30.06
X99.24Y-97.54
X101.78Y-30.06
X101.78Y-97.54
X106.5Y-95.0
X106.5Y-97.54
X106.5Y-100.08
X108.34Y-30.06
X110.5Y-95.0
X110.5Y-97.54
X110.5Y-100.08
X110.88Y-30.06
X113.42Y-30.06
X114.5Y-95.0
X114.5Y-97.54
X114.5Y-100.08
X115.96Y-30.06
X118.5Y-95.0
X118.5Y-97.54
X118.5Y-100.08
X134.24Y-46.02
X134.24Y-48.56
X134.24Y-51.1
X134.24Y-53.64
X134.24Y-56.18
X134.24Y-58.72
X134.24Y-61.26
X134.24Y-63.8
X134.24Y-66.34
X134.24Y-68.88
X134.24Y-71.42
X134.24Y-73.96
X134.24Y-76.5
X134.24Y-79.04
X134.24Y-81.58
X134.24Y-92.5
X134.24Y-95.0
X134.24Y-97.5
X143.38Y-97.54
X145.92Y-97.54
X148.46Y-97.54
X151.0Y-46.02
X151.0Y-48.56
X151.0Y-51.1
X151.0Y-53.64
X151.0Y-56.18
X151.0Y-58.72
X151.0Y-61.26
X151.0Y-63.8
X151.0Y-66.34
X151.0Y-68.88
X151.0Y-71.42
X151.0Y-73.96
X151.0Y-76.5
X151.0Y-79.04
X151.0Y-81.58
X151.0Y-97.54
X160.74Y-95.0
X160.74Y-97.54
X160.74Y-100.08
X166.24Y-46.02
X166.24Y-48.56
X166.24Y-51.1
X166.24Y-53.64
X166.24Y-56.18
X166.24Y-58.72
X166.24Y-61.26
X166.24Y-63.8
X166.24Y-66.34
X166.24Y-68.88
X166.24Y-71.42
X166.24Y-73.96
X166.24Y-76.5
X166.24Y-79.04
X166.24Y-81.58
X166.24Y-95.0
X173.84Y-95.0
X183.0Y-46.02
X183.0Y-48.56
X183.0Y-51.1
X183.0Y-53.64
X183.0Y-56.18
X183.0Y-58.72
X183.0Y-61.26
X183.0Y-63.8
X183.0Y-66.34
X183.0Y-68.88
X183.0Y-71.42
X183.0Y-73.96
X183.0Y-76.5
X183.0Y-79.04
X183.0Y-81.58
T4
X38.125Y-97.54
X44.125Y-97.54
X48.0Y-97.54
X54.0Y-97.54
X57.875Y-97.54
X63.875Y-97.54
X67.75Y-97.54
X73.75Y-97.54
T6
X30.0Y-30.0
X30.0Y-97.6
X183.0Y-30.0
X183.0Y-97.6
T5
G00X127.39Y-90.6
M15
G01X127.09Y-90.6
M16
G05
G00X127.39Y-99.4
M15
G01X127.09Y-99.4
M16
G05
M30
