%TF.GenerationSoftware,KiCad,Pcbnew,10.0.3*%
%TF.CreationDate,2026-06-14T16:41:43-04:00*%
%TF.ProjectId,ArdNanoESP32_DevBoard,4172644e-616e-46f4-9553-5033325f4465,rev?*%
%TF.SameCoordinates,Original*%
%TF.FileFunction,Soldermask,Bot*%
%TF.FilePolarity,Negative*%
%FSLAX46Y46*%
G04 Gerber Fmt 4.6, Leading zero omitted, Abs format (unit mm)*
G04 Created by KiCad (PCBNEW 10.0.3) date 2026-06-14 16:41:43*
%MOMM*%
%LPD*%
G01*
G04 APERTURE LIST*
G04 Aperture macros list*
%AMRoundRect*
0 Rectangle with rounded corners*
0 $1 Rounding radius*
0 $2 $3 $4 $5 $6 $7 $8 $9 X,Y pos of 4 corners*
0 Add a 4 corners polygon primitive as box body*
4,1,4,$2,$3,$4,$5,$6,$7,$8,$9,$2,$3,0*
0 Add four circle primitives for the rounded corners*
1,1,$1+$1,$2,$3*
1,1,$1+$1,$4,$5*
1,1,$1+$1,$6,$7*
1,1,$1+$1,$8,$9*
0 Add four rect primitives between the rounded corners*
20,1,$1+$1,$2,$3,$4,$5,0*
20,1,$1+$1,$4,$5,$6,$7,0*
20,1,$1+$1,$6,$7,$8,$9,0*
20,1,$1+$1,$8,$9,$2,$3,0*%
G04 Aperture macros list end*
%ADD10C,1.700000*%
%ADD11R,1.700000X1.700000*%
%ADD12RoundRect,0.750000X1.250000X0.750000X-1.250000X0.750000X-1.250000X-0.750000X1.250000X-0.750000X0*%
%ADD13C,1.800000*%
%ADD14R,1.800000X1.800000*%
%ADD15C,2.000000*%
%ADD16R,2.000000X2.000000*%
%ADD17C,6.400000*%
G04 APERTURE END LIST*
D10*
%TO.C,+5V*%
X108340000Y-30060000D03*
X110880000Y-30060000D03*
X113420000Y-30060000D03*
D11*
X115960000Y-30060000D03*
%TD*%
D10*
%TO.C,+3V3*%
X143380000Y-97540000D03*
X145920000Y-97540000D03*
X148460000Y-97540000D03*
D11*
X151000000Y-97540000D03*
%TD*%
D10*
%TO.C,GND*%
X94160000Y-30060000D03*
X96700000Y-30060000D03*
X99240000Y-30060000D03*
D11*
X101780000Y-30060000D03*
%TD*%
D12*
%TO.C,RV1*%
X127240000Y-90600000D03*
X127240000Y-99400000D03*
D13*
X134240000Y-92500000D03*
X134240000Y-95000000D03*
D14*
X134240000Y-97500000D03*
%TD*%
D11*
%TO.C,J1*%
X134240000Y-46020000D03*
D10*
X134240000Y-48560000D03*
X134240000Y-51100000D03*
X134240000Y-53640000D03*
X134240000Y-56180000D03*
X134240000Y-58720000D03*
X134240000Y-61260000D03*
X134240000Y-63800000D03*
X134240000Y-66340000D03*
X134240000Y-68880000D03*
X134240000Y-71420000D03*
X134240000Y-73960000D03*
X134240000Y-76500000D03*
X134240000Y-79040000D03*
X134240000Y-81580000D03*
%TD*%
D15*
%TO.C,K2*%
X54000000Y-97540000D03*
X48000000Y-97540000D03*
%TD*%
D11*
%TO.C,J8*%
X87600000Y-97540000D03*
D10*
X85060000Y-97540000D03*
X82520000Y-97540000D03*
X79980000Y-97540000D03*
X77440000Y-97540000D03*
%TD*%
D11*
%TO.C,SW9*%
X160740000Y-95000000D03*
D10*
X160740000Y-97540000D03*
X160740000Y-100080000D03*
%TD*%
D16*
%TO.C,BZ1*%
X166240000Y-95000000D03*
D15*
X173840000Y-95000000D03*
%TD*%
D11*
%TO.C,SW3*%
X114500000Y-100080000D03*
D10*
X114500000Y-97540000D03*
X114500000Y-95000000D03*
%TD*%
D11*
%TO.C,SW1*%
X106500000Y-100080000D03*
D10*
X106500000Y-97540000D03*
X106500000Y-95000000D03*
%TD*%
D11*
%TO.C,STATEFUL1*%
X101780000Y-97540000D03*
D10*
X99240000Y-97540000D03*
X96700000Y-97540000D03*
X94160000Y-97540000D03*
X91620000Y-97540000D03*
%TD*%
D15*
%TO.C,K3*%
X63875000Y-97540000D03*
X57875000Y-97540000D03*
%TD*%
%TO.C,K4*%
X73750000Y-97540000D03*
X67750000Y-97540000D03*
%TD*%
D11*
%TO.C,LEDs1*%
X87600000Y-30060000D03*
D10*
X85060000Y-30060000D03*
X82520000Y-30060000D03*
X79980000Y-30060000D03*
X77440000Y-30060000D03*
%TD*%
D17*
%TO.C,*%
X30000000Y-97600000D03*
%TD*%
D15*
%TO.C,K1*%
X44125000Y-97540000D03*
X38125000Y-97540000D03*
%TD*%
D11*
%TO.C,J4*%
X166240000Y-46020000D03*
D10*
X166240000Y-48560000D03*
X166240000Y-51100000D03*
X166240000Y-53640000D03*
X166240000Y-56180000D03*
X166240000Y-58720000D03*
X166240000Y-61260000D03*
X166240000Y-63800000D03*
X166240000Y-66340000D03*
X166240000Y-68880000D03*
X166240000Y-71420000D03*
X166240000Y-73960000D03*
X166240000Y-76500000D03*
X166240000Y-79040000D03*
X166240000Y-81580000D03*
%TD*%
D11*
%TO.C,SW2*%
X110500000Y-100080000D03*
D10*
X110500000Y-97540000D03*
X110500000Y-95000000D03*
%TD*%
D11*
%TO.C,J3*%
X183000000Y-46020000D03*
D10*
X183000000Y-48560000D03*
X183000000Y-51100000D03*
X183000000Y-53640000D03*
X183000000Y-56180000D03*
X183000000Y-58720000D03*
X183000000Y-61260000D03*
X183000000Y-63800000D03*
X183000000Y-66340000D03*
X183000000Y-68880000D03*
X183000000Y-71420000D03*
X183000000Y-73960000D03*
X183000000Y-76500000D03*
X183000000Y-79040000D03*
X183000000Y-81580000D03*
%TD*%
D17*
%TO.C,*%
X183000000Y-97600000D03*
%TD*%
%TO.C,REF\u002A\u002A*%
X30000000Y-30000000D03*
%TD*%
%TO.C,*%
X183000000Y-30000000D03*
%TD*%
D11*
%TO.C,J2*%
X151000000Y-46020000D03*
D10*
X151000000Y-48560000D03*
X151000000Y-51100000D03*
X151000000Y-53640000D03*
X151000000Y-56180000D03*
X151000000Y-58720000D03*
X151000000Y-61260000D03*
X151000000Y-63800000D03*
X151000000Y-66340000D03*
X151000000Y-68880000D03*
X151000000Y-71420000D03*
X151000000Y-73960000D03*
X151000000Y-76500000D03*
X151000000Y-79040000D03*
X151000000Y-81580000D03*
%TD*%
D11*
%TO.C,SW4*%
X118500000Y-100080000D03*
D10*
X118500000Y-97540000D03*
X118500000Y-95000000D03*
%TD*%
M02*
