%TF.GenerationSoftware,KiCad,Pcbnew,10.0.3*%
%TF.CreationDate,2026-06-14T16:41:43-04:00*%
%TF.ProjectId,ArdNanoESP32_DevBoard,4172644e-616e-46f4-9553-5033325f4465,rev?*%
%TF.SameCoordinates,Original*%
%TF.FileFunction,Copper,L1,Top*%
%TF.FilePolarity,Positive*%
%FSLAX46Y46*%
G04 Gerber Fmt 4.6, Leading zero omitted, Abs format (unit mm)*
G04 Created by KiCad (PCBNEW 10.0.3) date 2026-06-14 16:41:43*
%MOMM*%
%LPD*%
G01*
G04 APERTURE LIST*
G04 Aperture macros list*
%AMRoundRect*
0 Rectangle with rounded corners*
0 $1 Rounding radius*
0 $2 $3 $4 $5 $6 $7 $8 $9 X,Y pos of 4 corners*
0 Add a 4 corners polygon primitive as box body*
4,1,4,$2,$3,$4,$5,$6,$7,$8,$9,$2,$3,0*
0 Add four circle primitives for the rounded corners*
1,1,$1+$1,$2,$3*
1,1,$1+$1,$4,$5*
1,1,$1+$1,$6,$7*
1,1,$1+$1,$8,$9*
0 Add four rect primitives between the rounded corners*
20,1,$1+$1,$2,$3,$4,$5,0*
20,1,$1+$1,$4,$5,$6,$7,0*
20,1,$1+$1,$6,$7,$8,$9,0*
20,1,$1+$1,$8,$9,$2,$3,0*%
G04 Aperture macros list end*
%TA.AperFunction,SMDPad,CuDef*%
%ADD10RoundRect,0.237500X0.237500X-0.287500X0.237500X0.287500X-0.237500X0.287500X-0.237500X-0.287500X0*%
%TD*%
%TA.AperFunction,SMDPad,CuDef*%
%ADD11RoundRect,0.250000X0.350000X0.650000X-0.350000X0.650000X-0.350000X-0.650000X0.350000X-0.650000X0*%
%TD*%
%TA.AperFunction,SMDPad,CuDef*%
%ADD12RoundRect,0.150000X0.150000X0.625000X-0.150000X0.625000X-0.150000X-0.625000X0.150000X-0.625000X0*%
%TD*%
%TA.AperFunction,ComponentPad*%
%ADD13C,1.700000*%
%TD*%
%TA.AperFunction,ComponentPad*%
%ADD14R,1.700000X1.700000*%
%TD*%
%TA.AperFunction,ComponentPad*%
%ADD15RoundRect,0.750000X1.250000X0.750000X-1.250000X0.750000X-1.250000X-0.750000X1.250000X-0.750000X0*%
%TD*%
%TA.AperFunction,ComponentPad*%
%ADD16C,1.800000*%
%TD*%
%TA.AperFunction,ComponentPad*%
%ADD17R,1.800000X1.800000*%
%TD*%
%TA.AperFunction,SMDPad,CuDef*%
%ADD18RoundRect,0.237500X-0.250000X-0.237500X0.250000X-0.237500X0.250000X0.237500X-0.250000X0.237500X0*%
%TD*%
%TA.AperFunction,SMDPad,CuDef*%
%ADD19RoundRect,0.237500X0.250000X0.237500X-0.250000X0.237500X-0.250000X-0.237500X0.250000X-0.237500X0*%
%TD*%
%TA.AperFunction,ComponentPad*%
%ADD20C,2.000000*%
%TD*%
%TA.AperFunction,SMDPad,CuDef*%
%ADD21RoundRect,0.090000X-0.360000X0.660000X-0.360000X-0.660000X0.360000X-0.660000X0.360000X0.660000X0*%
%TD*%
%TA.AperFunction,ComponentPad*%
%ADD22R,2.000000X2.000000*%
%TD*%
%TA.AperFunction,SMDPad,CuDef*%
%ADD23RoundRect,0.237500X-0.300000X-0.237500X0.300000X-0.237500X0.300000X0.237500X-0.300000X0.237500X0*%
%TD*%
%TA.AperFunction,SMDPad,CuDef*%
%ADD24RoundRect,0.237500X-0.237500X0.250000X-0.237500X-0.250000X0.237500X-0.250000X0.237500X0.250000X0*%
%TD*%
%TA.AperFunction,ComponentPad*%
%ADD25C,6.400000*%
%TD*%
%TA.AperFunction,ViaPad*%
%ADD26C,0.800000*%
%TD*%
%TA.AperFunction,ViaPad*%
%ADD27C,0.600000*%
%TD*%
%TA.AperFunction,Conductor*%
%ADD28C,0.250000*%
%TD*%
%TA.AperFunction,Conductor*%
%ADD29C,0.500000*%
%TD*%
G04 APERTURE END LIST*
D10*
%TO.P,LED1,2,A_2*%
%TO.N,/Peripherals/LED1_ANODE*%
X53088002Y-30224998D03*
%TO.P,LED1,1,K_1*%
%TO.N,GND*%
X53088002Y-31974998D03*
%TD*%
%TO.P,LED2,2,A_2*%
%TO.N,/Peripherals/LED2_ANODE*%
X57425502Y-30224998D03*
%TO.P,LED2,1,K_1*%
%TO.N,GND*%
X57425502Y-31974998D03*
%TD*%
%TO.P,LED3,2,A_2*%
%TO.N,/Peripherals/LED3_ANODE*%
X61675502Y-30224998D03*
%TO.P,LED3,1,K_1*%
%TO.N,GND*%
X61675502Y-31974998D03*
%TD*%
%TO.P,LED4,2,A_2*%
%TO.N,/Peripherals/LED4_ANODE*%
X66088002Y-30224998D03*
%TO.P,LED4,1,K_1*%
%TO.N,GND*%
X66088002Y-31974998D03*
%TD*%
D11*
%TO.P,I2C1,MP*%
%TO.N,N/C*%
X126410000Y-30985000D03*
X132010000Y-30985000D03*
D12*
%TO.P,I2C1,4,Pin_4_4*%
%TO.N,A5*%
X127710000Y-34860000D03*
%TO.P,I2C1,3,Pin_3_3*%
%TO.N,A4*%
X128710000Y-34860000D03*
%TO.P,I2C1,2,Pin_2_2*%
%TO.N,3V3*%
X129710000Y-34860000D03*
%TO.P,I2C1,1,Pin_1_1*%
%TO.N,GND*%
X130710000Y-34860000D03*
%TD*%
D13*
%TO.P,+5V,4,Pin_4_4*%
%TO.N,VUSB*%
X108340000Y-30060000D03*
%TO.P,+5V,3,Pin_3_3*%
X110880000Y-30060000D03*
%TO.P,+5V,2,Pin_2_2*%
X113420000Y-30060000D03*
D14*
%TO.P,+5V,1,Pin_1_1*%
X115960000Y-30060000D03*
%TD*%
D13*
%TO.P,+3V3,4,Pin_4_4*%
%TO.N,3V3*%
X143380000Y-97540000D03*
%TO.P,+3V3,3,Pin_3_3*%
X145920000Y-97540000D03*
%TO.P,+3V3,2,Pin_2_2*%
X148460000Y-97540000D03*
D14*
%TO.P,+3V3,1,Pin_1_1*%
X151000000Y-97540000D03*
%TD*%
D13*
%TO.P,GND,4,Pin_4_4*%
%TO.N,GND*%
X94160000Y-30060000D03*
%TO.P,GND,3,Pin_3_3*%
X96700000Y-30060000D03*
%TO.P,GND,2,Pin_2_2*%
X99240000Y-30060000D03*
D14*
%TO.P,GND,1,Pin_1_1*%
X101780000Y-30060000D03*
%TD*%
D15*
%TO.P,RV1,MP*%
%TO.N,N/C*%
X127240000Y-90600000D03*
X127240000Y-99400000D03*
D16*
%TO.P,RV1,3,3_3*%
%TO.N,GND*%
X134240000Y-92500000D03*
%TO.P,RV1,2,2_2*%
%TO.N,/Peripherals/POT*%
X134240000Y-95000000D03*
D17*
%TO.P,RV1,1,1_1*%
%TO.N,3V3*%
X134240000Y-97500000D03*
%TD*%
D18*
%TO.P,R10,1*%
%TO.N,/Peripherals/ST1*%
X97727500Y-94940000D03*
%TO.P,R10,2*%
%TO.N,/Peripherals/SW1_COM*%
X99552500Y-94940000D03*
%TD*%
D19*
%TO.P,R2,1*%
%TO.N,/Peripherals/LED2*%
X59250502Y-28599998D03*
%TO.P,R2,2*%
%TO.N,/Peripherals/LED2_ANODE*%
X57425502Y-28599998D03*
%TD*%
D14*
%TO.P,J1,1,Pin_1_1*%
%TO.N,/MCU_Pins_Sockets/D13*%
X134240000Y-46020000D03*
D13*
%TO.P,J1,2,Pin_2_2*%
%TO.N,3V3*%
X134240000Y-48560000D03*
%TO.P,J1,3,Pin_3_3*%
%TO.N,/MCU_Pins_Sockets/B0*%
X134240000Y-51100000D03*
%TO.P,J1,4,Pin_4_4*%
%TO.N,/MCU_Pins_Sockets/A0*%
X134240000Y-53640000D03*
%TO.P,J1,5,Pin_5_5*%
%TO.N,/MCU_Pins_Sockets/A1*%
X134240000Y-56180000D03*
%TO.P,J1,6,Pin_6_6*%
%TO.N,/MCU_Pins_Sockets/A2*%
X134240000Y-58720000D03*
%TO.P,J1,7,Pin_7_7*%
%TO.N,/MCU_Pins_Sockets/A3*%
X134240000Y-61260000D03*
%TO.P,J1,8,Pin_8_8*%
%TO.N,A4*%
X134240000Y-63800000D03*
%TO.P,J1,9,Pin_9_9*%
%TO.N,A5*%
X134240000Y-66340000D03*
%TO.P,J1,10,Pin_10_10*%
%TO.N,/MCU_Pins_Sockets/A6*%
X134240000Y-68880000D03*
%TO.P,J1,11,Pin_11_11*%
%TO.N,/MCU_Pins_Sockets/A7*%
X134240000Y-71420000D03*
%TO.P,J1,12,Pin_12_12*%
%TO.N,VUSB*%
X134240000Y-73960000D03*
%TO.P,J1,13,Pin_13_13*%
%TO.N,/MCU_Pins_Sockets/B1*%
X134240000Y-76500000D03*
%TO.P,J1,14,Pin_14_14*%
%TO.N,GND*%
X134240000Y-79040000D03*
%TO.P,J1,15,Pin_15_15*%
%TO.N,/MCU_Pins_Sockets/VIN*%
X134240000Y-81580000D03*
%TD*%
D20*
%TO.P,K2,1,1_1*%
%TO.N,3V3*%
X54000000Y-97540000D03*
%TO.P,K2,2,2_2*%
%TO.N,/Peripherals/K2*%
X48000000Y-97540000D03*
%TD*%
D18*
%TO.P,R6,1*%
%TO.N,/Peripherals/K1*%
X38125000Y-93000000D03*
%TO.P,R6,2*%
%TO.N,GND*%
X39950000Y-93000000D03*
%TD*%
D21*
%TO.P,D1,1,VDD_1*%
%TO.N,VUSB*%
X43150000Y-28600000D03*
%TO.P,D1,2,DOUT_2*%
%TO.N,unconnected-(D1-DOUT-Pad2)*%
X39850000Y-28600000D03*
%TO.P,D1,3,VSS_3*%
%TO.N,GND*%
X39850000Y-33500000D03*
%TO.P,D1,4,DIN_4*%
%TO.N,/Peripherals/RGB_ANODE*%
X43150000Y-33500000D03*
%TD*%
D14*
%TO.P,J8,1,Pin_1_1*%
%TO.N,/Peripherals/K1*%
X87600000Y-97540000D03*
D13*
%TO.P,J8,2,Pin_2_2*%
%TO.N,/Peripherals/K2*%
X85060000Y-97540000D03*
%TO.P,J8,3,Pin_3_3*%
%TO.N,/Peripherals/K3*%
X82520000Y-97540000D03*
%TO.P,J8,4,Pin_4_4*%
%TO.N,/Peripherals/K4*%
X79980000Y-97540000D03*
%TO.P,J8,5,Pin_5_5*%
%TO.N,/Peripherals/BUZZ*%
X77440000Y-97540000D03*
%TD*%
D18*
%TO.P,R9,1*%
%TO.N,/Peripherals/K4*%
X67750000Y-93000000D03*
%TO.P,R9,2*%
%TO.N,GND*%
X69575000Y-93000000D03*
%TD*%
D14*
%TO.P,SW9,1,A_1*%
%TO.N,/Peripherals/BUZZ_ANODE*%
X160740000Y-95000000D03*
D13*
%TO.P,SW9,2,B_2*%
%TO.N,/Peripherals/SW9_COM*%
X160740000Y-97540000D03*
%TO.P,SW9,3,C_3*%
%TO.N,unconnected-(SW9-C-Pad3)*%
X160740000Y-100080000D03*
%TD*%
D22*
%TO.P,BZ1,1,+_1*%
%TO.N,/Peripherals/BUZZ_ANODE*%
X166240000Y-95000000D03*
D20*
%TO.P,BZ1,2,-_2*%
%TO.N,GND*%
X173840000Y-95000000D03*
%TD*%
D14*
%TO.P,SW3,1,A_1*%
%TO.N,3V3*%
X114500000Y-100080000D03*
D13*
%TO.P,SW3,2,B_2*%
%TO.N,/Peripherals/SW3_COM*%
X114500000Y-97540000D03*
%TO.P,SW3,3,C_3*%
%TO.N,GND*%
X114500000Y-95000000D03*
%TD*%
D18*
%TO.P,R11,1*%
%TO.N,/Peripherals/ST2*%
X97727500Y-100140000D03*
%TO.P,R11,2*%
%TO.N,/Peripherals/SW2_COM*%
X99552500Y-100140000D03*
%TD*%
D14*
%TO.P,SW1,1,A_1*%
%TO.N,3V3*%
X106500000Y-100080000D03*
D13*
%TO.P,SW1,2,B_2*%
%TO.N,/Peripherals/SW1_COM*%
X106500000Y-97540000D03*
%TO.P,SW1,3,C_3*%
%TO.N,GND*%
X106500000Y-95000000D03*
%TD*%
D14*
%TO.P,STATEFUL1,1,Pin_1_1*%
%TO.N,/Peripherals/ST1*%
X101780000Y-97540000D03*
D13*
%TO.P,STATEFUL1,2,Pin_2_2*%
%TO.N,/Peripherals/ST2*%
X99240000Y-97540000D03*
%TO.P,STATEFUL1,3,Pin_3_3*%
%TO.N,/Peripherals/ST3*%
X96700000Y-97540000D03*
%TO.P,STATEFUL1,4,Pin_4_4*%
%TO.N,/Peripherals/ST4*%
X94160000Y-97540000D03*
%TO.P,STATEFUL1,5,Pin_5_5*%
%TO.N,/Peripherals/POT*%
X91620000Y-97540000D03*
%TD*%
D23*
%TO.P,C1,1*%
%TO.N,VUSB*%
X45587500Y-28600000D03*
%TO.P,C1,2*%
%TO.N,GND*%
X47312500Y-28600000D03*
%TD*%
D20*
%TO.P,K3,1,1_1*%
%TO.N,3V3*%
X63875000Y-97540000D03*
%TO.P,K3,2,2_2*%
%TO.N,/Peripherals/K3*%
X57875000Y-97540000D03*
%TD*%
%TO.P,K4,1,1_1*%
%TO.N,3V3*%
X73750000Y-97540000D03*
%TO.P,K4,2,2_2*%
%TO.N,/Peripherals/K4*%
X67750000Y-97540000D03*
%TD*%
D19*
%TO.P,R3,1*%
%TO.N,/Peripherals/LED3*%
X63500502Y-28599998D03*
%TO.P,R3,2*%
%TO.N,/Peripherals/LED3_ANODE*%
X61675502Y-28599998D03*
%TD*%
D24*
%TO.P,R16,1*%
%TO.N,/Peripherals/BUZZ*%
X157740000Y-95000000D03*
%TO.P,R16,2*%
%TO.N,/Peripherals/SW9_COM*%
X157740000Y-96825000D03*
%TD*%
D14*
%TO.P,LEDs1,1,Pin_1_1*%
%TO.N,/Peripherals/LED1*%
X87600000Y-30060000D03*
D13*
%TO.P,LEDs1,2,Pin_2_2*%
%TO.N,/Peripherals/LED2*%
X85060000Y-30060000D03*
%TO.P,LEDs1,3,Pin_3_3*%
%TO.N,/Peripherals/LED3*%
X82520000Y-30060000D03*
%TO.P,LEDs1,4,Pin_4_4*%
%TO.N,/Peripherals/LED4*%
X79980000Y-30060000D03*
%TO.P,LEDs1,5,Pin_5_5*%
%TO.N,/Peripherals/RGB*%
X77440000Y-30060000D03*
%TD*%
D18*
%TO.P,R7,1*%
%TO.N,/Peripherals/K2*%
X48000000Y-93000000D03*
%TO.P,R7,2*%
%TO.N,GND*%
X49825000Y-93000000D03*
%TD*%
%TO.P,R15,1*%
%TO.N,A4*%
X129687500Y-37000000D03*
%TO.P,R15,2*%
%TO.N,3V3*%
X131512500Y-37000000D03*
%TD*%
D25*
%TO.P,,3*%
%TO.N,GND*%
X30000000Y-97600000D03*
%TD*%
D18*
%TO.P,R14,1*%
%TO.N,A5*%
X129687500Y-38500000D03*
%TO.P,R14,2*%
%TO.N,3V3*%
X131512500Y-38500000D03*
%TD*%
D20*
%TO.P,K1,1,1_1*%
%TO.N,3V3*%
X44125000Y-97540000D03*
%TO.P,K1,2,2_2*%
%TO.N,/Peripherals/K1*%
X38125000Y-97540000D03*
%TD*%
D14*
%TO.P,J4,1,Pin_1_1*%
%TO.N,/MCU_Pins_Sockets/D12*%
X166240000Y-46020000D03*
D13*
%TO.P,J4,2,Pin_2_2*%
%TO.N,/MCU_Pins_Sockets/D11*%
X166240000Y-48560000D03*
%TO.P,J4,3,Pin_3_3*%
%TO.N,/MCU_Pins_Sockets/D10*%
X166240000Y-51100000D03*
%TO.P,J4,4,Pin_4_4*%
%TO.N,/MCU_Pins_Sockets/D9*%
X166240000Y-53640000D03*
%TO.P,J4,5,Pin_5_5*%
%TO.N,/MCU_Pins_Sockets/D8*%
X166240000Y-56180000D03*
%TO.P,J4,6,Pin_6_6*%
%TO.N,/MCU_Pins_Sockets/D7*%
X166240000Y-58720000D03*
%TO.P,J4,7,Pin_7_7*%
%TO.N,/MCU_Pins_Sockets/D6*%
X166240000Y-61260000D03*
%TO.P,J4,8,Pin_8_8*%
%TO.N,/MCU_Pins_Sockets/D5*%
X166240000Y-63800000D03*
%TO.P,J4,9,Pin_9_9*%
%TO.N,/MCU_Pins_Sockets/D4*%
X166240000Y-66340000D03*
%TO.P,J4,10,Pin_10_10*%
%TO.N,/MCU_Pins_Sockets/D3*%
X166240000Y-68880000D03*
%TO.P,J4,11,Pin_11_11*%
%TO.N,/MCU_Pins_Sockets/D2*%
X166240000Y-71420000D03*
%TO.P,J4,12,Pin_12_12*%
%TO.N,GND*%
X166240000Y-73960000D03*
%TO.P,J4,13,Pin_13_13*%
%TO.N,/MCU_Pins_Sockets/RST*%
X166240000Y-76500000D03*
%TO.P,J4,14,Pin_14_14*%
%TO.N,/MCU_Pins_Sockets/RX0*%
X166240000Y-79040000D03*
%TO.P,J4,15,Pin_15_15*%
%TO.N,/MCU_Pins_Sockets/D1{slash}TX*%
X166240000Y-81580000D03*
%TD*%
D14*
%TO.P,SW2,1,A_1*%
%TO.N,3V3*%
X110500000Y-100080000D03*
D13*
%TO.P,SW2,2,B_2*%
%TO.N,/Peripherals/SW2_COM*%
X110500000Y-97540000D03*
%TO.P,SW2,3,C_3*%
%TO.N,GND*%
X110500000Y-95000000D03*
%TD*%
D18*
%TO.P,R12,1*%
%TO.N,/Peripherals/ST3*%
X94327500Y-94940000D03*
%TO.P,R12,2*%
%TO.N,/Peripherals/SW3_COM*%
X96152500Y-94940000D03*
%TD*%
D14*
%TO.P,J3,1,Pin_1_1*%
%TO.N,/MCU_Pins_Sockets/D12*%
X183000000Y-46020000D03*
D13*
%TO.P,J3,2,Pin_2_2*%
%TO.N,/MCU_Pins_Sockets/D11*%
X183000000Y-48560000D03*
%TO.P,J3,3,Pin_3_3*%
%TO.N,/MCU_Pins_Sockets/D10*%
X183000000Y-51100000D03*
%TO.P,J3,4,Pin_4_4*%
%TO.N,/MCU_Pins_Sockets/D9*%
X183000000Y-53640000D03*
%TO.P,J3,5,Pin_5_5*%
%TO.N,/MCU_Pins_Sockets/D8*%
X183000000Y-56180000D03*
%TO.P,J3,6,Pin_6_6*%
%TO.N,/MCU_Pins_Sockets/D7*%
X183000000Y-58720000D03*
%TO.P,J3,7,Pin_7_7*%
%TO.N,/MCU_Pins_Sockets/D6*%
X183000000Y-61260000D03*
%TO.P,J3,8,Pin_8_8*%
%TO.N,/MCU_Pins_Sockets/D5*%
X183000000Y-63800000D03*
%TO.P,J3,9,Pin_9_9*%
%TO.N,/MCU_Pins_Sockets/D4*%
X183000000Y-66340000D03*
%TO.P,J3,10,Pin_10_10*%
%TO.N,/MCU_Pins_Sockets/D3*%
X183000000Y-68880000D03*
%TO.P,J3,11,Pin_11_11*%
%TO.N,/MCU_Pins_Sockets/D2*%
X183000000Y-71420000D03*
%TO.P,J3,12,Pin_12_12*%
%TO.N,GND*%
X183000000Y-73960000D03*
%TO.P,J3,13,Pin_13_13*%
%TO.N,/MCU_Pins_Sockets/RST*%
X183000000Y-76500000D03*
%TO.P,J3,14,Pin_14_14*%
%TO.N,/MCU_Pins_Sockets/RX0*%
X183000000Y-79040000D03*
%TO.P,J3,15,Pin_15_15*%
%TO.N,/MCU_Pins_Sockets/D1{slash}TX*%
X183000000Y-81580000D03*
%TD*%
D25*
%TO.P,,4*%
%TO.N,GND*%
X183000000Y-97600000D03*
%TD*%
D18*
%TO.P,R13,1*%
%TO.N,/Peripherals/ST4*%
X94327500Y-100140000D03*
%TO.P,R13,2*%
%TO.N,/Peripherals/SW4_COM*%
X96152500Y-100140000D03*
%TD*%
D19*
%TO.P,R1,1*%
%TO.N,/Peripherals/LED1*%
X54913002Y-28599998D03*
%TO.P,R1,2*%
%TO.N,/Peripherals/LED1_ANODE*%
X53088002Y-28599998D03*
%TD*%
D18*
%TO.P,R8,1*%
%TO.N,/Peripherals/K3*%
X57875000Y-93000000D03*
%TO.P,R8,2*%
%TO.N,GND*%
X59700000Y-93000000D03*
%TD*%
D25*
%TO.P,REF\u002A\u002A,1*%
%TO.N,GND*%
X30000000Y-30000000D03*
%TD*%
D19*
%TO.P,R5,1*%
%TO.N,/Peripherals/RGB*%
X47362500Y-33500000D03*
%TO.P,R5,2*%
%TO.N,/Peripherals/RGB_ANODE*%
X45537500Y-33500000D03*
%TD*%
D25*
%TO.P,,2*%
%TO.N,GND*%
X183000000Y-30000000D03*
%TD*%
D14*
%TO.P,J2,1,Pin_1_1*%
%TO.N,/MCU_Pins_Sockets/D13*%
X151000000Y-46020000D03*
D13*
%TO.P,J2,2,Pin_2_2*%
%TO.N,3V3*%
X151000000Y-48560000D03*
%TO.P,J2,3,Pin_3_3*%
%TO.N,/MCU_Pins_Sockets/B0*%
X151000000Y-51100000D03*
%TO.P,J2,4,Pin_4_4*%
%TO.N,/MCU_Pins_Sockets/A0*%
X151000000Y-53640000D03*
%TO.P,J2,5,Pin_5_5*%
%TO.N,/MCU_Pins_Sockets/A1*%
X151000000Y-56180000D03*
%TO.P,J2,6,Pin_6_6*%
%TO.N,/MCU_Pins_Sockets/A2*%
X151000000Y-58720000D03*
%TO.P,J2,7,Pin_7_7*%
%TO.N,/MCU_Pins_Sockets/A3*%
X151000000Y-61260000D03*
%TO.P,J2,8,Pin_8_8*%
%TO.N,A4*%
X151000000Y-63800000D03*
%TO.P,J2,9,Pin_9_9*%
%TO.N,A5*%
X151000000Y-66340000D03*
%TO.P,J2,10,Pin_10_10*%
%TO.N,/MCU_Pins_Sockets/A6*%
X151000000Y-68880000D03*
%TO.P,J2,11,Pin_11_11*%
%TO.N,/MCU_Pins_Sockets/A7*%
X151000000Y-71420000D03*
%TO.P,J2,12,Pin_12_12*%
%TO.N,VUSB*%
X151000000Y-73960000D03*
%TO.P,J2,13,Pin_13_13*%
%TO.N,/MCU_Pins_Sockets/B1*%
X151000000Y-76500000D03*
%TO.P,J2,14,Pin_14_14*%
%TO.N,GND*%
X151000000Y-79040000D03*
%TO.P,J2,15,Pin_15_15*%
%TO.N,/MCU_Pins_Sockets/VIN*%
X151000000Y-81580000D03*
%TD*%
D14*
%TO.P,SW4,1,A_1*%
%TO.N,3V3*%
X118500000Y-100080000D03*
D13*
%TO.P,SW4,2,B_2*%
%TO.N,/Peripherals/SW4_COM*%
X118500000Y-97540000D03*
%TO.P,SW4,3,C_3*%
%TO.N,GND*%
X118500000Y-95000000D03*
%TD*%
D19*
%TO.P,R4,1*%
%TO.N,/Peripherals/LED4*%
X67913002Y-28599998D03*
%TO.P,R4,2*%
%TO.N,/Peripherals/LED4_ANODE*%
X66088002Y-28599998D03*
%TD*%
D26*
%TO.N,3V3*%
X137000000Y-86000000D03*
X131500000Y-84300000D03*
X139000000Y-88000000D03*
X131500000Y-59680000D03*
%TO.N,VUSB*%
X52000000Y-35300000D03*
X121200000Y-60920000D03*
X51200000Y-33500000D03*
X121200000Y-35300000D03*
D27*
%TO.N,/Peripherals/SW4_COM*%
X96930000Y-99130000D03*
X112500000Y-98800000D03*
%TD*%
%TO.N,/Peripherals/ST1*%
D28*
X100190000Y-95950000D02*
X98737500Y-95950000D01*
X101780000Y-97540000D02*
X100190000Y-95950000D01*
X98737500Y-95950000D02*
X97727500Y-94940000D01*
%TO.N,/Peripherals/SW1_COM*%
X99552500Y-94940000D02*
X103900000Y-94940000D01*
X103900000Y-94940000D02*
X106500000Y-97540000D01*
%TO.N,/Peripherals/LED2*%
X81400000Y-26400000D02*
X85060000Y-30060000D01*
X59250502Y-28599998D02*
X61450500Y-26400000D01*
X61450500Y-26400000D02*
X81400000Y-26400000D01*
%TO.N,/Peripherals/LED2_ANODE*%
X57425502Y-28599998D02*
X57425502Y-30224998D01*
%TO.N,/MCU_Pins_Sockets/D13*%
X151000000Y-46020000D02*
X134240000Y-46020000D01*
%TO.N,3V3*%
D29*
X145920000Y-97540000D02*
X143380000Y-97540000D01*
X58060000Y-101600000D02*
X48185000Y-101600000D01*
X118500000Y-100080000D02*
X118500000Y-100100000D01*
X67935000Y-101600000D02*
X58060000Y-101600000D01*
X151000000Y-97540000D02*
X148460000Y-97540000D01*
X129710000Y-34860000D02*
X129710000Y-35510000D01*
X114510000Y-100090000D02*
X116010000Y-101590000D01*
X131500000Y-84300000D02*
X133200000Y-86000000D01*
X134240000Y-48560000D02*
X131512500Y-51287500D01*
X77810000Y-101600000D02*
X67935000Y-101600000D01*
X134240000Y-97500000D02*
X143340000Y-97500000D01*
X73750000Y-97540000D02*
X77810000Y-101600000D01*
X118500000Y-100080000D02*
X120020000Y-101600000D01*
X147000000Y-88000000D02*
X151000000Y-92000000D01*
X106520000Y-100100000D02*
X108020000Y-101600000D01*
X131512500Y-59667500D02*
X131500000Y-59680000D01*
X151000000Y-92000000D02*
X151000000Y-97540000D01*
X48185000Y-101600000D02*
X44125000Y-97540000D01*
X131512500Y-38500000D02*
X131512500Y-37000000D01*
X120020000Y-101600000D02*
X130200000Y-101600000D01*
X110500000Y-100080000D02*
X112000000Y-101580000D01*
X106500000Y-100080000D02*
X106420000Y-100080000D01*
X63875000Y-97540000D02*
X67935000Y-101600000D01*
X54000000Y-97540000D02*
X58060000Y-101600000D01*
X131512500Y-38500000D02*
X131512500Y-59667500D01*
X143340000Y-97500000D02*
X143380000Y-97540000D01*
X151000000Y-48560000D02*
X134240000Y-48560000D01*
X130200000Y-101600000D02*
X130200000Y-101540000D01*
X120020000Y-101600000D02*
X112000000Y-101600000D01*
X148460000Y-97540000D02*
X145920000Y-97540000D01*
X139000000Y-88000000D02*
X147000000Y-88000000D01*
X130200000Y-101540000D02*
X134240000Y-97500000D01*
X112000000Y-101600000D02*
X77810000Y-101600000D01*
X129710000Y-35510000D02*
X131200000Y-37000000D01*
X131512500Y-51287500D02*
X131512500Y-51312500D01*
X133200000Y-86000000D02*
X137000000Y-86000000D01*
X131200000Y-37000000D02*
X131512500Y-37000000D01*
X112000000Y-101580000D02*
X112000000Y-101600000D01*
%TO.N,/MCU_Pins_Sockets/B0*%
D28*
X151000000Y-51100000D02*
X134240000Y-51100000D01*
%TO.N,/MCU_Pins_Sockets/A0*%
X151000000Y-53640000D02*
X134240000Y-53640000D01*
%TO.N,/MCU_Pins_Sockets/A1*%
X151000000Y-56180000D02*
X134240000Y-56180000D01*
%TO.N,/MCU_Pins_Sockets/A2*%
X151000000Y-58720000D02*
X134240000Y-58720000D01*
%TO.N,/MCU_Pins_Sockets/A3*%
X151000000Y-61260000D02*
X134240000Y-61260000D01*
%TO.N,A4*%
X130500000Y-60060000D02*
X130500000Y-37812500D01*
X151000000Y-63800000D02*
X134240000Y-63800000D01*
X130500000Y-37812500D02*
X129687500Y-37000000D01*
X128710000Y-36022500D02*
X129687500Y-37000000D01*
X128710000Y-34860000D02*
X128710000Y-36022500D01*
X134240000Y-63800000D02*
X130500000Y-60060000D01*
%TO.N,A5*%
X129687500Y-61787500D02*
X134240000Y-66340000D01*
X127710000Y-36522500D02*
X129687500Y-38500000D01*
X151000000Y-66340000D02*
X134240000Y-66340000D01*
X129687500Y-38500000D02*
X129687500Y-61787500D01*
X127710000Y-34860000D02*
X127710000Y-36522500D01*
%TO.N,/MCU_Pins_Sockets/A6*%
X151000000Y-68880000D02*
X134240000Y-68880000D01*
%TO.N,/MCU_Pins_Sockets/A7*%
X151000000Y-71420000D02*
X134240000Y-71420000D01*
%TO.N,VUSB*%
D29*
X108340000Y-30060000D02*
X110880000Y-30060000D01*
X103100000Y-35300000D02*
X108340000Y-30060000D01*
X151000000Y-73960000D02*
X134240000Y-73960000D01*
X45587500Y-28600000D02*
X47587500Y-30600000D01*
X47587500Y-30600000D02*
X49300000Y-30600000D01*
X43150000Y-28600000D02*
X45587500Y-28600000D01*
X115960000Y-30060000D02*
X121200000Y-35300000D01*
X49300000Y-30600000D02*
X51200000Y-32500000D01*
X51200000Y-32500000D02*
X51200000Y-33500000D01*
X134240000Y-73960000D02*
X121200000Y-60920000D01*
X52000000Y-35300000D02*
X103100000Y-35300000D01*
X110880000Y-30060000D02*
X113420000Y-30060000D01*
X121200000Y-35300000D02*
X121300000Y-35300000D01*
X113420000Y-30060000D02*
X115960000Y-30060000D01*
%TO.N,/MCU_Pins_Sockets/B1*%
D28*
X151000000Y-76500000D02*
X134240000Y-76500000D01*
%TO.N,/MCU_Pins_Sockets/VIN*%
X151000000Y-81580000D02*
X134240000Y-81580000D01*
%TO.N,/Peripherals/K2*%
X48000000Y-97540000D02*
X48000000Y-93000000D01*
X76020000Y-88500000D02*
X52500000Y-88500000D01*
X85060000Y-97540000D02*
X76020000Y-88500000D01*
X52500000Y-88500000D02*
X48000000Y-93000000D01*
%TO.N,/Peripherals/K1*%
X87600000Y-97540000D02*
X77560000Y-87500000D01*
X43625000Y-87500000D02*
X38125000Y-93000000D01*
X77560000Y-87500000D02*
X43625000Y-87500000D01*
X38125000Y-97540000D02*
X38125000Y-93000000D01*
%TO.N,/Peripherals/RGB_ANODE*%
X43150000Y-33500000D02*
X45537500Y-33500000D01*
%TO.N,/Peripherals/K3*%
X57875000Y-97540000D02*
X57875000Y-93000000D01*
X61375000Y-89500000D02*
X57875000Y-93000000D01*
X74480000Y-89500000D02*
X61375000Y-89500000D01*
X82520000Y-97540000D02*
X74480000Y-89500000D01*
%TO.N,/Peripherals/K4*%
X79980000Y-97540000D02*
X72940000Y-90500000D01*
X67750000Y-93000000D02*
X70250000Y-90500000D01*
X70250000Y-90500000D02*
X72940000Y-90500000D01*
X67750000Y-97540000D02*
X67750000Y-93000000D01*
%TO.N,/Peripherals/BUZZ*%
X149740000Y-87000000D02*
X157740000Y-95000000D01*
X77440000Y-97540000D02*
X80400000Y-100500000D01*
X89600000Y-92100000D02*
X94700000Y-87000000D01*
X80400000Y-100500000D02*
X88600000Y-100500000D01*
X88600000Y-100500000D02*
X89600000Y-99500000D01*
X89600000Y-99500000D02*
X89600000Y-92100000D01*
X94700000Y-87000000D02*
X149740000Y-87000000D01*
%TO.N,/Peripherals/BUZZ_ANODE*%
X160740000Y-95000000D02*
X166240000Y-95000000D01*
%TO.N,/Peripherals/SW9_COM*%
X157740000Y-96825000D02*
X160025000Y-96825000D01*
X160025000Y-96825000D02*
X160740000Y-97540000D01*
%TO.N,/Peripherals/SW3_COM*%
X112500000Y-95540000D02*
X114500000Y-97540000D01*
X109000000Y-89000000D02*
X112500000Y-92500000D01*
X112500000Y-92500000D02*
X112500000Y-95540000D01*
X99000000Y-89000000D02*
X109000000Y-89000000D01*
X96152500Y-91847500D02*
X99000000Y-89000000D01*
X96152500Y-94940000D02*
X96152500Y-91847500D01*
%TO.N,/Peripherals/ST2*%
X97727500Y-99052500D02*
X99240000Y-97540000D01*
X97727500Y-100140000D02*
X97727500Y-99052500D01*
%TO.N,/Peripherals/SW2_COM*%
X104200000Y-98800000D02*
X109240000Y-98800000D01*
X109240000Y-98800000D02*
X110500000Y-97540000D01*
X102860000Y-100140000D02*
X104200000Y-98800000D01*
X99552500Y-100140000D02*
X102860000Y-100140000D01*
%TO.N,/Peripherals/ST3*%
X96700000Y-97540000D02*
X94327500Y-95167500D01*
X94327500Y-95167500D02*
X94327500Y-94940000D01*
%TO.N,/Peripherals/ST4*%
X94327500Y-97707500D02*
X94160000Y-97540000D01*
X94327500Y-100140000D02*
X94327500Y-97707500D01*
%TO.N,/Peripherals/POT*%
X91620000Y-97540000D02*
X91620000Y-92080000D01*
X91620000Y-92080000D02*
X95700000Y-88000000D01*
X95700000Y-88000000D02*
X130100000Y-88000000D01*
X131400000Y-89300000D02*
X131400000Y-92160000D01*
X131400000Y-92160000D02*
X134240000Y-95000000D01*
X130100000Y-88000000D02*
X131400000Y-89300000D01*
%TO.N,/Peripherals/LED3*%
X82520000Y-30060000D02*
X79360000Y-26900000D01*
X79360000Y-26900000D02*
X65200500Y-26900000D01*
X65200500Y-26900000D02*
X63500502Y-28599998D01*
%TO.N,/Peripherals/LED3_ANODE*%
X61675502Y-28599998D02*
X61675502Y-30224998D01*
%TO.N,/Peripherals/LED1*%
X87600000Y-30060000D02*
X83440000Y-25900000D01*
X57613000Y-25900000D02*
X54913002Y-28599998D01*
X83440000Y-25900000D02*
X57613000Y-25900000D01*
%TO.N,/Peripherals/LED4*%
X69100000Y-27400000D02*
X77320000Y-27400000D01*
X77320000Y-27400000D02*
X79980000Y-30060000D01*
X67913002Y-28599998D02*
X67913002Y-28586998D01*
X67913002Y-28586998D02*
X69100000Y-27400000D01*
%TO.N,/Peripherals/RGB*%
X47362500Y-33500000D02*
X48362500Y-34500000D01*
X73000000Y-34500000D02*
X77440000Y-30060000D01*
X48362500Y-34500000D02*
X73000000Y-34500000D01*
%TO.N,/MCU_Pins_Sockets/D12*%
X166240000Y-46020000D02*
X183000000Y-46020000D01*
%TO.N,/MCU_Pins_Sockets/D11*%
X166240000Y-48560000D02*
X183000000Y-48560000D01*
%TO.N,/MCU_Pins_Sockets/D10*%
X166240000Y-51100000D02*
X183000000Y-51100000D01*
%TO.N,/MCU_Pins_Sockets/D9*%
X166240000Y-53640000D02*
X183000000Y-53640000D01*
%TO.N,/MCU_Pins_Sockets/D8*%
X166240000Y-56180000D02*
X183000000Y-56180000D01*
%TO.N,/MCU_Pins_Sockets/D7*%
X166240000Y-58720000D02*
X183000000Y-58720000D01*
%TO.N,/MCU_Pins_Sockets/D6*%
X166240000Y-61260000D02*
X183000000Y-61260000D01*
%TO.N,/MCU_Pins_Sockets/D5*%
X166240000Y-63800000D02*
X183000000Y-63800000D01*
%TO.N,/MCU_Pins_Sockets/D4*%
X166240000Y-66340000D02*
X183000000Y-66340000D01*
%TO.N,/MCU_Pins_Sockets/D3*%
X166240000Y-68880000D02*
X183000000Y-68880000D01*
%TO.N,/MCU_Pins_Sockets/D2*%
X166240000Y-71420000D02*
X183000000Y-71420000D01*
%TO.N,/MCU_Pins_Sockets/RST*%
X166240000Y-76500000D02*
X183000000Y-76500000D01*
%TO.N,/MCU_Pins_Sockets/RX0*%
X166240000Y-79040000D02*
X183000000Y-79040000D01*
%TO.N,/MCU_Pins_Sockets/D1{slash}TX*%
X166240000Y-81580000D02*
X183000000Y-81580000D01*
%TO.N,/Peripherals/LED1_ANODE*%
X53088002Y-30224998D02*
X53088002Y-28599998D01*
%TO.N,/Peripherals/LED4_ANODE*%
X66088002Y-28599998D02*
X66088002Y-30224998D01*
%TO.N,/Peripherals/SW4_COM*%
X112500000Y-98800000D02*
X117240000Y-98800000D01*
X96152500Y-99907500D02*
X96930000Y-99130000D01*
X96152500Y-100140000D02*
X96152500Y-99907500D01*
X117240000Y-98800000D02*
X118500000Y-97540000D01*
%TD*%
%TA.AperFunction,Conductor*%
%TO.N,GND*%
G36*
X149794058Y-77145185D02*
G01*
X149837503Y-77193203D01*
X149844950Y-77207819D01*
X149969890Y-77379786D01*
X150120213Y-77530109D01*
X150292179Y-77655048D01*
X150292181Y-77655049D01*
X150292184Y-77655051D01*
X150301493Y-77659794D01*
X150352290Y-77707766D01*
X150369087Y-77775587D01*
X150346552Y-77841722D01*
X150301505Y-77880760D01*
X150292446Y-77885376D01*
X150292440Y-77885380D01*
X150238282Y-77924727D01*
X150238282Y-77924728D01*
X150870591Y-78557037D01*
X150807007Y-78574075D01*
X150692993Y-78639901D01*
X150599901Y-78732993D01*
X150534075Y-78847007D01*
X150517037Y-78910591D01*
X149884728Y-78278282D01*
X149884727Y-78278282D01*
X149845380Y-78332439D01*
X149748904Y-78521782D01*
X149683242Y-78723869D01*
X149683242Y-78723872D01*
X149650000Y-78933753D01*
X149650000Y-79146246D01*
X149683242Y-79356127D01*
X149683242Y-79356130D01*
X149748904Y-79558217D01*
X149845375Y-79747550D01*
X149884728Y-79801716D01*
X150517037Y-79169408D01*
X150534075Y-79232993D01*
X150599901Y-79347007D01*
X150692993Y-79440099D01*
X150807007Y-79505925D01*
X150870590Y-79522962D01*
X150238282Y-80155269D01*
X150238282Y-80155270D01*
X150292452Y-80194626D01*
X150292451Y-80194626D01*
X150301495Y-80199234D01*
X150352292Y-80247208D01*
X150369087Y-80315029D01*
X150346550Y-80381164D01*
X150301499Y-80420202D01*
X150292182Y-80424949D01*
X150120213Y-80549890D01*
X149969890Y-80700213D01*
X149844950Y-80872180D01*
X149837503Y-80886797D01*
X149789527Y-80937592D01*
X149727019Y-80954500D01*
X135512981Y-80954500D01*
X135445942Y-80934815D01*
X135402497Y-80886797D01*
X135395049Y-80872180D01*
X135270109Y-80700213D01*
X135119786Y-80549890D01*
X134947817Y-80424949D01*
X134938504Y-80420204D01*
X134887707Y-80372230D01*
X134870912Y-80304409D01*
X134893449Y-80238274D01*
X134938507Y-80199232D01*
X134947555Y-80194622D01*
X135001716Y-80155270D01*
X135001717Y-80155270D01*
X134369408Y-79522962D01*
X134432993Y-79505925D01*
X134547007Y-79440099D01*
X134640099Y-79347007D01*
X134705925Y-79232993D01*
X134722962Y-79169408D01*
X135355270Y-79801717D01*
X135355270Y-79801716D01*
X135394622Y-79747554D01*
X135491095Y-79558217D01*
X135556757Y-79356130D01*
X135556757Y-79356127D01*
X135590000Y-79146246D01*
X135590000Y-78933753D01*
X135556757Y-78723872D01*
X135556757Y-78723869D01*
X135491095Y-78521782D01*
X135394624Y-78332449D01*
X135355270Y-78278282D01*
X135355269Y-78278282D01*
X134722962Y-78910590D01*
X134705925Y-78847007D01*
X134640099Y-78732993D01*
X134547007Y-78639901D01*
X134432993Y-78574075D01*
X134369409Y-78557037D01*
X135001716Y-77924728D01*
X134947547Y-77885373D01*
X134947547Y-77885372D01*
X134938500Y-77880763D01*
X134887706Y-77832788D01*
X134870912Y-77764966D01*
X134893451Y-77698832D01*
X134938508Y-77659793D01*
X134947816Y-77655051D01*
X135027007Y-77597515D01*
X135119786Y-77530109D01*
X135119788Y-77530106D01*
X135119792Y-77530104D01*
X135270104Y-77379792D01*
X135270106Y-77379788D01*
X135270109Y-77379786D01*
X135395049Y-77207819D01*
X135402497Y-77193203D01*
X135450473Y-77142408D01*
X135512981Y-77125500D01*
X149727019Y-77125500D01*
X149794058Y-77145185D01*
G37*
%TD.AperFunction*%
%TA.AperFunction,Conductor*%
G36*
X181794058Y-72065185D02*
G01*
X181837503Y-72113203D01*
X181844950Y-72127819D01*
X181969890Y-72299786D01*
X182120213Y-72450109D01*
X182292179Y-72575048D01*
X182292181Y-72575049D01*
X182292184Y-72575051D01*
X182301493Y-72579794D01*
X182352290Y-72627766D01*
X182369087Y-72695587D01*
X182346552Y-72761722D01*
X182301505Y-72800760D01*
X182292446Y-72805376D01*
X182292440Y-72805380D01*
X182238282Y-72844727D01*
X182238282Y-72844728D01*
X182870591Y-73477037D01*
X182807007Y-73494075D01*
X182692993Y-73559901D01*
X182599901Y-73652993D01*
X182534075Y-73767007D01*
X182517037Y-73830591D01*
X181884728Y-73198282D01*
X181884727Y-73198282D01*
X181845380Y-73252439D01*
X181748904Y-73441782D01*
X181683242Y-73643869D01*
X181683242Y-73643872D01*
X181650000Y-73853753D01*
X181650000Y-74066246D01*
X181683242Y-74276127D01*
X181683242Y-74276130D01*
X181748904Y-74478217D01*
X181845375Y-74667550D01*
X181884728Y-74721716D01*
X182517036Y-74089407D01*
X182534075Y-74152993D01*
X182599901Y-74267007D01*
X182692993Y-74360099D01*
X182807007Y-74425925D01*
X182870590Y-74442962D01*
X182238282Y-75075269D01*
X182238282Y-75075270D01*
X182292452Y-75114626D01*
X182292451Y-75114626D01*
X182301495Y-75119234D01*
X182352292Y-75167208D01*
X182369087Y-75235029D01*
X182346550Y-75301164D01*
X182301499Y-75340202D01*
X182292182Y-75344949D01*
X182120213Y-75469890D01*
X181969890Y-75620213D01*
X181844950Y-75792180D01*
X181837503Y-75806797D01*
X181789527Y-75857592D01*
X181727019Y-75874500D01*
X167512981Y-75874500D01*
X167445942Y-75854815D01*
X167402497Y-75806797D01*
X167395049Y-75792180D01*
X167270109Y-75620213D01*
X167119786Y-75469890D01*
X166947817Y-75344949D01*
X166938504Y-75340204D01*
X166887707Y-75292230D01*
X166870912Y-75224409D01*
X166893449Y-75158274D01*
X166938507Y-75119232D01*
X166947555Y-75114622D01*
X167001716Y-75075270D01*
X167001717Y-75075270D01*
X166369408Y-74442962D01*
X166432993Y-74425925D01*
X166547007Y-74360099D01*
X166640099Y-74267007D01*
X166705925Y-74152993D01*
X166722962Y-74089408D01*
X167355270Y-74721717D01*
X167355270Y-74721716D01*
X167394622Y-74667554D01*
X167491095Y-74478217D01*
X167556757Y-74276130D01*
X167556757Y-74276127D01*
X167590000Y-74066246D01*
X167590000Y-73853753D01*
X167556757Y-73643872D01*
X167556757Y-73643869D01*
X167491095Y-73441782D01*
X167394624Y-73252449D01*
X167355270Y-73198282D01*
X167355269Y-73198282D01*
X166722962Y-73830590D01*
X166705925Y-73767007D01*
X166640099Y-73652993D01*
X166547007Y-73559901D01*
X166432993Y-73494075D01*
X166369409Y-73477037D01*
X167001716Y-72844728D01*
X166947547Y-72805373D01*
X166947547Y-72805372D01*
X166938500Y-72800763D01*
X166887706Y-72752788D01*
X166870912Y-72684966D01*
X166893451Y-72618832D01*
X166938508Y-72579793D01*
X166947816Y-72575051D01*
X167027007Y-72517515D01*
X167119786Y-72450109D01*
X167119788Y-72450106D01*
X167119792Y-72450104D01*
X167270104Y-72299792D01*
X167270106Y-72299788D01*
X167270109Y-72299786D01*
X167395049Y-72127819D01*
X167402497Y-72113203D01*
X167450473Y-72062408D01*
X167512981Y-72045500D01*
X181727019Y-72045500D01*
X181794058Y-72065185D01*
G37*
%TD.AperFunction*%
%TA.AperFunction,Conductor*%
G36*
X56895586Y-25520185D02*
G01*
X56941341Y-25572989D01*
X56951285Y-25642147D01*
X56922260Y-25705703D01*
X56916228Y-25712181D01*
X55040229Y-27588179D01*
X54978906Y-27621664D01*
X54952548Y-27624498D01*
X54613833Y-27624498D01*
X54613814Y-27624499D01*
X54512749Y-27634823D01*
X54348986Y-27689090D01*
X54348983Y-27689091D01*
X54202150Y-27779659D01*
X54088183Y-27893627D01*
X54026860Y-27927112D01*
X53957168Y-27922128D01*
X53912821Y-27893627D01*
X53798853Y-27779659D01*
X53798852Y-27779658D01*
X53669568Y-27699915D01*
X53652020Y-27689091D01*
X53652015Y-27689089D01*
X53650571Y-27688610D01*
X53488255Y-27634824D01*
X53488253Y-27634823D01*
X53387180Y-27624498D01*
X52788832Y-27624498D01*
X52788814Y-27624499D01*
X52687749Y-27634823D01*
X52523986Y-27689090D01*
X52523983Y-27689091D01*
X52377150Y-27779659D01*
X52255163Y-27901646D01*
X52164595Y-28048479D01*
X52164593Y-28048484D01*
X52154990Y-28077465D01*
X52110328Y-28212245D01*
X52110328Y-28212246D01*
X52110327Y-28212246D01*
X52100002Y-28313313D01*
X52100002Y-28886667D01*
X52100003Y-28886685D01*
X52110327Y-28987750D01*
X52164594Y-29151513D01*
X52164595Y-29151516D01*
X52182293Y-29180208D01*
X52255121Y-29298282D01*
X52255163Y-29298349D01*
X52262881Y-29306067D01*
X52296366Y-29367390D01*
X52291382Y-29437082D01*
X52270451Y-29469649D01*
X52272140Y-29470985D01*
X52267663Y-29476645D01*
X52177095Y-29623479D01*
X52177094Y-29623482D01*
X52122828Y-29787245D01*
X52122828Y-29787246D01*
X52122827Y-29787246D01*
X52112502Y-29888313D01*
X52112502Y-30561667D01*
X52112503Y-30561685D01*
X52122827Y-30662750D01*
X52157555Y-30767550D01*
X52177094Y-30826514D01*
X52258116Y-30957872D01*
X52267663Y-30973349D01*
X52306984Y-31012670D01*
X52340469Y-31073993D01*
X52335485Y-31143685D01*
X52306985Y-31188031D01*
X52268057Y-31226959D01*
X52268054Y-31226963D01*
X52177553Y-31373686D01*
X52177548Y-31373697D01*
X52123321Y-31537345D01*
X52113002Y-31638343D01*
X52113002Y-31724998D01*
X54063001Y-31724998D01*
X54063001Y-31638358D01*
X54063000Y-31638343D01*
X54052682Y-31537345D01*
X53998455Y-31373697D01*
X53998450Y-31373686D01*
X53907949Y-31226963D01*
X53907946Y-31226959D01*
X53869019Y-31188032D01*
X53835534Y-31126709D01*
X53840518Y-31057017D01*
X53869018Y-31012671D01*
X53908342Y-30973348D01*
X53998910Y-30826514D01*
X54053176Y-30662751D01*
X54063502Y-30561675D01*
X54063501Y-29888322D01*
X54062481Y-29878340D01*
X54053176Y-29787245D01*
X54038827Y-29743944D01*
X53998910Y-29623482D01*
X53908342Y-29476648D01*
X53908334Y-29476640D01*
X53906146Y-29473872D01*
X53905232Y-29471607D01*
X53904550Y-29470501D01*
X53904738Y-29470384D01*
X53880005Y-29409076D01*
X53893045Y-29340434D01*
X53941126Y-29289739D01*
X54008981Y-29273085D01*
X54075069Y-29295761D01*
X54091093Y-29309279D01*
X54202152Y-29420338D01*
X54348986Y-29510906D01*
X54512749Y-29565172D01*
X54613825Y-29575498D01*
X55212178Y-29575497D01*
X55212186Y-29575496D01*
X55212189Y-29575496D01*
X55267532Y-29569842D01*
X55313255Y-29565172D01*
X55477018Y-29510906D01*
X55623852Y-29420338D01*
X55745842Y-29298348D01*
X55836410Y-29151514D01*
X55890676Y-28987751D01*
X55901002Y-28886675D01*
X55901001Y-28547948D01*
X55920685Y-28480910D01*
X55937315Y-28460273D01*
X56231233Y-28166355D01*
X56292554Y-28132872D01*
X56362246Y-28137856D01*
X56418179Y-28179728D01*
X56442596Y-28245192D01*
X56442270Y-28266638D01*
X56437503Y-28313306D01*
X56437502Y-28313326D01*
X56437502Y-28886667D01*
X56437503Y-28886685D01*
X56447827Y-28987750D01*
X56502094Y-29151513D01*
X56502095Y-29151516D01*
X56519793Y-29180208D01*
X56592621Y-29298282D01*
X56592663Y-29298349D01*
X56600381Y-29306067D01*
X56633866Y-29367390D01*
X56628882Y-29437082D01*
X56607951Y-29469649D01*
X56609640Y-29470985D01*
X56605163Y-29476645D01*
X56514595Y-29623479D01*
X56514594Y-29623482D01*
X56460328Y-29787245D01*
X56460328Y-29787246D01*
X56460327Y-29787246D01*
X56450002Y-29888313D01*
X56450002Y-30561667D01*
X56450003Y-30561685D01*
X56460327Y-30662750D01*
X56495055Y-30767550D01*
X56514594Y-30826514D01*
X56595616Y-30957872D01*
X56605163Y-30973349D01*
X56644484Y-31012670D01*
X56677969Y-31073993D01*
X56672985Y-31143685D01*
X56644485Y-31188031D01*
X56605557Y-31226959D01*
X56605554Y-31226963D01*
X56515053Y-31373686D01*
X56515048Y-31373697D01*
X56460821Y-31537345D01*
X56450502Y-31638343D01*
X56450502Y-31724998D01*
X58400501Y-31724998D01*
X58400501Y-31638358D01*
X58400500Y-31638343D01*
X58390182Y-31537345D01*
X58335955Y-31373697D01*
X58335950Y-31373686D01*
X58245449Y-31226963D01*
X58245446Y-31226959D01*
X58206519Y-31188032D01*
X58173034Y-31126709D01*
X58178018Y-31057017D01*
X58206518Y-31012671D01*
X58245842Y-30973348D01*
X58336410Y-30826514D01*
X58390676Y-30662751D01*
X58401002Y-30561675D01*
X58401001Y-29888322D01*
X58399981Y-29878340D01*
X58390676Y-29787245D01*
X58376327Y-29743944D01*
X58336410Y-29623482D01*
X58245842Y-29476648D01*
X58245834Y-29476640D01*
X58243646Y-29473872D01*
X58242732Y-29471607D01*
X58242050Y-29470501D01*
X58242238Y-29470384D01*
X58217505Y-29409076D01*
X58230545Y-29340434D01*
X58278626Y-29289739D01*
X58346481Y-29273085D01*
X58412569Y-29295761D01*
X58428593Y-29309279D01*
X58539652Y-29420338D01*
X58686486Y-29510906D01*
X58850249Y-29565172D01*
X58951325Y-29575498D01*
X59549678Y-29575497D01*
X59549686Y-29575496D01*
X59549689Y-29575496D01*
X59605032Y-29569842D01*
X59650755Y-29565172D01*
X59814518Y-29510906D01*
X59961352Y-29420338D01*
X60083342Y-29298348D01*
X60173910Y-29151514D01*
X60228176Y-28987751D01*
X60238502Y-28886675D01*
X60238501Y-28547948D01*
X60258185Y-28480910D01*
X60274815Y-28460273D01*
X60475821Y-28259267D01*
X60537144Y-28225783D01*
X60606836Y-28230767D01*
X60662769Y-28272639D01*
X60687186Y-28338103D01*
X60687502Y-28346949D01*
X60687502Y-28886667D01*
X60687503Y-28886685D01*
X60697827Y-28987750D01*
X60752094Y-29151513D01*
X60752095Y-29151516D01*
X60769793Y-29180208D01*
X60842621Y-29298282D01*
X60842663Y-29298349D01*
X60850381Y-29306067D01*
X60883866Y-29367390D01*
X60878882Y-29437082D01*
X60857951Y-29469649D01*
X60859640Y-29470985D01*
X60855163Y-29476645D01*
X60764595Y-29623479D01*
X60764594Y-29623482D01*
X60710328Y-29787245D01*
X60710328Y-29787246D01*
X60710327Y-29787246D01*
X60700002Y-29888313D01*
X60700002Y-30561667D01*
X60700003Y-30561685D01*
X60710327Y-30662750D01*
X60745055Y-30767550D01*
X60764594Y-30826514D01*
X60845616Y-30957872D01*
X60855163Y-30973349D01*
X60894484Y-31012670D01*
X60927969Y-31073993D01*
X60922985Y-31143685D01*
X60894485Y-31188031D01*
X60855557Y-31226959D01*
X60855554Y-31226963D01*
X60765053Y-31373686D01*
X60765048Y-31373697D01*
X60710821Y-31537345D01*
X60700502Y-31638343D01*
X60700502Y-31724998D01*
X62650501Y-31724998D01*
X62650501Y-31638358D01*
X62650500Y-31638343D01*
X62640182Y-31537345D01*
X62585955Y-31373697D01*
X62585950Y-31373686D01*
X62495449Y-31226963D01*
X62495446Y-31226959D01*
X62456519Y-31188032D01*
X62423034Y-31126709D01*
X62428018Y-31057017D01*
X62456518Y-31012671D01*
X62495842Y-30973348D01*
X62586410Y-30826514D01*
X62640676Y-30662751D01*
X62651002Y-30561675D01*
X62651001Y-29888322D01*
X62649981Y-29878340D01*
X62640676Y-29787245D01*
X62626327Y-29743944D01*
X62586410Y-29623482D01*
X62495842Y-29476648D01*
X62495834Y-29476640D01*
X62493646Y-29473872D01*
X62492732Y-29471607D01*
X62492050Y-29470501D01*
X62492238Y-29470384D01*
X62467505Y-29409076D01*
X62480545Y-29340434D01*
X62528626Y-29289739D01*
X62596481Y-29273085D01*
X62662569Y-29295761D01*
X62678593Y-29309279D01*
X62789652Y-29420338D01*
X62936486Y-29510906D01*
X63100249Y-29565172D01*
X63201325Y-29575498D01*
X63799678Y-29575497D01*
X63799686Y-29575496D01*
X63799689Y-29575496D01*
X63855032Y-29569842D01*
X63900755Y-29565172D01*
X64064518Y-29510906D01*
X64211352Y-29420338D01*
X64333342Y-29298348D01*
X64423910Y-29151514D01*
X64478176Y-28987751D01*
X64488502Y-28886675D01*
X64488501Y-28547948D01*
X64508185Y-28480910D01*
X64524815Y-28460273D01*
X64907626Y-28077463D01*
X64968946Y-28043980D01*
X65038638Y-28048964D01*
X65094571Y-28090836D01*
X65118988Y-28156300D01*
X65113012Y-28204144D01*
X65110328Y-28212243D01*
X65110327Y-28212246D01*
X65100002Y-28313313D01*
X65100002Y-28886667D01*
X65100003Y-28886685D01*
X65110327Y-28987750D01*
X65164594Y-29151513D01*
X65164595Y-29151516D01*
X65182293Y-29180208D01*
X65255121Y-29298282D01*
X65255163Y-29298349D01*
X65262881Y-29306067D01*
X65296366Y-29367390D01*
X65291382Y-29437082D01*
X65270451Y-29469649D01*
X65272140Y-29470985D01*
X65267663Y-29476645D01*
X65177095Y-29623479D01*
X65177094Y-29623482D01*
X65122828Y-29787245D01*
X65122828Y-29787246D01*
X65122827Y-29787246D01*
X65112502Y-29888313D01*
X65112502Y-30561667D01*
X65112503Y-30561685D01*
X65122827Y-30662750D01*
X65157555Y-30767550D01*
X65177094Y-30826514D01*
X65258116Y-30957872D01*
X65267663Y-30973349D01*
X65306984Y-31012670D01*
X65340469Y-31073993D01*
X65335485Y-31143685D01*
X65306985Y-31188031D01*
X65268057Y-31226959D01*
X65268054Y-31226963D01*
X65177553Y-31373686D01*
X65177548Y-31373697D01*
X65123321Y-31537345D01*
X65113002Y-31638343D01*
X65113002Y-31724998D01*
X67063001Y-31724998D01*
X67063001Y-31638358D01*
X67063000Y-31638343D01*
X67052682Y-31537345D01*
X66998455Y-31373697D01*
X66998450Y-31373686D01*
X66907949Y-31226963D01*
X66907946Y-31226959D01*
X66869019Y-31188032D01*
X66835534Y-31126709D01*
X66840518Y-31057017D01*
X66869018Y-31012671D01*
X66908342Y-30973348D01*
X66998910Y-30826514D01*
X67053176Y-30662751D01*
X67063502Y-30561675D01*
X67063501Y-29888322D01*
X67062481Y-29878340D01*
X67053176Y-29787245D01*
X67038827Y-29743944D01*
X66998910Y-29623482D01*
X66908342Y-29476648D01*
X66908334Y-29476640D01*
X66906146Y-29473872D01*
X66905232Y-29471607D01*
X66904550Y-29470501D01*
X66904738Y-29470384D01*
X66880005Y-29409076D01*
X66893045Y-29340434D01*
X66941126Y-29289739D01*
X67008981Y-29273085D01*
X67075069Y-29295761D01*
X67091093Y-29309279D01*
X67202152Y-29420338D01*
X67348986Y-29510906D01*
X67512749Y-29565172D01*
X67613825Y-29575498D01*
X68212178Y-29575497D01*
X68212186Y-29575496D01*
X68212189Y-29575496D01*
X68267532Y-29569842D01*
X68313255Y-29565172D01*
X68477018Y-29510906D01*
X68623852Y-29420338D01*
X68745842Y-29298348D01*
X68836410Y-29151514D01*
X68890676Y-28987751D01*
X68901002Y-28886675D01*
X68901001Y-28534949D01*
X68920685Y-28467911D01*
X68937315Y-28447274D01*
X69322772Y-28061819D01*
X69384095Y-28028334D01*
X69410453Y-28025500D01*
X77009548Y-28025500D01*
X77076587Y-28045185D01*
X77097229Y-28061819D01*
X77533229Y-28497819D01*
X77566714Y-28559142D01*
X77561730Y-28628834D01*
X77519858Y-28684767D01*
X77454394Y-28709184D01*
X77445548Y-28709500D01*
X77333713Y-28709500D01*
X77285042Y-28717208D01*
X77123760Y-28742753D01*
X76921585Y-28808444D01*
X76732179Y-28904951D01*
X76560213Y-29029890D01*
X76409890Y-29180213D01*
X76284951Y-29352179D01*
X76188444Y-29541585D01*
X76122753Y-29743760D01*
X76089500Y-29953713D01*
X76089500Y-30166286D01*
X76122753Y-30376241D01*
X76122754Y-30376243D01*
X76125745Y-30385450D01*
X76127821Y-30391837D01*
X76129816Y-30461678D01*
X76097571Y-30517837D01*
X72777229Y-33838181D01*
X72715906Y-33871666D01*
X72689548Y-33874500D01*
X52194743Y-33874500D01*
X52127704Y-33854815D01*
X52081949Y-33802011D01*
X52072005Y-33732853D01*
X52073126Y-33726308D01*
X52100500Y-33588693D01*
X52100500Y-33411306D01*
X52100499Y-33411304D01*
X52065896Y-33237341D01*
X52065893Y-33237332D01*
X52055944Y-33213313D01*
X51998013Y-33073453D01*
X51998011Y-33073451D01*
X51998011Y-33073449D01*
X51971398Y-33033620D01*
X51950520Y-32966942D01*
X51950500Y-32964729D01*
X51950500Y-32645434D01*
X51970185Y-32578395D01*
X52022989Y-32532640D01*
X52092147Y-32522696D01*
X52155703Y-32551721D01*
X52180038Y-32580337D01*
X52268054Y-32723032D01*
X52268057Y-32723036D01*
X52389963Y-32844942D01*
X52389967Y-32844945D01*
X52536690Y-32935446D01*
X52536701Y-32935451D01*
X52700349Y-32989678D01*
X52801354Y-32999997D01*
X52838002Y-32999997D01*
X53338002Y-32999997D01*
X53374642Y-32999997D01*
X53374656Y-32999996D01*
X53475654Y-32989678D01*
X53639302Y-32935451D01*
X53639313Y-32935446D01*
X53786036Y-32844945D01*
X53786040Y-32844942D01*
X53907946Y-32723036D01*
X53907949Y-32723032D01*
X53998450Y-32576309D01*
X53998455Y-32576298D01*
X54052682Y-32412650D01*
X54063001Y-32311652D01*
X56450503Y-32311652D01*
X56460821Y-32412650D01*
X56515048Y-32576298D01*
X56515053Y-32576309D01*
X56605554Y-32723032D01*
X56605557Y-32723036D01*
X56727463Y-32844942D01*
X56727467Y-32844945D01*
X56874190Y-32935446D01*
X56874201Y-32935451D01*
X57037849Y-32989678D01*
X57138854Y-32999997D01*
X57175502Y-32999997D01*
X57675502Y-32999997D01*
X57712142Y-32999997D01*
X57712156Y-32999996D01*
X57813154Y-32989678D01*
X57976802Y-32935451D01*
X57976813Y-32935446D01*
X58123536Y-32844945D01*
X58123540Y-32844942D01*
X58245446Y-32723036D01*
X58245449Y-32723032D01*
X58335950Y-32576309D01*
X58335955Y-32576298D01*
X58390182Y-32412650D01*
X58400501Y-32311652D01*
X60700503Y-32311652D01*
X60710821Y-32412650D01*
X60765048Y-32576298D01*
X60765053Y-32576309D01*
X60855554Y-32723032D01*
X60855557Y-32723036D01*
X60977463Y-32844942D01*
X60977467Y-32844945D01*
X61124190Y-32935446D01*
X61124201Y-32935451D01*
X61287849Y-32989678D01*
X61388854Y-32999997D01*
X61425502Y-32999997D01*
X61925502Y-32999997D01*
X61962142Y-32999997D01*
X61962156Y-32999996D01*
X62063154Y-32989678D01*
X62226802Y-32935451D01*
X62226813Y-32935446D01*
X62373536Y-32844945D01*
X62373540Y-32844942D01*
X62495446Y-32723036D01*
X62495449Y-32723032D01*
X62585950Y-32576309D01*
X62585955Y-32576298D01*
X62640182Y-32412650D01*
X62650501Y-32311652D01*
X65113003Y-32311652D01*
X65123321Y-32412650D01*
X65177548Y-32576298D01*
X65177553Y-32576309D01*
X65268054Y-32723032D01*
X65268057Y-32723036D01*
X65389963Y-32844942D01*
X65389967Y-32844945D01*
X65536690Y-32935446D01*
X65536701Y-32935451D01*
X65700349Y-32989678D01*
X65801354Y-32999997D01*
X65838002Y-32999997D01*
X66338002Y-32999997D01*
X66374642Y-32999997D01*
X66374656Y-32999996D01*
X66475654Y-32989678D01*
X66639302Y-32935451D01*
X66639313Y-32935446D01*
X66786036Y-32844945D01*
X66786040Y-32844942D01*
X66907946Y-32723036D01*
X66907949Y-32723032D01*
X66998450Y-32576309D01*
X66998455Y-32576298D01*
X67052682Y-32412650D01*
X67063001Y-32311652D01*
X67063002Y-32311639D01*
X67063002Y-32224998D01*
X66338002Y-32224998D01*
X66338002Y-32999997D01*
X65838002Y-32999997D01*
X65838002Y-32224998D01*
X65113003Y-32224998D01*
X65113003Y-32311652D01*
X62650501Y-32311652D01*
X62650502Y-32311639D01*
X62650502Y-32224998D01*
X61925502Y-32224998D01*
X61925502Y-32999997D01*
X61425502Y-32999997D01*
X61425502Y-32224998D01*
X60700503Y-32224998D01*
X60700503Y-32311652D01*
X58400501Y-32311652D01*
X58400502Y-32311639D01*
X58400502Y-32224998D01*
X57675502Y-32224998D01*
X57675502Y-32999997D01*
X57175502Y-32999997D01*
X57175502Y-32224998D01*
X56450503Y-32224998D01*
X56450503Y-32311652D01*
X54063001Y-32311652D01*
X54063002Y-32311639D01*
X54063002Y-32224998D01*
X53338002Y-32224998D01*
X53338002Y-32999997D01*
X52838002Y-32999997D01*
X52838002Y-32224998D01*
X52113002Y-32224998D01*
X52092496Y-32245504D01*
X52068610Y-32258546D01*
X52046606Y-32274568D01*
X52038392Y-32275046D01*
X52031173Y-32278988D01*
X52004027Y-32277046D01*
X51976854Y-32278628D01*
X51969686Y-32274589D01*
X51961481Y-32274003D01*
X51939694Y-32257693D01*
X51915980Y-32244334D01*
X51910273Y-32235669D01*
X51905548Y-32232132D01*
X51895206Y-32215801D01*
X51892484Y-32210656D01*
X51865084Y-32144505D01*
X51832186Y-32095270D01*
X51828651Y-32089979D01*
X51782956Y-32021589D01*
X51782952Y-32021584D01*
X49778413Y-30017045D01*
X49728497Y-29983694D01*
X49695219Y-29961459D01*
X49655495Y-29934916D01*
X49655494Y-29934915D01*
X49655492Y-29934914D01*
X49655490Y-29934913D01*
X49518917Y-29878343D01*
X49518907Y-29878340D01*
X49373920Y-29849500D01*
X49373918Y-29849500D01*
X47949729Y-29849500D01*
X47920288Y-29840855D01*
X47890302Y-29834332D01*
X47885286Y-29830577D01*
X47882690Y-29829815D01*
X47862048Y-29813181D01*
X47792811Y-29743944D01*
X47759326Y-29682621D01*
X47764310Y-29612929D01*
X47806182Y-29556996D01*
X47841489Y-29538557D01*
X47926298Y-29510454D01*
X47926311Y-29510448D01*
X48073034Y-29419947D01*
X48073038Y-29419944D01*
X48194944Y-29298038D01*
X48194947Y-29298034D01*
X48285448Y-29151311D01*
X48285453Y-29151300D01*
X48339680Y-28987652D01*
X48349999Y-28886654D01*
X48350000Y-28886641D01*
X48350000Y-28850000D01*
X47436500Y-28850000D01*
X47369461Y-28830315D01*
X47323706Y-28777511D01*
X47312500Y-28726000D01*
X47312500Y-28600000D01*
X47186500Y-28600000D01*
X47119461Y-28580315D01*
X47073706Y-28527511D01*
X47062500Y-28476000D01*
X47062500Y-28350000D01*
X47562500Y-28350000D01*
X48349999Y-28350000D01*
X48349999Y-28313360D01*
X48349998Y-28313345D01*
X48339680Y-28212347D01*
X48285453Y-28048699D01*
X48285448Y-28048688D01*
X48194947Y-27901965D01*
X48194944Y-27901961D01*
X48073038Y-27780055D01*
X48073034Y-27780052D01*
X47926311Y-27689551D01*
X47926300Y-27689546D01*
X47762652Y-27635319D01*
X47661654Y-27625000D01*
X47562500Y-27625000D01*
X47562500Y-28350000D01*
X47062500Y-28350000D01*
X47062500Y-27624999D01*
X46963360Y-27625000D01*
X46963344Y-27625001D01*
X46862347Y-27635319D01*
X46698699Y-27689546D01*
X46698688Y-27689551D01*
X46551965Y-27780052D01*
X46538032Y-27793985D01*
X46476708Y-27827468D01*
X46407016Y-27822482D01*
X46362672Y-27793982D01*
X46348351Y-27779661D01*
X46348350Y-27779660D01*
X46219063Y-27699915D01*
X46201518Y-27689093D01*
X46201513Y-27689091D01*
X46200069Y-27688612D01*
X46037753Y-27634826D01*
X46037751Y-27634825D01*
X45936678Y-27624500D01*
X45238330Y-27624500D01*
X45238312Y-27624501D01*
X45137247Y-27634825D01*
X44973484Y-27689092D01*
X44973481Y-27689093D01*
X44826648Y-27779661D01*
X44793129Y-27813181D01*
X44731806Y-27846666D01*
X44705448Y-27849500D01*
X44194520Y-27849500D01*
X44127481Y-27829815D01*
X44081726Y-27777011D01*
X44079959Y-27772953D01*
X44062871Y-27731700D01*
X44025800Y-27642202D01*
X43931149Y-27518851D01*
X43807798Y-27424200D01*
X43807794Y-27424198D01*
X43664151Y-27364699D01*
X43664149Y-27364698D01*
X43548701Y-27349500D01*
X42751296Y-27349500D01*
X42635857Y-27364696D01*
X42635848Y-27364699D01*
X42492205Y-27424198D01*
X42492202Y-27424199D01*
X42492202Y-27424200D01*
X42368851Y-27518851D01*
X42279862Y-27634824D01*
X42274198Y-27642205D01*
X42214699Y-27785848D01*
X42214698Y-27785850D01*
X42199500Y-27901298D01*
X42199500Y-29298703D01*
X42214696Y-29414142D01*
X42214699Y-29414151D01*
X42273867Y-29556996D01*
X42274200Y-29557798D01*
X42368851Y-29681149D01*
X42492202Y-29775800D01*
X42635849Y-29835301D01*
X42751299Y-29850500D01*
X43548700Y-29850499D01*
X43548703Y-29850499D01*
X43664142Y-29835303D01*
X43664146Y-29835301D01*
X43664151Y-29835301D01*
X43807798Y-29775800D01*
X43931149Y-29681149D01*
X44025800Y-29557798D01*
X44079959Y-29427046D01*
X44123800Y-29372644D01*
X44190094Y-29350579D01*
X44194520Y-29350500D01*
X44705448Y-29350500D01*
X44772487Y-29370185D01*
X44793129Y-29386819D01*
X44826650Y-29420340D01*
X44973484Y-29510908D01*
X45137247Y-29565174D01*
X45238323Y-29575500D01*
X45450268Y-29575499D01*
X45517308Y-29595183D01*
X45537950Y-29611818D01*
X46275264Y-30349131D01*
X47004549Y-31078416D01*
X47069818Y-31143685D01*
X47109085Y-31182952D01*
X47231998Y-31265080D01*
X47232011Y-31265087D01*
X47344196Y-31311555D01*
X47368587Y-31321658D01*
X47368591Y-31321658D01*
X47368592Y-31321659D01*
X47513579Y-31350500D01*
X47513582Y-31350500D01*
X47513583Y-31350500D01*
X47661417Y-31350500D01*
X48937770Y-31350500D01*
X49004809Y-31370185D01*
X49025451Y-31386819D01*
X50413181Y-32774549D01*
X50427884Y-32801476D01*
X50444477Y-32827295D01*
X50445368Y-32833495D01*
X50446666Y-32835872D01*
X50449500Y-32862230D01*
X50449500Y-32964729D01*
X50429815Y-33031768D01*
X50428602Y-33033620D01*
X50401988Y-33073449D01*
X50401987Y-33073452D01*
X50334106Y-33237332D01*
X50334103Y-33237341D01*
X50299500Y-33411304D01*
X50299500Y-33411309D01*
X50299500Y-33588691D01*
X50299500Y-33588693D01*
X50299499Y-33588693D01*
X50326874Y-33726308D01*
X50320647Y-33795900D01*
X50277784Y-33851077D01*
X50211895Y-33874322D01*
X50205257Y-33874500D01*
X48672953Y-33874500D01*
X48605914Y-33854815D01*
X48585272Y-33838181D01*
X48386818Y-33639727D01*
X48353333Y-33578404D01*
X48350499Y-33552046D01*
X48350499Y-33213330D01*
X48350498Y-33213313D01*
X48340174Y-33112247D01*
X48327319Y-33073453D01*
X48285908Y-32948484D01*
X48195340Y-32801650D01*
X48073350Y-32679660D01*
X47926516Y-32589092D01*
X47762753Y-32534826D01*
X47762751Y-32534825D01*
X47661678Y-32524500D01*
X47063330Y-32524500D01*
X47063312Y-32524501D01*
X46962247Y-32534825D01*
X46798484Y-32589092D01*
X46798481Y-32589093D01*
X46651648Y-32679661D01*
X46537681Y-32793629D01*
X46476358Y-32827114D01*
X46406666Y-32822130D01*
X46362319Y-32793629D01*
X46248351Y-32679661D01*
X46248350Y-32679660D01*
X46101516Y-32589092D01*
X45937753Y-32534826D01*
X45937751Y-32534825D01*
X45836678Y-32524500D01*
X45238330Y-32524500D01*
X45238312Y-32524501D01*
X45137247Y-32534825D01*
X44973484Y-32589092D01*
X44973481Y-32589093D01*
X44826648Y-32679661D01*
X44704660Y-32801649D01*
X44704659Y-32801651D01*
X44696058Y-32815596D01*
X44644110Y-32862321D01*
X44590519Y-32874500D01*
X44218882Y-32874500D01*
X44151843Y-32854815D01*
X44106088Y-32802011D01*
X44095943Y-32766684D01*
X44085302Y-32685857D01*
X44085301Y-32685849D01*
X44025800Y-32542202D01*
X43931149Y-32418851D01*
X43807798Y-32324200D01*
X43807794Y-32324198D01*
X43664151Y-32264699D01*
X43664149Y-32264698D01*
X43548701Y-32249500D01*
X42751296Y-32249500D01*
X42635857Y-32264696D01*
X42635848Y-32264699D01*
X42492205Y-32324198D01*
X42492202Y-32324199D01*
X42492202Y-32324200D01*
X42368851Y-32418851D01*
X42287784Y-32524500D01*
X42274198Y-32542205D01*
X42214699Y-32685848D01*
X42214698Y-32685850D01*
X42199500Y-32801298D01*
X42199500Y-34198703D01*
X42214696Y-34314142D01*
X42214699Y-34314151D01*
X42274093Y-34457541D01*
X42274200Y-34457798D01*
X42368851Y-34581149D01*
X42492202Y-34675800D01*
X42635849Y-34735301D01*
X42751299Y-34750500D01*
X43548700Y-34750499D01*
X43548703Y-34750499D01*
X43664142Y-34735303D01*
X43664146Y-34735301D01*
X43664151Y-34735301D01*
X43807798Y-34675800D01*
X43931149Y-34581149D01*
X44025800Y-34457798D01*
X44085301Y-34314151D01*
X44095943Y-34233314D01*
X44124209Y-34169418D01*
X44182534Y-34130947D01*
X44218882Y-34125500D01*
X44590519Y-34125500D01*
X44657558Y-34145185D01*
X44696058Y-34184404D01*
X44704660Y-34198350D01*
X44826650Y-34320340D01*
X44973484Y-34410908D01*
X45137247Y-34465174D01*
X45238323Y-34475500D01*
X45836676Y-34475499D01*
X45836684Y-34475498D01*
X45836687Y-34475498D01*
X45892030Y-34469844D01*
X45937753Y-34465174D01*
X46101516Y-34410908D01*
X46248350Y-34320340D01*
X46362319Y-34206371D01*
X46423642Y-34172886D01*
X46493334Y-34177870D01*
X46537681Y-34206371D01*
X46651650Y-34320340D01*
X46798484Y-34410908D01*
X46962247Y-34465174D01*
X47063323Y-34475500D01*
X47402046Y-34475499D01*
X47469085Y-34495183D01*
X47489727Y-34511818D01*
X47963763Y-34985855D01*
X47963767Y-34985858D01*
X48066208Y-35054308D01*
X48066215Y-35054312D01*
X48130856Y-35081087D01*
X48180048Y-35101463D01*
X48200097Y-35105451D01*
X48273202Y-35119992D01*
X48300892Y-35125501D01*
X48300894Y-35125501D01*
X48430221Y-35125501D01*
X48430241Y-35125500D01*
X50975500Y-35125500D01*
X51042539Y-35145185D01*
X51088294Y-35197989D01*
X51099500Y-35249500D01*
X51099500Y-35388695D01*
X51134103Y-35562658D01*
X51134106Y-35562667D01*
X51201983Y-35726540D01*
X51201990Y-35726553D01*
X51300535Y-35874034D01*
X51300538Y-35874038D01*
X51425961Y-35999461D01*
X51425965Y-35999464D01*
X51573446Y-36098009D01*
X51573459Y-36098016D01*
X51696363Y-36148923D01*
X51737334Y-36165894D01*
X51737336Y-36165894D01*
X51737341Y-36165896D01*
X51911304Y-36200499D01*
X51911307Y-36200500D01*
X51911309Y-36200500D01*
X52088693Y-36200500D01*
X52088694Y-36200499D01*
X52146682Y-36188964D01*
X52262658Y-36165896D01*
X52262661Y-36165894D01*
X52262666Y-36165894D01*
X52426547Y-36098013D01*
X52426550Y-36098010D01*
X52426552Y-36098010D01*
X52466378Y-36071399D01*
X52533055Y-36050520D01*
X52535270Y-36050500D01*
X103173920Y-36050500D01*
X103271462Y-36031096D01*
X103318913Y-36021658D01*
X103455495Y-35965084D01*
X103521416Y-35921037D01*
X103578416Y-35882952D01*
X108031194Y-31430172D01*
X108092515Y-31396689D01*
X108138265Y-31395382D01*
X108233713Y-31410500D01*
X108233715Y-31410500D01*
X108446286Y-31410500D01*
X108446287Y-31410500D01*
X108656243Y-31377246D01*
X108858412Y-31311557D01*
X109047816Y-31215051D01*
X109134138Y-31152335D01*
X109219786Y-31090109D01*
X109219788Y-31090106D01*
X109219792Y-31090104D01*
X109370104Y-30939792D01*
X109384392Y-30920126D01*
X109426903Y-30861615D01*
X109431234Y-30858274D01*
X109433508Y-30853297D01*
X109458610Y-30837164D01*
X109482233Y-30818949D01*
X109488904Y-30817696D01*
X109492286Y-30815523D01*
X109527221Y-30810500D01*
X109692779Y-30810500D01*
X109759818Y-30830185D01*
X109793097Y-30861615D01*
X109849892Y-30939788D01*
X110000213Y-31090109D01*
X110172179Y-31215048D01*
X110172181Y-31215049D01*
X110172184Y-31215051D01*
X110361588Y-31311557D01*
X110563757Y-31377246D01*
X110773713Y-31410500D01*
X110773714Y-31410500D01*
X110986286Y-31410500D01*
X110986287Y-31410500D01*
X111196243Y-31377246D01*
X111398412Y-31311557D01*
X111587816Y-31215051D01*
X111674138Y-31152335D01*
X111759786Y-31090109D01*
X111759788Y-31090106D01*
X111759792Y-31090104D01*
X111910104Y-30939792D01*
X111924392Y-30920126D01*
X111966903Y-30861615D01*
X111971234Y-30858274D01*
X111973508Y-30853297D01*
X111998610Y-30837164D01*
X112022233Y-30818949D01*
X112028904Y-30817696D01*
X112032286Y-30815523D01*
X112067221Y-30810500D01*
X112232779Y-30810500D01*
X112299818Y-30830185D01*
X112333097Y-30861615D01*
X112389892Y-30939788D01*
X112540213Y-31090109D01*
X112712179Y-31215048D01*
X112712181Y-31215049D01*
X112712184Y-31215051D01*
X112901588Y-31311557D01*
X113103757Y-31377246D01*
X113313713Y-31410500D01*
X113313714Y-31410500D01*
X113526286Y-31410500D01*
X113526287Y-31410500D01*
X113736243Y-31377246D01*
X113938412Y-31311557D01*
X114127816Y-31215051D01*
X114214471Y-31152093D01*
X114299784Y-31090110D01*
X114299784Y-31090109D01*
X114299792Y-31090104D01*
X114413329Y-30976566D01*
X114474648Y-30943084D01*
X114544340Y-30948068D01*
X114600274Y-30989939D01*
X114617189Y-31020917D01*
X114666202Y-31152328D01*
X114666206Y-31152335D01*
X114752452Y-31267544D01*
X114752455Y-31267547D01*
X114867664Y-31353793D01*
X114867671Y-31353797D01*
X115002517Y-31404091D01*
X115002516Y-31404091D01*
X115009444Y-31404835D01*
X115062127Y-31410500D01*
X116197769Y-31410499D01*
X116264808Y-31430184D01*
X116285450Y-31446818D01*
X120290823Y-35452191D01*
X120324308Y-35513514D01*
X120324759Y-35515680D01*
X120334104Y-35562660D01*
X120334106Y-35562668D01*
X120401983Y-35726540D01*
X120401990Y-35726553D01*
X120500535Y-35874034D01*
X120500538Y-35874038D01*
X120625961Y-35999461D01*
X120625965Y-35999464D01*
X120773446Y-36098009D01*
X120773459Y-36098016D01*
X120896363Y-36148923D01*
X120937334Y-36165894D01*
X120937336Y-36165894D01*
X120937341Y-36165896D01*
X121111304Y-36200499D01*
X121111307Y-36200500D01*
X121111309Y-36200500D01*
X121288693Y-36200500D01*
X121288694Y-36200499D01*
X121346682Y-36188964D01*
X121462658Y-36165896D01*
X121462661Y-36165894D01*
X121462666Y-36165894D01*
X121626547Y-36098013D01*
X121774035Y-35999464D01*
X121899464Y-35874035D01*
X121998013Y-35726547D01*
X122065894Y-35562666D01*
X122068276Y-35550694D01*
X122100499Y-35388695D01*
X122100500Y-35388693D01*
X122100500Y-35211306D01*
X122100499Y-35211304D01*
X122065896Y-35037341D01*
X122065893Y-35037332D01*
X121998016Y-34873459D01*
X121998009Y-34873446D01*
X121899464Y-34725965D01*
X121899461Y-34725961D01*
X121774038Y-34600538D01*
X121774034Y-34600535D01*
X121626553Y-34501990D01*
X121626540Y-34501983D01*
X121462668Y-34434106D01*
X121462660Y-34434104D01*
X121415680Y-34424759D01*
X121353769Y-34392374D01*
X121352191Y-34390823D01*
X117346818Y-30385450D01*
X117332114Y-30358522D01*
X117315522Y-30332704D01*
X117314630Y-30326503D01*
X117313333Y-30324127D01*
X117310499Y-30297769D01*
X117310499Y-30284983D01*
X125309500Y-30284983D01*
X125309500Y-31685001D01*
X125309501Y-31685018D01*
X125320000Y-31787796D01*
X125320001Y-31787799D01*
X125375185Y-31954331D01*
X125375186Y-31954334D01*
X125467288Y-32103656D01*
X125591344Y-32227712D01*
X125740666Y-32319814D01*
X125907203Y-32374999D01*
X126009991Y-32385500D01*
X126810008Y-32385499D01*
X126810016Y-32385498D01*
X126810019Y-32385498D01*
X126866302Y-32379748D01*
X126912797Y-32374999D01*
X127079334Y-32319814D01*
X127228656Y-32227712D01*
X127352712Y-32103656D01*
X127444814Y-31954334D01*
X127499999Y-31787797D01*
X127510500Y-31685009D01*
X127510499Y-30284992D01*
X127510498Y-30284983D01*
X130909500Y-30284983D01*
X130909500Y-31685001D01*
X130909501Y-31685018D01*
X130920000Y-31787796D01*
X130920001Y-31787799D01*
X130975185Y-31954331D01*
X130975186Y-31954334D01*
X131067288Y-32103656D01*
X131191344Y-32227712D01*
X131340666Y-32319814D01*
X131507203Y-32374999D01*
X131609991Y-32385500D01*
X132410008Y-32385499D01*
X132410016Y-32385498D01*
X132410019Y-32385498D01*
X132466302Y-32379748D01*
X132512797Y-32374999D01*
X132679334Y-32319814D01*
X132828656Y-32227712D01*
X132952712Y-32103656D01*
X133044814Y-31954334D01*
X133099999Y-31787797D01*
X133110500Y-31685009D01*
X133110499Y-30284992D01*
X133099999Y-30182203D01*
X133044814Y-30015666D01*
X132952712Y-29866344D01*
X132828656Y-29742288D01*
X132679334Y-29650186D01*
X132512797Y-29595001D01*
X132512795Y-29595000D01*
X132410010Y-29584500D01*
X131609998Y-29584500D01*
X131609980Y-29584501D01*
X131507203Y-29595000D01*
X131507200Y-29595001D01*
X131340668Y-29650185D01*
X131340663Y-29650187D01*
X131191342Y-29742289D01*
X131067289Y-29866342D01*
X130975187Y-30015663D01*
X130975186Y-30015666D01*
X130920001Y-30182203D01*
X130920001Y-30182204D01*
X130920000Y-30182204D01*
X130909500Y-30284983D01*
X127510498Y-30284983D01*
X127508122Y-30261726D01*
X127499999Y-30182203D01*
X127499998Y-30182200D01*
X127459505Y-30060001D01*
X127444814Y-30015666D01*
X127352712Y-29866344D01*
X127228656Y-29742288D01*
X127079334Y-29650186D01*
X126912797Y-29595001D01*
X126912795Y-29595000D01*
X126810010Y-29584500D01*
X126009998Y-29584500D01*
X126009980Y-29584501D01*
X125907203Y-29595000D01*
X125907200Y-29595001D01*
X125740668Y-29650185D01*
X125740663Y-29650187D01*
X125591342Y-29742289D01*
X125467289Y-29866342D01*
X125375187Y-30015663D01*
X125375186Y-30015666D01*
X125320001Y-30182203D01*
X125320001Y-30182204D01*
X125320000Y-30182204D01*
X125309500Y-30284983D01*
X117310499Y-30284983D01*
X117310499Y-29162129D01*
X117310498Y-29162123D01*
X117309357Y-29151511D01*
X117304091Y-29102517D01*
X117302810Y-29099083D01*
X117253797Y-28967671D01*
X117253793Y-28967664D01*
X117167547Y-28852455D01*
X117167544Y-28852452D01*
X117052335Y-28766206D01*
X117052328Y-28766202D01*
X116917482Y-28715908D01*
X116917483Y-28715908D01*
X116857883Y-28709501D01*
X116857881Y-28709500D01*
X116857873Y-28709500D01*
X116857864Y-28709500D01*
X115062129Y-28709500D01*
X115062123Y-28709501D01*
X115002516Y-28715908D01*
X114867671Y-28766202D01*
X114867664Y-28766206D01*
X114752455Y-28852452D01*
X114752452Y-28852455D01*
X114666206Y-28967664D01*
X114666203Y-28967669D01*
X114617189Y-29099083D01*
X114575317Y-29155016D01*
X114509853Y-29179433D01*
X114441580Y-29164581D01*
X114413326Y-29143430D01*
X114299786Y-29029890D01*
X114127820Y-28904951D01*
X113938414Y-28808444D01*
X113938413Y-28808443D01*
X113938412Y-28808443D01*
X113736243Y-28742754D01*
X113736241Y-28742753D01*
X113736240Y-28742753D01*
X113574957Y-28717208D01*
X113526287Y-28709500D01*
X113313713Y-28709500D01*
X113265042Y-28717208D01*
X113103760Y-28742753D01*
X112901585Y-28808444D01*
X112712179Y-28904951D01*
X112540213Y-29029890D01*
X112389892Y-29180211D01*
X112333097Y-29258385D01*
X112328765Y-29261725D01*
X112326492Y-29266703D01*
X112301389Y-29282835D01*
X112277767Y-29301051D01*
X112271095Y-29302303D01*
X112267714Y-29304477D01*
X112232779Y-29309500D01*
X112067221Y-29309500D01*
X112000182Y-29289815D01*
X111966903Y-29258385D01*
X111910107Y-29180211D01*
X111759786Y-29029890D01*
X111587820Y-28904951D01*
X111398414Y-28808444D01*
X111398413Y-28808443D01*
X111398412Y-28808443D01*
X111196243Y-28742754D01*
X111196241Y-28742753D01*
X111196240Y-28742753D01*
X111034957Y-28717208D01*
X110986287Y-28709500D01*
X110773713Y-28709500D01*
X110725042Y-28717208D01*
X110563760Y-28742753D01*
X110361585Y-28808444D01*
X110172179Y-28904951D01*
X110000213Y-29029890D01*
X109849892Y-29180211D01*
X109793097Y-29258385D01*
X109788765Y-29261725D01*
X109786492Y-29266703D01*
X109761389Y-29282835D01*
X109737767Y-29301051D01*
X109731095Y-29302303D01*
X109727714Y-29304477D01*
X109692779Y-29309500D01*
X109527221Y-29309500D01*
X109460182Y-29289815D01*
X109426903Y-29258385D01*
X109370107Y-29180211D01*
X109219786Y-29029890D01*
X109047820Y-28904951D01*
X108858414Y-28808444D01*
X108858413Y-28808443D01*
X108858412Y-28808443D01*
X108656243Y-28742754D01*
X108656241Y-28742753D01*
X108656240Y-28742753D01*
X108494957Y-28717208D01*
X108446287Y-28709500D01*
X108233713Y-28709500D01*
X108185042Y-28717208D01*
X108023760Y-28742753D01*
X107821585Y-28808444D01*
X107632179Y-28904951D01*
X107460213Y-29029890D01*
X107309890Y-29180213D01*
X107184951Y-29352179D01*
X107088444Y-29541585D01*
X107022753Y-29743760D01*
X106989500Y-29953713D01*
X106989500Y-30166291D01*
X107004616Y-30261726D01*
X106995662Y-30331020D01*
X106969824Y-30368806D01*
X102825451Y-34513181D01*
X102764128Y-34546666D01*
X102737770Y-34549500D01*
X74134452Y-34549500D01*
X74067413Y-34529815D01*
X74021658Y-34477011D01*
X74011714Y-34407853D01*
X74040739Y-34344297D01*
X74046771Y-34337819D01*
X74751337Y-33633253D01*
X76982162Y-31402426D01*
X77043483Y-31368943D01*
X77108162Y-31372179D01*
X77123757Y-31377246D01*
X77333713Y-31410500D01*
X77333714Y-31410500D01*
X77546286Y-31410500D01*
X77546287Y-31410500D01*
X77756243Y-31377246D01*
X77958412Y-31311557D01*
X78147816Y-31215051D01*
X78234138Y-31152335D01*
X78319786Y-31090109D01*
X78319788Y-31090106D01*
X78319792Y-31090104D01*
X78470104Y-30939792D01*
X78470106Y-30939788D01*
X78470109Y-30939786D01*
X78595048Y-30767820D01*
X78595047Y-30767820D01*
X78595051Y-30767816D01*
X78599514Y-30759054D01*
X78647488Y-30708259D01*
X78715308Y-30691463D01*
X78781444Y-30713999D01*
X78820486Y-30759056D01*
X78824951Y-30767820D01*
X78949890Y-30939786D01*
X79100213Y-31090109D01*
X79272179Y-31215048D01*
X79272181Y-31215049D01*
X79272184Y-31215051D01*
X79461588Y-31311557D01*
X79663757Y-31377246D01*
X79873713Y-31410500D01*
X79873714Y-31410500D01*
X80086286Y-31410500D01*
X80086287Y-31410500D01*
X80296243Y-31377246D01*
X80498412Y-31311557D01*
X80687816Y-31215051D01*
X80774138Y-31152335D01*
X80859786Y-31090109D01*
X80859788Y-31090106D01*
X80859792Y-31090104D01*
X81010104Y-30939792D01*
X81010106Y-30939788D01*
X81010109Y-30939786D01*
X81135048Y-30767820D01*
X81135047Y-30767820D01*
X81135051Y-30767816D01*
X81139514Y-30759054D01*
X81187488Y-30708259D01*
X81255308Y-30691463D01*
X81321444Y-30713999D01*
X81360486Y-30759056D01*
X81364951Y-30767820D01*
X81489890Y-30939786D01*
X81640213Y-31090109D01*
X81812179Y-31215048D01*
X81812181Y-31215049D01*
X81812184Y-31215051D01*
X82001588Y-31311557D01*
X82203757Y-31377246D01*
X82413713Y-31410500D01*
X82413714Y-31410500D01*
X82626286Y-31410500D01*
X82626287Y-31410500D01*
X82836243Y-31377246D01*
X83038412Y-31311557D01*
X83227816Y-31215051D01*
X83314138Y-31152335D01*
X83399786Y-31090109D01*
X83399788Y-31090106D01*
X83399792Y-31090104D01*
X83550104Y-30939792D01*
X83550106Y-30939788D01*
X83550109Y-30939786D01*
X83675048Y-30767820D01*
X83675047Y-30767820D01*
X83675051Y-30767816D01*
X83679514Y-30759054D01*
X83727488Y-30708259D01*
X83795308Y-30691463D01*
X83861444Y-30713999D01*
X83900486Y-30759056D01*
X83904951Y-30767820D01*
X84029890Y-30939786D01*
X84180213Y-31090109D01*
X84352179Y-31215048D01*
X84352181Y-31215049D01*
X84352184Y-31215051D01*
X84541588Y-31311557D01*
X84743757Y-31377246D01*
X84953713Y-31410500D01*
X84953714Y-31410500D01*
X85166286Y-31410500D01*
X85166287Y-31410500D01*
X85376243Y-31377246D01*
X85578412Y-31311557D01*
X85767816Y-31215051D01*
X85854471Y-31152093D01*
X85939784Y-31090110D01*
X85939784Y-31090109D01*
X85939792Y-31090104D01*
X86053329Y-30976566D01*
X86114648Y-30943084D01*
X86184340Y-30948068D01*
X86240274Y-30989939D01*
X86257189Y-31020917D01*
X86306202Y-31152328D01*
X86306206Y-31152335D01*
X86392452Y-31267544D01*
X86392455Y-31267547D01*
X86507664Y-31353793D01*
X86507671Y-31353797D01*
X86642517Y-31404091D01*
X86642516Y-31404091D01*
X86649444Y-31404835D01*
X86702127Y-31410500D01*
X88497872Y-31410499D01*
X88557483Y-31404091D01*
X88692331Y-31353796D01*
X88807546Y-31267546D01*
X88893796Y-31152331D01*
X88921365Y-31078416D01*
X88944091Y-31017482D01*
X88944608Y-31012670D01*
X88950500Y-30957873D01*
X88950499Y-29953753D01*
X92810000Y-29953753D01*
X92810000Y-30166246D01*
X92843242Y-30376127D01*
X92843242Y-30376130D01*
X92908904Y-30578217D01*
X93005375Y-30767550D01*
X93044728Y-30821716D01*
X93677037Y-30189408D01*
X93694075Y-30252993D01*
X93759901Y-30367007D01*
X93852993Y-30460099D01*
X93967007Y-30525925D01*
X94030590Y-30542962D01*
X93398282Y-31175269D01*
X93398282Y-31175270D01*
X93452449Y-31214624D01*
X93641782Y-31311095D01*
X93843870Y-31376757D01*
X94053754Y-31410000D01*
X94266246Y-31410000D01*
X94476127Y-31376757D01*
X94476130Y-31376757D01*
X94678217Y-31311095D01*
X94867554Y-31214622D01*
X94921716Y-31175270D01*
X94921717Y-31175270D01*
X94289408Y-30542962D01*
X94352993Y-30525925D01*
X94467007Y-30460099D01*
X94560099Y-30367007D01*
X94625925Y-30252993D01*
X94642962Y-30189408D01*
X95275270Y-30821717D01*
X95275270Y-30821716D01*
X95314622Y-30767554D01*
X95319514Y-30757954D01*
X95367488Y-30707157D01*
X95435308Y-30690361D01*
X95501444Y-30712897D01*
X95540486Y-30757954D01*
X95545375Y-30767550D01*
X95584728Y-30821716D01*
X96217037Y-30189408D01*
X96234075Y-30252993D01*
X96299901Y-30367007D01*
X96392993Y-30460099D01*
X96507007Y-30525925D01*
X96570590Y-30542962D01*
X95938282Y-31175269D01*
X95938282Y-31175270D01*
X95992449Y-31214624D01*
X96181782Y-31311095D01*
X96383870Y-31376757D01*
X96593754Y-31410000D01*
X96806246Y-31410000D01*
X97016127Y-31376757D01*
X97016130Y-31376757D01*
X97218217Y-31311095D01*
X97407554Y-31214622D01*
X97461716Y-31175270D01*
X97461717Y-31175270D01*
X96829408Y-30542962D01*
X96892993Y-30525925D01*
X97007007Y-30460099D01*
X97100099Y-30367007D01*
X97165925Y-30252993D01*
X97182962Y-30189409D01*
X97815270Y-30821717D01*
X97815270Y-30821716D01*
X97854622Y-30767554D01*
X97859514Y-30757954D01*
X97907488Y-30707157D01*
X97975308Y-30690361D01*
X98041444Y-30712897D01*
X98080486Y-30757954D01*
X98085375Y-30767550D01*
X98124728Y-30821716D01*
X98757037Y-30189408D01*
X98774075Y-30252993D01*
X98839901Y-30367007D01*
X98932993Y-30460099D01*
X99047007Y-30525925D01*
X99110590Y-30542962D01*
X98478282Y-31175269D01*
X98478282Y-31175270D01*
X98532449Y-31214624D01*
X98721782Y-31311095D01*
X98923870Y-31376757D01*
X99133754Y-31410000D01*
X99346246Y-31410000D01*
X99556127Y-31376757D01*
X99556130Y-31376757D01*
X99758217Y-31311095D01*
X99947554Y-31214622D01*
X100001716Y-31175270D01*
X100001717Y-31175270D01*
X99369408Y-30542962D01*
X99432993Y-30525925D01*
X99547007Y-30460099D01*
X99640099Y-30367007D01*
X99705925Y-30252993D01*
X99722962Y-30189408D01*
X100392356Y-30858803D01*
X100425841Y-30920126D01*
X100424926Y-30934831D01*
X100427497Y-30934555D01*
X100436401Y-31017373D01*
X100436403Y-31017380D01*
X100486645Y-31152086D01*
X100486649Y-31152093D01*
X100572809Y-31267187D01*
X100572812Y-31267190D01*
X100687906Y-31353350D01*
X100687913Y-31353354D01*
X100822620Y-31403596D01*
X100822627Y-31403598D01*
X100882155Y-31409999D01*
X100882172Y-31410000D01*
X101530000Y-31410000D01*
X101530000Y-30493012D01*
X101587007Y-30525925D01*
X101714174Y-30560000D01*
X101845826Y-30560000D01*
X101972993Y-30525925D01*
X102030000Y-30493012D01*
X102030000Y-31410000D01*
X102677828Y-31410000D01*
X102677844Y-31409999D01*
X102737372Y-31403598D01*
X102737379Y-31403596D01*
X102872086Y-31353354D01*
X102872093Y-31353350D01*
X102987187Y-31267190D01*
X102987190Y-31267187D01*
X103073350Y-31152093D01*
X103073354Y-31152086D01*
X103123596Y-31017379D01*
X103123598Y-31017372D01*
X103129999Y-30957844D01*
X103130000Y-30957827D01*
X103130000Y-30310000D01*
X102213012Y-30310000D01*
X102245925Y-30252993D01*
X102280000Y-30125826D01*
X102280000Y-29994174D01*
X102245925Y-29867007D01*
X102213012Y-29810000D01*
X103130000Y-29810000D01*
X103130000Y-29162172D01*
X103129999Y-29162155D01*
X103123598Y-29102627D01*
X103123596Y-29102620D01*
X103073354Y-28967913D01*
X103073350Y-28967906D01*
X102987190Y-28852812D01*
X102987187Y-28852809D01*
X102872093Y-28766649D01*
X102872086Y-28766645D01*
X102737379Y-28716403D01*
X102737372Y-28716401D01*
X102677844Y-28710000D01*
X102030000Y-28710000D01*
X102030000Y-29626988D01*
X101972993Y-29594075D01*
X101845826Y-29560000D01*
X101714174Y-29560000D01*
X101587007Y-29594075D01*
X101530000Y-29626988D01*
X101530000Y-28710000D01*
X100882155Y-28710000D01*
X100822627Y-28716401D01*
X100822620Y-28716403D01*
X100687913Y-28766645D01*
X100687906Y-28766649D01*
X100572812Y-28852809D01*
X100572809Y-28852812D01*
X100486649Y-28967906D01*
X100486645Y-28967913D01*
X100436403Y-29102619D01*
X100436401Y-29102626D01*
X100427497Y-29185444D01*
X100424434Y-29185114D01*
X100425336Y-29202094D01*
X100392356Y-29261195D01*
X99722962Y-29930590D01*
X99705925Y-29867007D01*
X99640099Y-29752993D01*
X99547007Y-29659901D01*
X99432993Y-29594075D01*
X99369409Y-29577037D01*
X100001716Y-28944728D01*
X99947550Y-28905375D01*
X99758217Y-28808904D01*
X99556129Y-28743242D01*
X99346246Y-28710000D01*
X99133754Y-28710000D01*
X98923872Y-28743242D01*
X98923869Y-28743242D01*
X98721782Y-28808904D01*
X98532439Y-28905380D01*
X98478282Y-28944727D01*
X98478282Y-28944728D01*
X99110591Y-29577037D01*
X99047007Y-29594075D01*
X98932993Y-29659901D01*
X98839901Y-29752993D01*
X98774075Y-29867007D01*
X98757037Y-29930591D01*
X98124728Y-29298282D01*
X98124727Y-29298282D01*
X98085380Y-29352440D01*
X98080483Y-29362051D01*
X98032506Y-29412845D01*
X97964684Y-29429638D01*
X97898550Y-29407098D01*
X97859516Y-29362048D01*
X97854626Y-29352452D01*
X97815270Y-29298282D01*
X97182962Y-29930590D01*
X97165925Y-29867007D01*
X97100099Y-29752993D01*
X97007007Y-29659901D01*
X96892993Y-29594075D01*
X96829409Y-29577037D01*
X97461716Y-28944728D01*
X97407550Y-28905375D01*
X97218217Y-28808904D01*
X97016129Y-28743242D01*
X96806246Y-28710000D01*
X96593754Y-28710000D01*
X96383872Y-28743242D01*
X96383869Y-28743242D01*
X96181782Y-28808904D01*
X95992439Y-28905380D01*
X95938282Y-28944727D01*
X95938282Y-28944728D01*
X96570591Y-29577037D01*
X96507007Y-29594075D01*
X96392993Y-29659901D01*
X96299901Y-29752993D01*
X96234075Y-29867007D01*
X96217037Y-29930591D01*
X95584728Y-29298282D01*
X95584727Y-29298282D01*
X95545380Y-29352440D01*
X95540483Y-29362051D01*
X95492506Y-29412845D01*
X95424684Y-29429638D01*
X95358550Y-29407098D01*
X95319516Y-29362048D01*
X95314626Y-29352452D01*
X95275270Y-29298282D01*
X94642962Y-29930590D01*
X94625925Y-29867007D01*
X94560099Y-29752993D01*
X94467007Y-29659901D01*
X94352993Y-29594075D01*
X94289409Y-29577037D01*
X94921716Y-28944728D01*
X94867550Y-28905375D01*
X94678217Y-28808904D01*
X94476129Y-28743242D01*
X94266246Y-28710000D01*
X94053754Y-28710000D01*
X93843872Y-28743242D01*
X93843869Y-28743242D01*
X93641782Y-28808904D01*
X93452439Y-28905380D01*
X93398282Y-28944727D01*
X93398282Y-28944728D01*
X94030591Y-29577037D01*
X93967007Y-29594075D01*
X93852993Y-29659901D01*
X93759901Y-29752993D01*
X93694075Y-29867007D01*
X93677037Y-29930591D01*
X93044728Y-29298282D01*
X93044727Y-29298282D01*
X93005380Y-29352439D01*
X92908904Y-29541782D01*
X92843242Y-29743869D01*
X92843242Y-29743872D01*
X92810000Y-29953753D01*
X88950499Y-29953753D01*
X88950499Y-29162128D01*
X88944091Y-29102517D01*
X88901286Y-28987750D01*
X88893798Y-28967673D01*
X88893793Y-28967664D01*
X88807547Y-28852455D01*
X88807544Y-28852452D01*
X88692335Y-28766206D01*
X88692328Y-28766202D01*
X88557482Y-28715908D01*
X88557483Y-28715908D01*
X88497883Y-28709501D01*
X88497881Y-28709500D01*
X88497873Y-28709500D01*
X88497865Y-28709500D01*
X87185453Y-28709500D01*
X87118414Y-28689815D01*
X87097772Y-28673181D01*
X85655294Y-27230703D01*
X84136770Y-25712180D01*
X84103286Y-25650858D01*
X84108270Y-25581166D01*
X84150142Y-25525233D01*
X84215606Y-25500816D01*
X84224452Y-25500500D01*
X187375500Y-25500500D01*
X187442539Y-25520185D01*
X187488294Y-25572989D01*
X187499500Y-25624500D01*
X187499500Y-101975500D01*
X187479815Y-102042539D01*
X187427011Y-102088294D01*
X187375500Y-102099500D01*
X131001229Y-102099500D01*
X130934190Y-102079815D01*
X130888435Y-102027011D01*
X130878491Y-101957853D01*
X130907516Y-101894297D01*
X130913548Y-101887819D01*
X133864549Y-98936818D01*
X133925872Y-98903333D01*
X133952230Y-98900499D01*
X135187871Y-98900499D01*
X135187872Y-98900499D01*
X135247483Y-98894091D01*
X135382331Y-98843796D01*
X135497546Y-98757546D01*
X135583796Y-98642331D01*
X135634091Y-98507483D01*
X135640500Y-98447873D01*
X135640500Y-98374500D01*
X135660185Y-98307461D01*
X135712989Y-98261706D01*
X135764500Y-98250500D01*
X142163718Y-98250500D01*
X142230757Y-98270185D01*
X142264036Y-98301615D01*
X142273136Y-98314140D01*
X142349892Y-98419788D01*
X142500213Y-98570109D01*
X142672179Y-98695048D01*
X142672181Y-98695049D01*
X142672184Y-98695051D01*
X142861588Y-98791557D01*
X143063757Y-98857246D01*
X143273713Y-98890500D01*
X143273714Y-98890500D01*
X143486286Y-98890500D01*
X143486287Y-98890500D01*
X143696243Y-98857246D01*
X143898412Y-98791557D01*
X144087816Y-98695051D01*
X144160374Y-98642335D01*
X144259786Y-98570109D01*
X144259788Y-98570106D01*
X144259792Y-98570104D01*
X144410104Y-98419792D01*
X144423563Y-98401267D01*
X144466903Y-98341615D01*
X144471234Y-98338274D01*
X144473508Y-98333297D01*
X144498610Y-98317164D01*
X144522233Y-98298949D01*
X144528904Y-98297696D01*
X144532286Y-98295523D01*
X144567221Y-98290500D01*
X144732779Y-98290500D01*
X144799818Y-98310185D01*
X144833097Y-98341615D01*
X144889892Y-98419788D01*
X145040213Y-98570109D01*
X145212179Y-98695048D01*
X145212181Y-98695049D01*
X145212184Y-98695051D01*
X145401588Y-98791557D01*
X145603757Y-98857246D01*
X145813713Y-98890500D01*
X145813714Y-98890500D01*
X146026286Y-98890500D01*
X146026287Y-98890500D01*
X146236243Y-98857246D01*
X146438412Y-98791557D01*
X146627816Y-98695051D01*
X146700374Y-98642335D01*
X146799786Y-98570109D01*
X146799788Y-98570106D01*
X146799792Y-98570104D01*
X146950104Y-98419792D01*
X146963563Y-98401267D01*
X147006903Y-98341615D01*
X147011234Y-98338274D01*
X147013508Y-98333297D01*
X147038610Y-98317164D01*
X147062233Y-98298949D01*
X147068904Y-98297696D01*
X147072286Y-98295523D01*
X147107221Y-98290500D01*
X147272779Y-98290500D01*
X147339818Y-98310185D01*
X147373097Y-98341615D01*
X147429892Y-98419788D01*
X147580213Y-98570109D01*
X147752179Y-98695048D01*
X147752181Y-98695049D01*
X147752184Y-98695051D01*
X147941588Y-98791557D01*
X148143757Y-98857246D01*
X148353713Y-98890500D01*
X148353714Y-98890500D01*
X148566286Y-98890500D01*
X148566287Y-98890500D01*
X148776243Y-98857246D01*
X148978412Y-98791557D01*
X149167816Y-98695051D01*
X149240379Y-98642331D01*
X149339784Y-98570110D01*
X149339784Y-98570109D01*
X149339792Y-98570104D01*
X149453329Y-98456566D01*
X149514648Y-98423084D01*
X149584340Y-98428068D01*
X149640274Y-98469939D01*
X149657189Y-98500917D01*
X149706202Y-98632328D01*
X149706206Y-98632335D01*
X149792452Y-98747544D01*
X149792455Y-98747547D01*
X149907664Y-98833793D01*
X149907671Y-98833797D01*
X150042517Y-98884091D01*
X150042516Y-98884091D01*
X150049444Y-98884835D01*
X150102127Y-98890500D01*
X151897872Y-98890499D01*
X151957483Y-98884091D01*
X152092331Y-98833796D01*
X152207546Y-98747546D01*
X152293796Y-98632331D01*
X152344091Y-98497483D01*
X152350500Y-98437873D01*
X152350499Y-96642128D01*
X152344091Y-96582517D01*
X152342810Y-96579083D01*
X152293797Y-96447671D01*
X152293793Y-96447664D01*
X152207547Y-96332455D01*
X152207544Y-96332452D01*
X152092335Y-96246206D01*
X152092328Y-96246202D01*
X151957482Y-96195908D01*
X151957483Y-96195908D01*
X151897883Y-96189501D01*
X151897881Y-96189500D01*
X151897873Y-96189500D01*
X151897865Y-96189500D01*
X151874500Y-96189500D01*
X151807461Y-96169815D01*
X151761706Y-96117011D01*
X151750500Y-96065500D01*
X151750500Y-91926079D01*
X151721659Y-91781092D01*
X151721658Y-91781091D01*
X151721658Y-91781087D01*
X151717791Y-91771751D01*
X151665087Y-91644511D01*
X151665080Y-91644498D01*
X151582952Y-91521585D01*
X151559901Y-91498534D01*
X151478416Y-91417049D01*
X149689701Y-89628334D01*
X147898549Y-87837181D01*
X147865064Y-87775858D01*
X147870048Y-87706166D01*
X147911920Y-87650233D01*
X147977384Y-87625816D01*
X147986230Y-87625500D01*
X149429548Y-87625500D01*
X149496587Y-87645185D01*
X149517229Y-87661819D01*
X156728181Y-94872772D01*
X156761666Y-94934095D01*
X156764500Y-94960453D01*
X156764500Y-95299168D01*
X156764501Y-95299187D01*
X156774825Y-95400252D01*
X156829092Y-95564015D01*
X156829093Y-95564018D01*
X156842149Y-95585185D01*
X156913391Y-95700687D01*
X156919661Y-95710851D01*
X157033629Y-95824819D01*
X157067114Y-95886142D01*
X157062130Y-95955834D01*
X157033629Y-96000181D01*
X156919661Y-96114148D01*
X156829093Y-96260981D01*
X156829091Y-96260986D01*
X156802523Y-96341164D01*
X156774826Y-96424747D01*
X156774826Y-96424748D01*
X156774825Y-96424748D01*
X156764500Y-96525815D01*
X156764500Y-97124169D01*
X156764501Y-97124187D01*
X156774825Y-97225252D01*
X156829092Y-97389015D01*
X156829093Y-97389018D01*
X156835559Y-97399501D01*
X156919660Y-97535850D01*
X157041650Y-97657840D01*
X157188484Y-97748408D01*
X157352247Y-97802674D01*
X157453323Y-97813000D01*
X158026676Y-97812999D01*
X158026684Y-97812998D01*
X158026687Y-97812998D01*
X158082030Y-97807344D01*
X158127753Y-97802674D01*
X158291516Y-97748408D01*
X158438350Y-97657840D01*
X158560340Y-97535850D01*
X158576652Y-97509404D01*
X158628600Y-97462679D01*
X158682191Y-97450500D01*
X159265500Y-97450500D01*
X159332539Y-97470185D01*
X159378294Y-97522989D01*
X159389500Y-97574500D01*
X159389500Y-97646287D01*
X159391371Y-97658097D01*
X159422753Y-97856239D01*
X159422753Y-97856241D01*
X159422754Y-97856243D01*
X159482558Y-98040301D01*
X159488444Y-98058414D01*
X159584951Y-98247820D01*
X159709890Y-98419786D01*
X159860213Y-98570109D01*
X160032182Y-98695050D01*
X160040946Y-98699516D01*
X160091742Y-98747491D01*
X160108536Y-98815312D01*
X160085998Y-98881447D01*
X160040946Y-98920484D01*
X160032182Y-98924949D01*
X159860213Y-99049890D01*
X159709890Y-99200213D01*
X159584951Y-99372179D01*
X159488444Y-99561585D01*
X159488443Y-99561587D01*
X159488443Y-99561588D01*
X159458428Y-99653963D01*
X159422753Y-99763760D01*
X159389500Y-99973713D01*
X159389500Y-100186286D01*
X159414861Y-100346413D01*
X159422754Y-100396243D01*
X159465484Y-100527753D01*
X159488444Y-100598414D01*
X159584951Y-100787820D01*
X159709890Y-100959786D01*
X159860213Y-101110109D01*
X160032179Y-101235048D01*
X160032181Y-101235049D01*
X160032184Y-101235051D01*
X160221588Y-101331557D01*
X160423757Y-101397246D01*
X160633713Y-101430500D01*
X160633714Y-101430500D01*
X160846286Y-101430500D01*
X160846287Y-101430500D01*
X161056243Y-101397246D01*
X161258412Y-101331557D01*
X161447816Y-101235051D01*
X161469789Y-101219086D01*
X161619786Y-101110109D01*
X161619788Y-101110106D01*
X161619792Y-101110104D01*
X161770104Y-100959792D01*
X161770106Y-100959788D01*
X161770109Y-100959786D01*
X161886901Y-100799034D01*
X161895051Y-100787816D01*
X161991557Y-100598412D01*
X162057246Y-100396243D01*
X162090500Y-100186287D01*
X162090500Y-99973713D01*
X162057246Y-99763757D01*
X161991557Y-99561588D01*
X161895051Y-99372184D01*
X161895049Y-99372181D01*
X161895048Y-99372179D01*
X161770109Y-99200213D01*
X161619786Y-99049890D01*
X161447820Y-98924951D01*
X161447115Y-98924591D01*
X161439054Y-98920485D01*
X161388259Y-98872512D01*
X161371463Y-98804692D01*
X161393999Y-98738556D01*
X161439054Y-98699515D01*
X161447816Y-98695051D01*
X161520374Y-98642335D01*
X161619786Y-98570109D01*
X161619788Y-98570106D01*
X161619792Y-98570104D01*
X161770104Y-98419792D01*
X161770106Y-98419788D01*
X161770109Y-98419786D01*
X161895048Y-98247820D01*
X161895050Y-98247817D01*
X161895051Y-98247816D01*
X161991557Y-98058412D01*
X162057246Y-97856243D01*
X162090500Y-97646287D01*
X162090500Y-97433713D01*
X162057246Y-97223757D01*
X161991557Y-97021588D01*
X161895051Y-96832184D01*
X161895049Y-96832181D01*
X161895048Y-96832179D01*
X161770109Y-96660213D01*
X161656569Y-96546673D01*
X161623084Y-96485350D01*
X161628068Y-96415658D01*
X161669940Y-96359725D01*
X161700915Y-96342810D01*
X161832331Y-96293796D01*
X161947546Y-96207546D01*
X162033796Y-96092331D01*
X162084091Y-95957483D01*
X162090500Y-95897873D01*
X162090500Y-95749500D01*
X162110185Y-95682461D01*
X162162989Y-95636706D01*
X162214500Y-95625500D01*
X164615501Y-95625500D01*
X164682540Y-95645185D01*
X164728295Y-95697989D01*
X164739501Y-95749500D01*
X164739501Y-96047876D01*
X164745908Y-96107483D01*
X164796202Y-96242328D01*
X164796206Y-96242335D01*
X164882452Y-96357544D01*
X164882455Y-96357547D01*
X164997664Y-96443793D01*
X164997671Y-96443797D01*
X165132517Y-96494091D01*
X165132516Y-96494091D01*
X165139444Y-96494835D01*
X165192127Y-96500500D01*
X167287872Y-96500499D01*
X167347483Y-96494091D01*
X167482331Y-96443796D01*
X167597546Y-96357546D01*
X167683796Y-96242331D01*
X167734091Y-96107483D01*
X167740500Y-96047873D01*
X167740499Y-94881947D01*
X172340000Y-94881947D01*
X172340000Y-95118052D01*
X172376934Y-95351247D01*
X172449897Y-95575802D01*
X172557087Y-95786174D01*
X172617338Y-95869104D01*
X172617340Y-95869105D01*
X173357037Y-95129408D01*
X173374075Y-95192993D01*
X173439901Y-95307007D01*
X173532993Y-95400099D01*
X173647007Y-95465925D01*
X173710590Y-95482962D01*
X172970893Y-96222658D01*
X173053828Y-96282914D01*
X173264197Y-96390102D01*
X173488752Y-96463065D01*
X173488751Y-96463065D01*
X173721948Y-96500000D01*
X173958052Y-96500000D01*
X174191247Y-96463065D01*
X174415802Y-96390102D01*
X174626163Y-96282918D01*
X174626169Y-96282914D01*
X174709104Y-96222658D01*
X174709105Y-96222658D01*
X173969408Y-95482962D01*
X174032993Y-95465925D01*
X174147007Y-95400099D01*
X174240099Y-95307007D01*
X174305925Y-95192993D01*
X174322962Y-95129409D01*
X175062658Y-95869105D01*
X175062658Y-95869104D01*
X175122914Y-95786169D01*
X175122918Y-95786163D01*
X175230102Y-95575802D01*
X175303065Y-95351247D01*
X175340000Y-95118052D01*
X175340000Y-94881947D01*
X175303065Y-94648752D01*
X175230102Y-94424197D01*
X175122914Y-94213828D01*
X175062658Y-94130894D01*
X175062658Y-94130893D01*
X174322962Y-94870590D01*
X174305925Y-94807007D01*
X174240099Y-94692993D01*
X174147007Y-94599901D01*
X174032993Y-94534075D01*
X173969409Y-94517037D01*
X174709105Y-93777340D01*
X174709104Y-93777338D01*
X174626174Y-93717087D01*
X174415802Y-93609897D01*
X174191247Y-93536934D01*
X174191248Y-93536934D01*
X173958052Y-93500000D01*
X173721948Y-93500000D01*
X173488752Y-93536934D01*
X173264197Y-93609897D01*
X173053830Y-93717084D01*
X172970894Y-93777340D01*
X173710591Y-94517037D01*
X173647007Y-94534075D01*
X173532993Y-94599901D01*
X173439901Y-94692993D01*
X173374075Y-94807007D01*
X173357037Y-94870591D01*
X172617340Y-94130894D01*
X172557084Y-94213830D01*
X172449897Y-94424197D01*
X172376934Y-94648752D01*
X172340000Y-94881947D01*
X167740499Y-94881947D01*
X167740499Y-93952128D01*
X167734091Y-93892517D01*
X167731186Y-93884727D01*
X167724922Y-93867931D01*
X167683797Y-93757671D01*
X167683793Y-93757664D01*
X167597547Y-93642455D01*
X167597544Y-93642452D01*
X167482335Y-93556206D01*
X167482328Y-93556202D01*
X167347482Y-93505908D01*
X167347483Y-93505908D01*
X167287883Y-93499501D01*
X167287881Y-93499500D01*
X167287873Y-93499500D01*
X167287864Y-93499500D01*
X165192129Y-93499500D01*
X165192123Y-93499501D01*
X165132516Y-93505908D01*
X164997671Y-93556202D01*
X164997664Y-93556206D01*
X164882455Y-93642452D01*
X164882452Y-93642455D01*
X164796206Y-93757664D01*
X164796202Y-93757671D01*
X164745908Y-93892517D01*
X164741690Y-93931758D01*
X164739501Y-93952123D01*
X164739500Y-93952135D01*
X164739500Y-94250500D01*
X164719815Y-94317539D01*
X164667011Y-94363294D01*
X164615500Y-94374500D01*
X162214499Y-94374500D01*
X162147460Y-94354815D01*
X162101705Y-94302011D01*
X162090499Y-94250500D01*
X162090499Y-94102129D01*
X162090498Y-94102123D01*
X162090497Y-94102116D01*
X162084091Y-94042517D01*
X162082229Y-94037526D01*
X162033797Y-93907671D01*
X162033793Y-93907664D01*
X161947547Y-93792455D01*
X161947544Y-93792452D01*
X161832335Y-93706206D01*
X161832328Y-93706202D01*
X161697482Y-93655908D01*
X161697483Y-93655908D01*
X161637883Y-93649501D01*
X161637881Y-93649500D01*
X161637873Y-93649500D01*
X161637864Y-93649500D01*
X159842129Y-93649500D01*
X159842123Y-93649501D01*
X159782516Y-93655908D01*
X159647671Y-93706202D01*
X159647664Y-93706206D01*
X159532455Y-93792452D01*
X159532452Y-93792455D01*
X159446206Y-93907664D01*
X159446202Y-93907671D01*
X159395908Y-94042517D01*
X159392245Y-94076592D01*
X159389501Y-94102123D01*
X159389500Y-94102135D01*
X159389500Y-95897870D01*
X159389501Y-95897876D01*
X159395908Y-95957483D01*
X159423764Y-96032167D01*
X159428748Y-96101859D01*
X159395263Y-96163182D01*
X159333939Y-96196666D01*
X159307582Y-96199500D01*
X158682191Y-96199500D01*
X158615152Y-96179815D01*
X158590426Y-96158898D01*
X158582691Y-96150387D01*
X158560340Y-96114150D01*
X158444270Y-95998080D01*
X158442287Y-95995898D01*
X158428262Y-95967018D01*
X158412886Y-95938858D01*
X158413104Y-95935803D01*
X158411766Y-95933047D01*
X158415580Y-95901178D01*
X158417870Y-95869166D01*
X158419765Y-95866216D01*
X158420070Y-95863673D01*
X158426066Y-95856411D01*
X158446371Y-95824819D01*
X158494009Y-95777181D01*
X158560340Y-95710850D01*
X158650908Y-95564016D01*
X158705174Y-95400253D01*
X158715500Y-95299177D01*
X158715499Y-94700824D01*
X158713767Y-94683872D01*
X158705174Y-94599747D01*
X158650908Y-94435984D01*
X158560340Y-94289150D01*
X158438350Y-94167160D01*
X158332918Y-94102129D01*
X158291518Y-94076593D01*
X158291513Y-94076591D01*
X158290069Y-94076112D01*
X158127753Y-94022326D01*
X158127751Y-94022325D01*
X158026684Y-94012000D01*
X158026677Y-94012000D01*
X157687953Y-94012000D01*
X157620914Y-93992315D01*
X157600272Y-93975681D01*
X150235897Y-86611307D01*
X150225859Y-86601269D01*
X150225858Y-86601267D01*
X150138733Y-86514142D01*
X150085265Y-86478416D01*
X150078618Y-86473974D01*
X150078613Y-86473970D01*
X150036290Y-86445690D01*
X150036286Y-86445688D01*
X150036284Y-86445687D01*
X149955792Y-86412347D01*
X149922452Y-86398537D01*
X149862029Y-86386518D01*
X149857306Y-86385578D01*
X149857304Y-86385578D01*
X149801610Y-86374500D01*
X149801607Y-86374500D01*
X149801606Y-86374500D01*
X137994743Y-86374500D01*
X137927704Y-86354815D01*
X137881949Y-86302011D01*
X137872005Y-86232853D01*
X137873126Y-86226308D01*
X137900500Y-86088693D01*
X137900500Y-85911306D01*
X137900499Y-85911304D01*
X137865896Y-85737341D01*
X137865893Y-85737332D01*
X137798016Y-85573459D01*
X137798009Y-85573446D01*
X137699464Y-85425965D01*
X137699461Y-85425961D01*
X137574038Y-85300538D01*
X137574034Y-85300535D01*
X137426553Y-85201990D01*
X137426540Y-85201983D01*
X137262667Y-85134106D01*
X137262658Y-85134103D01*
X137088694Y-85099500D01*
X137088691Y-85099500D01*
X136911309Y-85099500D01*
X136911306Y-85099500D01*
X136737341Y-85134103D01*
X136737332Y-85134106D01*
X136573452Y-85201987D01*
X136573447Y-85201989D01*
X136533622Y-85228601D01*
X136466945Y-85249480D01*
X136464730Y-85249500D01*
X133562230Y-85249500D01*
X133495191Y-85229815D01*
X133474549Y-85213181D01*
X132409175Y-84147807D01*
X132375690Y-84086484D01*
X132375262Y-84084432D01*
X132365894Y-84037334D01*
X132348923Y-83996363D01*
X132298016Y-83873459D01*
X132298009Y-83873446D01*
X132199464Y-83725965D01*
X132199461Y-83725961D01*
X132074038Y-83600538D01*
X132074034Y-83600535D01*
X131926553Y-83501990D01*
X131926540Y-83501983D01*
X131762667Y-83434106D01*
X131762658Y-83434103D01*
X131588694Y-83399500D01*
X131588691Y-83399500D01*
X131411309Y-83399500D01*
X131411306Y-83399500D01*
X131237341Y-83434103D01*
X131237332Y-83434106D01*
X131073459Y-83501983D01*
X131073446Y-83501990D01*
X130925965Y-83600535D01*
X130925961Y-83600538D01*
X130800538Y-83725961D01*
X130800535Y-83725965D01*
X130701990Y-83873446D01*
X130701983Y-83873459D01*
X130634106Y-84037332D01*
X130634103Y-84037341D01*
X130599500Y-84211304D01*
X130599500Y-84388695D01*
X130634103Y-84562658D01*
X130634106Y-84562667D01*
X130701983Y-84726540D01*
X130701990Y-84726553D01*
X130800535Y-84874034D01*
X130800538Y-84874038D01*
X130925961Y-84999461D01*
X130925965Y-84999464D01*
X131073446Y-85098009D01*
X131073459Y-85098016D01*
X131150106Y-85129763D01*
X131237334Y-85165894D01*
X131284318Y-85175239D01*
X131346227Y-85207622D01*
X131347807Y-85209175D01*
X132301451Y-86162819D01*
X132334936Y-86224142D01*
X132329952Y-86293834D01*
X132288080Y-86349767D01*
X132222616Y-86374184D01*
X132213770Y-86374500D01*
X94638389Y-86374500D01*
X94582697Y-86385578D01*
X94577971Y-86386518D01*
X94534743Y-86395116D01*
X94517546Y-86398537D01*
X94403716Y-86445687D01*
X94403707Y-86445692D01*
X94301268Y-86514140D01*
X94257705Y-86557703D01*
X94214142Y-86601267D01*
X89114144Y-91701264D01*
X89114138Y-91701272D01*
X89045690Y-91803708D01*
X89045688Y-91803713D01*
X89020835Y-91863713D01*
X89020836Y-91863714D01*
X89006827Y-91897536D01*
X89002034Y-91909107D01*
X88998537Y-91917549D01*
X88977264Y-92024500D01*
X88976914Y-92026255D01*
X88976905Y-92026298D01*
X88974500Y-92038389D01*
X88974500Y-96209713D01*
X88954815Y-96276752D01*
X88902011Y-96322507D01*
X88832853Y-96332451D01*
X88776189Y-96308980D01*
X88748755Y-96288443D01*
X88692331Y-96246204D01*
X88692329Y-96246203D01*
X88692328Y-96246202D01*
X88557482Y-96195908D01*
X88557483Y-96195908D01*
X88497883Y-96189501D01*
X88497881Y-96189500D01*
X88497873Y-96189500D01*
X88497865Y-96189500D01*
X87185452Y-96189500D01*
X87118413Y-96169815D01*
X87097771Y-96153181D01*
X78053150Y-87108560D01*
X78045860Y-87101270D01*
X78045858Y-87101267D01*
X77958733Y-87014142D01*
X77907509Y-86979915D01*
X77856286Y-86945688D01*
X77856283Y-86945686D01*
X77856280Y-86945685D01*
X77782603Y-86915168D01*
X77782601Y-86915167D01*
X77775792Y-86912347D01*
X77742452Y-86898537D01*
X77682029Y-86886518D01*
X77677306Y-86885578D01*
X77677304Y-86885578D01*
X77621610Y-86874500D01*
X77621607Y-86874500D01*
X77621606Y-86874500D01*
X43692741Y-86874500D01*
X43692721Y-86874499D01*
X43686607Y-86874499D01*
X43563394Y-86874499D01*
X43462597Y-86894548D01*
X43462592Y-86894548D01*
X43442549Y-86898536D01*
X43442547Y-86898536D01*
X43395397Y-86918067D01*
X43328719Y-86945685D01*
X43328717Y-86945686D01*
X43226266Y-87014141D01*
X43226263Y-87014144D01*
X38252227Y-91988181D01*
X38190904Y-92021666D01*
X38164546Y-92024500D01*
X37825831Y-92024500D01*
X37825812Y-92024501D01*
X37724747Y-92034825D01*
X37560984Y-92089092D01*
X37560981Y-92089093D01*
X37414148Y-92179661D01*
X37292161Y-92301648D01*
X37201593Y-92448481D01*
X37201591Y-92448486D01*
X37184521Y-92500000D01*
X37147326Y-92612247D01*
X37147326Y-92612248D01*
X37147325Y-92612248D01*
X37137000Y-92713315D01*
X37137000Y-93286669D01*
X37137001Y-93286687D01*
X37147325Y-93387752D01*
X37183609Y-93497249D01*
X37201520Y-93551300D01*
X37201592Y-93551515D01*
X37201593Y-93551518D01*
X37204485Y-93556206D01*
X37282841Y-93683242D01*
X37292161Y-93698351D01*
X37414150Y-93820340D01*
X37440596Y-93836652D01*
X37487321Y-93888600D01*
X37499500Y-93942191D01*
X37499500Y-96098669D01*
X37479815Y-96165708D01*
X37431796Y-96209153D01*
X37338569Y-96256655D01*
X37243028Y-96326070D01*
X37147490Y-96395483D01*
X37147488Y-96395485D01*
X37147487Y-96395485D01*
X36980485Y-96562487D01*
X36980485Y-96562488D01*
X36980483Y-96562490D01*
X36927790Y-96635016D01*
X36841657Y-96753566D01*
X36734433Y-96964003D01*
X36661446Y-97188631D01*
X36624500Y-97421902D01*
X36624500Y-97658097D01*
X36661446Y-97891368D01*
X36734433Y-98115996D01*
X36827015Y-98297696D01*
X36841657Y-98326433D01*
X36980483Y-98517510D01*
X37147490Y-98684517D01*
X37338567Y-98823343D01*
X37420043Y-98864857D01*
X37549003Y-98930566D01*
X37549005Y-98930566D01*
X37549008Y-98930568D01*
X37669412Y-98969689D01*
X37773631Y-99003553D01*
X38006903Y-99040500D01*
X38006908Y-99040500D01*
X38243097Y-99040500D01*
X38476368Y-99003553D01*
X38514725Y-98991090D01*
X38700992Y-98930568D01*
X38911433Y-98823343D01*
X39102510Y-98684517D01*
X39269517Y-98517510D01*
X39408343Y-98326433D01*
X39515568Y-98115992D01*
X39588553Y-97891368D01*
X39594117Y-97856239D01*
X39625500Y-97658097D01*
X39625500Y-97421902D01*
X39588553Y-97188631D01*
X39515566Y-96964003D01*
X39448398Y-96832179D01*
X39408343Y-96753567D01*
X39269517Y-96562490D01*
X39102510Y-96395483D01*
X38911433Y-96256657D01*
X38911432Y-96256656D01*
X38911430Y-96256655D01*
X38818204Y-96209153D01*
X38767409Y-96161178D01*
X38750500Y-96098669D01*
X38750500Y-93942191D01*
X38770185Y-93875152D01*
X38791092Y-93850436D01*
X38799609Y-93842692D01*
X38835850Y-93820340D01*
X38952268Y-93703921D01*
X38954445Y-93701943D01*
X38983308Y-93687922D01*
X39011494Y-93672532D01*
X39014543Y-93672750D01*
X39017292Y-93671415D01*
X39049166Y-93675226D01*
X39081186Y-93677516D01*
X39084127Y-93679406D01*
X39086667Y-93679710D01*
X39093925Y-93685702D01*
X39125534Y-93706017D01*
X39239461Y-93819944D01*
X39239465Y-93819947D01*
X39386188Y-93910448D01*
X39386199Y-93910453D01*
X39549847Y-93964680D01*
X39650851Y-93974999D01*
X40200000Y-93974999D01*
X40249140Y-93974999D01*
X40249154Y-93974998D01*
X40350152Y-93964680D01*
X40513800Y-93910453D01*
X40513811Y-93910448D01*
X40660534Y-93819947D01*
X40660538Y-93819944D01*
X40782444Y-93698038D01*
X40782447Y-93698034D01*
X40872948Y-93551311D01*
X40872953Y-93551300D01*
X40927180Y-93387652D01*
X40937499Y-93286654D01*
X40937500Y-93286641D01*
X40937500Y-93250000D01*
X40200000Y-93250000D01*
X40200000Y-93974999D01*
X39650851Y-93974999D01*
X39699999Y-93974998D01*
X39700000Y-93974998D01*
X39700000Y-93124000D01*
X39719685Y-93056961D01*
X39772489Y-93011206D01*
X39824000Y-93000000D01*
X39950000Y-93000000D01*
X39950000Y-92874000D01*
X39969685Y-92806961D01*
X40022489Y-92761206D01*
X40074000Y-92750000D01*
X40937499Y-92750000D01*
X40937499Y-92713360D01*
X40937498Y-92713345D01*
X40927180Y-92612347D01*
X40872953Y-92448699D01*
X40872948Y-92448688D01*
X40782447Y-92301965D01*
X40782444Y-92301961D01*
X40660538Y-92180055D01*
X40660534Y-92180052D01*
X40513811Y-92089551D01*
X40513800Y-92089546D01*
X40350151Y-92035319D01*
X40268706Y-92026998D01*
X40204014Y-92000602D01*
X40163863Y-91943421D01*
X40161000Y-91873610D01*
X40193624Y-91815964D01*
X43847772Y-88161819D01*
X43909095Y-88128334D01*
X43935453Y-88125500D01*
X51690548Y-88125500D01*
X51757587Y-88145185D01*
X51803342Y-88197989D01*
X51813286Y-88267147D01*
X51784261Y-88330703D01*
X51778229Y-88337181D01*
X48127227Y-91988181D01*
X48065904Y-92021666D01*
X48039546Y-92024500D01*
X47700831Y-92024500D01*
X47700812Y-92024501D01*
X47599747Y-92034825D01*
X47435984Y-92089092D01*
X47435981Y-92089093D01*
X47289148Y-92179661D01*
X47167161Y-92301648D01*
X47076593Y-92448481D01*
X47076591Y-92448486D01*
X47059521Y-92500000D01*
X47022326Y-92612247D01*
X47022326Y-92612248D01*
X47022325Y-92612248D01*
X47012000Y-92713315D01*
X47012000Y-93286669D01*
X47012001Y-93286687D01*
X47022325Y-93387752D01*
X47058609Y-93497249D01*
X47076520Y-93551300D01*
X47076592Y-93551515D01*
X47076593Y-93551518D01*
X47079485Y-93556206D01*
X47157841Y-93683242D01*
X47167161Y-93698351D01*
X47289150Y-93820340D01*
X47315596Y-93836652D01*
X47362321Y-93888600D01*
X47374500Y-93942191D01*
X47374500Y-96098669D01*
X47354815Y-96165708D01*
X47306796Y-96209153D01*
X47213569Y-96256655D01*
X47118028Y-96326070D01*
X47022490Y-96395483D01*
X47022488Y-96395485D01*
X47022487Y-96395485D01*
X46855485Y-96562487D01*
X46855485Y-96562488D01*
X46855483Y-96562490D01*
X46802790Y-96635016D01*
X46716657Y-96753566D01*
X46609433Y-96964003D01*
X46536446Y-97188631D01*
X46499500Y-97421902D01*
X46499500Y-97658097D01*
X46536446Y-97891368D01*
X46609433Y-98115996D01*
X46702015Y-98297696D01*
X46716657Y-98326433D01*
X46855483Y-98517510D01*
X47022490Y-98684517D01*
X47213567Y-98823343D01*
X47295043Y-98864857D01*
X47424003Y-98930566D01*
X47424005Y-98930566D01*
X47424008Y-98930568D01*
X47544412Y-98969689D01*
X47648631Y-99003553D01*
X47881903Y-99040500D01*
X47881908Y-99040500D01*
X48118097Y-99040500D01*
X48351368Y-99003553D01*
X48389725Y-98991090D01*
X48575992Y-98930568D01*
X48786433Y-98823343D01*
X48977510Y-98684517D01*
X49144517Y-98517510D01*
X49283343Y-98326433D01*
X49390568Y-98115992D01*
X49463553Y-97891368D01*
X49469117Y-97856239D01*
X49500500Y-97658097D01*
X49500500Y-97421902D01*
X49463553Y-97188631D01*
X49390566Y-96964003D01*
X49323398Y-96832179D01*
X49283343Y-96753567D01*
X49144517Y-96562490D01*
X48977510Y-96395483D01*
X48786433Y-96256657D01*
X48786432Y-96256656D01*
X48786430Y-96256655D01*
X48693204Y-96209153D01*
X48642409Y-96161178D01*
X48625500Y-96098669D01*
X48625500Y-93942191D01*
X48645185Y-93875152D01*
X48666092Y-93850436D01*
X48674609Y-93842692D01*
X48710850Y-93820340D01*
X48827268Y-93703921D01*
X48829445Y-93701943D01*
X48858308Y-93687922D01*
X48886494Y-93672532D01*
X48889543Y-93672750D01*
X48892292Y-93671415D01*
X48924166Y-93675226D01*
X48956186Y-93677516D01*
X48959127Y-93679406D01*
X48961667Y-93679710D01*
X48968925Y-93685702D01*
X49000534Y-93706017D01*
X49114461Y-93819944D01*
X49114465Y-93819947D01*
X49261188Y-93910448D01*
X49261199Y-93910453D01*
X49424847Y-93964680D01*
X49525851Y-93974999D01*
X50075000Y-93974999D01*
X50124140Y-93974999D01*
X50124154Y-93974998D01*
X50225152Y-93964680D01*
X50388800Y-93910453D01*
X50388811Y-93910448D01*
X50535534Y-93819947D01*
X50535538Y-93819944D01*
X50657444Y-93698038D01*
X50657447Y-93698034D01*
X50747948Y-93551311D01*
X50747953Y-93551300D01*
X50802180Y-93387652D01*
X50812499Y-93286654D01*
X50812500Y-93286641D01*
X50812500Y-93250000D01*
X50075000Y-93250000D01*
X50075000Y-93974999D01*
X49525851Y-93974999D01*
X49574999Y-93974998D01*
X49575000Y-93974998D01*
X49575000Y-93124000D01*
X49594685Y-93056961D01*
X49647489Y-93011206D01*
X49699000Y-93000000D01*
X49825000Y-93000000D01*
X49825000Y-92874000D01*
X49844685Y-92806961D01*
X49897489Y-92761206D01*
X49949000Y-92750000D01*
X50812499Y-92750000D01*
X50812499Y-92713360D01*
X50812498Y-92713345D01*
X50802180Y-92612347D01*
X50747953Y-92448699D01*
X50747948Y-92448688D01*
X50657447Y-92301965D01*
X50657444Y-92301961D01*
X50535538Y-92180055D01*
X50535534Y-92180052D01*
X50388811Y-92089551D01*
X50388800Y-92089546D01*
X50225151Y-92035319D01*
X50143706Y-92026998D01*
X50079014Y-92000602D01*
X50038863Y-91943421D01*
X50036000Y-91873610D01*
X50068625Y-91815964D01*
X52722771Y-89161819D01*
X52784094Y-89128334D01*
X52810452Y-89125500D01*
X60565547Y-89125500D01*
X60632586Y-89145185D01*
X60678341Y-89197989D01*
X60688285Y-89267147D01*
X60659260Y-89330703D01*
X60653228Y-89337181D01*
X58002227Y-91988181D01*
X57940904Y-92021666D01*
X57914546Y-92024500D01*
X57575831Y-92024500D01*
X57575812Y-92024501D01*
X57474747Y-92034825D01*
X57310984Y-92089092D01*
X57310981Y-92089093D01*
X57164148Y-92179661D01*
X57042161Y-92301648D01*
X56951593Y-92448481D01*
X56951591Y-92448486D01*
X56934521Y-92500000D01*
X56897326Y-92612247D01*
X56897326Y-92612248D01*
X56897325Y-92612248D01*
X56887000Y-92713315D01*
X56887000Y-93286669D01*
X56887001Y-93286687D01*
X56897325Y-93387752D01*
X56933609Y-93497249D01*
X56951520Y-93551300D01*
X56951592Y-93551515D01*
X56951593Y-93551518D01*
X56954485Y-93556206D01*
X57032841Y-93683242D01*
X57042161Y-93698351D01*
X57164150Y-93820340D01*
X57190596Y-93836652D01*
X57237321Y-93888600D01*
X57249500Y-93942191D01*
X57249500Y-96098669D01*
X57229815Y-96165708D01*
X57181796Y-96209153D01*
X57088569Y-96256655D01*
X56993028Y-96326070D01*
X56897490Y-96395483D01*
X56897488Y-96395485D01*
X56897487Y-96395485D01*
X56730485Y-96562487D01*
X56730485Y-96562488D01*
X56730483Y-96562490D01*
X56677790Y-96635016D01*
X56591657Y-96753566D01*
X56484433Y-96964003D01*
X56411446Y-97188631D01*
X56374500Y-97421902D01*
X56374500Y-97658097D01*
X56411446Y-97891368D01*
X56484433Y-98115996D01*
X56577015Y-98297696D01*
X56591657Y-98326433D01*
X56730483Y-98517510D01*
X56897490Y-98684517D01*
X57088567Y-98823343D01*
X57170043Y-98864857D01*
X57299003Y-98930566D01*
X57299005Y-98930566D01*
X57299008Y-98930568D01*
X57419412Y-98969689D01*
X57523631Y-99003553D01*
X57756903Y-99040500D01*
X57756908Y-99040500D01*
X57993097Y-99040500D01*
X58226368Y-99003553D01*
X58264725Y-98991090D01*
X58450992Y-98930568D01*
X58661433Y-98823343D01*
X58852510Y-98684517D01*
X59019517Y-98517510D01*
X59158343Y-98326433D01*
X59265568Y-98115992D01*
X59338553Y-97891368D01*
X59344117Y-97856239D01*
X59375500Y-97658097D01*
X59375500Y-97421902D01*
X59338553Y-97188631D01*
X59265566Y-96964003D01*
X59198398Y-96832179D01*
X59158343Y-96753567D01*
X59019517Y-96562490D01*
X58852510Y-96395483D01*
X58661433Y-96256657D01*
X58661432Y-96256656D01*
X58661430Y-96256655D01*
X58568204Y-96209153D01*
X58517409Y-96161178D01*
X58500500Y-96098669D01*
X58500500Y-93942191D01*
X58520185Y-93875152D01*
X58541092Y-93850436D01*
X58549609Y-93842692D01*
X58585850Y-93820340D01*
X58702268Y-93703921D01*
X58704445Y-93701943D01*
X58733308Y-93687922D01*
X58761494Y-93672532D01*
X58764543Y-93672750D01*
X58767292Y-93671415D01*
X58799166Y-93675226D01*
X58831186Y-93677516D01*
X58834127Y-93679406D01*
X58836667Y-93679710D01*
X58843925Y-93685702D01*
X58875534Y-93706017D01*
X58989461Y-93819944D01*
X58989465Y-93819947D01*
X59136188Y-93910448D01*
X59136199Y-93910453D01*
X59299847Y-93964680D01*
X59400851Y-93974999D01*
X59950000Y-93974999D01*
X59999140Y-93974999D01*
X59999154Y-93974998D01*
X60100152Y-93964680D01*
X60263800Y-93910453D01*
X60263811Y-93910448D01*
X60410534Y-93819947D01*
X60410538Y-93819944D01*
X60532444Y-93698038D01*
X60532447Y-93698034D01*
X60622948Y-93551311D01*
X60622953Y-93551300D01*
X60677180Y-93387652D01*
X60687499Y-93286654D01*
X60687500Y-93286641D01*
X60687500Y-93250000D01*
X59950000Y-93250000D01*
X59950000Y-93974999D01*
X59400851Y-93974999D01*
X59449999Y-93974998D01*
X59450000Y-93974998D01*
X59450000Y-93124000D01*
X59469685Y-93056961D01*
X59522489Y-93011206D01*
X59574000Y-93000000D01*
X59700000Y-93000000D01*
X59700000Y-92874000D01*
X59719685Y-92806961D01*
X59772489Y-92761206D01*
X59824000Y-92750000D01*
X60687499Y-92750000D01*
X60687499Y-92713360D01*
X60687498Y-92713345D01*
X60677180Y-92612347D01*
X60622953Y-92448699D01*
X60622948Y-92448688D01*
X60532447Y-92301965D01*
X60532444Y-92301961D01*
X60410538Y-92180055D01*
X60410534Y-92180052D01*
X60263811Y-92089551D01*
X60263800Y-92089546D01*
X60100151Y-92035318D01*
X60018707Y-92026998D01*
X59954015Y-92000601D01*
X59913864Y-91943421D01*
X59911001Y-91873610D01*
X59943626Y-91815963D01*
X61597772Y-90161819D01*
X61659095Y-90128334D01*
X61685453Y-90125500D01*
X69440548Y-90125500D01*
X69507587Y-90145185D01*
X69553342Y-90197989D01*
X69563286Y-90267147D01*
X69534261Y-90330703D01*
X69528229Y-90337181D01*
X67877227Y-91988181D01*
X67815904Y-92021666D01*
X67789546Y-92024500D01*
X67450831Y-92024500D01*
X67450812Y-92024501D01*
X67349747Y-92034825D01*
X67185984Y-92089092D01*
X67185981Y-92089093D01*
X67039148Y-92179661D01*
X66917161Y-92301648D01*
X66826593Y-92448481D01*
X66826591Y-92448486D01*
X66809521Y-92500000D01*
X66772326Y-92612247D01*
X66772326Y-92612248D01*
X66772325Y-92612248D01*
X66762000Y-92713315D01*
X66762000Y-93286669D01*
X66762001Y-93286687D01*
X66772325Y-93387752D01*
X66808609Y-93497249D01*
X66826520Y-93551300D01*
X66826592Y-93551515D01*
X66826593Y-93551518D01*
X66829485Y-93556206D01*
X66907841Y-93683242D01*
X66917161Y-93698351D01*
X67039150Y-93820340D01*
X67065596Y-93836652D01*
X67112321Y-93888600D01*
X67124500Y-93942191D01*
X67124500Y-96098669D01*
X67104815Y-96165708D01*
X67056796Y-96209153D01*
X66963569Y-96256655D01*
X66868028Y-96326070D01*
X66772490Y-96395483D01*
X66772488Y-96395485D01*
X66772487Y-96395485D01*
X66605485Y-96562487D01*
X66605485Y-96562488D01*
X66605483Y-96562490D01*
X66552790Y-96635016D01*
X66466657Y-96753566D01*
X66359433Y-96964003D01*
X66286446Y-97188631D01*
X66249500Y-97421902D01*
X66249500Y-97658097D01*
X66286446Y-97891368D01*
X66359433Y-98115996D01*
X66452015Y-98297696D01*
X66466657Y-98326433D01*
X66605483Y-98517510D01*
X66772490Y-98684517D01*
X66963567Y-98823343D01*
X67045043Y-98864857D01*
X67174003Y-98930566D01*
X67174005Y-98930566D01*
X67174008Y-98930568D01*
X67294412Y-98969689D01*
X67398631Y-99003553D01*
X67631903Y-99040500D01*
X67631908Y-99040500D01*
X67868097Y-99040500D01*
X68101368Y-99003553D01*
X68139725Y-98991090D01*
X68325992Y-98930568D01*
X68536433Y-98823343D01*
X68727510Y-98684517D01*
X68894517Y-98517510D01*
X69033343Y-98326433D01*
X69140568Y-98115992D01*
X69213553Y-97891368D01*
X69219117Y-97856239D01*
X69250500Y-97658097D01*
X69250500Y-97421902D01*
X69213553Y-97188631D01*
X69140566Y-96964003D01*
X69073398Y-96832179D01*
X69033343Y-96753567D01*
X68894517Y-96562490D01*
X68727510Y-96395483D01*
X68536433Y-96256657D01*
X68536432Y-96256656D01*
X68536430Y-96256655D01*
X68443204Y-96209153D01*
X68392409Y-96161178D01*
X68375500Y-96098669D01*
X68375500Y-93942191D01*
X68395185Y-93875152D01*
X68416092Y-93850436D01*
X68424609Y-93842692D01*
X68460850Y-93820340D01*
X68577268Y-93703921D01*
X68579445Y-93701943D01*
X68608308Y-93687922D01*
X68636494Y-93672532D01*
X68639543Y-93672750D01*
X68642292Y-93671415D01*
X68674166Y-93675226D01*
X68706186Y-93677516D01*
X68709127Y-93679406D01*
X68711667Y-93679710D01*
X68718925Y-93685702D01*
X68750534Y-93706017D01*
X68864461Y-93819944D01*
X68864465Y-93819947D01*
X69011188Y-93910448D01*
X69011199Y-93910453D01*
X69174847Y-93964680D01*
X69275851Y-93974999D01*
X69825000Y-93974999D01*
X69874140Y-93974999D01*
X69874154Y-93974998D01*
X69975152Y-93964680D01*
X70138800Y-93910453D01*
X70138811Y-93910448D01*
X70285534Y-93819947D01*
X70285538Y-93819944D01*
X70407444Y-93698038D01*
X70407447Y-93698034D01*
X70497948Y-93551311D01*
X70497953Y-93551300D01*
X70552180Y-93387652D01*
X70562499Y-93286654D01*
X70562500Y-93286641D01*
X70562500Y-93250000D01*
X69825000Y-93250000D01*
X69825000Y-93974999D01*
X69275851Y-93974999D01*
X69324999Y-93974998D01*
X69325000Y-93974998D01*
X69325000Y-93124000D01*
X69344685Y-93056961D01*
X69397489Y-93011206D01*
X69449000Y-93000000D01*
X69575000Y-93000000D01*
X69575000Y-92874000D01*
X69594685Y-92806961D01*
X69647489Y-92761206D01*
X69699000Y-92750000D01*
X70562499Y-92750000D01*
X70562499Y-92713360D01*
X70562498Y-92713345D01*
X70552180Y-92612347D01*
X70497953Y-92448699D01*
X70497948Y-92448688D01*
X70407447Y-92301965D01*
X70407444Y-92301961D01*
X70285538Y-92180055D01*
X70285534Y-92180052D01*
X70138811Y-92089551D01*
X70138800Y-92089546D01*
X69975151Y-92035318D01*
X69893707Y-92026998D01*
X69829015Y-92000601D01*
X69788864Y-91943421D01*
X69786001Y-91873610D01*
X69818626Y-91815962D01*
X70472771Y-91161819D01*
X70534094Y-91128334D01*
X70560452Y-91125500D01*
X72629548Y-91125500D01*
X72696587Y-91145185D01*
X72717229Y-91161819D01*
X77533228Y-95977819D01*
X77566713Y-96039142D01*
X77561729Y-96108834D01*
X77519857Y-96164767D01*
X77454393Y-96189184D01*
X77445547Y-96189500D01*
X77333713Y-96189500D01*
X77288469Y-96196666D01*
X77123760Y-96222753D01*
X76921585Y-96288444D01*
X76732179Y-96384951D01*
X76560213Y-96509890D01*
X76409890Y-96660213D01*
X76284951Y-96832179D01*
X76188444Y-97021585D01*
X76122753Y-97223760D01*
X76096579Y-97389016D01*
X76089500Y-97433713D01*
X76089500Y-97646287D01*
X76091371Y-97658097D01*
X76122753Y-97856239D01*
X76122753Y-97856241D01*
X76122754Y-97856243D01*
X76182558Y-98040301D01*
X76188444Y-98058414D01*
X76284951Y-98247820D01*
X76409890Y-98419786D01*
X76560213Y-98570109D01*
X76732179Y-98695048D01*
X76732181Y-98695049D01*
X76732184Y-98695051D01*
X76921588Y-98791557D01*
X77123757Y-98857246D01*
X77333713Y-98890500D01*
X77333714Y-98890500D01*
X77546286Y-98890500D01*
X77546287Y-98890500D01*
X77756243Y-98857246D01*
X77771840Y-98852177D01*
X77841679Y-98850183D01*
X77897838Y-98882428D01*
X79653229Y-100637819D01*
X79686714Y-100699142D01*
X79681730Y-100768834D01*
X79639858Y-100824767D01*
X79574394Y-100849184D01*
X79565548Y-100849500D01*
X78172230Y-100849500D01*
X78105191Y-100829815D01*
X78084549Y-100813181D01*
X75251280Y-97979912D01*
X75217795Y-97918589D01*
X75216488Y-97872836D01*
X75246051Y-97686184D01*
X75250500Y-97658096D01*
X75250500Y-97421902D01*
X75213553Y-97188631D01*
X75140566Y-96964003D01*
X75073398Y-96832179D01*
X75033343Y-96753567D01*
X74894517Y-96562490D01*
X74727510Y-96395483D01*
X74536433Y-96256657D01*
X74508554Y-96242452D01*
X74325996Y-96149433D01*
X74101368Y-96076446D01*
X73868097Y-96039500D01*
X73868092Y-96039500D01*
X73631908Y-96039500D01*
X73631903Y-96039500D01*
X73398631Y-96076446D01*
X73174003Y-96149433D01*
X72963566Y-96256657D01*
X72863270Y-96329527D01*
X72772490Y-96395483D01*
X72772488Y-96395485D01*
X72772487Y-96395485D01*
X72605485Y-96562487D01*
X72605485Y-96562488D01*
X72605483Y-96562490D01*
X72552790Y-96635016D01*
X72466657Y-96753566D01*
X72359433Y-96964003D01*
X72286446Y-97188631D01*
X72249500Y-97421902D01*
X72249500Y-97658097D01*
X72286446Y-97891368D01*
X72359433Y-98115996D01*
X72452015Y-98297696D01*
X72466657Y-98326433D01*
X72605483Y-98517510D01*
X72772490Y-98684517D01*
X72963567Y-98823343D01*
X73045043Y-98864857D01*
X73174003Y-98930566D01*
X73174005Y-98930566D01*
X73174008Y-98930568D01*
X73294412Y-98969689D01*
X73398631Y-99003553D01*
X73631903Y-99040500D01*
X73631908Y-99040500D01*
X73868096Y-99040500D01*
X73963592Y-99025374D01*
X74082834Y-99006488D01*
X74152126Y-99015442D01*
X74189912Y-99041280D01*
X75786451Y-100637819D01*
X75819936Y-100699142D01*
X75814952Y-100768834D01*
X75773080Y-100824767D01*
X75707616Y-100849184D01*
X75698770Y-100849500D01*
X68297230Y-100849500D01*
X68230191Y-100829815D01*
X68209549Y-100813181D01*
X65376280Y-97979912D01*
X65342795Y-97918589D01*
X65341488Y-97872836D01*
X65371051Y-97686184D01*
X65375500Y-97658096D01*
X65375500Y-97421902D01*
X65338553Y-97188631D01*
X65265566Y-96964003D01*
X65198398Y-96832179D01*
X65158343Y-96753567D01*
X65019517Y-96562490D01*
X64852510Y-96395483D01*
X64661433Y-96256657D01*
X64633554Y-96242452D01*
X64450996Y-96149433D01*
X64226368Y-96076446D01*
X63993097Y-96039500D01*
X63993092Y-96039500D01*
X63756908Y-96039500D01*
X63756903Y-96039500D01*
X63523631Y-96076446D01*
X63299003Y-96149433D01*
X63088566Y-96256657D01*
X62988270Y-96329527D01*
X62897490Y-96395483D01*
X62897488Y-96395485D01*
X62897487Y-96395485D01*
X62730485Y-96562487D01*
X62730485Y-96562488D01*
X62730483Y-96562490D01*
X62677790Y-96635016D01*
X62591657Y-96753566D01*
X62484433Y-96964003D01*
X62411446Y-97188631D01*
X62374500Y-97421902D01*
X62374500Y-97658097D01*
X62411446Y-97891368D01*
X62484433Y-98115996D01*
X62577015Y-98297696D01*
X62591657Y-98326433D01*
X62730483Y-98517510D01*
X62897490Y-98684517D01*
X63088567Y-98823343D01*
X63170043Y-98864857D01*
X63299003Y-98930566D01*
X63299005Y-98930566D01*
X63299008Y-98930568D01*
X63419412Y-98969689D01*
X63523631Y-99003553D01*
X63756903Y-99040500D01*
X63756908Y-99040500D01*
X63993096Y-99040500D01*
X64088592Y-99025374D01*
X64207834Y-99006488D01*
X64277126Y-99015442D01*
X64314912Y-99041280D01*
X65911451Y-100637819D01*
X65944936Y-100699142D01*
X65939952Y-100768834D01*
X65898080Y-100824767D01*
X65832616Y-100849184D01*
X65823770Y-100849500D01*
X58422230Y-100849500D01*
X58355191Y-100829815D01*
X58334549Y-100813181D01*
X55501280Y-97979912D01*
X55467795Y-97918589D01*
X55466488Y-97872836D01*
X55496051Y-97686184D01*
X55500500Y-97658096D01*
X55500500Y-97421902D01*
X55463553Y-97188631D01*
X55390566Y-96964003D01*
X55323398Y-96832179D01*
X55283343Y-96753567D01*
X55144517Y-96562490D01*
X54977510Y-96395483D01*
X54786433Y-96256657D01*
X54758554Y-96242452D01*
X54575996Y-96149433D01*
X54351368Y-96076446D01*
X54118097Y-96039500D01*
X54118092Y-96039500D01*
X53881908Y-96039500D01*
X53881903Y-96039500D01*
X53648631Y-96076446D01*
X53424003Y-96149433D01*
X53213566Y-96256657D01*
X53113270Y-96329527D01*
X53022490Y-96395483D01*
X53022488Y-96395485D01*
X53022487Y-96395485D01*
X52855485Y-96562487D01*
X52855485Y-96562488D01*
X52855483Y-96562490D01*
X52802790Y-96635016D01*
X52716657Y-96753566D01*
X52609433Y-96964003D01*
X52536446Y-97188631D01*
X52499500Y-97421902D01*
X52499500Y-97658097D01*
X52536446Y-97891368D01*
X52609433Y-98115996D01*
X52702015Y-98297696D01*
X52716657Y-98326433D01*
X52855483Y-98517510D01*
X53022490Y-98684517D01*
X53213567Y-98823343D01*
X53295043Y-98864857D01*
X53424003Y-98930566D01*
X53424005Y-98930566D01*
X53424008Y-98930568D01*
X53544412Y-98969689D01*
X53648631Y-99003553D01*
X53881903Y-99040500D01*
X53881908Y-99040500D01*
X54118096Y-99040500D01*
X54213592Y-99025374D01*
X54332834Y-99006488D01*
X54402126Y-99015442D01*
X54439912Y-99041280D01*
X56036451Y-100637819D01*
X56069936Y-100699142D01*
X56064952Y-100768834D01*
X56023080Y-100824767D01*
X55957616Y-100849184D01*
X55948770Y-100849500D01*
X48547230Y-100849500D01*
X48480191Y-100829815D01*
X48459549Y-100813181D01*
X45626280Y-97979912D01*
X45592795Y-97918589D01*
X45591488Y-97872836D01*
X45621051Y-97686184D01*
X45625500Y-97658096D01*
X45625500Y-97421902D01*
X45588553Y-97188631D01*
X45515566Y-96964003D01*
X45448398Y-96832179D01*
X45408343Y-96753567D01*
X45269517Y-96562490D01*
X45102510Y-96395483D01*
X44911433Y-96256657D01*
X44883554Y-96242452D01*
X44700996Y-96149433D01*
X44476368Y-96076446D01*
X44243097Y-96039500D01*
X44243092Y-96039500D01*
X44006908Y-96039500D01*
X44006903Y-96039500D01*
X43773631Y-96076446D01*
X43549003Y-96149433D01*
X43338566Y-96256657D01*
X43238270Y-96329527D01*
X43147490Y-96395483D01*
X43147488Y-96395485D01*
X43147487Y-96395485D01*
X42980485Y-96562487D01*
X42980485Y-96562488D01*
X42980483Y-96562490D01*
X42927790Y-96635016D01*
X42841657Y-96753566D01*
X42734433Y-96964003D01*
X42661446Y-97188631D01*
X42624500Y-97421902D01*
X42624500Y-97658097D01*
X42661446Y-97891368D01*
X42734433Y-98115996D01*
X42827015Y-98297696D01*
X42841657Y-98326433D01*
X42980483Y-98517510D01*
X43147490Y-98684517D01*
X43338567Y-98823343D01*
X43420043Y-98864857D01*
X43549003Y-98930566D01*
X43549005Y-98930566D01*
X43549008Y-98930568D01*
X43669412Y-98969689D01*
X43773631Y-99003553D01*
X44006903Y-99040500D01*
X44006908Y-99040500D01*
X44243096Y-99040500D01*
X44338592Y-99025374D01*
X44457834Y-99006488D01*
X44527126Y-99015442D01*
X44564912Y-99041280D01*
X47411451Y-101887819D01*
X47444936Y-101949142D01*
X47439952Y-102018834D01*
X47398080Y-102074767D01*
X47332616Y-102099184D01*
X47323770Y-102099500D01*
X25624500Y-102099500D01*
X25557461Y-102079815D01*
X25511706Y-102027011D01*
X25500500Y-101975500D01*
X25500500Y-60831304D01*
X120299500Y-60831304D01*
X120299500Y-61008695D01*
X120334103Y-61182658D01*
X120334106Y-61182667D01*
X120401983Y-61346540D01*
X120401990Y-61346553D01*
X120500535Y-61494034D01*
X120500538Y-61494038D01*
X120625961Y-61619461D01*
X120625965Y-61619464D01*
X120773446Y-61718009D01*
X120773459Y-61718016D01*
X120850106Y-61749763D01*
X120937334Y-61785894D01*
X120984318Y-61795239D01*
X121046227Y-61827622D01*
X121047807Y-61829175D01*
X132869824Y-73651192D01*
X132903309Y-73712515D01*
X132904616Y-73758271D01*
X132889500Y-73853707D01*
X132889500Y-74066286D01*
X132922753Y-74276239D01*
X132988444Y-74478414D01*
X133084951Y-74667820D01*
X133209890Y-74839786D01*
X133360213Y-74990109D01*
X133532182Y-75115050D01*
X133540946Y-75119516D01*
X133591742Y-75167491D01*
X133608536Y-75235312D01*
X133585998Y-75301447D01*
X133540946Y-75340484D01*
X133532182Y-75344949D01*
X133360213Y-75469890D01*
X133209890Y-75620213D01*
X133084951Y-75792179D01*
X132988444Y-75981585D01*
X132922753Y-76183760D01*
X132889500Y-76393713D01*
X132889500Y-76606286D01*
X132922753Y-76816239D01*
X132988444Y-77018414D01*
X133084951Y-77207820D01*
X133209890Y-77379786D01*
X133360213Y-77530109D01*
X133532179Y-77655048D01*
X133532181Y-77655049D01*
X133532184Y-77655051D01*
X133541493Y-77659794D01*
X133592290Y-77707766D01*
X133609087Y-77775587D01*
X133586552Y-77841722D01*
X133541505Y-77880760D01*
X133532446Y-77885376D01*
X133532440Y-77885380D01*
X133478282Y-77924727D01*
X133478282Y-77924728D01*
X134110591Y-78557037D01*
X134047007Y-78574075D01*
X133932993Y-78639901D01*
X133839901Y-78732993D01*
X133774075Y-78847007D01*
X133757037Y-78910591D01*
X133124728Y-78278282D01*
X133124727Y-78278282D01*
X133085380Y-78332439D01*
X132988904Y-78521782D01*
X132923242Y-78723869D01*
X132923242Y-78723872D01*
X132890000Y-78933753D01*
X132890000Y-79146246D01*
X132923242Y-79356127D01*
X132923242Y-79356130D01*
X132988904Y-79558217D01*
X133085375Y-79747550D01*
X133124728Y-79801716D01*
X133757037Y-79169408D01*
X133774075Y-79232993D01*
X133839901Y-79347007D01*
X133932993Y-79440099D01*
X134047007Y-79505925D01*
X134110590Y-79522962D01*
X133478282Y-80155269D01*
X133478282Y-80155270D01*
X133532452Y-80194626D01*
X133532451Y-80194626D01*
X133541495Y-80199234D01*
X133592292Y-80247208D01*
X133609087Y-80315029D01*
X133586550Y-80381164D01*
X133541499Y-80420202D01*
X133532182Y-80424949D01*
X133360213Y-80549890D01*
X133209890Y-80700213D01*
X133084951Y-80872179D01*
X132988444Y-81061585D01*
X132922753Y-81263760D01*
X132889500Y-81473713D01*
X132889500Y-81686286D01*
X132922753Y-81896239D01*
X132988444Y-82098414D01*
X133084951Y-82287820D01*
X133209890Y-82459786D01*
X133360213Y-82610109D01*
X133532179Y-82735048D01*
X133532181Y-82735049D01*
X133532184Y-82735051D01*
X133721588Y-82831557D01*
X133923757Y-82897246D01*
X134133713Y-82930500D01*
X134133714Y-82930500D01*
X134346286Y-82930500D01*
X134346287Y-82930500D01*
X134556243Y-82897246D01*
X134758412Y-82831557D01*
X134947816Y-82735051D01*
X134969789Y-82719086D01*
X135119786Y-82610109D01*
X135119788Y-82610106D01*
X135119792Y-82610104D01*
X135270104Y-82459792D01*
X135270106Y-82459788D01*
X135270109Y-82459786D01*
X135395049Y-82287819D01*
X135402497Y-82273203D01*
X135450473Y-82222408D01*
X135512981Y-82205500D01*
X149727019Y-82205500D01*
X149794058Y-82225185D01*
X149837503Y-82273203D01*
X149844950Y-82287819D01*
X149969890Y-82459786D01*
X150120213Y-82610109D01*
X150292179Y-82735048D01*
X150292181Y-82735049D01*
X150292184Y-82735051D01*
X150481588Y-82831557D01*
X150683757Y-82897246D01*
X150893713Y-82930500D01*
X150893714Y-82930500D01*
X151106286Y-82930500D01*
X151106287Y-82930500D01*
X151316243Y-82897246D01*
X151518412Y-82831557D01*
X151707816Y-82735051D01*
X151729789Y-82719086D01*
X151879786Y-82610109D01*
X151879788Y-82610106D01*
X151879792Y-82610104D01*
X152030104Y-82459792D01*
X152030106Y-82459788D01*
X152030109Y-82459786D01*
X152155048Y-82287820D01*
X152155049Y-82287819D01*
X152155051Y-82287816D01*
X152251557Y-82098412D01*
X152317246Y-81896243D01*
X152350500Y-81686287D01*
X152350500Y-81473713D01*
X152317246Y-81263757D01*
X152251557Y-81061588D01*
X152155051Y-80872184D01*
X152155049Y-80872181D01*
X152155048Y-80872179D01*
X152030109Y-80700213D01*
X151879786Y-80549890D01*
X151707817Y-80424949D01*
X151698504Y-80420204D01*
X151647707Y-80372230D01*
X151630912Y-80304409D01*
X151653449Y-80238274D01*
X151698507Y-80199232D01*
X151707555Y-80194622D01*
X151761716Y-80155270D01*
X151761717Y-80155270D01*
X151129408Y-79522962D01*
X151192993Y-79505925D01*
X151307007Y-79440099D01*
X151400099Y-79347007D01*
X151465925Y-79232993D01*
X151482962Y-79169408D01*
X152115270Y-79801717D01*
X152115270Y-79801716D01*
X152154622Y-79747554D01*
X152251095Y-79558217D01*
X152316757Y-79356130D01*
X152316757Y-79356127D01*
X152350000Y-79146246D01*
X152350000Y-78933753D01*
X152316757Y-78723872D01*
X152316757Y-78723869D01*
X152251095Y-78521782D01*
X152154624Y-78332449D01*
X152115270Y-78278282D01*
X152115269Y-78278282D01*
X151482962Y-78910590D01*
X151465925Y-78847007D01*
X151400099Y-78732993D01*
X151307007Y-78639901D01*
X151192993Y-78574075D01*
X151129409Y-78557037D01*
X151761716Y-77924728D01*
X151707547Y-77885373D01*
X151707547Y-77885372D01*
X151698500Y-77880763D01*
X151647706Y-77832788D01*
X151630912Y-77764966D01*
X151653451Y-77698832D01*
X151698508Y-77659793D01*
X151707816Y-77655051D01*
X151787007Y-77597515D01*
X151879786Y-77530109D01*
X151879788Y-77530106D01*
X151879792Y-77530104D01*
X152030104Y-77379792D01*
X152030106Y-77379788D01*
X152030109Y-77379786D01*
X152155048Y-77207820D01*
X152155049Y-77207819D01*
X152155051Y-77207816D01*
X152251557Y-77018412D01*
X152317246Y-76816243D01*
X152350500Y-76606287D01*
X152350500Y-76393713D01*
X152317246Y-76183757D01*
X152251557Y-75981588D01*
X152155051Y-75792184D01*
X152155049Y-75792181D01*
X152155048Y-75792179D01*
X152030109Y-75620213D01*
X151879786Y-75469890D01*
X151707820Y-75344951D01*
X151707115Y-75344591D01*
X151699054Y-75340485D01*
X151648259Y-75292512D01*
X151631463Y-75224692D01*
X151653999Y-75158556D01*
X151699054Y-75119515D01*
X151707816Y-75115051D01*
X151762572Y-75075269D01*
X151879786Y-74990109D01*
X151879788Y-74990106D01*
X151879792Y-74990104D01*
X152030104Y-74839792D01*
X152030106Y-74839788D01*
X152030109Y-74839786D01*
X152155048Y-74667820D01*
X152155047Y-74667820D01*
X152155051Y-74667816D01*
X152251557Y-74478412D01*
X152317246Y-74276243D01*
X152350500Y-74066287D01*
X152350500Y-73853713D01*
X152317246Y-73643757D01*
X152251557Y-73441588D01*
X152155051Y-73252184D01*
X152155049Y-73252181D01*
X152155048Y-73252179D01*
X152030109Y-73080213D01*
X151879786Y-72929890D01*
X151707820Y-72804951D01*
X151699600Y-72800763D01*
X151699054Y-72800485D01*
X151648259Y-72752512D01*
X151631463Y-72684692D01*
X151653999Y-72618556D01*
X151699054Y-72579515D01*
X151707816Y-72575051D01*
X151729789Y-72559086D01*
X151879786Y-72450109D01*
X151879788Y-72450106D01*
X151879792Y-72450104D01*
X152030104Y-72299792D01*
X152030106Y-72299788D01*
X152030109Y-72299786D01*
X152155048Y-72127820D01*
X152155049Y-72127819D01*
X152155051Y-72127816D01*
X152251557Y-71938412D01*
X152317246Y-71736243D01*
X152350500Y-71526287D01*
X152350500Y-71313713D01*
X152317246Y-71103757D01*
X152251557Y-70901588D01*
X152155051Y-70712184D01*
X152155049Y-70712181D01*
X152155048Y-70712179D01*
X152030109Y-70540213D01*
X151879786Y-70389890D01*
X151707820Y-70264951D01*
X151707115Y-70264591D01*
X151699054Y-70260485D01*
X151648259Y-70212512D01*
X151631463Y-70144692D01*
X151653999Y-70078556D01*
X151699054Y-70039515D01*
X151707816Y-70035051D01*
X151729789Y-70019086D01*
X151879786Y-69910109D01*
X151879788Y-69910106D01*
X151879792Y-69910104D01*
X152030104Y-69759792D01*
X152030106Y-69759788D01*
X152030109Y-69759786D01*
X152155048Y-69587820D01*
X152155049Y-69587819D01*
X152155051Y-69587816D01*
X152251557Y-69398412D01*
X152317246Y-69196243D01*
X152350500Y-68986287D01*
X152350500Y-68773713D01*
X152317246Y-68563757D01*
X152251557Y-68361588D01*
X152155051Y-68172184D01*
X152155049Y-68172181D01*
X152155048Y-68172179D01*
X152030109Y-68000213D01*
X151879786Y-67849890D01*
X151707820Y-67724951D01*
X151707115Y-67724591D01*
X151699054Y-67720485D01*
X151648259Y-67672512D01*
X151631463Y-67604692D01*
X151653999Y-67538556D01*
X151699054Y-67499515D01*
X151707816Y-67495051D01*
X151729789Y-67479086D01*
X151879786Y-67370109D01*
X151879788Y-67370106D01*
X151879792Y-67370104D01*
X152030104Y-67219792D01*
X152030106Y-67219788D01*
X152030109Y-67219786D01*
X152155048Y-67047820D01*
X152155049Y-67047819D01*
X152155051Y-67047816D01*
X152251557Y-66858412D01*
X152317246Y-66656243D01*
X152350500Y-66446287D01*
X152350500Y-66233713D01*
X152317246Y-66023757D01*
X152251557Y-65821588D01*
X152155051Y-65632184D01*
X152155049Y-65632181D01*
X152155048Y-65632179D01*
X152030109Y-65460213D01*
X151879786Y-65309890D01*
X151707820Y-65184951D01*
X151707115Y-65184591D01*
X151699054Y-65180485D01*
X151648259Y-65132512D01*
X151631463Y-65064692D01*
X151653999Y-64998556D01*
X151699054Y-64959515D01*
X151707816Y-64955051D01*
X151729789Y-64939086D01*
X151879786Y-64830109D01*
X151879788Y-64830106D01*
X151879792Y-64830104D01*
X152030104Y-64679792D01*
X152030106Y-64679788D01*
X152030109Y-64679786D01*
X152155048Y-64507820D01*
X152155049Y-64507819D01*
X152155051Y-64507816D01*
X152251557Y-64318412D01*
X152317246Y-64116243D01*
X152350500Y-63906287D01*
X152350500Y-63693713D01*
X152317246Y-63483757D01*
X152251557Y-63281588D01*
X152155051Y-63092184D01*
X152155049Y-63092181D01*
X152155048Y-63092179D01*
X152030109Y-62920213D01*
X151879786Y-62769890D01*
X151707820Y-62644951D01*
X151707115Y-62644591D01*
X151699054Y-62640485D01*
X151648259Y-62592512D01*
X151631463Y-62524692D01*
X151653999Y-62458556D01*
X151699054Y-62419515D01*
X151707816Y-62415051D01*
X151729789Y-62399086D01*
X151879786Y-62290109D01*
X151879788Y-62290106D01*
X151879792Y-62290104D01*
X152030104Y-62139792D01*
X152030106Y-62139788D01*
X152030109Y-62139786D01*
X152139086Y-61989789D01*
X152155051Y-61967816D01*
X152251557Y-61778412D01*
X152317246Y-61576243D01*
X152350500Y-61366287D01*
X152350500Y-61153713D01*
X152317246Y-60943757D01*
X152251557Y-60741588D01*
X152155051Y-60552184D01*
X152155049Y-60552181D01*
X152155048Y-60552179D01*
X152030109Y-60380213D01*
X151879786Y-60229890D01*
X151707820Y-60104951D01*
X151707115Y-60104591D01*
X151699054Y-60100485D01*
X151648259Y-60052512D01*
X151631463Y-59984692D01*
X151653999Y-59918556D01*
X151699054Y-59879515D01*
X151707816Y-59875051D01*
X151854204Y-59768695D01*
X151879786Y-59750109D01*
X151879788Y-59750106D01*
X151879792Y-59750104D01*
X152030104Y-59599792D01*
X152030106Y-59599788D01*
X152030109Y-59599786D01*
X152155048Y-59427820D01*
X152155049Y-59427819D01*
X152155051Y-59427816D01*
X152251557Y-59238412D01*
X152317246Y-59036243D01*
X152350500Y-58826287D01*
X152350500Y-58613713D01*
X152317246Y-58403757D01*
X152251557Y-58201588D01*
X152155051Y-58012184D01*
X152155049Y-58012181D01*
X152155048Y-58012179D01*
X152030109Y-57840213D01*
X151879786Y-57689890D01*
X151707820Y-57564951D01*
X151707115Y-57564591D01*
X151699054Y-57560485D01*
X151648259Y-57512512D01*
X151631463Y-57444692D01*
X151653999Y-57378556D01*
X151699054Y-57339515D01*
X151707816Y-57335051D01*
X151729789Y-57319086D01*
X151879786Y-57210109D01*
X151879788Y-57210106D01*
X151879792Y-57210104D01*
X152030104Y-57059792D01*
X152030106Y-57059788D01*
X152030109Y-57059786D01*
X152155048Y-56887820D01*
X152155049Y-56887819D01*
X152155051Y-56887816D01*
X152251557Y-56698412D01*
X152317246Y-56496243D01*
X152350500Y-56286287D01*
X152350500Y-56073713D01*
X152317246Y-55863757D01*
X152251557Y-55661588D01*
X152155051Y-55472184D01*
X152155049Y-55472181D01*
X152155048Y-55472179D01*
X152030109Y-55300213D01*
X151879786Y-55149890D01*
X151707820Y-55024951D01*
X151707115Y-55024591D01*
X151699054Y-55020485D01*
X151648259Y-54972512D01*
X151631463Y-54904692D01*
X151653999Y-54838556D01*
X151699054Y-54799515D01*
X151707816Y-54795051D01*
X151729789Y-54779086D01*
X151879786Y-54670109D01*
X151879788Y-54670106D01*
X151879792Y-54670104D01*
X152030104Y-54519792D01*
X152030106Y-54519788D01*
X152030109Y-54519786D01*
X152155048Y-54347820D01*
X152155049Y-54347819D01*
X152155051Y-54347816D01*
X152251557Y-54158412D01*
X152317246Y-53956243D01*
X152350500Y-53746287D01*
X152350500Y-53533713D01*
X152317246Y-53323757D01*
X152251557Y-53121588D01*
X152155051Y-52932184D01*
X152155049Y-52932181D01*
X152155048Y-52932179D01*
X152030109Y-52760213D01*
X151879786Y-52609890D01*
X151707820Y-52484951D01*
X151707115Y-52484591D01*
X151699054Y-52480485D01*
X151648259Y-52432512D01*
X151631463Y-52364692D01*
X151653999Y-52298556D01*
X151699054Y-52259515D01*
X151707816Y-52255051D01*
X151729789Y-52239086D01*
X151879786Y-52130109D01*
X151879788Y-52130106D01*
X151879792Y-52130104D01*
X152030104Y-51979792D01*
X152030106Y-51979788D01*
X152030109Y-51979786D01*
X152155048Y-51807820D01*
X152155049Y-51807819D01*
X152155051Y-51807816D01*
X152251557Y-51618412D01*
X152317246Y-51416243D01*
X152350500Y-51206287D01*
X152350500Y-50993713D01*
X152317246Y-50783757D01*
X152251557Y-50581588D01*
X152155051Y-50392184D01*
X152155049Y-50392181D01*
X152155048Y-50392179D01*
X152030109Y-50220213D01*
X151879786Y-50069890D01*
X151707820Y-49944951D01*
X151707115Y-49944591D01*
X151699054Y-49940485D01*
X151648259Y-49892512D01*
X151631463Y-49824692D01*
X151653999Y-49758556D01*
X151699054Y-49719515D01*
X151707816Y-49715051D01*
X151729789Y-49699086D01*
X151879786Y-49590109D01*
X151879788Y-49590106D01*
X151879792Y-49590104D01*
X152030104Y-49439792D01*
X152030106Y-49439788D01*
X152030109Y-49439786D01*
X152155048Y-49267820D01*
X152155049Y-49267819D01*
X152155051Y-49267816D01*
X152251557Y-49078412D01*
X152317246Y-48876243D01*
X152350500Y-48666287D01*
X152350500Y-48453713D01*
X152317246Y-48243757D01*
X152251557Y-48041588D01*
X152155051Y-47852184D01*
X152155049Y-47852181D01*
X152155048Y-47852179D01*
X152030109Y-47680213D01*
X151916569Y-47566673D01*
X151883084Y-47505350D01*
X151888068Y-47435658D01*
X151929940Y-47379725D01*
X151960915Y-47362810D01*
X152092331Y-47313796D01*
X152207546Y-47227546D01*
X152293796Y-47112331D01*
X152344091Y-46977483D01*
X152350500Y-46917873D01*
X152350499Y-45122135D01*
X164889500Y-45122135D01*
X164889500Y-46917870D01*
X164889501Y-46917876D01*
X164895908Y-46977483D01*
X164946202Y-47112328D01*
X164946206Y-47112335D01*
X165032452Y-47227544D01*
X165032455Y-47227547D01*
X165147664Y-47313793D01*
X165147671Y-47313797D01*
X165279082Y-47362810D01*
X165335016Y-47404681D01*
X165359433Y-47470145D01*
X165344582Y-47538418D01*
X165323431Y-47566673D01*
X165209889Y-47680215D01*
X165084951Y-47852179D01*
X164988444Y-48041585D01*
X164922753Y-48243760D01*
X164889500Y-48453713D01*
X164889500Y-48666286D01*
X164922753Y-48876239D01*
X164988444Y-49078414D01*
X165084951Y-49267820D01*
X165209890Y-49439786D01*
X165360213Y-49590109D01*
X165532182Y-49715050D01*
X165540946Y-49719516D01*
X165591742Y-49767491D01*
X165608536Y-49835312D01*
X165585998Y-49901447D01*
X165540946Y-49940484D01*
X165532182Y-49944949D01*
X165360213Y-50069890D01*
X165209890Y-50220213D01*
X165084951Y-50392179D01*
X164988444Y-50581585D01*
X164922753Y-50783760D01*
X164893611Y-50967756D01*
X164889500Y-50993713D01*
X164889500Y-51206287D01*
X164922754Y-51416243D01*
X164976836Y-51582690D01*
X164988444Y-51618414D01*
X165084951Y-51807820D01*
X165209890Y-51979786D01*
X165360213Y-52130109D01*
X165532182Y-52255050D01*
X165540946Y-52259516D01*
X165591742Y-52307491D01*
X165608536Y-52375312D01*
X165585998Y-52441447D01*
X165540946Y-52480484D01*
X165532182Y-52484949D01*
X165360213Y-52609890D01*
X165209890Y-52760213D01*
X165084951Y-52932179D01*
X164988444Y-53121585D01*
X164922753Y-53323760D01*
X164889500Y-53533713D01*
X164889500Y-53746286D01*
X164922753Y-53956239D01*
X164988444Y-54158414D01*
X165084951Y-54347820D01*
X165209890Y-54519786D01*
X165360213Y-54670109D01*
X165532182Y-54795050D01*
X165540946Y-54799516D01*
X165591742Y-54847491D01*
X165608536Y-54915312D01*
X165585998Y-54981447D01*
X165540946Y-55020484D01*
X165532182Y-55024949D01*
X165360213Y-55149890D01*
X165209890Y-55300213D01*
X165084951Y-55472179D01*
X164988444Y-55661585D01*
X164922753Y-55863760D01*
X164889500Y-56073713D01*
X164889500Y-56286286D01*
X164922753Y-56496239D01*
X164988444Y-56698414D01*
X165084951Y-56887820D01*
X165209890Y-57059786D01*
X165360213Y-57210109D01*
X165532182Y-57335050D01*
X165540946Y-57339516D01*
X165591742Y-57387491D01*
X165608536Y-57455312D01*
X165585998Y-57521447D01*
X165540946Y-57560484D01*
X165532182Y-57564949D01*
X165360213Y-57689890D01*
X165209890Y-57840213D01*
X165084951Y-58012179D01*
X164988444Y-58201585D01*
X164922753Y-58403760D01*
X164889500Y-58613713D01*
X164889500Y-58826286D01*
X164922753Y-59036239D01*
X164988444Y-59238414D01*
X165084951Y-59427820D01*
X165209890Y-59599786D01*
X165360213Y-59750109D01*
X165532182Y-59875050D01*
X165540946Y-59879516D01*
X165591742Y-59927491D01*
X165608536Y-59995312D01*
X165585998Y-60061447D01*
X165540946Y-60100484D01*
X165532182Y-60104949D01*
X165360213Y-60229890D01*
X165209890Y-60380213D01*
X165084951Y-60552179D01*
X164988444Y-60741585D01*
X164922753Y-60943760D01*
X164889500Y-61153713D01*
X164889500Y-61366286D01*
X164911217Y-61503406D01*
X164922754Y-61576243D01*
X164971378Y-61725893D01*
X164988444Y-61778414D01*
X165084951Y-61967820D01*
X165209890Y-62139786D01*
X165360213Y-62290109D01*
X165532182Y-62415050D01*
X165540946Y-62419516D01*
X165591742Y-62467491D01*
X165608536Y-62535312D01*
X165585998Y-62601447D01*
X165540946Y-62640484D01*
X165532182Y-62644949D01*
X165360213Y-62769890D01*
X165209890Y-62920213D01*
X165084951Y-63092179D01*
X164988444Y-63281585D01*
X164922753Y-63483760D01*
X164889500Y-63693713D01*
X164889500Y-63906286D01*
X164922753Y-64116239D01*
X164988444Y-64318414D01*
X165084951Y-64507820D01*
X165209890Y-64679786D01*
X165360213Y-64830109D01*
X165532182Y-64955050D01*
X165540946Y-64959516D01*
X165591742Y-65007491D01*
X165608536Y-65075312D01*
X165585998Y-65141447D01*
X165540946Y-65180484D01*
X165532182Y-65184949D01*
X165360213Y-65309890D01*
X165209890Y-65460213D01*
X165084951Y-65632179D01*
X164988444Y-65821585D01*
X164922753Y-66023760D01*
X164889500Y-66233713D01*
X164889500Y-66446286D01*
X164922753Y-66656239D01*
X164988444Y-66858414D01*
X165084951Y-67047820D01*
X165209890Y-67219786D01*
X165360213Y-67370109D01*
X165532182Y-67495050D01*
X165540946Y-67499516D01*
X165591742Y-67547491D01*
X165608536Y-67615312D01*
X165585998Y-67681447D01*
X165540946Y-67720484D01*
X165532182Y-67724949D01*
X165360213Y-67849890D01*
X165209890Y-68000213D01*
X165084951Y-68172179D01*
X164988444Y-68361585D01*
X164922753Y-68563760D01*
X164889500Y-68773713D01*
X164889500Y-68986286D01*
X164922753Y-69196239D01*
X164988444Y-69398414D01*
X165084951Y-69587820D01*
X165209890Y-69759786D01*
X165360213Y-69910109D01*
X165532182Y-70035050D01*
X165540946Y-70039516D01*
X165591742Y-70087491D01*
X165608536Y-70155312D01*
X165585998Y-70221447D01*
X165540946Y-70260484D01*
X165532182Y-70264949D01*
X165360213Y-70389890D01*
X165209890Y-70540213D01*
X165084951Y-70712179D01*
X164988444Y-70901585D01*
X164922753Y-71103760D01*
X164889500Y-71313713D01*
X164889500Y-71526286D01*
X164922753Y-71736239D01*
X164988444Y-71938414D01*
X165084951Y-72127820D01*
X165209890Y-72299786D01*
X165360213Y-72450109D01*
X165532179Y-72575048D01*
X165532181Y-72575049D01*
X165532184Y-72575051D01*
X165541493Y-72579794D01*
X165592290Y-72627766D01*
X165609087Y-72695587D01*
X165586552Y-72761722D01*
X165541505Y-72800760D01*
X165532446Y-72805376D01*
X165532440Y-72805380D01*
X165478282Y-72844727D01*
X165478282Y-72844728D01*
X166110591Y-73477037D01*
X166047007Y-73494075D01*
X165932993Y-73559901D01*
X165839901Y-73652993D01*
X165774075Y-73767007D01*
X165757037Y-73830591D01*
X165124728Y-73198282D01*
X165124727Y-73198282D01*
X165085380Y-73252439D01*
X164988904Y-73441782D01*
X164923242Y-73643869D01*
X164923242Y-73643872D01*
X164890000Y-73853753D01*
X164890000Y-74066246D01*
X164923242Y-74276127D01*
X164923242Y-74276130D01*
X164988904Y-74478217D01*
X165085375Y-74667550D01*
X165124728Y-74721716D01*
X165757036Y-74089407D01*
X165774075Y-74152993D01*
X165839901Y-74267007D01*
X165932993Y-74360099D01*
X166047007Y-74425925D01*
X166110590Y-74442962D01*
X165478282Y-75075269D01*
X165478282Y-75075270D01*
X165532452Y-75114626D01*
X165532451Y-75114626D01*
X165541495Y-75119234D01*
X165592292Y-75167208D01*
X165609087Y-75235029D01*
X165586550Y-75301164D01*
X165541499Y-75340202D01*
X165532182Y-75344949D01*
X165360213Y-75469890D01*
X165209890Y-75620213D01*
X165084951Y-75792179D01*
X164988444Y-75981585D01*
X164922753Y-76183760D01*
X164889500Y-76393713D01*
X164889500Y-76606286D01*
X164922753Y-76816239D01*
X164988444Y-77018414D01*
X165084951Y-77207820D01*
X165209890Y-77379786D01*
X165360213Y-77530109D01*
X165532182Y-77655050D01*
X165540946Y-77659516D01*
X165591742Y-77707491D01*
X165608536Y-77775312D01*
X165585998Y-77841447D01*
X165540946Y-77880484D01*
X165532182Y-77884949D01*
X165360213Y-78009890D01*
X165209890Y-78160213D01*
X165084951Y-78332179D01*
X164988444Y-78521585D01*
X164922753Y-78723760D01*
X164889500Y-78933713D01*
X164889500Y-79146286D01*
X164922753Y-79356239D01*
X164988444Y-79558414D01*
X165084951Y-79747820D01*
X165209890Y-79919786D01*
X165360213Y-80070109D01*
X165532182Y-80195050D01*
X165540946Y-80199516D01*
X165591742Y-80247491D01*
X165608536Y-80315312D01*
X165585998Y-80381447D01*
X165540946Y-80420484D01*
X165532182Y-80424949D01*
X165360213Y-80549890D01*
X165209890Y-80700213D01*
X165084951Y-80872179D01*
X164988444Y-81061585D01*
X164922753Y-81263760D01*
X164889500Y-81473713D01*
X164889500Y-81686286D01*
X164922753Y-81896239D01*
X164988444Y-82098414D01*
X165084951Y-82287820D01*
X165209890Y-82459786D01*
X165360213Y-82610109D01*
X165532179Y-82735048D01*
X165532181Y-82735049D01*
X165532184Y-82735051D01*
X165721588Y-82831557D01*
X165923757Y-82897246D01*
X166133713Y-82930500D01*
X166133714Y-82930500D01*
X166346286Y-82930500D01*
X166346287Y-82930500D01*
X166556243Y-82897246D01*
X166758412Y-82831557D01*
X166947816Y-82735051D01*
X166969789Y-82719086D01*
X167119786Y-82610109D01*
X167119788Y-82610106D01*
X167119792Y-82610104D01*
X167270104Y-82459792D01*
X167270106Y-82459788D01*
X167270109Y-82459786D01*
X167395049Y-82287819D01*
X167402497Y-82273203D01*
X167450473Y-82222408D01*
X167512981Y-82205500D01*
X181727019Y-82205500D01*
X181794058Y-82225185D01*
X181837503Y-82273203D01*
X181844950Y-82287819D01*
X181969890Y-82459786D01*
X182120213Y-82610109D01*
X182292179Y-82735048D01*
X182292181Y-82735049D01*
X182292184Y-82735051D01*
X182481588Y-82831557D01*
X182683757Y-82897246D01*
X182893713Y-82930500D01*
X182893714Y-82930500D01*
X183106286Y-82930500D01*
X183106287Y-82930500D01*
X183316243Y-82897246D01*
X183518412Y-82831557D01*
X183707816Y-82735051D01*
X183729789Y-82719086D01*
X183879786Y-82610109D01*
X183879788Y-82610106D01*
X183879792Y-82610104D01*
X184030104Y-82459792D01*
X184030106Y-82459788D01*
X184030109Y-82459786D01*
X184155048Y-82287820D01*
X184155049Y-82287819D01*
X184155051Y-82287816D01*
X184251557Y-82098412D01*
X184317246Y-81896243D01*
X184350500Y-81686287D01*
X184350500Y-81473713D01*
X184317246Y-81263757D01*
X184251557Y-81061588D01*
X184155051Y-80872184D01*
X184155049Y-80872181D01*
X184155048Y-80872179D01*
X184030109Y-80700213D01*
X183879786Y-80549890D01*
X183707820Y-80424951D01*
X183707115Y-80424591D01*
X183699054Y-80420485D01*
X183648259Y-80372512D01*
X183631463Y-80304692D01*
X183653999Y-80238556D01*
X183699054Y-80199515D01*
X183707816Y-80195051D01*
X183762572Y-80155269D01*
X183879786Y-80070109D01*
X183879788Y-80070106D01*
X183879792Y-80070104D01*
X184030104Y-79919792D01*
X184030106Y-79919788D01*
X184030109Y-79919786D01*
X184155048Y-79747820D01*
X184155049Y-79747819D01*
X184155051Y-79747816D01*
X184251557Y-79558412D01*
X184317246Y-79356243D01*
X184350500Y-79146287D01*
X184350500Y-78933713D01*
X184317246Y-78723757D01*
X184251557Y-78521588D01*
X184155051Y-78332184D01*
X184155049Y-78332181D01*
X184155048Y-78332179D01*
X184030109Y-78160213D01*
X183879786Y-78009890D01*
X183707820Y-77884951D01*
X183699600Y-77880763D01*
X183699054Y-77880485D01*
X183648259Y-77832512D01*
X183631463Y-77764692D01*
X183653999Y-77698556D01*
X183699054Y-77659515D01*
X183707816Y-77655051D01*
X183729789Y-77639086D01*
X183879786Y-77530109D01*
X183879788Y-77530106D01*
X183879792Y-77530104D01*
X184030104Y-77379792D01*
X184030106Y-77379788D01*
X184030109Y-77379786D01*
X184155048Y-77207820D01*
X184155049Y-77207819D01*
X184155051Y-77207816D01*
X184251557Y-77018412D01*
X184317246Y-76816243D01*
X184350500Y-76606287D01*
X184350500Y-76393713D01*
X184317246Y-76183757D01*
X184251557Y-75981588D01*
X184155051Y-75792184D01*
X184155049Y-75792181D01*
X184155048Y-75792179D01*
X184030109Y-75620213D01*
X183879786Y-75469890D01*
X183707817Y-75344949D01*
X183698504Y-75340204D01*
X183647707Y-75292230D01*
X183630912Y-75224409D01*
X183653449Y-75158274D01*
X183698507Y-75119232D01*
X183707555Y-75114622D01*
X183761716Y-75075270D01*
X183761717Y-75075270D01*
X183129408Y-74442962D01*
X183192993Y-74425925D01*
X183307007Y-74360099D01*
X183400099Y-74267007D01*
X183465925Y-74152993D01*
X183482962Y-74089408D01*
X184115270Y-74721717D01*
X184115270Y-74721716D01*
X184154622Y-74667554D01*
X184251095Y-74478217D01*
X184316757Y-74276130D01*
X184316757Y-74276127D01*
X184350000Y-74066246D01*
X184350000Y-73853753D01*
X184316757Y-73643872D01*
X184316757Y-73643869D01*
X184251095Y-73441782D01*
X184154624Y-73252449D01*
X184115270Y-73198282D01*
X184115269Y-73198282D01*
X183482962Y-73830590D01*
X183465925Y-73767007D01*
X183400099Y-73652993D01*
X183307007Y-73559901D01*
X183192993Y-73494075D01*
X183129409Y-73477037D01*
X183761716Y-72844728D01*
X183707547Y-72805373D01*
X183707547Y-72805372D01*
X183698500Y-72800763D01*
X183647706Y-72752788D01*
X183630912Y-72684966D01*
X183653451Y-72618832D01*
X183698508Y-72579793D01*
X183707816Y-72575051D01*
X183787007Y-72517515D01*
X183879786Y-72450109D01*
X183879788Y-72450106D01*
X183879792Y-72450104D01*
X184030104Y-72299792D01*
X184030106Y-72299788D01*
X184030109Y-72299786D01*
X184155048Y-72127820D01*
X184155049Y-72127819D01*
X184155051Y-72127816D01*
X184251557Y-71938412D01*
X184317246Y-71736243D01*
X184350500Y-71526287D01*
X184350500Y-71313713D01*
X184317246Y-71103757D01*
X184251557Y-70901588D01*
X184155051Y-70712184D01*
X184155049Y-70712181D01*
X184155048Y-70712179D01*
X184030109Y-70540213D01*
X183879786Y-70389890D01*
X183707820Y-70264951D01*
X183707115Y-70264591D01*
X183699054Y-70260485D01*
X183648259Y-70212512D01*
X183631463Y-70144692D01*
X183653999Y-70078556D01*
X183699054Y-70039515D01*
X183707816Y-70035051D01*
X183729789Y-70019086D01*
X183879786Y-69910109D01*
X183879788Y-69910106D01*
X183879792Y-69910104D01*
X184030104Y-69759792D01*
X184030106Y-69759788D01*
X184030109Y-69759786D01*
X184155048Y-69587820D01*
X184155049Y-69587819D01*
X184155051Y-69587816D01*
X184251557Y-69398412D01*
X184317246Y-69196243D01*
X184350500Y-68986287D01*
X184350500Y-68773713D01*
X184317246Y-68563757D01*
X184251557Y-68361588D01*
X184155051Y-68172184D01*
X184155049Y-68172181D01*
X184155048Y-68172179D01*
X184030109Y-68000213D01*
X183879786Y-67849890D01*
X183707820Y-67724951D01*
X183707115Y-67724591D01*
X183699054Y-67720485D01*
X183648259Y-67672512D01*
X183631463Y-67604692D01*
X183653999Y-67538556D01*
X183699054Y-67499515D01*
X183707816Y-67495051D01*
X183729789Y-67479086D01*
X183879786Y-67370109D01*
X183879788Y-67370106D01*
X183879792Y-67370104D01*
X184030104Y-67219792D01*
X184030106Y-67219788D01*
X184030109Y-67219786D01*
X184155048Y-67047820D01*
X184155049Y-67047819D01*
X184155051Y-67047816D01*
X184251557Y-66858412D01*
X184317246Y-66656243D01*
X184350500Y-66446287D01*
X184350500Y-66233713D01*
X184317246Y-66023757D01*
X184251557Y-65821588D01*
X184155051Y-65632184D01*
X184155049Y-65632181D01*
X184155048Y-65632179D01*
X184030109Y-65460213D01*
X183879786Y-65309890D01*
X183707820Y-65184951D01*
X183707115Y-65184591D01*
X183699054Y-65180485D01*
X183648259Y-65132512D01*
X183631463Y-65064692D01*
X183653999Y-64998556D01*
X183699054Y-64959515D01*
X183707816Y-64955051D01*
X183729789Y-64939086D01*
X183879786Y-64830109D01*
X183879788Y-64830106D01*
X183879792Y-64830104D01*
X184030104Y-64679792D01*
X184030106Y-64679788D01*
X184030109Y-64679786D01*
X184155048Y-64507820D01*
X184155049Y-64507819D01*
X184155051Y-64507816D01*
X184251557Y-64318412D01*
X184317246Y-64116243D01*
X184350500Y-63906287D01*
X184350500Y-63693713D01*
X184317246Y-63483757D01*
X184251557Y-63281588D01*
X184155051Y-63092184D01*
X184155049Y-63092181D01*
X184155048Y-63092179D01*
X184030109Y-62920213D01*
X183879786Y-62769890D01*
X183707820Y-62644951D01*
X183707115Y-62644591D01*
X183699054Y-62640485D01*
X183648259Y-62592512D01*
X183631463Y-62524692D01*
X183653999Y-62458556D01*
X183699054Y-62419515D01*
X183707816Y-62415051D01*
X183729789Y-62399086D01*
X183879786Y-62290109D01*
X183879788Y-62290106D01*
X183879792Y-62290104D01*
X184030104Y-62139792D01*
X184030106Y-62139788D01*
X184030109Y-62139786D01*
X184139086Y-61989789D01*
X184155051Y-61967816D01*
X184251557Y-61778412D01*
X184317246Y-61576243D01*
X184350500Y-61366287D01*
X184350500Y-61153713D01*
X184317246Y-60943757D01*
X184251557Y-60741588D01*
X184155051Y-60552184D01*
X184155049Y-60552181D01*
X184155048Y-60552179D01*
X184030109Y-60380213D01*
X183879786Y-60229890D01*
X183707820Y-60104951D01*
X183707115Y-60104591D01*
X183699054Y-60100485D01*
X183648259Y-60052512D01*
X183631463Y-59984692D01*
X183653999Y-59918556D01*
X183699054Y-59879515D01*
X183707816Y-59875051D01*
X183854204Y-59768695D01*
X183879786Y-59750109D01*
X183879788Y-59750106D01*
X183879792Y-59750104D01*
X184030104Y-59599792D01*
X184030106Y-59599788D01*
X184030109Y-59599786D01*
X184155048Y-59427820D01*
X184155049Y-59427819D01*
X184155051Y-59427816D01*
X184251557Y-59238412D01*
X184317246Y-59036243D01*
X184350500Y-58826287D01*
X184350500Y-58613713D01*
X184317246Y-58403757D01*
X184251557Y-58201588D01*
X184155051Y-58012184D01*
X184155049Y-58012181D01*
X184155048Y-58012179D01*
X184030109Y-57840213D01*
X183879786Y-57689890D01*
X183707820Y-57564951D01*
X183707115Y-57564591D01*
X183699054Y-57560485D01*
X183648259Y-57512512D01*
X183631463Y-57444692D01*
X183653999Y-57378556D01*
X183699054Y-57339515D01*
X183707816Y-57335051D01*
X183729789Y-57319086D01*
X183879786Y-57210109D01*
X183879788Y-57210106D01*
X183879792Y-57210104D01*
X184030104Y-57059792D01*
X184030106Y-57059788D01*
X184030109Y-57059786D01*
X184155048Y-56887820D01*
X184155049Y-56887819D01*
X184155051Y-56887816D01*
X184251557Y-56698412D01*
X184317246Y-56496243D01*
X184350500Y-56286287D01*
X184350500Y-56073713D01*
X184317246Y-55863757D01*
X184251557Y-55661588D01*
X184155051Y-55472184D01*
X184155049Y-55472181D01*
X184155048Y-55472179D01*
X184030109Y-55300213D01*
X183879786Y-55149890D01*
X183707820Y-55024951D01*
X183707115Y-55024591D01*
X183699054Y-55020485D01*
X183648259Y-54972512D01*
X183631463Y-54904692D01*
X183653999Y-54838556D01*
X183699054Y-54799515D01*
X183707816Y-54795051D01*
X183729789Y-54779086D01*
X183879786Y-54670109D01*
X183879788Y-54670106D01*
X183879792Y-54670104D01*
X184030104Y-54519792D01*
X184030106Y-54519788D01*
X184030109Y-54519786D01*
X184155048Y-54347820D01*
X184155049Y-54347819D01*
X184155051Y-54347816D01*
X184251557Y-54158412D01*
X184317246Y-53956243D01*
X184350500Y-53746287D01*
X184350500Y-53533713D01*
X184317246Y-53323757D01*
X184251557Y-53121588D01*
X184155051Y-52932184D01*
X184155049Y-52932181D01*
X184155048Y-52932179D01*
X184030109Y-52760213D01*
X183879786Y-52609890D01*
X183707820Y-52484951D01*
X183707115Y-52484591D01*
X183699054Y-52480485D01*
X183648259Y-52432512D01*
X183631463Y-52364692D01*
X183653999Y-52298556D01*
X183699054Y-52259515D01*
X183707816Y-52255051D01*
X183729789Y-52239086D01*
X183879786Y-52130109D01*
X183879788Y-52130106D01*
X183879792Y-52130104D01*
X184030104Y-51979792D01*
X184030106Y-51979788D01*
X184030109Y-51979786D01*
X184155048Y-51807820D01*
X184155049Y-51807819D01*
X184155051Y-51807816D01*
X184251557Y-51618412D01*
X184317246Y-51416243D01*
X184350500Y-51206287D01*
X184350500Y-50993713D01*
X184317246Y-50783757D01*
X184251557Y-50581588D01*
X184155051Y-50392184D01*
X184155049Y-50392181D01*
X184155048Y-50392179D01*
X184030109Y-50220213D01*
X183879786Y-50069890D01*
X183707820Y-49944951D01*
X183707115Y-49944591D01*
X183699054Y-49940485D01*
X183648259Y-49892512D01*
X183631463Y-49824692D01*
X183653999Y-49758556D01*
X183699054Y-49719515D01*
X183707816Y-49715051D01*
X183729789Y-49699086D01*
X183879786Y-49590109D01*
X183879788Y-49590106D01*
X183879792Y-49590104D01*
X184030104Y-49439792D01*
X184030106Y-49439788D01*
X184030109Y-49439786D01*
X184155048Y-49267820D01*
X184155049Y-49267819D01*
X184155051Y-49267816D01*
X184251557Y-49078412D01*
X184317246Y-48876243D01*
X184350500Y-48666287D01*
X184350500Y-48453713D01*
X184317246Y-48243757D01*
X184251557Y-48041588D01*
X184155051Y-47852184D01*
X184155049Y-47852181D01*
X184155048Y-47852179D01*
X184030109Y-47680213D01*
X183916569Y-47566673D01*
X183883084Y-47505350D01*
X183888068Y-47435658D01*
X183929940Y-47379725D01*
X183960915Y-47362810D01*
X184092331Y-47313796D01*
X184207546Y-47227546D01*
X184293796Y-47112331D01*
X184344091Y-46977483D01*
X184350500Y-46917873D01*
X184350499Y-45122128D01*
X184344091Y-45062517D01*
X184293796Y-44927669D01*
X184293795Y-44927668D01*
X184293793Y-44927664D01*
X184207547Y-44812455D01*
X184207544Y-44812452D01*
X184092335Y-44726206D01*
X184092328Y-44726202D01*
X183957482Y-44675908D01*
X183957483Y-44675908D01*
X183897883Y-44669501D01*
X183897881Y-44669500D01*
X183897873Y-44669500D01*
X183897864Y-44669500D01*
X182102129Y-44669500D01*
X182102123Y-44669501D01*
X182042516Y-44675908D01*
X181907671Y-44726202D01*
X181907664Y-44726206D01*
X181792455Y-44812452D01*
X181792452Y-44812455D01*
X181706206Y-44927664D01*
X181706202Y-44927671D01*
X181655908Y-45062517D01*
X181649501Y-45122116D01*
X181649501Y-45122123D01*
X181649500Y-45122135D01*
X181649500Y-45270500D01*
X181629815Y-45337539D01*
X181577011Y-45383294D01*
X181525500Y-45394500D01*
X167714499Y-45394500D01*
X167647460Y-45374815D01*
X167601705Y-45322011D01*
X167590499Y-45270500D01*
X167590499Y-45122129D01*
X167590498Y-45122123D01*
X167590497Y-45122116D01*
X167584091Y-45062517D01*
X167533796Y-44927669D01*
X167533795Y-44927668D01*
X167533793Y-44927664D01*
X167447547Y-44812455D01*
X167447544Y-44812452D01*
X167332335Y-44726206D01*
X167332328Y-44726202D01*
X167197482Y-44675908D01*
X167197483Y-44675908D01*
X167137883Y-44669501D01*
X167137881Y-44669500D01*
X167137873Y-44669500D01*
X167137864Y-44669500D01*
X165342129Y-44669500D01*
X165342123Y-44669501D01*
X165282516Y-44675908D01*
X165147671Y-44726202D01*
X165147664Y-44726206D01*
X165032455Y-44812452D01*
X165032452Y-44812455D01*
X164946206Y-44927664D01*
X164946202Y-44927671D01*
X164895908Y-45062517D01*
X164889501Y-45122116D01*
X164889501Y-45122123D01*
X164889500Y-45122135D01*
X152350499Y-45122135D01*
X152350499Y-45122128D01*
X152344091Y-45062517D01*
X152293796Y-44927669D01*
X152293795Y-44927668D01*
X152293793Y-44927664D01*
X152207547Y-44812455D01*
X152207544Y-44812452D01*
X152092335Y-44726206D01*
X152092328Y-44726202D01*
X151957482Y-44675908D01*
X151957483Y-44675908D01*
X151897883Y-44669501D01*
X151897881Y-44669500D01*
X151897873Y-44669500D01*
X151897864Y-44669500D01*
X150102129Y-44669500D01*
X150102123Y-44669501D01*
X150042516Y-44675908D01*
X149907671Y-44726202D01*
X149907664Y-44726206D01*
X149792455Y-44812452D01*
X149792452Y-44812455D01*
X149706206Y-44927664D01*
X149706202Y-44927671D01*
X149655908Y-45062517D01*
X149649501Y-45122116D01*
X149649501Y-45122123D01*
X149649500Y-45122135D01*
X149649500Y-45270500D01*
X149629815Y-45337539D01*
X149577011Y-45383294D01*
X149525500Y-45394500D01*
X135714499Y-45394500D01*
X135647460Y-45374815D01*
X135601705Y-45322011D01*
X135590499Y-45270500D01*
X135590499Y-45122129D01*
X135590498Y-45122123D01*
X135590497Y-45122116D01*
X135584091Y-45062517D01*
X135533796Y-44927669D01*
X135533795Y-44927668D01*
X135533793Y-44927664D01*
X135447547Y-44812455D01*
X135447544Y-44812452D01*
X135332335Y-44726206D01*
X135332328Y-44726202D01*
X135197482Y-44675908D01*
X135197483Y-44675908D01*
X135137883Y-44669501D01*
X135137881Y-44669500D01*
X135137873Y-44669500D01*
X135137864Y-44669500D01*
X133342129Y-44669500D01*
X133342123Y-44669501D01*
X133282516Y-44675908D01*
X133147671Y-44726202D01*
X133147664Y-44726206D01*
X133032455Y-44812452D01*
X133032452Y-44812455D01*
X132946206Y-44927664D01*
X132946202Y-44927671D01*
X132895908Y-45062517D01*
X132889501Y-45122116D01*
X132889501Y-45122123D01*
X132889500Y-45122135D01*
X132889500Y-46917870D01*
X132889501Y-46917876D01*
X132895908Y-46977483D01*
X132946202Y-47112328D01*
X132946206Y-47112335D01*
X133032452Y-47227544D01*
X133032455Y-47227547D01*
X133147664Y-47313793D01*
X133147671Y-47313797D01*
X133279082Y-47362810D01*
X133335016Y-47404681D01*
X133359433Y-47470145D01*
X133344582Y-47538418D01*
X133323431Y-47566673D01*
X133209889Y-47680215D01*
X133084951Y-47852179D01*
X132988444Y-48041585D01*
X132922753Y-48243760D01*
X132889500Y-48453713D01*
X132889500Y-48666292D01*
X132904616Y-48761728D01*
X132895662Y-48831021D01*
X132869824Y-48868807D01*
X132474681Y-49263951D01*
X132413358Y-49297436D01*
X132343667Y-49292452D01*
X132287733Y-49250581D01*
X132263316Y-49185116D01*
X132263000Y-49176270D01*
X132263000Y-39332052D01*
X132282685Y-39265013D01*
X132299319Y-39244371D01*
X132345340Y-39198350D01*
X132435908Y-39051516D01*
X132490174Y-38887753D01*
X132500500Y-38786677D01*
X132500499Y-38213324D01*
X132490174Y-38112247D01*
X132435908Y-37948484D01*
X132435904Y-37948478D01*
X132435903Y-37948475D01*
X132353634Y-37815097D01*
X132335193Y-37747705D01*
X132353634Y-37684903D01*
X132435903Y-37551524D01*
X132435902Y-37551524D01*
X132435908Y-37551516D01*
X132490174Y-37387753D01*
X132500500Y-37286677D01*
X132500499Y-36713324D01*
X132490174Y-36612247D01*
X132435908Y-36448484D01*
X132345340Y-36301650D01*
X132223350Y-36179660D01*
X132090984Y-36098016D01*
X132076518Y-36089093D01*
X132076513Y-36089091D01*
X132023122Y-36071399D01*
X131912753Y-36034826D01*
X131912751Y-36034825D01*
X131811684Y-36024500D01*
X131811677Y-36024500D01*
X131513498Y-36024500D01*
X131446459Y-36004815D01*
X131400704Y-35952011D01*
X131390760Y-35882853D01*
X131406766Y-35837379D01*
X131461282Y-35745196D01*
X131461283Y-35745193D01*
X131507099Y-35587495D01*
X131507100Y-35587489D01*
X131509999Y-35550649D01*
X131510000Y-35550634D01*
X131510000Y-35110000D01*
X130834000Y-35110000D01*
X130766961Y-35090315D01*
X130721206Y-35037511D01*
X130710000Y-34986000D01*
X130710000Y-34860000D01*
X130634500Y-34860000D01*
X130567461Y-34840315D01*
X130521706Y-34787511D01*
X130510500Y-34736000D01*
X130510500Y-34610000D01*
X130960000Y-34610000D01*
X131510000Y-34610000D01*
X131510000Y-34169365D01*
X131509999Y-34169350D01*
X131507100Y-34132510D01*
X131507099Y-34132504D01*
X131461283Y-33974806D01*
X131461282Y-33974803D01*
X131377685Y-33833447D01*
X131377678Y-33833438D01*
X131261561Y-33717321D01*
X131261552Y-33717314D01*
X131120196Y-33633717D01*
X131120193Y-33633716D01*
X130962494Y-33587900D01*
X130962497Y-33587900D01*
X130960000Y-33587703D01*
X130960000Y-34610000D01*
X130510500Y-34610000D01*
X130510500Y-34169313D01*
X130510499Y-34169298D01*
X130507598Y-34132432D01*
X130507597Y-34132426D01*
X130464924Y-33985545D01*
X130460000Y-33950950D01*
X130460000Y-33587703D01*
X130457504Y-33587900D01*
X130299806Y-33633716D01*
X130299798Y-33633719D01*
X130273608Y-33649208D01*
X130205884Y-33666388D01*
X130147371Y-33649207D01*
X130120398Y-33633256D01*
X130120393Y-33633254D01*
X129962573Y-33587402D01*
X129962567Y-33587401D01*
X129925701Y-33584500D01*
X129925694Y-33584500D01*
X129494306Y-33584500D01*
X129494298Y-33584500D01*
X129457432Y-33587401D01*
X129457426Y-33587402D01*
X129299606Y-33633253D01*
X129273119Y-33648918D01*
X129205394Y-33666098D01*
X129146881Y-33648918D01*
X129120393Y-33633253D01*
X128962573Y-33587402D01*
X128962567Y-33587401D01*
X128925701Y-33584500D01*
X128925694Y-33584500D01*
X128494306Y-33584500D01*
X128494298Y-33584500D01*
X128457432Y-33587401D01*
X128457426Y-33587402D01*
X128299606Y-33633253D01*
X128273119Y-33648918D01*
X128205394Y-33666098D01*
X128146881Y-33648918D01*
X128120393Y-33633253D01*
X127962573Y-33587402D01*
X127962567Y-33587401D01*
X127925701Y-33584500D01*
X127925694Y-33584500D01*
X127494306Y-33584500D01*
X127494298Y-33584500D01*
X127457432Y-33587401D01*
X127457426Y-33587402D01*
X127299606Y-33633254D01*
X127299603Y-33633255D01*
X127158137Y-33716917D01*
X127158129Y-33716923D01*
X127041923Y-33833129D01*
X127041917Y-33833137D01*
X126958255Y-33974603D01*
X126958254Y-33974606D01*
X126912402Y-34132426D01*
X126912401Y-34132432D01*
X126909500Y-34169298D01*
X126909500Y-35550701D01*
X126912401Y-35587567D01*
X126912402Y-35587573D01*
X126958254Y-35745393D01*
X126958255Y-35745396D01*
X126958256Y-35745398D01*
X127041919Y-35886865D01*
X127048179Y-35893125D01*
X127081665Y-35954445D01*
X127084500Y-35980808D01*
X127084500Y-36584106D01*
X127108537Y-36704952D01*
X127108538Y-36704955D01*
X127108538Y-36704956D01*
X127110286Y-36709176D01*
X127110290Y-36709184D01*
X127112005Y-36713324D01*
X127155688Y-36818786D01*
X127189915Y-36870009D01*
X127194193Y-36876412D01*
X127194194Y-36876413D01*
X127224141Y-36921233D01*
X127315586Y-37012678D01*
X127315608Y-37012698D01*
X128663181Y-38360271D01*
X128696666Y-38421594D01*
X128699500Y-38447952D01*
X128699500Y-38786668D01*
X128699501Y-38786687D01*
X128709825Y-38887752D01*
X128764092Y-39051515D01*
X128764093Y-39051518D01*
X128854661Y-39198351D01*
X128976650Y-39320340D01*
X129003096Y-39336652D01*
X129049821Y-39388600D01*
X129062000Y-39442191D01*
X129062000Y-61849111D01*
X129086035Y-61969944D01*
X129086040Y-61969961D01*
X129133185Y-62083780D01*
X129133187Y-62083783D01*
X129133188Y-62083786D01*
X129167415Y-62135009D01*
X129201642Y-62186233D01*
X129288767Y-62273358D01*
X129288770Y-62273360D01*
X129296054Y-62280644D01*
X132897571Y-65882161D01*
X132931056Y-65943484D01*
X132927822Y-66008158D01*
X132922753Y-66023757D01*
X132889500Y-66233713D01*
X132889500Y-66446286D01*
X132922753Y-66656239D01*
X132988444Y-66858414D01*
X133084951Y-67047820D01*
X133209890Y-67219786D01*
X133360213Y-67370109D01*
X133532182Y-67495050D01*
X133540946Y-67499516D01*
X133591742Y-67547491D01*
X133608536Y-67615312D01*
X133585998Y-67681447D01*
X133540946Y-67720484D01*
X133532182Y-67724949D01*
X133360213Y-67849890D01*
X133209890Y-68000213D01*
X133084951Y-68172179D01*
X132988444Y-68361585D01*
X132922753Y-68563760D01*
X132889500Y-68773713D01*
X132889500Y-68986286D01*
X132922753Y-69196239D01*
X132988444Y-69398414D01*
X133084951Y-69587820D01*
X133209890Y-69759786D01*
X133360213Y-69910109D01*
X133532182Y-70035050D01*
X133540946Y-70039516D01*
X133591742Y-70087491D01*
X133608536Y-70155312D01*
X133585998Y-70221447D01*
X133540946Y-70260484D01*
X133532182Y-70264949D01*
X133360213Y-70389890D01*
X133209890Y-70540213D01*
X133084951Y-70712179D01*
X132988444Y-70901585D01*
X132922753Y-71103760D01*
X132895518Y-71275713D01*
X132865589Y-71338848D01*
X132806277Y-71375779D01*
X132736414Y-71374781D01*
X132685364Y-71343996D01*
X122109175Y-60767807D01*
X122075690Y-60706484D01*
X122075262Y-60704432D01*
X122065894Y-60657334D01*
X122022340Y-60552184D01*
X121998016Y-60493459D01*
X121998009Y-60493446D01*
X121899464Y-60345965D01*
X121899461Y-60345961D01*
X121774038Y-60220538D01*
X121774034Y-60220535D01*
X121626553Y-60121990D01*
X121626540Y-60121983D01*
X121462667Y-60054106D01*
X121462658Y-60054103D01*
X121288694Y-60019500D01*
X121288691Y-60019500D01*
X121111309Y-60019500D01*
X121111306Y-60019500D01*
X120937341Y-60054103D01*
X120937332Y-60054106D01*
X120773459Y-60121983D01*
X120773446Y-60121990D01*
X120625965Y-60220535D01*
X120625961Y-60220538D01*
X120500538Y-60345961D01*
X120500535Y-60345965D01*
X120401990Y-60493446D01*
X120401983Y-60493459D01*
X120334106Y-60657332D01*
X120334103Y-60657341D01*
X120299500Y-60831304D01*
X25500500Y-60831304D01*
X25500500Y-34198670D01*
X38900000Y-34198670D01*
X38915185Y-34314019D01*
X38915187Y-34314024D01*
X38974633Y-34457541D01*
X38974633Y-34457542D01*
X39069207Y-34580792D01*
X39192458Y-34675366D01*
X39335975Y-34734812D01*
X39335980Y-34734814D01*
X39451329Y-34750000D01*
X39600000Y-34750000D01*
X40100000Y-34750000D01*
X40248671Y-34750000D01*
X40364019Y-34734814D01*
X40364024Y-34734812D01*
X40507541Y-34675366D01*
X40507542Y-34675366D01*
X40630792Y-34580792D01*
X40725366Y-34457542D01*
X40725366Y-34457541D01*
X40784812Y-34314024D01*
X40784814Y-34314019D01*
X40800000Y-34198670D01*
X40800000Y-33750000D01*
X40100000Y-33750000D01*
X40100000Y-34750000D01*
X39600000Y-34750000D01*
X39600000Y-33750000D01*
X38900000Y-33750000D01*
X38900000Y-34198670D01*
X25500500Y-34198670D01*
X25500500Y-32801329D01*
X38900000Y-32801329D01*
X38900000Y-33250000D01*
X39600000Y-33250000D01*
X40100000Y-33250000D01*
X40800000Y-33250000D01*
X40800000Y-32801329D01*
X40784814Y-32685980D01*
X40784812Y-32685975D01*
X40725366Y-32542458D01*
X40725366Y-32542457D01*
X40630792Y-32419207D01*
X40507541Y-32324633D01*
X40364024Y-32265187D01*
X40364019Y-32265185D01*
X40248671Y-32250000D01*
X40100000Y-32250000D01*
X40100000Y-33250000D01*
X39600000Y-33250000D01*
X39600000Y-32250000D01*
X39451329Y-32250000D01*
X39335980Y-32265185D01*
X39335975Y-32265187D01*
X39192458Y-32324633D01*
X39192457Y-32324633D01*
X39069207Y-32419207D01*
X38974633Y-32542457D01*
X38974633Y-32542458D01*
X38915187Y-32685975D01*
X38915185Y-32685980D01*
X38900000Y-32801329D01*
X25500500Y-32801329D01*
X25500500Y-27901298D01*
X38899500Y-27901298D01*
X38899500Y-29298703D01*
X38914696Y-29414142D01*
X38914699Y-29414151D01*
X38973867Y-29556996D01*
X38974200Y-29557798D01*
X39068851Y-29681149D01*
X39192202Y-29775800D01*
X39335849Y-29835301D01*
X39451299Y-29850500D01*
X40248700Y-29850499D01*
X40248703Y-29850499D01*
X40364142Y-29835303D01*
X40364146Y-29835301D01*
X40364151Y-29835301D01*
X40507798Y-29775800D01*
X40631149Y-29681149D01*
X40725800Y-29557798D01*
X40785301Y-29414151D01*
X40800500Y-29298701D01*
X40800499Y-27901300D01*
X40800499Y-27901298D01*
X40800499Y-27901296D01*
X40785303Y-27785857D01*
X40785301Y-27785850D01*
X40785301Y-27785849D01*
X40725800Y-27642202D01*
X40631149Y-27518851D01*
X40507798Y-27424200D01*
X40507794Y-27424198D01*
X40364151Y-27364699D01*
X40364149Y-27364698D01*
X40248701Y-27349500D01*
X39451296Y-27349500D01*
X39335857Y-27364696D01*
X39335848Y-27364699D01*
X39192205Y-27424198D01*
X39192202Y-27424199D01*
X39192202Y-27424200D01*
X39068851Y-27518851D01*
X38979862Y-27634824D01*
X38974198Y-27642205D01*
X38914699Y-27785848D01*
X38914698Y-27785850D01*
X38899500Y-27901298D01*
X25500500Y-27901298D01*
X25500500Y-25624500D01*
X25520185Y-25557461D01*
X25572989Y-25511706D01*
X25624500Y-25500500D01*
X56828547Y-25500500D01*
X56895586Y-25520185D01*
G37*
%TD.AperFunction*%
%TA.AperFunction,Conductor*%
G36*
X125231931Y-88645185D02*
G01*
X125277686Y-88697989D01*
X125287630Y-88767147D01*
X125258605Y-88830703D01*
X125235508Y-88851428D01*
X125185354Y-88886174D01*
X125185342Y-88886184D01*
X125026184Y-89045342D01*
X125026174Y-89045354D01*
X124897997Y-89230367D01*
X124897991Y-89230377D01*
X124804903Y-89435318D01*
X124804902Y-89435321D01*
X124749905Y-89653579D01*
X124749904Y-89653586D01*
X124739500Y-89785777D01*
X124739500Y-91414208D01*
X124739501Y-91414223D01*
X124749904Y-91546413D01*
X124749905Y-91546420D01*
X124804902Y-91764678D01*
X124804903Y-91764681D01*
X124897991Y-91969622D01*
X124897997Y-91969632D01*
X125026174Y-92154645D01*
X125026178Y-92154650D01*
X125026181Y-92154654D01*
X125185346Y-92313819D01*
X125185350Y-92313822D01*
X125185354Y-92313825D01*
X125324603Y-92410297D01*
X125370374Y-92442007D01*
X125575317Y-92535096D01*
X125575321Y-92535097D01*
X125793579Y-92590094D01*
X125793581Y-92590094D01*
X125793588Y-92590096D01*
X125925783Y-92600500D01*
X128554216Y-92600499D01*
X128686412Y-92590096D01*
X128904683Y-92535096D01*
X129109626Y-92442007D01*
X129294654Y-92313819D01*
X129453819Y-92154654D01*
X129582007Y-91969626D01*
X129675096Y-91764683D01*
X129730096Y-91546412D01*
X129740500Y-91414217D01*
X129740499Y-89785784D01*
X129730096Y-89653588D01*
X129723732Y-89628334D01*
X129675097Y-89435321D01*
X129675096Y-89435318D01*
X129644401Y-89367741D01*
X129582007Y-89230374D01*
X129522988Y-89145185D01*
X129453825Y-89045354D01*
X129453822Y-89045350D01*
X129453819Y-89045346D01*
X129294654Y-88886181D01*
X129294650Y-88886178D01*
X129294645Y-88886174D01*
X129244492Y-88851428D01*
X129200595Y-88797070D01*
X129193056Y-88727608D01*
X129224267Y-88665097D01*
X129284320Y-88629383D01*
X129315108Y-88625500D01*
X129789548Y-88625500D01*
X129856587Y-88645185D01*
X129877229Y-88661819D01*
X130738181Y-89522771D01*
X130771666Y-89584094D01*
X130774500Y-89610452D01*
X130774500Y-92221606D01*
X130793583Y-92317548D01*
X130793583Y-92317550D01*
X130798534Y-92342444D01*
X130798537Y-92342451D01*
X130845688Y-92456286D01*
X130845689Y-92456288D01*
X130845690Y-92456289D01*
X130845691Y-92456292D01*
X130869758Y-92492309D01*
X130874051Y-92498733D01*
X130914142Y-92558733D01*
X131001267Y-92645858D01*
X131001269Y-92645859D01*
X131011500Y-92656090D01*
X132857890Y-94502481D01*
X132891375Y-94563804D01*
X132888141Y-94628477D01*
X132873985Y-94672048D01*
X132839500Y-94889778D01*
X132839500Y-95110221D01*
X132873985Y-95327952D01*
X132942103Y-95537603D01*
X132942104Y-95537606D01*
X132994784Y-95640993D01*
X133028699Y-95707555D01*
X133042187Y-95734025D01*
X133171752Y-95912358D01*
X133171756Y-95912363D01*
X133192794Y-95933401D01*
X133226279Y-95994724D01*
X133221295Y-96064416D01*
X133179423Y-96120349D01*
X133148448Y-96137263D01*
X133097674Y-96156201D01*
X133097664Y-96156206D01*
X132982455Y-96242452D01*
X132982452Y-96242455D01*
X132896206Y-96357664D01*
X132896202Y-96357671D01*
X132845908Y-96492517D01*
X132840086Y-96546673D01*
X132839501Y-96552123D01*
X132839500Y-96552135D01*
X132839500Y-97787769D01*
X132819815Y-97854808D01*
X132803181Y-97875450D01*
X129865451Y-100813181D01*
X129838523Y-100827884D01*
X129812705Y-100844477D01*
X129806504Y-100845368D01*
X129804128Y-100846666D01*
X129777770Y-100849500D01*
X129738242Y-100849500D01*
X129671203Y-100829815D01*
X129625448Y-100777011D01*
X129615504Y-100707853D01*
X129625343Y-100674219D01*
X129641876Y-100637819D01*
X129675096Y-100564683D01*
X129730096Y-100346412D01*
X129740500Y-100214217D01*
X129740499Y-98585784D01*
X129730096Y-98453588D01*
X129728658Y-98447883D01*
X129675097Y-98235321D01*
X129675096Y-98235318D01*
X129671467Y-98227329D01*
X129582007Y-98030374D01*
X129485703Y-97891368D01*
X129453825Y-97845354D01*
X129453822Y-97845350D01*
X129453819Y-97845346D01*
X129294654Y-97686181D01*
X129294650Y-97686178D01*
X129294645Y-97686174D01*
X129109632Y-97557997D01*
X129109630Y-97557995D01*
X129109626Y-97557993D01*
X129060876Y-97535850D01*
X128904681Y-97464903D01*
X128904678Y-97464902D01*
X128686420Y-97409905D01*
X128686413Y-97409904D01*
X128642347Y-97406436D01*
X128554217Y-97399500D01*
X128554215Y-97399500D01*
X125925791Y-97399500D01*
X125925776Y-97399501D01*
X125793586Y-97409904D01*
X125793579Y-97409905D01*
X125575321Y-97464902D01*
X125575318Y-97464903D01*
X125370377Y-97557991D01*
X125370367Y-97557997D01*
X125185354Y-97686174D01*
X125185342Y-97686184D01*
X125026184Y-97845342D01*
X125026174Y-97845354D01*
X124897997Y-98030367D01*
X124897991Y-98030377D01*
X124804903Y-98235318D01*
X124804902Y-98235321D01*
X124749905Y-98453579D01*
X124749904Y-98453586D01*
X124739500Y-98585777D01*
X124739500Y-100214208D01*
X124739501Y-100214223D01*
X124749904Y-100346413D01*
X124749905Y-100346420D01*
X124804902Y-100564678D01*
X124804903Y-100564681D01*
X124854657Y-100674219D01*
X124864460Y-100743398D01*
X124835305Y-100806894D01*
X124776450Y-100844548D01*
X124741758Y-100849500D01*
X120382229Y-100849500D01*
X120315190Y-100829815D01*
X120294548Y-100813181D01*
X119886818Y-100405451D01*
X119853333Y-100344128D01*
X119850499Y-100317770D01*
X119850499Y-99182129D01*
X119850498Y-99182123D01*
X119844091Y-99122516D01*
X119793797Y-98987671D01*
X119793793Y-98987664D01*
X119707547Y-98872455D01*
X119707544Y-98872452D01*
X119592335Y-98786206D01*
X119592328Y-98786202D01*
X119460917Y-98737189D01*
X119404983Y-98695318D01*
X119380566Y-98629853D01*
X119395418Y-98561580D01*
X119416563Y-98533332D01*
X119530104Y-98419792D01*
X119655051Y-98247816D01*
X119751557Y-98058412D01*
X119817246Y-97856243D01*
X119850500Y-97646287D01*
X119850500Y-97433713D01*
X119817246Y-97223757D01*
X119751557Y-97021588D01*
X119655051Y-96832184D01*
X119655049Y-96832181D01*
X119655048Y-96832179D01*
X119530109Y-96660213D01*
X119379786Y-96509890D01*
X119207817Y-96384949D01*
X119198504Y-96380204D01*
X119147707Y-96332230D01*
X119130912Y-96264409D01*
X119153449Y-96198274D01*
X119198507Y-96159232D01*
X119207555Y-96154622D01*
X119261716Y-96115270D01*
X119261717Y-96115270D01*
X118629408Y-95482962D01*
X118692993Y-95465925D01*
X118807007Y-95400099D01*
X118900099Y-95307007D01*
X118965925Y-95192993D01*
X118982962Y-95129408D01*
X119615270Y-95761717D01*
X119615270Y-95761716D01*
X119654622Y-95707554D01*
X119751095Y-95518217D01*
X119816757Y-95316130D01*
X119816757Y-95316127D01*
X119850000Y-95106246D01*
X119850000Y-94893753D01*
X119816757Y-94683872D01*
X119816757Y-94683869D01*
X119751095Y-94481782D01*
X119654624Y-94292449D01*
X119615270Y-94238282D01*
X118982962Y-94870590D01*
X118965925Y-94807007D01*
X118900099Y-94692993D01*
X118807007Y-94599901D01*
X118692993Y-94534075D01*
X118629409Y-94517037D01*
X119261716Y-93884728D01*
X119207550Y-93845375D01*
X119018217Y-93748904D01*
X118816129Y-93683242D01*
X118606246Y-93650000D01*
X118393754Y-93650000D01*
X118183872Y-93683242D01*
X118183869Y-93683242D01*
X117981782Y-93748904D01*
X117792439Y-93845380D01*
X117738282Y-93884727D01*
X117738282Y-93884728D01*
X118370591Y-94517037D01*
X118307007Y-94534075D01*
X118192993Y-94599901D01*
X118099901Y-94692993D01*
X118034075Y-94807007D01*
X118017037Y-94870591D01*
X117384728Y-94238282D01*
X117384727Y-94238282D01*
X117345380Y-94292439D01*
X117248904Y-94481782D01*
X117183242Y-94683869D01*
X117183242Y-94683872D01*
X117150000Y-94893753D01*
X117150000Y-95106246D01*
X117183242Y-95316127D01*
X117183242Y-95316130D01*
X117248904Y-95518217D01*
X117345375Y-95707550D01*
X117384728Y-95761716D01*
X118017037Y-95129408D01*
X118034075Y-95192993D01*
X118099901Y-95307007D01*
X118192993Y-95400099D01*
X118307007Y-95465925D01*
X118370590Y-95482962D01*
X117738282Y-96115269D01*
X117738282Y-96115270D01*
X117792452Y-96154626D01*
X117792451Y-96154626D01*
X117801495Y-96159234D01*
X117852292Y-96207208D01*
X117869087Y-96275029D01*
X117846550Y-96341164D01*
X117801499Y-96380202D01*
X117792182Y-96384949D01*
X117620213Y-96509890D01*
X117469890Y-96660213D01*
X117344951Y-96832179D01*
X117248444Y-97021585D01*
X117182753Y-97223760D01*
X117149500Y-97433713D01*
X117149500Y-97646286D01*
X117182754Y-97856246D01*
X117187821Y-97871840D01*
X117188255Y-97887051D01*
X117193574Y-97901311D01*
X117189232Y-97921266D01*
X117189816Y-97941681D01*
X117181727Y-97955768D01*
X117178722Y-97969583D01*
X117157574Y-97997834D01*
X117017227Y-98138182D01*
X116955907Y-98171666D01*
X116929548Y-98174500D01*
X115884509Y-98174500D01*
X115817470Y-98154815D01*
X115771715Y-98102011D01*
X115761771Y-98032853D01*
X115766578Y-98012182D01*
X115793371Y-97929722D01*
X115817246Y-97856243D01*
X115850500Y-97646287D01*
X115850500Y-97433713D01*
X115817246Y-97223757D01*
X115751557Y-97021588D01*
X115655051Y-96832184D01*
X115655049Y-96832181D01*
X115655048Y-96832179D01*
X115530109Y-96660213D01*
X115379786Y-96509890D01*
X115207817Y-96384949D01*
X115198504Y-96380204D01*
X115147707Y-96332230D01*
X115130912Y-96264409D01*
X115153449Y-96198274D01*
X115198507Y-96159232D01*
X115207555Y-96154622D01*
X115261716Y-96115270D01*
X115261717Y-96115270D01*
X114629408Y-95482962D01*
X114692993Y-95465925D01*
X114807007Y-95400099D01*
X114900099Y-95307007D01*
X114965925Y-95192993D01*
X114982962Y-95129409D01*
X115615270Y-95761717D01*
X115615270Y-95761716D01*
X115654622Y-95707554D01*
X115751095Y-95518217D01*
X115816757Y-95316130D01*
X115816757Y-95316127D01*
X115850000Y-95106246D01*
X115850000Y-94893753D01*
X115816757Y-94683872D01*
X115816757Y-94683869D01*
X115751095Y-94481782D01*
X115654624Y-94292449D01*
X115615270Y-94238282D01*
X115615269Y-94238282D01*
X114982962Y-94870590D01*
X114965925Y-94807007D01*
X114900099Y-94692993D01*
X114807007Y-94599901D01*
X114692993Y-94534075D01*
X114629409Y-94517037D01*
X115261716Y-93884728D01*
X115207550Y-93845375D01*
X115018217Y-93748904D01*
X114816129Y-93683242D01*
X114606246Y-93650000D01*
X114393754Y-93650000D01*
X114183872Y-93683242D01*
X114183869Y-93683242D01*
X113981782Y-93748904D01*
X113792439Y-93845380D01*
X113738282Y-93884727D01*
X113738282Y-93884728D01*
X114370591Y-94517037D01*
X114307007Y-94534075D01*
X114192993Y-94599901D01*
X114099901Y-94692993D01*
X114034075Y-94807007D01*
X114017037Y-94870591D01*
X113384728Y-94238282D01*
X113384727Y-94238282D01*
X113349819Y-94286331D01*
X113294489Y-94328997D01*
X113224876Y-94334976D01*
X113163080Y-94302371D01*
X113128723Y-94241532D01*
X113125500Y-94213446D01*
X113125500Y-92438394D01*
X113117124Y-92396286D01*
X113101463Y-92317548D01*
X113054311Y-92203714D01*
X113016046Y-92146446D01*
X112985857Y-92101265D01*
X112985854Y-92101262D01*
X109721771Y-88837181D01*
X109688286Y-88775858D01*
X109693270Y-88706166D01*
X109735142Y-88650233D01*
X109800606Y-88625816D01*
X109809452Y-88625500D01*
X125164892Y-88625500D01*
X125231931Y-88645185D01*
G37*
%TD.AperFunction*%
%TA.AperFunction,Conductor*%
G36*
X111615270Y-95761717D02*
G01*
X111615270Y-95761716D01*
X111654622Y-95707555D01*
X111665577Y-95686053D01*
X111713550Y-95635255D01*
X111781370Y-95618458D01*
X111847506Y-95640993D01*
X111890959Y-95695706D01*
X111892857Y-95700687D01*
X111895910Y-95709248D01*
X111898537Y-95722452D01*
X111912347Y-95755792D01*
X111913532Y-95758654D01*
X111913535Y-95758661D01*
X111945685Y-95836280D01*
X111945687Y-95836283D01*
X111945688Y-95836286D01*
X111967658Y-95869166D01*
X111979328Y-95886630D01*
X111979329Y-95886632D01*
X112014141Y-95938733D01*
X112105586Y-96030178D01*
X112105608Y-96030198D01*
X113157571Y-97082161D01*
X113191056Y-97143484D01*
X113187822Y-97208158D01*
X113182753Y-97223757D01*
X113149500Y-97433713D01*
X113149500Y-97646286D01*
X113182753Y-97856240D01*
X113233422Y-98012182D01*
X113234225Y-98040301D01*
X113238229Y-98068147D01*
X113235209Y-98074758D01*
X113235417Y-98082023D01*
X113220890Y-98106112D01*
X113209204Y-98131703D01*
X113203090Y-98135632D01*
X113199337Y-98141856D01*
X113174090Y-98154268D01*
X113150426Y-98169477D01*
X113140155Y-98170953D01*
X113136636Y-98172684D01*
X113115491Y-98174500D01*
X113042350Y-98174500D01*
X112975311Y-98154815D01*
X112973459Y-98153602D01*
X112879184Y-98090609D01*
X112879172Y-98090602D01*
X112733501Y-98030264D01*
X112733489Y-98030261D01*
X112578845Y-97999500D01*
X112578842Y-97999500D01*
X112421158Y-97999500D01*
X112421155Y-97999500D01*
X112266510Y-98030261D01*
X112266498Y-98030264D01*
X112120827Y-98090602D01*
X112120814Y-98090609D01*
X111989711Y-98178210D01*
X111933299Y-98234622D01*
X111871975Y-98268106D01*
X111802283Y-98263121D01*
X111746350Y-98221250D01*
X111721934Y-98155785D01*
X111735134Y-98090644D01*
X111751555Y-98058416D01*
X111751556Y-98058414D01*
X111751557Y-98058412D01*
X111817246Y-97856243D01*
X111850500Y-97646287D01*
X111850500Y-97433713D01*
X111817246Y-97223757D01*
X111751557Y-97021588D01*
X111655051Y-96832184D01*
X111655049Y-96832181D01*
X111655048Y-96832179D01*
X111530109Y-96660213D01*
X111379786Y-96509890D01*
X111207817Y-96384949D01*
X111198504Y-96380204D01*
X111147707Y-96332230D01*
X111130912Y-96264409D01*
X111153449Y-96198274D01*
X111198507Y-96159232D01*
X111207555Y-96154622D01*
X111261716Y-96115270D01*
X111261717Y-96115270D01*
X110629408Y-95482962D01*
X110692993Y-95465925D01*
X110807007Y-95400099D01*
X110900099Y-95307007D01*
X110965925Y-95192993D01*
X110982962Y-95129408D01*
X111615270Y-95761717D01*
G37*
%TD.AperFunction*%
%TA.AperFunction,Conductor*%
G36*
X108756587Y-89645185D02*
G01*
X108777229Y-89661819D01*
X111838181Y-92722771D01*
X111871666Y-92784094D01*
X111874500Y-92810452D01*
X111874500Y-94213448D01*
X111854815Y-94280487D01*
X111802011Y-94326242D01*
X111732853Y-94336186D01*
X111669297Y-94307161D01*
X111650182Y-94286333D01*
X111615271Y-94238282D01*
X111615269Y-94238282D01*
X110982962Y-94870590D01*
X110965925Y-94807007D01*
X110900099Y-94692993D01*
X110807007Y-94599901D01*
X110692993Y-94534075D01*
X110629409Y-94517037D01*
X111261716Y-93884728D01*
X111207550Y-93845375D01*
X111018217Y-93748904D01*
X110816129Y-93683242D01*
X110606246Y-93650000D01*
X110393754Y-93650000D01*
X110183872Y-93683242D01*
X110183869Y-93683242D01*
X109981782Y-93748904D01*
X109792439Y-93845380D01*
X109738282Y-93884727D01*
X109738282Y-93884728D01*
X110370591Y-94517037D01*
X110307007Y-94534075D01*
X110192993Y-94599901D01*
X110099901Y-94692993D01*
X110034075Y-94807007D01*
X110017037Y-94870591D01*
X109384728Y-94238282D01*
X109384727Y-94238282D01*
X109345380Y-94292439D01*
X109248904Y-94481782D01*
X109183242Y-94683869D01*
X109183242Y-94683872D01*
X109150000Y-94893753D01*
X109150000Y-95106246D01*
X109183242Y-95316127D01*
X109183242Y-95316130D01*
X109248904Y-95518217D01*
X109345375Y-95707550D01*
X109384728Y-95761716D01*
X110017037Y-95129408D01*
X110034075Y-95192993D01*
X110099901Y-95307007D01*
X110192993Y-95400099D01*
X110307007Y-95465925D01*
X110370590Y-95482962D01*
X109738282Y-96115269D01*
X109738282Y-96115270D01*
X109792452Y-96154626D01*
X109792451Y-96154626D01*
X109801495Y-96159234D01*
X109852292Y-96207208D01*
X109869087Y-96275029D01*
X109846550Y-96341164D01*
X109801499Y-96380202D01*
X109792182Y-96384949D01*
X109620213Y-96509890D01*
X109469890Y-96660213D01*
X109344951Y-96832179D01*
X109248444Y-97021585D01*
X109182753Y-97223760D01*
X109149500Y-97433713D01*
X109149500Y-97646286D01*
X109182754Y-97856246D01*
X109187821Y-97871840D01*
X109188255Y-97887051D01*
X109193574Y-97901311D01*
X109189232Y-97921266D01*
X109189816Y-97941681D01*
X109181727Y-97955768D01*
X109178722Y-97969583D01*
X109157574Y-97997834D01*
X109017227Y-98138182D01*
X108955907Y-98171666D01*
X108929548Y-98174500D01*
X107884509Y-98174500D01*
X107817470Y-98154815D01*
X107771715Y-98102011D01*
X107761771Y-98032853D01*
X107766578Y-98012182D01*
X107793371Y-97929722D01*
X107817246Y-97856243D01*
X107850500Y-97646287D01*
X107850500Y-97433713D01*
X107817246Y-97223757D01*
X107751557Y-97021588D01*
X107655051Y-96832184D01*
X107655049Y-96832181D01*
X107655048Y-96832179D01*
X107530109Y-96660213D01*
X107379786Y-96509890D01*
X107207817Y-96384949D01*
X107198504Y-96380204D01*
X107147707Y-96332230D01*
X107130912Y-96264409D01*
X107153449Y-96198274D01*
X107198507Y-96159232D01*
X107207555Y-96154622D01*
X107261716Y-96115270D01*
X107261717Y-96115270D01*
X106629408Y-95482962D01*
X106692993Y-95465925D01*
X106807007Y-95400099D01*
X106900099Y-95307007D01*
X106965925Y-95192993D01*
X106982962Y-95129408D01*
X107615270Y-95761717D01*
X107615270Y-95761716D01*
X107654622Y-95707554D01*
X107751095Y-95518217D01*
X107816757Y-95316130D01*
X107816757Y-95316127D01*
X107850000Y-95106246D01*
X107850000Y-94893753D01*
X107816757Y-94683872D01*
X107816757Y-94683869D01*
X107751095Y-94481782D01*
X107654624Y-94292449D01*
X107615270Y-94238282D01*
X107615269Y-94238282D01*
X106982962Y-94870590D01*
X106965925Y-94807007D01*
X106900099Y-94692993D01*
X106807007Y-94599901D01*
X106692993Y-94534075D01*
X106629409Y-94517037D01*
X107261716Y-93884728D01*
X107207550Y-93845375D01*
X107018217Y-93748904D01*
X106816129Y-93683242D01*
X106606246Y-93650000D01*
X106393754Y-93650000D01*
X106183872Y-93683242D01*
X106183869Y-93683242D01*
X105981782Y-93748904D01*
X105792439Y-93845380D01*
X105738282Y-93884727D01*
X105738282Y-93884728D01*
X106370591Y-94517037D01*
X106307007Y-94534075D01*
X106192993Y-94599901D01*
X106099901Y-94692993D01*
X106034075Y-94807007D01*
X106017037Y-94870591D01*
X105384728Y-94238282D01*
X105384727Y-94238282D01*
X105345380Y-94292439D01*
X105248904Y-94481782D01*
X105183242Y-94683869D01*
X105183242Y-94683872D01*
X105150000Y-94893753D01*
X105150000Y-95006048D01*
X105130315Y-95073087D01*
X105077511Y-95118842D01*
X105008353Y-95128786D01*
X104944797Y-95099761D01*
X104938319Y-95093729D01*
X104393150Y-94548560D01*
X104385860Y-94541270D01*
X104385858Y-94541267D01*
X104298733Y-94454142D01*
X104247509Y-94419915D01*
X104196286Y-94385688D01*
X104196283Y-94385686D01*
X104196280Y-94385685D01*
X104122603Y-94355168D01*
X104122601Y-94355167D01*
X104115792Y-94352347D01*
X104082452Y-94338537D01*
X104022029Y-94326518D01*
X104017306Y-94325578D01*
X104017304Y-94325578D01*
X103961610Y-94314500D01*
X103961607Y-94314500D01*
X103961606Y-94314500D01*
X100499481Y-94314500D01*
X100432442Y-94294815D01*
X100393942Y-94255596D01*
X100390799Y-94250500D01*
X100385340Y-94241650D01*
X100263350Y-94119660D01*
X100130187Y-94037524D01*
X100116522Y-94029095D01*
X100116517Y-94029093D01*
X100116516Y-94029092D01*
X99952753Y-93974826D01*
X99952751Y-93974825D01*
X99851678Y-93964500D01*
X99253330Y-93964500D01*
X99253312Y-93964501D01*
X99152247Y-93974825D01*
X98988484Y-94029092D01*
X98988481Y-94029093D01*
X98841648Y-94119661D01*
X98727681Y-94233629D01*
X98666358Y-94267114D01*
X98596666Y-94262130D01*
X98552319Y-94233629D01*
X98438351Y-94119661D01*
X98438350Y-94119660D01*
X98325668Y-94050157D01*
X98291518Y-94029093D01*
X98291513Y-94029091D01*
X98290069Y-94028612D01*
X98127753Y-93974826D01*
X98127751Y-93974825D01*
X98026678Y-93964500D01*
X97428330Y-93964500D01*
X97428312Y-93964501D01*
X97327247Y-93974825D01*
X97163484Y-94029092D01*
X97163481Y-94029093D01*
X97068571Y-94087635D01*
X97016650Y-94119660D01*
X97016648Y-94119661D01*
X97010503Y-94123452D01*
X97009805Y-94122321D01*
X96994940Y-94128317D01*
X96975028Y-94141137D01*
X96963135Y-94141146D01*
X96952106Y-94145595D01*
X96928841Y-94141173D01*
X96905159Y-94141192D01*
X96891320Y-94134042D01*
X96883465Y-94132549D01*
X96873042Y-94126555D01*
X96865238Y-94121548D01*
X96863350Y-94119660D01*
X96835981Y-94102779D01*
X96835042Y-94102176D01*
X96812823Y-94076574D01*
X96790178Y-94051397D01*
X96789896Y-94050157D01*
X96789246Y-94049408D01*
X96788406Y-94043601D01*
X96778000Y-93997808D01*
X96778000Y-92157952D01*
X96797685Y-92090913D01*
X96814319Y-92070271D01*
X99222771Y-89661819D01*
X99284094Y-89628334D01*
X99310452Y-89625500D01*
X108689548Y-89625500D01*
X108756587Y-89645185D01*
G37*
%TD.AperFunction*%
%TA.AperFunction,Conductor*%
G36*
X138025469Y-87631435D02*
G01*
X138046511Y-87632563D01*
X138058325Y-87641082D01*
X138072296Y-87645185D01*
X138086090Y-87661105D01*
X138103182Y-87673430D01*
X138108514Y-87686983D01*
X138118051Y-87697989D01*
X138121049Y-87718840D01*
X138128764Y-87738448D01*
X138127434Y-87763246D01*
X138127995Y-87767147D01*
X138126874Y-87773692D01*
X138099500Y-87911306D01*
X138099500Y-88088695D01*
X138134103Y-88262658D01*
X138134106Y-88262667D01*
X138201983Y-88426540D01*
X138201990Y-88426553D01*
X138300535Y-88574034D01*
X138300538Y-88574038D01*
X138425961Y-88699461D01*
X138425965Y-88699464D01*
X138573446Y-88798009D01*
X138573459Y-88798016D01*
X138652374Y-88830703D01*
X138737334Y-88865894D01*
X138737336Y-88865894D01*
X138737341Y-88865896D01*
X138911304Y-88900499D01*
X138911307Y-88900500D01*
X138911309Y-88900500D01*
X139088693Y-88900500D01*
X139088694Y-88900499D01*
X139160712Y-88886174D01*
X139262658Y-88865896D01*
X139262661Y-88865894D01*
X139262666Y-88865894D01*
X139426547Y-88798013D01*
X139426550Y-88798010D01*
X139426552Y-88798010D01*
X139466378Y-88771399D01*
X139533055Y-88750520D01*
X139535270Y-88750500D01*
X146637770Y-88750500D01*
X146704809Y-88770185D01*
X146725451Y-88786819D01*
X150213181Y-92274548D01*
X150246666Y-92335871D01*
X150249500Y-92362229D01*
X150249500Y-96065500D01*
X150229815Y-96132539D01*
X150177011Y-96178294D01*
X150125505Y-96189500D01*
X150102132Y-96189500D01*
X150102123Y-96189501D01*
X150042516Y-96195908D01*
X149907671Y-96246202D01*
X149907664Y-96246206D01*
X149792455Y-96332452D01*
X149792452Y-96332455D01*
X149706206Y-96447664D01*
X149706203Y-96447669D01*
X149657189Y-96579083D01*
X149615317Y-96635016D01*
X149549853Y-96659433D01*
X149481580Y-96644581D01*
X149453326Y-96623430D01*
X149339786Y-96509890D01*
X149167820Y-96384951D01*
X148978414Y-96288444D01*
X148978413Y-96288443D01*
X148978412Y-96288443D01*
X148776243Y-96222754D01*
X148776241Y-96222753D01*
X148776240Y-96222753D01*
X148611531Y-96196666D01*
X148566287Y-96189500D01*
X148353713Y-96189500D01*
X148308469Y-96196666D01*
X148143760Y-96222753D01*
X147941585Y-96288444D01*
X147752179Y-96384951D01*
X147580213Y-96509890D01*
X147429892Y-96660211D01*
X147373097Y-96738385D01*
X147368765Y-96741725D01*
X147366492Y-96746703D01*
X147341389Y-96762835D01*
X147317767Y-96781051D01*
X147311095Y-96782303D01*
X147307714Y-96784477D01*
X147272779Y-96789500D01*
X147107221Y-96789500D01*
X147040182Y-96769815D01*
X147006903Y-96738385D01*
X146950107Y-96660211D01*
X146799786Y-96509890D01*
X146627820Y-96384951D01*
X146438414Y-96288444D01*
X146438413Y-96288443D01*
X146438412Y-96288443D01*
X146236243Y-96222754D01*
X146236241Y-96222753D01*
X146236240Y-96222753D01*
X146071531Y-96196666D01*
X146026287Y-96189500D01*
X145813713Y-96189500D01*
X145768469Y-96196666D01*
X145603760Y-96222753D01*
X145401585Y-96288444D01*
X145212179Y-96384951D01*
X145040213Y-96509890D01*
X144889892Y-96660211D01*
X144833097Y-96738385D01*
X144828765Y-96741725D01*
X144826492Y-96746703D01*
X144801389Y-96762835D01*
X144777767Y-96781051D01*
X144771095Y-96782303D01*
X144767714Y-96784477D01*
X144732779Y-96789500D01*
X144567221Y-96789500D01*
X144500182Y-96769815D01*
X144466903Y-96738385D01*
X144410107Y-96660211D01*
X144259786Y-96509890D01*
X144087820Y-96384951D01*
X143898414Y-96288444D01*
X143898413Y-96288443D01*
X143898412Y-96288443D01*
X143696243Y-96222754D01*
X143696241Y-96222753D01*
X143696240Y-96222753D01*
X143531531Y-96196666D01*
X143486287Y-96189500D01*
X143273713Y-96189500D01*
X143228469Y-96196666D01*
X143063760Y-96222753D01*
X142861585Y-96288444D01*
X142672179Y-96384951D01*
X142500213Y-96509890D01*
X142349894Y-96660209D01*
X142349890Y-96660214D01*
X142322158Y-96698385D01*
X142266829Y-96741051D01*
X142221840Y-96749500D01*
X135764499Y-96749500D01*
X135697460Y-96729815D01*
X135651705Y-96677011D01*
X135640499Y-96625500D01*
X135640499Y-96552129D01*
X135640498Y-96552123D01*
X135640497Y-96552116D01*
X135634091Y-96492517D01*
X135620933Y-96457239D01*
X135583797Y-96357671D01*
X135583793Y-96357664D01*
X135497547Y-96242455D01*
X135497544Y-96242452D01*
X135382335Y-96156206D01*
X135382329Y-96156203D01*
X135331552Y-96137264D01*
X135275619Y-96095392D01*
X135251202Y-96029927D01*
X135266054Y-95961655D01*
X135287206Y-95933401D01*
X135308242Y-95912365D01*
X135437815Y-95734022D01*
X135537895Y-95537606D01*
X135606015Y-95327951D01*
X135640500Y-95110222D01*
X135640500Y-94889778D01*
X135606015Y-94672049D01*
X135550114Y-94500000D01*
X135537896Y-94462396D01*
X135537895Y-94462393D01*
X135493110Y-94374500D01*
X135437815Y-94265978D01*
X135414312Y-94233629D01*
X135308247Y-94087641D01*
X135308243Y-94087636D01*
X135152359Y-93931752D01*
X135039846Y-93850008D01*
X134997180Y-93794679D01*
X134991201Y-93725065D01*
X135023806Y-93663270D01*
X135037486Y-93651416D01*
X135037514Y-93651066D01*
X134369409Y-92982962D01*
X134432993Y-92965925D01*
X134547007Y-92900099D01*
X134640099Y-92807007D01*
X134705925Y-92692993D01*
X134722962Y-92629409D01*
X135391066Y-93297514D01*
X135391066Y-93297513D01*
X135437386Y-93233760D01*
X135537432Y-93037410D01*
X135605526Y-92827835D01*
X135640000Y-92610181D01*
X135640000Y-92389818D01*
X135605526Y-92172164D01*
X135537432Y-91962589D01*
X135437388Y-91766243D01*
X135391066Y-91702485D01*
X135391065Y-91702485D01*
X134722962Y-92370589D01*
X134705925Y-92307007D01*
X134640099Y-92192993D01*
X134547007Y-92099901D01*
X134432993Y-92034075D01*
X134369407Y-92017037D01*
X135037513Y-91348932D01*
X134973756Y-91302611D01*
X134777410Y-91202567D01*
X134567835Y-91134473D01*
X134350181Y-91100000D01*
X134129819Y-91100000D01*
X133912164Y-91134473D01*
X133702589Y-91202567D01*
X133506233Y-91302616D01*
X133442485Y-91348931D01*
X133442485Y-91348932D01*
X134110590Y-92017037D01*
X134047007Y-92034075D01*
X133932993Y-92099901D01*
X133839901Y-92192993D01*
X133774075Y-92307007D01*
X133757037Y-92370591D01*
X133088932Y-91702485D01*
X133088931Y-91702485D01*
X133042616Y-91766233D01*
X132942567Y-91962589D01*
X132874473Y-92172164D01*
X132840000Y-92389818D01*
X132840000Y-92416047D01*
X132820315Y-92483086D01*
X132767511Y-92528841D01*
X132698353Y-92538785D01*
X132634797Y-92509760D01*
X132628319Y-92503728D01*
X132061819Y-91937228D01*
X132028334Y-91875905D01*
X132025500Y-91849547D01*
X132025500Y-89367741D01*
X132025501Y-89367720D01*
X132025501Y-89238391D01*
X132003107Y-89125816D01*
X132001463Y-89117549D01*
X131954312Y-89003715D01*
X131885858Y-88901267D01*
X131885855Y-88901263D01*
X130821771Y-87837181D01*
X130788286Y-87775858D01*
X130793270Y-87706167D01*
X130835141Y-87650233D01*
X130900606Y-87625816D01*
X130909452Y-87625500D01*
X138005257Y-87625500D01*
X138025469Y-87631435D01*
G37*
%TD.AperFunction*%
%TD*%
M02*
